<?xml version="1.0" encoding="utf-8"?>
<!-- Generator: Adobe Illustrator 12.0.1, SVG Export Plug-In . SVG Version: 6.00 Build 51448)  -->
<!DOCTYPE svg PUBLIC "-//W3C//DTD SVG 1.1//EN" "http://www.w3.org/Graphics/SVG/1.1/DTD/svg11.dtd" [
	<!ENTITY ns_svg "http://www.w3.org/2000/svg">
	<!ENTITY ns_xlink "http://www.w3.org/1999/xlink">
]>
<svg  version="1.1" id="g3427" xmlns="&ns_svg;" xmlns:xlink="&ns_xlink;" width="595.275" height="841.89"
	 viewBox="0 0 595.275 841.89" overflow="visible" enable-background="new 0 0 595.275 841.89" xml:space="preserve">
<g id="Background" sodipodi:docname="By_plain.svg" sodipodi:docbase="/Users/rebecca/Documents/creative_commons/imagemarkers/plain" inkscape:export-xdpi="72" inkscape:export-ydpi="72" xmlns:rdf="http://www.w3.org/1999/02/22-rdf-syntax-ns#" inkscape:output_extension="org.inkscape.output.svg.inkscape" xmlns:sodipodi="http://sodipodi.sourceforge.net/DTD/sodipodi-0.dtd" inkscape:export-filename="/Users/rebecca/Documents/creativecommons/marking/markers/png/72/By_plain72.png" inkscape:version="0.45+devel" sodipodi:version="0.32" xmlns:inkscape="http://www.inkscape.org/namespaces/inkscape" xmlns:svg="http://www.w3.org/2000/svg" xmlns:cc="http://web.resource.org/cc/" xmlns:dc="http://purl.org/dc/elements/1.1/">
	
		<sodipodi:namedview  inkscape:current-layer="layer1" inkscape:zoom="1.2" showborder="true" bordercolor="#666666" inkscape:pageshadow="2" inkscape:window-y="43" pagecolor="#ffffff" inkscape:document-units="px" inkscape:cy="30" id="base" inkscape:window-width="832" inkscape:window-height="619" inkscape:window-x="291" inkscape:cx="242.47963" inkscape:pageopacity="0.0" borderopacity="1.0">
		</sodipodi:namedview>
	
		<g id="g24834" transform="matrix(0.3864876,0,0,0.3864876,-114.37345,20.532194)" inkscape:export-xdpi="200" inkscape:export-ydpi="200" inkscape:export-filename="/Users/rebecca/Documents/creative_commons/imagemarkers/by-nc-nd_plain.png">
		<text transform="matrix(2.5874 0 0 2.5874 438.7212 143.7286)" enable-background="new    "><tspan x="0" y="0" font-family="'ArialMT'" font-size="7.7298">Under the licence, the presentation is available for </tspan><tspan x="-18.252" y="9.276" font-family="'ArialMT'" font-size="7.7298">you </tspan><tspan x="-3.642" y="9.276" font-family="'Arial-BoldMT'" font-size="7.7298">to share</tspan><tspan x="26.428" y="9.276" font-family="'ArialMT'" font-size="7.7298"> (including copying, distributing and transmiting) </tspan><tspan x="-18.903" y="18.551" font-family="'ArialMT'" font-size="7.7298">and for you </tspan><tspan x="21.919" y="18.551" font-family="'Arial-BoldMT'" font-size="7.7298">to remix</tspan><tspan x="51.989" y="18.551" font-family="'ArialMT'" font-size="7.7298"> (including adaptating and transforming).</tspan></text>
	</g>
</g>
<g id="Guides">
</g>
<g id="g2750">
	<g>
		<path d="M167.936,18.03c6.147,0,11.354,2.132,15.619,6.397c4.264,4.238,6.396,9.432,6.396,15.579
			c0,6.148-2.094,11.302-6.279,15.461c-4.421,4.343-9.667,6.514-15.736,6.514c-5.939,0-11.093-2.158-15.461-6.475
			c-4.316-4.316-6.476-9.483-6.476-15.5c0-5.99,2.159-11.184,6.476-15.579C156.738,20.163,161.893,18.03,167.936,18.03z
			 M168.015,21.994c-4.998,0-9.223,1.766-12.676,5.298c-3.585,3.636-5.376,7.874-5.376,12.714c0,4.893,1.778,9.104,5.337,12.636
			c3.558,3.558,7.796,5.336,12.715,5.336c4.892,0,9.156-1.791,12.793-5.376c3.454-3.349,5.18-7.548,5.18-12.597
			c0-5.023-1.753-9.261-5.258-12.714C177.25,23.76,173.011,21.994,168.015,21.994z M182.338,40.398l0.431,0.197v6.2l-0.392,0.196
			l-5.337,2.277l-0.235,0.078l-0.274-0.078l-11.498-4.749l-0.393-0.157l-5.691,2.355l-5.611-2.434v-5.651l5.259-2.197l-0.04-0.039
			v-6.201l5.965-2.629l13.46,5.573v5.455L182.338,40.398z M176.099,47.62v-3.885h-0.04v-0.158l-10.085-4.121v4.003l10.085,4.16
			v-0.04L176.099,47.62z M176.766,42.518l3.532-1.453l-3.257-1.373l-3.454,1.452L176.766,42.518z M181.396,45.893v-3.806
			l-3.924,1.648v3.845L181.396,45.893z"/>
	</g>
	<g>
		<path d="M107.436,16.697c6.101,0,11.268,2.116,15.5,6.348c4.231,4.206,6.348,9.36,6.348,15.46c0,6.102-2.078,11.216-6.231,15.345
			c-4.388,4.311-9.594,6.465-15.617,6.465c-5.895,0-11.009-2.142-15.344-6.426c-4.284-4.284-6.426-9.411-6.426-15.384
			c0-5.945,2.143-11.099,6.426-15.46C96.323,18.814,101.438,16.697,107.436,16.697z M107.514,20.631
			c-4.96,0-9.153,1.752-12.579,5.257c-3.558,3.609-5.336,7.815-5.336,12.618c0,4.856,1.765,9.036,5.296,12.542
			c3.531,3.531,7.737,5.296,12.619,5.296c4.854,0,9.086-1.778,12.696-5.335c3.427-3.323,5.141-7.491,5.141-12.502
			c0-4.985-1.739-9.191-5.219-12.618C116.679,22.383,112.473,20.631,107.514,20.631z M116.394,32.275
			c0.337,0,0.623,0.117,0.856,0.35c0.233,0.234,0.351,0.52,0.351,0.857v16.045c0,0.338-0.117,0.623-0.351,0.857
			c-0.233,0.234-0.52,0.351-0.856,0.351h-11.878c-0.338,0-0.623-0.117-0.857-0.351c-0.233-0.234-0.35-0.519-0.35-0.857v-4.751
			h-4.752c-0.338,0-0.623-0.117-0.857-0.351c-0.233-0.233-0.35-0.52-0.35-0.857V27.524c0-0.312,0.104-0.578,0.312-0.798
			c0.208-0.22,0.467-0.356,0.779-0.409h0.117h11.878c0.337,0,0.623,0.117,0.857,0.35c0.233,0.234,0.35,0.52,0.35,0.857v4.751
			H116.394z M99.725,42.401h3.583v-8.918c0-0.312,0.103-0.577,0.312-0.798c0.208-0.22,0.454-0.357,0.74-0.409h0.156h4.751v-3.544
			h-9.542V42.401z M115.225,34.651h-9.542v13.67h9.542V34.651z"/>
	</g>
</g>
</svg>
