<?xml version="1.0" encoding="UTF-8" standalone="no"?>
<!-- Created with Inkscape (http://www.inkscape.org/) -->
<svg
   xmlns:dc="http://purl.org/dc/elements/1.1/"
   xmlns:cc="http://web.resource.org/cc/"
   xmlns:rdf="http://www.w3.org/1999/02/22-rdf-syntax-ns#"
   xmlns:svg="http://www.w3.org/2000/svg"
   xmlns="http://www.w3.org/2000/svg"
   xmlns:sodipodi="http://sodipodi.sourceforge.net/DTD/sodipodi-0.dtd"
   xmlns:inkscape="http://www.inkscape.org/namespaces/inkscape"
   width="468px"
   height="60px"
   id="svg28920"
   sodipodi:version="0.32"
   inkscape:version="0.45.1"
   inkscape:export-filename="/Users/rebecca/Documents/creative_commons/imagemarkers/plain/png/by-nd_plain72.png"
   inkscape:export-xdpi="72"
   inkscape:export-ydpi="72"
   sodipodi:docbase="/Users/rebecca/Documents/creative_commons/imagemarkers/plain/svg"
   sodipodi:docname="by-nd_plain.svg"
   inkscape:output_extension="org.inkscape.output.svg.inkscape">
  <defs
     id="defs28922" />
  <sodipodi:namedview
     id="base"
     pagecolor="#ffffff"
     bordercolor="#666666"
     borderopacity="1.0"
     inkscape:pageopacity="0.0"
     inkscape:pageshadow="2"
     inkscape:zoom="2.4"
     inkscape:cx="242.47963"
     inkscape:cy="30"
     inkscape:document-units="px"
     inkscape:current-layer="layer1"
     showborder="true"
     inkscape:window-width="832"
     inkscape:window-height="581"
     inkscape:window-x="30"
     inkscape:window-y="62" />
  <metadata
     id="metadata28925">
    <rdf:RDF>
      <cc:Work
         rdf:about="">
        <dc:format>image/svg+xml</dc:format>
        <dc:type
           rdf:resource="http://purl.org/dc/dcmitype/StillImage" />
      </cc:Work>
    </rdf:RDF>
  </metadata>
  <g
     id="layer1"
     inkscape:label="Layer 1"
     inkscape:groupmode="layer">
    <g
       style="fill:#000000;fill-opacity:1"
       id="g6307"
       transform="matrix(0.2716088,0,0,0.2716129,127.35754,-28.449424)">
      <path
         d="M 40.61133,208.38574 C 40.61133,207.24414 39.68457,206.31933 38.54492,206.31933 L 25.45557,206.31933 C 24.31446,206.31933 23.38916,207.24413 23.38916,208.38574 L 23.38916,221.47558 L 27.04004,221.47558 L 27.04004,236.97558 L 36.95996,236.97558 L 36.95996,221.47558 L 40.61133,221.47558 L 40.61133,208.38574 L 40.61133,208.38574 z "
         id="path6309"
         style="fill:#000000;fill-opacity:1" />
      <circle
         cx="32"
         cy="200.11914"
         r="4.47754"
         id="circle6311"
         sodipodi:cx="32"
         sodipodi:cy="200.11914"
         sodipodi:rx="4.47754"
         sodipodi:ry="4.47754"
         style="fill:#000000;fill-opacity:1" />
      <path
         clip-rule="evenodd"
         d="M 31.95996,184.30859 C 23.09521,184.30859 15.5918,187.40136 9.45166,193.58789 C 3.14941,199.98828 0,207.56152 0,216.30859 C 0,225.05468 3.14941,232.57617 9.45166,238.86914 C 15.75195,245.16211 23.25537,248.30859 31.95996,248.30859 C 40.77051,248.30859 48.40723,245.13671 54.86914,238.78906 C 60.95605,232.76367 64.00098,225.26953 64.00098,216.30859 C 64.00098,207.34765 60.90332,199.77441 54.70899,193.58789 C 48.51367,187.40137 40.93066,184.30859 31.95996,184.30859 z M 32.04004,190.06738 C 39.30274,190.06738 45.46973,192.62695 50.54395,197.74804 C 55.66993,202.81445 58.23243,209.00097 58.23243,216.30859 C 58.23243,223.66797 55.72364,229.77539 50.70313,234.6289 C 45.41602,239.85546 39.19532,242.46874 32.04004,242.46874 C 24.8833,242.46874 18.71582,239.8828 13.53613,234.70897 C 8.35644,229.53514 5.7666,223.40234 5.7666,216.30859 C 5.7666,209.21484 8.3833,203.02832 13.6167,197.74804 C 18.63672,192.62695 24.77686,190.06738 32.04004,190.06738 z "
         id="path6313"
         style="fill:#000000;fill-opacity:1;fill-rule:evenodd" />
    </g>
    <g
       transform="matrix(0.2716854,0,0,0.2716854,151.17831,-78.539061)"
       id="g5">
      <path
         clip-rule="evenodd"
         d="M 31.95898,368.61719 C 23.09521,368.61719 15.59179,371.70899 9.45166,377.89649 C 3.14941,384.29688 0,391.86914 0,400.61719 C 0,409.36328 3.14941,416.88477 9.45166,423.17578 C 15.75195,429.4707 23.25537,432.61719 31.95898,432.61719 C 40.77002,432.61719 48.40673,429.44336 54.86865,423.09766 C 60.95556,417.07032 64.00049,409.57618 64.00049,400.61719 C 64.00049,391.65625 60.90283,384.08203 54.7085,377.89649 C 48.51318,371.70898 40.93018,368.61719 31.95898,368.61719 z M 32.03955,374.375 C 39.30225,374.375 45.46924,376.93555 50.54346,382.05664 C 55.66944,387.12305 58.23194,393.30859 58.23194,400.61719 C 58.23194,407.97657 55.72315,414.08399 50.70264,418.9375 C 45.41553,424.16406 39.19483,426.77539 32.03955,426.77539 C 24.8833,426.77539 18.71582,424.18945 13.53613,419.01562 C 8.35644,413.84179 5.7666,407.70898 5.7666,400.61719 C 5.7666,393.52149 8.3833,387.33594 13.6167,382.05664 C 18.63672,376.93555 24.77686,374.375 32.03955,374.375 z "
         id="path7"
         style="fill-rule:evenodd" />
      <g
         id="g9">
        <path
           clip-rule="evenodd"
           d="M 44.09033,393.0332 L 20.82959,393.0332 L 20.82959,398.54297 L 44.09033,398.54297 L 44.09033,393.0332 L 44.09033,393.0332 z M 44.09033,403.31641 L 20.82959,403.31641 L 20.82959,408.82618 L 44.09033,408.82618 L 44.09033,403.31641 L 44.09033,403.31641 z "
           id="path11"
           style="fill-rule:evenodd" />
      </g>
    </g>
    <g
       id="g24834"
       transform="matrix(0.3864876,0,0,0.3864876,-114.37345,20.532194)"
       inkscape:export-filename="/Users/rebecca/Documents/creative_commons/imagemarkers/by-nc-nd_plain.png"
       inkscape:export-xdpi="200"
       inkscape:export-ydpi="200">
      <text
         id="text6295"
         y="18.445837"
         x="742.46631"
         style="font-size:20px;fill:#000000;fill-opacity:1"
         xml:space="preserve"><tspan
           id="tspan6297"
           y="18.445837"
           x="742.46631"
           sodipodi:role="line">Except where otherwise noted, this work is licensed under </tspan></text>
      <text
         id="text6299"
         y="45.812576"
         x="742.66553"
         style="font-size:21px;font-weight:bold;fill:#000000;fill-opacity:1"
         xml:space="preserve"><tspan
           y="45.812576"
           x="742.66553"
           id="tspan6301"
           sodipodi:role="line">http://creativecommons.org/licenses/by-nd/3.0</tspan><tspan
           id="tspan6303"
           y="72.062576"
           x="742.66553"
           sodipodi:role="line" /></text>
    </g>
  </g>
</svg>
