<?xml version="1.0" encoding="utf-8"?>
<!-- Generator: Adobe Illustrator 12.0.1, SVG Export Plug-In . SVG Version: 6.00 Build 51448)  -->
<!DOCTYPE svg PUBLIC "-//W3C//DTD SVG 1.1//EN" "http://www.w3.org/Graphics/SVG/1.1/DTD/svg11.dtd" [
	<!ENTITY ns_svg "http://www.w3.org/2000/svg">
	<!ENTITY ns_xlink "http://www.w3.org/1999/xlink">
]>
<svg  version="1.1" id="g3427" xmlns="&ns_svg;" xmlns:xlink="&ns_xlink;" width="595.275" height="841.89"
	 viewBox="0 0 595.275 841.89" overflow="visible" enable-background="new 0 0 595.275 841.89" xml:space="preserve">
<g id="Background" sodipodi:docname="By_plain.svg" sodipodi:docbase="/Users/rebecca/Documents/creative_commons/imagemarkers/plain" inkscape:export-xdpi="72" inkscape:export-ydpi="72" xmlns:rdf="http://www.w3.org/1999/02/22-rdf-syntax-ns#" inkscape:output_extension="org.inkscape.output.svg.inkscape" xmlns:sodipodi="http://sodipodi.sourceforge.net/DTD/sodipodi-0.dtd" inkscape:export-filename="/Users/rebecca/Documents/creativecommons/marking/markers/png/72/By_plain72.png" inkscape:version="0.45+devel" sodipodi:version="0.32" xmlns:inkscape="http://www.inkscape.org/namespaces/inkscape" xmlns:svg="http://www.w3.org/2000/svg" xmlns:cc="http://web.resource.org/cc/" xmlns:dc="http://purl.org/dc/elements/1.1/">
	
		<sodipodi:namedview  inkscape:current-layer="layer1" inkscape:zoom="1.2" showborder="true" bordercolor="#666666" inkscape:pageshadow="2" inkscape:window-y="43" pagecolor="#ffffff" inkscape:document-units="px" inkscape:cy="30" id="base" inkscape:window-width="832" inkscape:window-height="619" inkscape:window-x="291" inkscape:cx="242.47963" inkscape:pageopacity="0.0" borderopacity="1.0">
		</sodipodi:namedview>
	<g id="g6307" transform="matrix(0.2716088,0,0,0.2716129,151.1807,-28.449422)">
		<path id="path6309" d="M83.526,231.959c0-2.882-2.333-5.215-5.21-5.215H45.299c-2.88,0-5.212,2.333-5.212,5.215v33.019h9.206
			v39.098h25.024v-39.098h9.208V231.959L83.526,231.959z"/>
		
			<circle id="circle6311" sodipodi:cx="32" sodipodi:ry="4.47754" sodipodi:cy="200.11914" sodipodi:rx="4.47754" cx="61.804" cy="211.106" r="11.295">
		</circle>
		<path id="path6313" d="M61.705,171.225c-22.36,0-41.29,7.8-56.774,23.408c-15.897,16.144-23.843,35.246-23.843,57.311
			c0,22.062,7.946,41.036,23.843,56.905c15.89,15.877,34.819,23.814,56.774,23.814c22.225,0,41.488-8,57.785-24.012
			c15.354-15.201,23.038-34.106,23.038-56.707c0-22.603-7.815-41.709-23.441-57.311C103.461,179.026,84.333,171.225,61.705,171.225z
			 M61.91,185.753c18.319,0,33.875,6.452,46.676,19.372c12.929,12.778,19.39,28.389,19.39,46.82
			c0,18.561-6.328,33.969-18.991,46.208c-13.339,13.188-29.028,19.78-47.076,19.78c-18.055,0-33.612-6.526-46.676-19.575
			C2.17,285.306-4.365,269.837-4.365,251.944c0-17.894,6.599-33.5,19.804-46.82C28.099,192.205,43.584,185.753,61.91,185.753z"/>
	</g>
	
		<g id="g24834" transform="matrix(0.3864876,0,0,0.3864876,-114.37345,20.532194)" inkscape:export-xdpi="200" inkscape:export-ydpi="200" inkscape:export-filename="/Users/rebecca/Documents/creative_commons/imagemarkers/by-nc-nd_plain.png">
		<text transform="matrix(2.5874 0 0 2.5874 374.971 143.7286)" enable-background="new    "><tspan x="0" y="0" font-family="'ArialMT'" font-size="7.7298">Except where otherwise noted, this presentation is licensed under</tspan><tspan x="20.851" y="9.276" font-family="'ArialMT'" font-size="7.7298">a Creative Commons Attribution 2.5 Australia licence.</tspan><tspan x="-0.13" y="19.015" font-family="'ArialMT'" font-size="7.7298">Full terms at </tspan><tspan x="44.539" y="19.015" font-family="'Arial-BoldMT'" font-size="8.1162">http://creativecommons.org/licenses/by/2.5/au</tspan><tspan x="222.703" y="19.015" font-family="'ArialMT'" font-size="7.7298"> </tspan></text>
	</g>
</g>
<g id="Guides">
</g>
<g id="g2750">
	<g id="g2755_1_">
		<path id="path2757_1_" d="M107.521,16.663c-6.016,0-11.308,2.223-15.398,6.368c-4.21,4.266-6.496,9.791-6.496,15.558
			c0,5.825,2.226,11.232,6.437,15.436c4.209,4.205,9.683,6.487,15.457,6.487c5.774,0,11.368-2.283,15.699-6.547
			c4.09-4.024,6.255-9.371,6.255-15.376c0-5.947-2.165-11.354-6.316-15.499C118.948,18.886,113.537,16.663,107.521,16.663z
			 M107.582,20.628c4.932,0,9.322,1.862,12.751,5.284c3.367,3.364,5.171,7.811,5.171,12.676c0,4.924-1.744,9.249-5.111,12.553
			c-3.55,3.484-8.12,5.346-12.812,5.346c-4.752,0-9.203-1.862-12.63-5.286c-3.429-3.424-5.354-7.929-5.354-12.613
			c0-4.746,1.925-9.25,5.354-12.735C98.317,22.43,102.648,20.628,107.582,20.628z"/>
		<path id="path2759_1_" d="M107.298,34.944c-1.241-2.257-3.357-3.156-5.812-3.156c-3.574,0-6.42,2.525-6.42,6.8
			c0,4.346,2.675,6.799,6.542,6.799c2.48,0,4.597-1.359,5.763-3.423l-2.723-1.385c-0.609,1.457-1.533,1.894-2.699,1.894
			c-2.019,0-2.943-1.675-2.943-3.884c0-2.211,0.777-3.887,2.943-3.887c0.582,0,1.75,0.316,2.431,1.772L107.298,34.944z"/>
		<path id="path2761_1_" d="M119.963,34.944c-1.24-2.257-3.356-3.156-5.812-3.156c-3.574,0-6.419,2.525-6.419,6.8
			c0,4.346,2.673,6.799,6.542,6.799c2.48,0,4.596-1.359,5.763-3.423l-2.723-1.385c-0.609,1.457-1.532,1.894-2.7,1.894
			c-2.018,0-2.942-1.675-2.942-3.884c0-2.211,0.779-3.887,2.942-3.887c0.584,0,1.75,0.316,2.432,1.772L119.963,34.944z"/>
	</g>
</g>
</svg>
