<?xml version="1.0" encoding="UTF-8" standalone="no"?>
<!-- Created with Inkscape (http://www.inkscape.org/) -->
<svg
   xmlns:dc="http://purl.org/dc/elements/1.1/"
   xmlns:cc="http://web.resource.org/cc/"
   xmlns:rdf="http://www.w3.org/1999/02/22-rdf-syntax-ns#"
   xmlns:svg="http://www.w3.org/2000/svg"
   xmlns="http://www.w3.org/2000/svg"
   xmlns:xlink="http://www.w3.org/1999/xlink"
   xmlns:sodipodi="http://sodipodi.sourceforge.net/DTD/sodipodi-0.dtd"
   xmlns:inkscape="http://www.inkscape.org/namespaces/inkscape"
   width="720px"
   height="486px"
   id="svg2160"
   sodipodi:version="0.32"
   inkscape:version="0.45.1"
   sodipodi:docbase="/Users/rebecca/Documents/creative_commons/videobumpers/simple/grad"
   sodipodi:docname="by-nc_grad.svg"
   inkscape:output_extension="org.inkscape.output.svg.inkscape"
   inkscape:export-filename="/Users/rebecca/Documents/creative_commons/videobumpers/simple/grad/png/by-nc_grad.png"
   inkscape:export-xdpi="90"
   inkscape:export-ydpi="90">
  <defs
     id="defs2162">
    <linearGradient
       id="linearGradient8212">
      <stop
         style="stop-color:#5e5322;stop-opacity:1;"
         offset="0"
         id="stop8214" />
      <stop
         id="stop8220"
         offset="0.5"
         style="stop-color:#b09a0f;stop-opacity:1;" />
      <stop
         style="stop-color:#edd612;stop-opacity:1;"
         offset="1"
         id="stop8216" />
    </linearGradient>
    <linearGradient
       id="linearGradient6151">
      <stop
         style="stop-color:#5e5322;stop-opacity:1;"
         offset="0"
         id="stop6153" />
      <stop
         id="stop6159"
         offset="0.5"
         style="stop-color:#5e5322;stop-opacity:0.49803922;" />
      <stop
         style="stop-color:#5e5322;stop-opacity:0;"
         offset="1"
         id="stop6155" />
    </linearGradient>
    <linearGradient
       inkscape:collect="always"
       xlink:href="#linearGradient8212"
       id="linearGradient8218"
       x1="398.66666"
       y1="619.02332"
       x2="398.66666"
       y2="-12.348995"
       gradientUnits="userSpaceOnUse" />
    <linearGradient
       inkscape:collect="always"
       xlink:href="#linearGradient8212"
       id="linearGradient8034"
       gradientUnits="userSpaceOnUse"
       x1="398.66666"
       y1="619.02332"
       x2="398.66666"
       y2="-12.348995" />
    <linearGradient
       inkscape:collect="always"
       xlink:href="#linearGradient8212"
       id="linearGradient8047"
       gradientUnits="userSpaceOnUse"
       x1="398.66666"
       y1="619.02332"
       x2="398.66666"
       y2="-12.348995" />
    <filter
       inkscape:collect="always"
       id="filter9052">
      <feGaussianBlur
         inkscape:collect="always"
         stdDeviation="4.0996183"
         id="feGaussianBlur9054" />
    </filter>
  </defs>
  <sodipodi:namedview
     id="base"
     pagecolor="#ffffff"
     bordercolor="#666666"
     borderopacity="1.0"
     inkscape:pageopacity="0.0"
     inkscape:pageshadow="2"
     inkscape:zoom="0.75"
     inkscape:cx="492.85007"
     inkscape:cy="215.38989"
     inkscape:document-units="px"
     inkscape:current-layer="layer1"
     inkscape:window-width="931"
     inkscape:window-height="622"
     inkscape:window-x="54"
     inkscape:window-y="22" />
  <metadata
     id="metadata2165">
    <rdf:RDF>
      <cc:Work
         rdf:about="">
        <dc:format>image/svg+xml</dc:format>
        <dc:type
           rdf:resource="http://purl.org/dc/dcmitype/StillImage" />
      </cc:Work>
    </rdf:RDF>
  </metadata>
  <g
     id="layer1"
     inkscape:label="Layer 1"
     inkscape:groupmode="layer">
    <rect
       style="fill:url(#linearGradient8047);fill-opacity:1;stroke-width:0.69999999;stroke-miterlimit:4;stroke-dasharray:none;stroke-opacity:1"
       id="rect2168"
       width="720"
       height="486"
       x="1.3333333"
       y="2"
       ry="0" />
    <g
       transform="translate(2,-0.2661046)"
       id="g8061"
       style="opacity:0.6;fill:#121513;filter:url(#filter9052)">
      <text
         xml:space="preserve"
         style="font-size:20px;fill:#121513"
         x="68.369469"
         y="321.69476"
         id="text8063"><tspan
           sodipodi:role="line"
           x="68.369469"
           y="321.69476"
           id="tspan8065">Except where otherwise noted, this work is licensed under </tspan></text>
      <g
         style="fill:#121513;fill-opacity:1"
         id="g8067"
         transform="matrix(2.0312189,0,0,2.03125,212.61291,-243.32602)">
        <path
           d="M 40.61133,208.38574 C 40.61133,207.24414 39.68457,206.31933 38.54492,206.31933 L 25.45557,206.31933 C 24.31446,206.31933 23.38916,207.24413 23.38916,208.38574 L 23.38916,221.47558 L 27.04004,221.47558 L 27.04004,236.97558 L 36.95996,236.97558 L 36.95996,221.47558 L 40.61133,221.47558 L 40.61133,208.38574 L 40.61133,208.38574 z "
           id="path8069"
           style="fill:#121513;fill-opacity:1" />
        <circle
           cx="32"
           cy="200.11914"
           r="4.47754"
           id="circle8071"
           sodipodi:cx="32"
           sodipodi:cy="200.11914"
           sodipodi:rx="4.47754"
           sodipodi:ry="4.47754"
           style="fill:#121513;fill-opacity:1" />
        <path
           clip-rule="evenodd"
           d="M 31.95996,184.30859 C 23.09521,184.30859 15.5918,187.40136 9.45166,193.58789 C 3.14941,199.98828 0,207.56152 0,216.30859 C 0,225.05468 3.14941,232.57617 9.45166,238.86914 C 15.75195,245.16211 23.25537,248.30859 31.95996,248.30859 C 40.77051,248.30859 48.40723,245.13671 54.86914,238.78906 C 60.95605,232.76367 64.00098,225.26953 64.00098,216.30859 C 64.00098,207.34765 60.90332,199.77441 54.70899,193.58789 C 48.51367,187.40137 40.93066,184.30859 31.95996,184.30859 z M 32.04004,190.06738 C 39.30274,190.06738 45.46973,192.62695 50.54395,197.74804 C 55.66993,202.81445 58.23243,209.00097 58.23243,216.30859 C 58.23243,223.66797 55.72364,229.77539 50.70313,234.6289 C 45.41602,239.85546 39.19532,242.46874 32.04004,242.46874 C 24.8833,242.46874 18.71582,239.8828 13.53613,234.70897 C 8.35644,229.53514 5.7666,223.40234 5.7666,216.30859 C 5.7666,209.21484 8.3833,203.02832 13.6167,197.74804 C 18.63672,192.62695 24.77686,190.06738 32.04004,190.06738 z "
           id="path8073"
           style="fill:#121513;fill-opacity:1;fill-rule:evenodd" />
      </g>
      <path
         style="fill:#121513;fill-opacity:1"
         d="M 443.63711,128.30525 C 461.85884,128.30525 477.26382,134.58744 489.84804,147.15382 C 502.42831,159.72219 508.72043,175.10533 508.72043,193.30525 C 508.72043,211.50517 502.53544,226.72765 490.17337,238.9687 C 477.0456,251.8604 461.53351,258.30525 443.63711,258.30525 C 425.9589,258.30525 410.71658,251.91594 397.91811,239.13137 C 385.11767,226.34877 378.72043,211.07077 378.72043,193.30525 C 378.72043,175.53973 385.11767,160.15462 397.91811,147.15382 C 410.39125,134.58744 425.63355,128.30525 443.63711,128.30525 z M 393.34382,175.84523 C 391.40382,181.33002 390.43381,187.15002 390.43381,193.30525 C 390.43381,207.71443 395.69443,220.1717 406.21567,230.67906 C 416.73889,241.1884 429.26362,246.44306 443.79975,246.44306 C 458.33588,246.44306 470.97167,241.13683 481.71112,230.51839 C 485.30548,227.04303 488.26507,223.25429 490.5899,219.14617 L 466.08795,208.23414 C 464.42565,216.47816 457.07824,222.04823 448.19549,222.70284 L 448.19549,232.72223 L 440.73502,232.72223 L 440.73502,222.70284 C 433.43918,222.61952 426.3913,219.63812 421.00372,214.91903 L 429.95787,205.89146 C 434.26833,209.95 438.57879,211.77297 444.46624,211.77297 C 448.2788,211.77297 452.50792,210.28126 452.50792,205.31225 C 452.50792,203.55077 451.82554,202.32687 450.75042,201.40647 L 444.55551,198.64722 L 436.83717,195.21154 C 433.02064,193.51156 429.78731,192.07143 426.54206,190.62932 L 393.34382,175.84523 z M 443.79975,140.00279 C 429.04938,140.00279 416.57624,145.20391 406.3803,155.60612 C 403.6032,158.40504 401.19109,161.33092 399.14001,164.38374 L 423.98712,175.44652 C 426.23261,168.55535 432.78259,164.3758 440.73502,163.90767 L 440.73502,153.88829 L 448.19549,153.88829 L 448.19549,163.90767 C 453.3371,164.15564 458.9746,165.56402 464.52882,169.87052 L 455.99123,178.64814 C 452.84121,176.41257 448.86201,174.83755 444.87887,174.83755 C 441.64752,174.83755 437.08712,175.83333 437.08712,179.88988 C 437.08712,180.50879 437.29341,181.05427 437.67031,181.54027 L 445.98178,185.23976 L 451.60739,187.7471 C 455.2057,189.34791 458.64138,190.8773 462.04531,192.39279 L 495.35067,207.2225 C 496.45357,202.85849 497.00501,198.21875 497.00501,193.30527 C 497.00501,178.46167 491.79994,165.8953 481.38582,155.60614 C 471.07881,145.20391 458.5541,140.00279 443.79975,140.00279 z "
         id="path8075" />
      <text
         sodipodi:linespacing="125%"
         xml:space="preserve"
         style="font-size:21px;font-style:normal;font-variant:normal;font-weight:bold;font-stretch:normal;text-align:start;line-height:125%;writing-mode:lr-tb;text-anchor:start;fill:#121513;fill-opacity:1;stroke:none;stroke-width:1px;stroke-linecap:butt;stroke-linejoin:miter;stroke-opacity:1;font-family:Bitstream Vera Sans"
         x="85.344322"
         y="361.69473"
         id="text8077"><tspan
           sodipodi:role="line"
           id="tspan8079"
           x="85.344322"
           y="361.69473">http://creativecommons.org/licenses/by-nc/3.0</tspan><tspan
           sodipodi:role="line"
           x="85.344322"
           y="387.94473"
           id="tspan8081" /></text>
    </g>
    <g
       id="g8049"
       transform="translate(0,-2.2661046)">
      <text
         id="text2220"
         y="321.69476"
         x="68.369469"
         style="font-size:20px;fill:#ededee"
         xml:space="preserve"><tspan
           id="tspan2226"
           y="321.69476"
           x="68.369469"
           sodipodi:role="line">Except where otherwise noted, this work is licensed under </tspan></text>
      <g
         transform="matrix(2.0312189,0,0,2.03125,212.61291,-243.32602)"
         id="g35"
         style="fill:#ededee;fill-opacity:1">
        <path
           style="fill:#ededee;fill-opacity:1"
           id="path37"
           d="M 40.61133,208.38574 C 40.61133,207.24414 39.68457,206.31933 38.54492,206.31933 L 25.45557,206.31933 C 24.31446,206.31933 23.38916,207.24413 23.38916,208.38574 L 23.38916,221.47558 L 27.04004,221.47558 L 27.04004,236.97558 L 36.95996,236.97558 L 36.95996,221.47558 L 40.61133,221.47558 L 40.61133,208.38574 L 40.61133,208.38574 z " />
        <circle
           style="fill:#ededee;fill-opacity:1"
           sodipodi:ry="4.47754"
           sodipodi:rx="4.47754"
           sodipodi:cy="200.11914"
           sodipodi:cx="32"
           id="circle39"
           r="4.47754"
           cy="200.11914"
           cx="32" />
        <path
           style="fill:#ededee;fill-opacity:1;fill-rule:evenodd"
           id="path41"
           d="M 31.95996,184.30859 C 23.09521,184.30859 15.5918,187.40136 9.45166,193.58789 C 3.14941,199.98828 0,207.56152 0,216.30859 C 0,225.05468 3.14941,232.57617 9.45166,238.86914 C 15.75195,245.16211 23.25537,248.30859 31.95996,248.30859 C 40.77051,248.30859 48.40723,245.13671 54.86914,238.78906 C 60.95605,232.76367 64.00098,225.26953 64.00098,216.30859 C 64.00098,207.34765 60.90332,199.77441 54.70899,193.58789 C 48.51367,187.40137 40.93066,184.30859 31.95996,184.30859 z M 32.04004,190.06738 C 39.30274,190.06738 45.46973,192.62695 50.54395,197.74804 C 55.66993,202.81445 58.23243,209.00097 58.23243,216.30859 C 58.23243,223.66797 55.72364,229.77539 50.70313,234.6289 C 45.41602,239.85546 39.19532,242.46874 32.04004,242.46874 C 24.8833,242.46874 18.71582,239.8828 13.53613,234.70897 C 8.35644,229.53514 5.7666,223.40234 5.7666,216.30859 C 5.7666,209.21484 8.3833,203.02832 13.6167,197.74804 C 18.63672,192.62695 24.77686,190.06738 32.04004,190.06738 z "
           clip-rule="evenodd" />
      </g>
      <path
         id="path43"
         d="M 443.63711,128.30525 C 461.85884,128.30525 477.26382,134.58744 489.84804,147.15382 C 502.42831,159.72219 508.72043,175.10533 508.72043,193.30525 C 508.72043,211.50517 502.53544,226.72765 490.17337,238.9687 C 477.0456,251.8604 461.53351,258.30525 443.63711,258.30525 C 425.9589,258.30525 410.71658,251.91594 397.91811,239.13137 C 385.11767,226.34877 378.72043,211.07077 378.72043,193.30525 C 378.72043,175.53973 385.11767,160.15462 397.91811,147.15382 C 410.39125,134.58744 425.63355,128.30525 443.63711,128.30525 z M 393.34382,175.84523 C 391.40382,181.33002 390.43381,187.15002 390.43381,193.30525 C 390.43381,207.71443 395.69443,220.1717 406.21567,230.67906 C 416.73889,241.1884 429.26362,246.44306 443.79975,246.44306 C 458.33588,246.44306 470.97167,241.13683 481.71112,230.51839 C 485.30548,227.04303 488.26507,223.25429 490.5899,219.14617 L 466.08795,208.23414 C 464.42565,216.47816 457.07824,222.04823 448.19549,222.70284 L 448.19549,232.72223 L 440.73502,232.72223 L 440.73502,222.70284 C 433.43918,222.61952 426.3913,219.63812 421.00372,214.91903 L 429.95787,205.89146 C 434.26833,209.95 438.57879,211.77297 444.46624,211.77297 C 448.2788,211.77297 452.50792,210.28126 452.50792,205.31225 C 452.50792,203.55077 451.82554,202.32687 450.75042,201.40647 L 444.55551,198.64722 L 436.83717,195.21154 C 433.02064,193.51156 429.78731,192.07143 426.54206,190.62932 L 393.34382,175.84523 z M 443.79975,140.00279 C 429.04938,140.00279 416.57624,145.20391 406.3803,155.60612 C 403.6032,158.40504 401.19109,161.33092 399.14001,164.38374 L 423.98712,175.44652 C 426.23261,168.55535 432.78259,164.3758 440.73502,163.90767 L 440.73502,153.88829 L 448.19549,153.88829 L 448.19549,163.90767 C 453.3371,164.15564 458.9746,165.56402 464.52882,169.87052 L 455.99123,178.64814 C 452.84121,176.41257 448.86201,174.83755 444.87887,174.83755 C 441.64752,174.83755 437.08712,175.83333 437.08712,179.88988 C 437.08712,180.50879 437.29341,181.05427 437.67031,181.54027 L 445.98178,185.23976 L 451.60739,187.7471 C 455.2057,189.34791 458.64138,190.8773 462.04531,192.39279 L 495.35067,207.2225 C 496.45357,202.85849 497.00501,198.21875 497.00501,193.30527 C 497.00501,178.46167 491.79994,165.8953 481.38582,155.60614 C 471.07881,145.20391 458.5541,140.00279 443.79975,140.00279 z "
         style="fill:#ededee;fill-opacity:1" />
      <text
         id="text2234"
         y="361.69473"
         x="85.344322"
         style="font-size:21px;font-style:normal;font-variant:normal;font-weight:bold;font-stretch:normal;text-align:start;line-height:125%;writing-mode:lr-tb;text-anchor:start;fill:#ededee;fill-opacity:1;stroke:none;stroke-width:1px;stroke-linecap:butt;stroke-linejoin:miter;stroke-opacity:1;font-family:Bitstream Vera Sans"
         xml:space="preserve"
         sodipodi:linespacing="125%"><tspan
           y="361.69473"
           x="85.344322"
           id="tspan2236"
           sodipodi:role="line">http://creativecommons.org/licenses/by-nc/3.0</tspan><tspan
           id="tspan8346"
           y="387.94473"
           x="85.344322"
           sodipodi:role="line" /></text>
    </g>
  </g>
</svg>
