<?xml version="1.0" encoding="utf-8"?>
<!-- Generator: Adobe Illustrator 14.0.0, SVG Export Plug-In . SVG Version: 6.00 Build 43363)  -->
<!DOCTYPE svg PUBLIC "-//W3C//DTD SVG 1.1//EN" "http://www.w3.org/Graphics/SVG/1.1/DTD/svg11.dtd">
<svg version="1.1" id="Layer_1" xmlns="http://www.w3.org/2000/svg" xmlns:xlink="http://www.w3.org/1999/xlink" x="0px" y="0px"
	 width="1000px" height="1000px" viewBox="0 0 1000 1000" enable-background="new 0 0 1000 1000" xml:space="preserve">
<g>
	<path fill-rule="evenodd" clip-rule="evenodd" fill="#FFFFFF" d="M2.499,0.363h997.138V1000H0V0.363H2.499L2.499,0.363z
		 M302.39,137.813H137.45V312.75h174.937V137.813H302.39L302.39,137.813z M437.341,187.795v24.991h-99.963v49.982h24.991v-24.991
		h24.991v24.991h49.981v-24.991h24.991v49.981h-24.991v24.991h24.991v-24.991h24.991v49.982h-99.963V312.75h24.991v-24.991h-24.991
		v24.991h-24.991v-24.991h-24.991v74.973h-24.991v-24.991h-99.964v49.982h-24.991v-49.982h-24.991v24.991H137.45v49.982h24.991
		v24.99H137.45v24.991h24.991v24.991H137.45v174.937h49.981V587.65h49.982v-24.991h-49.982v-24.991h-24.991v-49.981h24.991v-24.991
		h24.991v74.973h74.973v24.991h24.991v24.991h-49.982v24.99h-49.982v49.982h49.982v-49.982h49.982v24.991h-24.991v24.991h49.982
		v24.99h24.991v24.991h-24.991v74.973h24.991v24.991h-24.991v24.991h24.991v24.99h24.991v-24.99h24.991v24.99h99.963v-24.99h24.991
		v-24.991h49.981v24.991h24.991v24.99h49.982v-24.99h24.99v24.99h74.973v-24.99h49.982v-24.991h24.99v24.991h24.991v-49.982h-24.991
		v-24.991h24.991v-24.99h-24.991v-24.991h-24.99v-49.981h24.99v-24.991h24.991V587.65h-24.991v49.981h-24.99v-74.973h-24.991
		v-24.991h49.981v24.991h24.991v-24.991h-24.991v-24.99h24.991v-49.982h-24.991v-24.991h24.991v-24.99h-24.991v24.99h-24.99v24.991
		h-24.991v-49.981h24.991v-24.991h24.99v-49.982h-24.99v49.982h-24.991v-49.982h-49.981v49.982h24.99v24.991h-49.981v-24.991H687.25
		v24.991h-99.964v-24.991h-49.981v24.991h-49.982v-24.991h24.991v-24.991h49.982v-24.991h-49.982v-49.982h24.991v24.991h24.991
		v-24.991h24.99v24.991h24.991v24.991h-24.991v24.991h49.982v24.991h24.991v-24.991h49.981v-24.991H662.26v24.991h-24.991V312.75
		h24.991v-49.982h-24.991v-24.991h24.991v-74.973h-24.991v-24.991h-74.973v24.991h24.99v24.99h24.991v-24.99h24.991v49.981h-24.991
		v49.982h-24.991v-49.982h-24.99v-24.991h-24.991v-24.99h-24.991v-24.991H412.35v49.981H437.341L437.341,187.795z M852.19,137.813
		H687.25V312.75h174.937V137.813H852.19L852.19,137.813z M337.377,165.304v22.491h49.982v-24.99h-49.982V165.304L337.377,165.304z
		 M302.39,687.613H137.45V862.55h174.937V687.613H302.39L302.39,687.613z"/>
	<path fill-rule="evenodd" clip-rule="evenodd" d="M312.387,137.813V312.75H137.45V137.813H312.387L312.387,137.813z
		 M284.896,162.805H162.441v124.954h124.955V162.805H284.896L284.896,162.805z"/>
	<polygon fill-rule="evenodd" clip-rule="evenodd" points="512.313,162.805 487.323,162.805 487.323,187.795 462.332,187.795 
		462.332,162.805 437.341,162.805 437.341,187.795 412.35,187.795 412.35,137.813 512.313,137.813 512.313,162.805 	"/>
	<polygon fill-rule="evenodd" clip-rule="evenodd" points="637.269,162.805 612.277,162.805 612.277,187.795 587.286,187.795 
		587.286,162.805 562.296,162.805 562.296,137.813 637.269,137.813 637.269,162.805 	"/>
	<path fill-rule="evenodd" clip-rule="evenodd" d="M862.187,137.813V312.75H687.25V137.813H862.187L862.187,137.813z
		 M834.696,162.805H712.241v124.954h124.954V162.805H834.696L834.696,162.805z"/>
	<path fill-rule="evenodd" clip-rule="evenodd" fill="#FFFFFF" d="M287.396,162.805v124.954H162.441V162.805H287.396
		L287.396,162.805z M187.432,190.294v72.474h74.973v-74.973h-74.973V190.294L187.432,190.294z"/>
	<polygon fill-rule="evenodd" clip-rule="evenodd" points="337.377,162.805 387.359,162.805 387.359,187.795 337.377,187.795 
		337.377,162.805 	"/>
	<polygon fill-rule="evenodd" clip-rule="evenodd" fill="#FFFFFF" points="462.332,187.795 437.341,187.795 437.341,162.805 
		462.332,162.805 462.332,187.795 	"/>
	<polygon fill-rule="evenodd" clip-rule="evenodd" fill="#FFFFFF" points="512.313,162.805 512.313,187.795 487.323,187.795 
		487.323,162.805 512.313,162.805 	"/>
	<polygon fill-rule="evenodd" clip-rule="evenodd" points="512.313,162.805 537.305,162.805 537.305,187.795 512.313,187.795 
		512.313,162.805 	"/>
	<polygon fill-rule="evenodd" clip-rule="evenodd" points="637.269,162.805 662.26,162.805 662.26,237.777 637.269,237.777 
		637.269,262.768 612.277,262.768 612.277,212.786 637.269,212.786 637.269,162.805 	"/>
	<path fill-rule="evenodd" clip-rule="evenodd" fill="#FFFFFF" d="M837.195,162.805v124.954H712.241V162.805H837.195
		L837.195,162.805z M737.232,190.294v72.474h74.973v-74.973h-74.973V190.294L737.232,190.294z"/>
	<polygon fill-rule="evenodd" clip-rule="evenodd" points="187.432,187.795 262.405,187.795 262.405,262.768 187.432,262.768 
		187.432,187.795 	"/>
	<polygon fill-rule="evenodd" clip-rule="evenodd" points="437.341,187.795 462.332,187.795 462.332,212.786 487.323,212.786 
		487.323,237.777 512.313,237.777 512.313,262.768 487.323,262.768 487.323,287.759 462.332,287.759 462.332,237.777 
		437.341,237.777 437.341,262.768 387.359,262.768 387.359,237.777 362.368,237.777 362.368,262.768 337.377,262.768 
		337.377,212.786 437.341,212.786 437.341,187.795 	"/>
	<polygon fill-rule="evenodd" clip-rule="evenodd" fill="#FFFFFF" points="462.332,187.795 487.323,187.795 487.323,212.786 
		462.332,212.786 462.332,187.795 	"/>
	<polygon fill-rule="evenodd" clip-rule="evenodd" points="487.323,187.795 512.313,187.795 512.313,212.786 487.323,212.786 
		487.323,187.795 	"/>
	<polygon fill-rule="evenodd" clip-rule="evenodd" fill="#FFFFFF" points="512.313,187.795 537.305,187.795 537.305,212.786 
		562.296,212.786 562.296,262.768 512.313,262.768 512.313,237.777 487.323,237.777 487.323,212.786 512.313,212.786 
		512.313,187.795 	"/>
	<polygon fill-rule="evenodd" clip-rule="evenodd" points="537.305,187.795 562.296,187.795 562.296,212.786 537.305,212.786 
		537.305,187.795 	"/>
	<polygon fill-rule="evenodd" clip-rule="evenodd" points="737.232,187.795 812.205,187.795 812.205,262.768 737.232,262.768 
		737.232,187.795 	"/>
	<polygon fill-rule="evenodd" clip-rule="evenodd" points="562.296,212.786 587.286,212.786 587.286,262.768 612.277,262.768 
		612.277,312.75 587.286,312.75 587.286,287.759 562.296,287.759 562.296,312.75 537.305,312.75 537.305,287.759 512.313,287.759 
		512.313,262.768 562.296,262.768 562.296,212.786 	"/>
	<polygon fill-rule="evenodd" clip-rule="evenodd" fill="#FFFFFF" points="512.313,262.768 512.313,287.759 487.323,287.759 
		487.323,262.768 512.313,262.768 	"/>
	<polygon fill-rule="evenodd" clip-rule="evenodd" fill="#FFFFFF" points="612.277,262.768 637.269,262.768 637.269,312.75 
		612.277,312.75 612.277,262.768 	"/>
	<polygon fill-rule="evenodd" clip-rule="evenodd" points="637.269,262.768 662.26,262.768 662.26,312.75 637.269,312.75 
		637.269,262.768 	"/>
	<polygon fill-rule="evenodd" clip-rule="evenodd" points="387.359,312.75 387.359,337.741 362.368,337.741 362.368,362.731 
		387.359,362.731 387.359,387.723 362.368,387.723 362.368,412.714 387.359,412.714 387.359,487.687 412.35,487.687 412.35,512.678 
		362.368,512.678 362.368,437.704 312.387,437.704 312.387,412.714 337.377,412.714 337.377,387.723 312.387,387.723 
		312.387,362.731 337.377,362.731 337.377,287.759 362.368,287.759 362.368,312.75 387.359,312.75 	"/>
	<polygon fill-rule="evenodd" clip-rule="evenodd" points="387.359,312.75 387.359,287.759 412.35,287.759 412.35,312.75 
		387.359,312.75 	"/>
	<polygon fill-rule="evenodd" clip-rule="evenodd" points="462.332,287.759 462.332,312.75 437.341,312.75 437.341,287.759 
		462.332,287.759 	"/>
	<polygon fill-rule="evenodd" clip-rule="evenodd" points="487.323,287.759 512.313,287.759 512.313,337.741 487.323,337.741 
		487.323,287.759 	"/>
	<polygon fill-rule="evenodd" clip-rule="evenodd" points="612.277,312.75 637.269,312.75 637.269,362.731 587.286,362.731 
		587.286,337.741 612.277,337.741 612.277,312.75 	"/>
	<polygon fill-rule="evenodd" clip-rule="evenodd" points="187.432,387.723 162.441,387.723 162.441,412.714 137.45,412.714 
		137.45,362.731 162.441,362.731 162.441,337.741 187.432,337.741 187.432,387.723 	"/>
	<polygon fill-rule="evenodd" clip-rule="evenodd" points="312.387,362.731 287.396,362.731 287.396,387.723 312.387,387.723 
		312.387,412.714 287.396,412.714 287.396,437.704 262.405,437.704 262.405,462.695 237.414,462.695 237.414,412.714 
		262.405,412.714 262.405,387.723 237.414,387.723 237.414,412.714 187.432,412.714 187.432,387.723 212.423,387.723 
		212.423,337.741 312.387,337.741 312.387,362.731 	"/>
	<polygon fill-rule="evenodd" clip-rule="evenodd" fill="#FFFFFF" points="387.359,337.741 387.359,362.731 362.368,362.731 
		362.368,337.741 387.359,337.741 	"/>
	<polygon fill-rule="evenodd" clip-rule="evenodd" points="387.359,337.741 487.323,337.741 487.323,362.731 387.359,362.731 
		387.359,337.741 	"/>
	<polygon fill-rule="evenodd" clip-rule="evenodd" fill="#FFFFFF" points="487.323,337.741 512.313,337.741 512.313,362.731 
		487.323,362.731 487.323,337.741 	"/>
	<polygon fill-rule="evenodd" clip-rule="evenodd" points="512.313,337.741 562.296,337.741 562.296,362.731 512.313,362.731 
		512.313,337.741 	"/>
	<polygon fill-rule="evenodd" clip-rule="evenodd" points="662.26,362.731 662.26,337.741 712.241,337.741 712.241,362.731 
		662.26,362.731 	"/>
	<polygon fill-rule="evenodd" clip-rule="evenodd" points="812.205,387.723 812.205,412.714 787.214,412.714 787.214,462.695 
		762.223,462.695 762.223,437.704 737.232,437.704 737.232,462.695 712.241,462.695 712.241,487.687 687.25,487.687 687.25,462.695 
		612.277,462.695 612.277,437.704 562.296,437.704 562.296,462.695 512.313,462.695 512.313,487.687 487.323,487.687 
		487.323,462.695 462.332,462.695 462.332,387.723 487.323,387.723 487.323,412.714 537.305,412.714 537.305,387.723 
		587.286,387.723 587.286,412.714 687.25,412.714 687.25,437.704 712.241,437.704 712.241,412.714 762.223,412.714 762.223,387.723 
		737.232,387.723 737.232,337.741 787.214,337.741 787.214,387.723 812.205,387.723 	"/>
	<polygon fill-rule="evenodd" clip-rule="evenodd" points="812.205,387.723 812.205,337.741 837.195,337.741 837.195,387.723 
		812.205,387.723 	"/>
	<polygon fill-rule="evenodd" clip-rule="evenodd" fill="#FFFFFF" points="312.387,362.731 312.387,387.723 287.396,387.723 
		287.396,362.731 312.387,362.731 	"/>
	<path fill-rule="evenodd" clip-rule="evenodd" fill="#FFFFFF" d="M387.359,362.731h99.963v24.991h-24.991v74.973h-24.991v49.982
		h24.991v-49.982h24.991v24.991h24.991v49.981h24.991v49.982h-49.982v-49.982h-24.991v49.982h-24.991v-24.991H412.35v-24.991
		h-24.991v24.991h-24.991v-24.991h-24.991v24.991h-24.991v-24.991h-24.991v-24.99h49.982v-24.991h-49.982v-24.991h24.991v-24.991
		h49.981v74.974h49.982v-24.991h-24.991v-74.973h-24.991v-24.991h24.991V362.731L387.359,362.731z M412.35,415.213v22.491h24.991
		v-24.99H412.35V415.213L412.35,415.213z"/>
	<polygon fill-rule="evenodd" clip-rule="evenodd" points="487.323,362.731 512.313,362.731 512.313,387.723 487.323,387.723 
		487.323,362.731 	"/>
	<polygon fill-rule="evenodd" clip-rule="evenodd" points="637.269,362.731 662.26,362.731 662.26,387.723 637.269,387.723 
		637.269,362.731 	"/>
	<polygon fill-rule="evenodd" clip-rule="evenodd" fill="#FFFFFF" points="187.432,387.723 187.432,412.714 162.441,412.714 
		162.441,387.723 187.432,387.723 	"/>
	<polygon fill-rule="evenodd" clip-rule="evenodd" fill="#FFFFFF" points="237.414,412.714 237.414,387.723 262.405,387.723 
		262.405,412.714 237.414,412.714 	"/>
	<polygon fill-rule="evenodd" clip-rule="evenodd" fill="#FFFFFF" points="312.387,387.723 337.377,387.723 337.377,412.714 
		312.387,412.714 312.387,387.723 	"/>
	<polygon fill-rule="evenodd" clip-rule="evenodd" points="712.241,412.714 687.25,412.714 687.25,387.723 712.241,387.723 
		712.241,412.714 	"/>
	<polygon fill-rule="evenodd" clip-rule="evenodd" points="162.441,412.714 187.432,412.714 187.432,437.704 212.423,437.704 
		212.423,462.695 187.432,462.695 187.432,487.687 162.441,487.687 162.441,462.695 137.45,462.695 137.45,437.704 162.441,437.704 
		162.441,412.714 	"/>
	<polygon fill-rule="evenodd" clip-rule="evenodd" fill="#FFFFFF" points="187.432,412.714 237.414,412.714 237.414,462.695 
		212.423,462.695 212.423,437.704 187.432,437.704 187.432,412.714 	"/>
	<polygon fill-rule="evenodd" clip-rule="evenodd" fill="#FFFFFF" points="312.387,412.714 312.387,437.704 287.396,437.704 
		287.396,412.714 312.387,412.714 	"/>
	<polygon fill-rule="evenodd" clip-rule="evenodd" points="412.35,412.714 437.341,412.714 437.341,437.704 412.35,437.704 
		412.35,412.714 	"/>
	<polygon fill-rule="evenodd" clip-rule="evenodd" fill="#FFFFFF" points="687.25,412.714 712.241,412.714 712.241,437.704 
		687.25,437.704 687.25,412.714 	"/>
	<polygon fill-rule="evenodd" clip-rule="evenodd" points="837.195,437.704 837.195,412.714 862.187,412.714 862.187,437.704 
		837.195,437.704 	"/>
	<polygon fill-rule="evenodd" clip-rule="evenodd" fill="#FFFFFF" points="287.396,437.704 287.396,462.695 262.405,462.695 
		262.405,437.704 287.396,437.704 	"/>
	<polygon fill-rule="evenodd" clip-rule="evenodd" points="287.396,437.704 312.387,437.704 312.387,462.695 287.396,462.695 
		287.396,437.704 	"/>
	<polygon fill-rule="evenodd" clip-rule="evenodd" fill="#FFFFFF" points="612.277,462.695 562.296,462.695 562.296,437.704 
		612.277,437.704 612.277,462.695 	"/>
	<polygon fill-rule="evenodd" clip-rule="evenodd" fill="#FFFFFF" points="762.223,462.695 737.232,462.695 737.232,437.704 
		762.223,437.704 762.223,462.695 	"/>
	<polygon fill-rule="evenodd" clip-rule="evenodd" points="837.195,437.704 837.195,462.695 812.205,462.695 812.205,437.704 
		837.195,437.704 	"/>
	<polygon fill-rule="evenodd" clip-rule="evenodd" points="212.423,462.695 237.414,462.695 237.414,487.687 262.405,487.687 
		262.405,462.695 287.396,462.695 287.396,487.687 337.377,487.687 337.377,512.678 287.396,512.678 287.396,537.668 
		212.423,537.668 212.423,462.695 	"/>
	<polygon fill-rule="evenodd" clip-rule="evenodd" fill="#FFFFFF" points="237.414,462.695 262.405,462.695 262.405,487.687 
		237.414,487.687 237.414,462.695 	"/>
	<polygon fill-rule="evenodd" clip-rule="evenodd" points="462.332,462.695 462.332,512.678 437.341,512.678 437.341,462.695 
		462.332,462.695 	"/>
	<polygon fill-rule="evenodd" clip-rule="evenodd" fill="#FFFFFF" points="562.296,462.695 562.296,487.687 512.313,487.687 
		512.313,462.695 562.296,462.695 	"/>
	<path fill-rule="evenodd" clip-rule="evenodd" d="M562.296,462.695h49.981v24.991h-24.991v24.991h24.991v-24.991h24.991v24.991
		h24.991v99.963h49.981v-24.99h24.991v49.981h49.981V587.65h-49.981v-24.991h24.99v-74.973h24.991v24.991h49.981v24.99h-49.981
		v24.991h24.991v74.973h24.99v24.991h-24.99v49.981h-24.991v-24.991h-24.991v24.991h24.991v24.991h-24.991v24.99h-24.99v24.991
		h-24.991v-24.991H687.25v74.974h-24.99v-74.974h-99.964v24.991h24.99v24.991h-49.981v-49.982h-49.982v24.991h24.991v24.991h-24.991
		v24.991h24.991v24.99H412.35v-24.99h-24.991v24.99h-24.991v-24.99h-24.991v-24.991h24.991v-24.991h-24.991v-74.973h24.991v49.981
		h24.991v24.991h24.991v24.991h24.991v24.991h24.991v-24.991h-24.991v-24.991h24.991v-49.981h24.991v-74.973h-24.991v-24.991
		h124.954v24.991h-49.981v24.99h74.973v-49.981h24.991v-24.991h-74.973v-24.99h24.99v-24.991h49.982v-24.991h-49.982v24.991h-24.99
		v24.991h-24.991v-49.982h24.991v-24.99h-24.991v24.99h-24.991v-49.981h49.982V462.695L562.296,462.695z M662.26,665.122v72.474
		h74.973v-74.973H662.26V665.122L662.26,665.122z M512.313,715.104v22.492h49.982v-24.991h-49.982V715.104L512.313,715.104z
		 M587.286,715.104v22.492h24.991v-24.991h-24.991V715.104L587.286,715.104z"/>
	<polygon fill-rule="evenodd" clip-rule="evenodd" fill="#FFFFFF" points="612.277,462.695 687.25,462.695 687.25,487.687 
		712.241,487.687 712.241,462.695 737.232,462.695 737.232,487.687 762.223,487.687 762.223,562.659 737.232,562.659 
		737.232,587.65 712.241,587.65 712.241,612.641 662.26,612.641 662.26,512.678 637.269,512.678 637.269,487.687 612.277,487.687 
		612.277,462.695 	"/>
	<polygon fill-rule="evenodd" clip-rule="evenodd" points="737.232,462.695 762.223,462.695 762.223,487.687 737.232,487.687 
		737.232,462.695 	"/>
	<polygon fill-rule="evenodd" clip-rule="evenodd" fill="#FFFFFF" points="762.223,462.695 787.214,462.695 787.214,487.687 
		762.223,487.687 762.223,462.695 	"/>
	<polygon fill-rule="evenodd" clip-rule="evenodd" points="787.214,462.695 812.205,462.695 812.205,487.687 787.214,487.687 
		787.214,462.695 	"/>
	<polygon fill-rule="evenodd" clip-rule="evenodd" fill="#FFFFFF" points="812.205,462.695 837.195,462.695 837.195,512.678 
		787.214,512.678 787.214,487.687 812.205,487.687 812.205,462.695 	"/>
	<polygon fill-rule="evenodd" clip-rule="evenodd" points="837.195,462.695 862.187,462.695 862.187,512.678 837.195,512.678 
		837.195,462.695 	"/>
	<polygon fill-rule="evenodd" clip-rule="evenodd" points="162.441,487.687 162.441,537.668 187.432,537.668 187.432,562.659 
		237.414,562.659 237.414,587.65 187.432,587.65 187.432,662.623 137.45,662.623 137.45,487.687 162.441,487.687 	"/>
	<polygon fill-rule="evenodd" clip-rule="evenodd" fill="#FFFFFF" points="612.277,487.687 612.277,512.678 587.286,512.678 
		587.286,487.687 612.277,487.687 	"/>
	<polygon fill-rule="evenodd" clip-rule="evenodd" fill="#FFFFFF" points="537.305,537.668 537.305,512.678 562.296,512.678 
		562.296,537.668 537.305,537.668 	"/>
	<polygon fill-rule="evenodd" clip-rule="evenodd" points="287.396,537.668 312.387,537.668 312.387,562.659 287.396,562.659 
		287.396,537.668 	"/>
	<path fill-rule="evenodd" clip-rule="evenodd" d="M387.359,562.659v24.991h24.991v-24.991h24.991v24.991h24.991v24.99h-24.991
		v74.973h-49.981v24.991h-24.991v-24.991h-24.991v-24.99h-49.982v-24.991h24.991v-24.991h-49.982v-24.99h49.982v-24.991h24.991
		v-24.991h24.991v24.991H387.359L387.359,562.659z M337.377,590.149v47.482h24.991v24.991h49.982v-49.982h-49.982v-24.99h-24.991
		V590.149L337.377,590.149z"/>
	<polygon fill-rule="evenodd" clip-rule="evenodd" points="412.35,562.659 387.359,562.659 387.359,537.668 412.35,537.668 
		412.35,562.659 	"/>
	<polygon fill-rule="evenodd" clip-rule="evenodd" points="487.323,587.65 462.332,587.65 462.332,537.668 487.323,537.668 
		487.323,587.65 	"/>
	<polygon fill-rule="evenodd" clip-rule="evenodd" fill="#FFFFFF" points="587.286,562.659 587.286,537.668 637.269,537.668 
		637.269,562.659 587.286,562.659 	"/>
	<polygon fill-rule="evenodd" clip-rule="evenodd" points="837.195,537.668 862.187,537.668 862.187,562.659 837.195,562.659 
		837.195,537.668 	"/>
	<polygon fill-rule="evenodd" clip-rule="evenodd" fill="#FFFFFF" points="387.359,562.659 412.35,562.659 412.35,587.65 
		387.359,587.65 387.359,562.659 	"/>
	<polygon fill-rule="evenodd" clip-rule="evenodd" fill="#FFFFFF" points="587.286,562.659 587.286,587.65 562.296,587.65 
		562.296,562.659 587.286,562.659 	"/>
	<polygon fill-rule="evenodd" clip-rule="evenodd" fill="#FFFFFF" points="337.377,587.65 362.368,587.65 362.368,612.641 
		412.35,612.641 412.35,662.623 362.368,662.623 362.368,637.632 337.377,637.632 337.377,587.65 	"/>
	<polygon fill-rule="evenodd" clip-rule="evenodd" fill="#FFFFFF" points="462.332,587.65 487.323,587.65 487.323,612.641 
		537.305,612.641 537.305,587.65 562.296,587.65 562.296,612.641 637.269,612.641 637.269,637.632 612.277,637.632 612.277,687.613 
		537.305,687.613 537.305,662.623 587.286,662.623 587.286,637.632 462.332,637.632 462.332,662.623 487.323,662.623 
		487.323,737.596 462.332,737.596 462.332,787.577 437.341,787.577 437.341,712.604 387.359,712.604 387.359,687.613 
		437.341,687.613 437.341,612.641 462.332,612.641 462.332,587.65 	"/>
	<polygon fill-rule="evenodd" clip-rule="evenodd" points="487.323,587.65 537.305,587.65 537.305,612.641 487.323,612.641 
		487.323,587.65 	"/>
	<polygon fill-rule="evenodd" clip-rule="evenodd" fill="#FFFFFF" points="737.232,587.65 787.214,587.65 787.214,637.632 
		737.232,637.632 737.232,587.65 	"/>
	<polygon fill-rule="evenodd" clip-rule="evenodd" points="837.195,637.632 837.195,587.65 862.187,587.65 862.187,637.632 
		837.195,637.632 	"/>
	<polygon fill-rule="evenodd" clip-rule="evenodd" points="262.405,612.641 262.405,662.623 212.423,662.623 212.423,612.641 
		262.405,612.641 	"/>
	<path fill-rule="evenodd" clip-rule="evenodd" fill="#FFFFFF" d="M662.26,662.623h74.973v74.973H662.26V662.623L662.26,662.623z
		 M687.25,690.112v22.492h24.991v-24.991H687.25V690.112L687.25,690.112z"/>
	<path fill-rule="evenodd" clip-rule="evenodd" d="M312.387,687.613V862.55H137.45V687.613H312.387L312.387,687.613z
		 M284.896,712.604H162.441V837.56h124.955V712.604H284.896L284.896,712.604z"/>
	<polygon fill-rule="evenodd" clip-rule="evenodd" points="687.25,687.613 712.241,687.613 712.241,712.604 687.25,712.604 
		687.25,687.613 	"/>
	<polygon fill-rule="evenodd" clip-rule="evenodd" fill="#FFFFFF" points="787.214,712.604 762.223,712.604 762.223,687.613 
		787.214,687.613 787.214,712.604 	"/>
	<path fill-rule="evenodd" clip-rule="evenodd" fill="#FFFFFF" d="M287.396,712.604V837.56H162.441V712.604H287.396L287.396,712.604
		z M187.432,740.095v72.474h74.973v-74.973h-74.973V740.095L187.432,740.095z"/>
	<polygon fill-rule="evenodd" clip-rule="evenodd" fill="#FFFFFF" points="362.368,712.604 387.359,712.604 387.359,762.586 
		362.368,762.586 362.368,712.604 	"/>
	<polygon fill-rule="evenodd" clip-rule="evenodd" points="387.359,712.604 437.341,712.604 437.341,787.577 412.35,787.577 
		412.35,762.586 387.359,762.586 387.359,712.604 	"/>
	<polygon fill-rule="evenodd" clip-rule="evenodd" fill="#FFFFFF" points="512.313,712.604 562.296,712.604 562.296,737.596 
		512.313,737.596 512.313,712.604 	"/>
	<polygon fill-rule="evenodd" clip-rule="evenodd" fill="#FFFFFF" points="587.286,712.604 612.277,712.604 612.277,737.596 
		587.286,737.596 587.286,712.604 	"/>
	<polygon fill-rule="evenodd" clip-rule="evenodd" fill="#FFFFFF" points="787.214,712.604 812.205,712.604 812.205,787.577 
		787.214,787.577 787.214,812.568 762.223,812.568 762.223,787.577 737.232,787.577 737.232,762.586 762.223,762.586 
		762.223,737.596 787.214,737.596 787.214,712.604 	"/>
	<polygon fill-rule="evenodd" clip-rule="evenodd" points="812.205,712.604 837.195,712.604 837.195,737.596 862.187,737.596 
		862.187,762.586 837.195,762.586 837.195,787.577 862.187,787.577 862.187,837.56 837.195,837.56 837.195,812.568 812.205,812.568 
		812.205,837.56 762.223,837.56 762.223,862.55 687.25,862.55 687.25,837.56 737.232,837.56 737.232,787.577 762.223,787.577 
		762.223,812.568 787.214,812.568 787.214,787.577 812.205,787.577 812.205,712.604 	"/>
	<polygon fill-rule="evenodd" clip-rule="evenodd" points="187.432,737.596 262.405,737.596 262.405,812.568 187.432,812.568 
		187.432,737.596 	"/>
	<polygon fill-rule="evenodd" clip-rule="evenodd" fill="#FFFFFF" points="387.359,762.586 412.35,762.586 412.35,787.577 
		387.359,787.577 387.359,762.586 	"/>
	<polygon fill-rule="evenodd" clip-rule="evenodd" fill="#FFFFFF" points="537.305,812.568 512.313,812.568 512.313,787.577 
		487.323,787.577 487.323,762.586 537.305,762.586 537.305,812.568 	"/>
	<polygon fill-rule="evenodd" clip-rule="evenodd" fill="#FFFFFF" points="662.26,837.56 637.269,837.56 637.269,787.577 
		612.277,787.577 612.277,812.568 587.286,812.568 587.286,787.577 562.296,787.577 562.296,762.586 662.26,762.586 662.26,837.56 	
		"/>
	<polygon fill-rule="evenodd" clip-rule="evenodd" fill="#FFFFFF" points="737.232,787.577 737.232,837.56 687.25,837.56 
		687.25,762.586 712.241,762.586 712.241,787.577 737.232,787.577 	"/>
	<polygon fill-rule="evenodd" clip-rule="evenodd" fill="#FFFFFF" points="412.35,787.577 437.341,787.577 437.341,812.568 
		412.35,812.568 412.35,787.577 	"/>
	<polygon fill-rule="evenodd" clip-rule="evenodd" points="662.26,837.56 662.26,862.55 612.277,862.55 612.277,837.56 
		587.286,837.56 587.286,812.568 612.277,812.568 612.277,787.577 637.269,787.577 637.269,837.56 662.26,837.56 	"/>
	<polygon fill-rule="evenodd" clip-rule="evenodd" fill="#FFFFFF" points="437.341,812.568 462.332,812.568 462.332,837.56 
		437.341,837.56 437.341,812.568 	"/>
	<polygon fill-rule="evenodd" clip-rule="evenodd" fill="#FFFFFF" points="512.313,812.568 512.313,837.56 487.323,837.56 
		487.323,812.568 512.313,812.568 	"/>
	<polygon fill-rule="evenodd" clip-rule="evenodd" points="512.313,812.568 537.305,812.568 537.305,837.56 512.313,837.56 
		512.313,812.568 	"/>
</g>
<g>
	<path fill="#FFFFFF" d="M638.12,500.179c0,76.383-61.921,138.304-138.304,138.304s-138.299-61.921-138.299-138.304
		c0-76.381,61.916-138.299,138.299-138.299S638.12,423.798,638.12,500.179z"/>
	<g>
		<path d="M499.594,377.019c34.453,0,63.783,12.027,87.971,36.068c11.588,11.585,20.386,24.825,26.399,39.702
			c6.001,14.883,9.018,30.678,9.018,47.397c0,16.859-2.975,32.654-8.915,47.39c-5.933,14.736-14.701,27.752-26.282,39.037
			c-12.02,11.875-25.657,20.971-40.903,27.27c-15.25,6.309-31.011,9.462-47.287,9.462c-16.273,0-31.854-3.114-46.731-9.35
			c-14.882-6.232-28.227-15.251-40.029-27.051c-11.807-11.802-20.784-25.107-26.943-39.914c-6.155-14.812-9.235-30.424-9.235-46.844
			c0-16.278,3.111-31.929,9.347-46.958c6.226-15.028,15.282-28.48,27.163-40.356C436.621,388.975,465.432,377.019,499.594,377.019z
			 M500.033,399.232c-28.144,0-51.83,9.83-71.034,29.472c-9.679,9.83-17.125,20.859-22.326,33.103
			c-5.208,12.247-7.807,25.035-7.807,38.379c0,13.193,2.599,25.913,7.807,38.147c5.201,12.254,12.647,23.176,22.326,32.771
			c9.676,9.611,20.598,16.944,32.761,21.999c12.173,5.057,24.93,7.585,38.272,7.585c13.195,0,25.989-2.562,38.387-7.692
			c12.381-5.135,23.565-12.539,33.533-22.219c19.207-18.765,28.812-42.301,28.812-70.592c0-13.64-2.497-26.541-7.482-38.709
			c-4.983-12.168-12.239-23.019-21.765-32.549C551.721,409.131,527.896,399.232,500.033,399.232z M498.496,479.73l-16.5,8.576
			c-1.754-3.663-3.919-6.228-6.484-7.7c-2.562-1.462-4.944-2.196-7.146-2.196c-10.994,0-16.493,7.26-16.493,21.776
			c0,6.595,1.394,11.873,4.178,15.832c2.782,3.956,6.887,5.938,12.314,5.938c7.18,0,12.239-3.521,15.17-10.556l15.18,7.698
			c-3.227,6.011-7.697,10.738-13.418,14.182c-5.716,3.446-12.017,5.171-18.909,5.171c-10.995,0-19.875-3.367-26.611-10.115
			c-6.743-6.748-10.119-16.135-10.119-28.149c0-11.736,3.407-21.042,10.229-27.937c6.816-6.892,15.424-10.333,25.837-10.333
			C480.975,461.917,491.901,467.85,498.496,479.73z M569.527,479.73l-16.271,8.576c-1.755-3.663-3.919-6.228-6.486-7.7
			c-2.568-1.462-5.023-2.196-7.363-2.196c-10.995,0-16.498,7.26-16.498,21.776c0,6.595,1.398,11.873,4.176,15.832
			c2.787,3.956,6.89,5.938,12.322,5.938c7.18,0,12.236-3.521,15.173-10.556l15.396,7.698c-3.377,6.011-7.919,10.738-13.638,14.182
			c-5.715,3.446-11.951,5.171-18.694,5.171c-11.143,0-20.049-3.367-26.721-10.115c-6.675-6.748-10.006-16.135-10.006-28.149
			c0-11.736,3.407-21.042,10.226-27.937c6.812-6.892,15.432-10.333,25.843-10.333C552.23,461.917,563.082,467.85,569.527,479.73z"/>
	</g>
</g>
<g>
	<path fill="#B2BCBB" d="M162.823,939.095l11.613,1.32c-0.641,2.421-1.691,4.516-3.151,6.286c-1.46,1.771-3.326,3.146-5.596,4.126
		c-2.271,0.979-5.156,1.47-8.657,1.47c-3.381,0-6.196-0.314-8.447-0.943c-2.25-0.63-4.186-1.649-5.806-3.059
		c-1.621-1.408-2.891-3.062-3.811-4.961c-0.92-1.899-1.38-4.417-1.38-7.555c0-3.278,0.56-6.007,1.68-8.186
		c0.82-1.599,1.94-3.032,3.361-4.301c1.42-1.27,2.88-2.214,4.381-2.834c2.38-0.979,5.431-1.469,9.152-1.469
		c5.201,0,9.167,0.931,11.897,2.791s4.646,4.581,5.746,8.161l-11.492,1.53c-0.36-1.359-1.016-2.385-1.966-3.075
		s-2.226-1.035-3.826-1.035c-2.021,0-3.656,0.724-4.906,2.172c-1.25,1.447-1.875,3.639-1.875,6.574c0,2.616,0.62,4.603,1.86,5.961
		c1.24,1.357,2.821,2.036,4.741,2.036c1.601,0,2.945-0.409,4.036-1.23C161.467,942.056,162.283,940.795,162.823,939.095z"/>
	<path fill="#B2BCBB" d="M180.167,919.711h11.432v5.221c1.1-2.261,2.235-3.815,3.406-4.666c1.17-0.85,2.615-1.275,4.336-1.275
		c1.8,0,3.771,0.561,5.911,1.681l-3.781,8.701c-1.44-0.6-2.581-0.899-3.421-0.899c-1.601,0-2.84,0.66-3.721,1.98
		c-1.26,1.86-1.89,5.341-1.89,10.441v10.683h-12.272V919.711z"/>
	<path fill="#B2BCBB" d="M243.69,938.675h-24.485c0.22,1.96,0.75,3.42,1.59,4.381c1.18,1.38,2.72,2.07,4.621,2.07
		c1.2,0,2.34-0.3,3.42-0.9c0.66-0.38,1.37-1.05,2.131-2.011l12.032,1.11c-1.841,3.201-4.061,5.496-6.661,6.887
		c-2.601,1.39-6.332,2.085-11.192,2.085c-4.221,0-7.542-0.595-9.962-1.785c-2.42-1.189-4.426-3.08-6.016-5.671
		s-2.385-5.636-2.385-9.137c0-4.981,1.595-9.012,4.786-12.093c3.19-3.08,7.596-4.621,13.218-4.621c4.561,0,8.162,0.69,10.802,2.07
		c2.641,1.381,4.651,3.381,6.031,6.002c1.38,2.62,2.071,6.031,2.071,10.231V938.675z M231.267,932.823
		c-0.24-2.36-0.875-4.051-1.905-5.071c-1.031-1.02-2.386-1.53-4.066-1.53c-1.94,0-3.491,0.771-4.651,2.311
		c-0.74,0.96-1.21,2.391-1.41,4.291H231.267z"/>
	<path fill="#B2BCBB" d="M260.433,930.032l-11.672-1.229c0.439-2.041,1.075-3.646,1.905-4.816c0.83-1.17,2.025-2.186,3.585-3.046
		c1.12-0.619,2.661-1.1,4.621-1.44c1.96-0.34,4.081-0.51,6.361-0.51c3.661,0,6.602,0.205,8.822,0.615
		c2.221,0.41,4.071,1.266,5.551,2.565c1.04,0.9,1.86,2.176,2.46,3.826s0.9,3.226,0.9,4.726v14.073c0,1.5,0.095,2.676,0.285,3.525
		c0.19,0.851,0.605,1.936,1.246,3.256h-11.462c-0.46-0.82-0.761-1.445-0.9-1.875c-0.14-0.431-0.28-1.105-0.42-2.025
		c-1.601,1.54-3.191,2.64-4.771,3.3c-2.161,0.881-4.671,1.32-7.532,1.32c-3.801,0-6.687-0.88-8.657-2.64
		c-1.971-1.761-2.956-3.932-2.956-6.512c0-2.42,0.71-4.411,2.13-5.972c1.42-1.56,4.041-2.72,7.862-3.48
		c4.581-0.92,7.551-1.564,8.912-1.936c1.36-0.37,2.801-0.854,4.321-1.455c0-1.5-0.31-2.551-0.93-3.15
		c-0.62-0.601-1.71-0.9-3.271-0.9c-2,0-3.501,0.32-4.501,0.96C261.543,927.712,260.913,928.652,260.433,930.032z M271.025,936.454
		c-1.68,0.6-3.431,1.13-5.251,1.59c-2.48,0.66-4.051,1.311-4.711,1.951c-0.68,0.66-1.02,1.41-1.02,2.25
		c0,0.96,0.334,1.746,1.005,2.355c0.67,0.61,1.655,0.915,2.956,0.915c1.36,0,2.625-0.33,3.795-0.99c1.17-0.66,2-1.465,2.491-2.415
		c0.49-0.95,0.735-2.186,0.735-3.706V936.454z"/>
	<path fill="#B2BCBB" d="M303.972,907.588v12.123h6.721v8.941h-6.721v11.29c0,1.357,0.13,2.256,0.39,2.694
		c0.4,0.68,1.1,1.019,2.101,1.019c0.9,0,2.16-0.259,3.781-0.778l0.9,8.43c-3.021,0.66-5.841,0.99-8.461,0.99
		c-3.041,0-5.281-0.39-6.722-1.168c-1.44-0.779-2.505-1.963-3.196-3.552c-0.69-1.588-1.035-4.16-1.035-7.717v-11.208h-4.501v-8.941
		h4.501v-5.852L303.972,907.588z"/>
	<path fill="#B2BCBB" d="M316.965,907.588h12.213v8.312h-12.213V907.588z M316.965,919.711h12.213v31.866h-12.213V919.711z"/>
	<path fill="#B2BCBB" d="M333.378,919.711h12.707l6.182,20.193l6.415-20.193h12.324l-13.543,31.866H346.63L333.378,919.711z"/>
	<path fill="#B2BCBB" d="M408.304,938.675h-24.485c0.22,1.96,0.75,3.42,1.59,4.381c1.18,1.38,2.72,2.07,4.621,2.07
		c1.2,0,2.34-0.3,3.42-0.9c0.66-0.38,1.37-1.05,2.131-2.011l12.032,1.11c-1.841,3.201-4.061,5.496-6.661,6.887
		c-2.601,1.39-6.332,2.085-11.192,2.085c-4.221,0-7.542-0.595-9.962-1.785c-2.42-1.189-4.426-3.08-6.016-5.671
		s-2.385-5.636-2.385-9.137c0-4.981,1.595-9.012,4.786-12.093c3.19-3.08,7.596-4.621,13.218-4.621c4.561,0,8.162,0.69,10.802,2.07
		c2.641,1.381,4.651,3.381,6.031,6.002c1.38,2.62,2.071,6.031,2.071,10.231V938.675z M395.881,932.823
		c-0.24-2.36-0.875-4.051-1.905-5.071c-1.031-1.02-2.386-1.53-4.066-1.53c-1.94,0-3.491,0.771-4.651,2.311
		c-0.74,0.96-1.21,2.391-1.41,4.291H395.881z"/>
	<path fill="#B2BCBB" d="M437.68,939.095l11.613,1.32c-0.641,2.421-1.691,4.516-3.151,6.286c-1.46,1.771-3.326,3.146-5.596,4.126
		c-2.271,0.979-5.156,1.47-8.657,1.47c-3.381,0-6.196-0.314-8.447-0.943c-2.25-0.63-4.186-1.649-5.806-3.059
		c-1.621-1.408-2.891-3.062-3.811-4.961c-0.92-1.899-1.38-4.417-1.38-7.555c0-3.278,0.56-6.007,1.68-8.186
		c0.82-1.599,1.94-3.032,3.361-4.301c1.42-1.27,2.88-2.214,4.381-2.834c2.38-0.979,5.431-1.469,9.152-1.469
		c5.201,0,9.167,0.931,11.897,2.791s4.646,4.581,5.746,8.161l-11.492,1.53c-0.36-1.359-1.016-2.385-1.966-3.075
		s-2.226-1.035-3.826-1.035c-2.021,0-3.656,0.724-4.906,2.172c-1.25,1.447-1.875,3.639-1.875,6.574c0,2.616,0.62,4.603,1.86,5.961
		c1.24,1.357,2.821,2.036,4.741,2.036c1.601,0,2.945-0.409,4.036-1.23C436.324,942.056,437.14,940.795,437.68,939.095z"/>
	<path fill="#B2BCBB" d="M453.403,935.733c0-4.86,1.64-8.866,4.921-12.017c3.281-3.151,7.712-4.727,13.293-4.727
		c6.381,0,11.202,1.851,14.463,5.552c2.621,2.98,3.931,6.651,3.931,11.012c0,4.901-1.625,8.917-4.876,12.048
		c-3.251,3.131-7.747,4.695-13.488,4.695c-5.121,0-9.262-1.3-12.422-3.9C455.343,945.176,453.403,940.955,453.403,935.733z
		 M465.646,935.704c0,2.841,0.575,4.941,1.725,6.301c1.15,1.361,2.596,2.041,4.336,2.041c1.76,0,3.206-0.67,4.336-2.011
		c1.13-1.34,1.695-3.49,1.695-6.451c0-2.761-0.57-4.816-1.71-6.166c-1.14-1.351-2.55-2.025-4.23-2.025
		c-1.781,0-3.251,0.685-4.411,2.055C466.226,930.818,465.646,932.903,465.646,935.704z"/>
	<path fill="#B2BCBB" d="M495.982,919.711h11.403v4.65c1.643-1.939,3.3-3.32,4.973-4.141s3.691-1.23,6.055-1.23
		c2.544,0,4.559,0.45,6.041,1.351s2.694,2.24,3.636,4.021c1.917-2.08,3.666-3.495,5.244-4.246c1.578-0.75,3.525-1.125,5.843-1.125
		c3.416,0,6.083,1.016,8.001,3.046c1.917,2.03,2.876,5.206,2.876,9.527v20.014h-12.242v-18.153c0-1.44-0.279-2.511-0.837-3.211
		c-0.818-1.101-1.835-1.65-3.05-1.65c-1.436,0-2.592,0.521-3.47,1.561c-0.877,1.04-1.315,2.711-1.315,5.011v16.443h-12.242v-17.554
		c0-1.4-0.081-2.351-0.241-2.851c-0.261-0.8-0.713-1.445-1.354-1.936c-0.643-0.489-1.396-0.735-2.259-0.735
		c-1.405,0-2.56,0.53-3.463,1.591s-1.354,2.801-1.354,5.221v16.264h-12.243V919.711z"/>
	<path fill="#B2BCBB" d="M557.436,919.711h11.402v4.65c1.643-1.939,3.3-3.32,4.973-4.141s3.691-1.23,6.055-1.23
		c2.544,0,4.559,0.45,6.041,1.351s2.694,2.24,3.636,4.021c1.917-2.08,3.666-3.495,5.244-4.246c1.578-0.75,3.525-1.125,5.843-1.125
		c3.416,0,6.083,1.016,8.001,3.046c1.917,2.03,2.876,5.206,2.876,9.527v20.014h-12.242v-18.153c0-1.44-0.279-2.511-0.837-3.211
		c-0.818-1.101-1.835-1.65-3.05-1.65c-1.436,0-2.592,0.521-3.47,1.561c-0.877,1.04-1.315,2.711-1.315,5.011v16.443H578.35v-17.554
		c0-1.4-0.081-2.351-0.241-2.851c-0.261-0.8-0.713-1.445-1.354-1.936c-0.643-0.489-1.396-0.735-2.259-0.735
		c-1.405,0-2.56,0.53-3.463,1.591s-1.354,2.801-1.354,5.221v16.264h-12.242V919.711z"/>
	<path fill="#B2BCBB" d="M617.297,935.733c0-4.86,1.64-8.866,4.921-12.017c3.28-3.151,7.712-4.727,13.293-4.727
		c6.381,0,11.202,1.851,14.463,5.552c2.62,2.98,3.931,6.651,3.931,11.012c0,4.901-1.625,8.917-4.876,12.048
		s-7.747,4.695-13.487,4.695c-5.121,0-9.263-1.3-12.423-3.9C619.237,945.176,617.297,940.955,617.297,935.733z M629.539,935.704
		c0,2.841,0.575,4.941,1.726,6.301c1.15,1.361,2.596,2.041,4.336,2.041c1.76,0,3.206-0.67,4.336-2.011
		c1.13-1.34,1.695-3.49,1.695-6.451c0-2.761-0.57-4.816-1.71-6.166c-1.141-1.351-2.551-2.025-4.231-2.025
		c-1.78,0-3.251,0.685-4.41,2.055C630.119,930.818,629.539,932.903,629.539,935.704z"/>
	<path fill="#B2BCBB" d="M659.786,919.711h11.373v5.19c1.699-2.12,3.42-3.635,5.161-4.546c1.74-0.91,3.86-1.365,6.361-1.365
		c3.38,0,6.025,1.005,7.937,3.016c1.91,2.011,2.865,5.116,2.865,9.317v20.254h-12.272v-17.523c0-2-0.37-3.416-1.11-4.246
		s-1.78-1.245-3.12-1.245c-1.481,0-2.682,0.561-3.602,1.681s-1.38,3.131-1.38,6.031v15.303h-12.213V919.711z"/>
	<path fill="#B2BCBB" d="M698.614,942.726l12.123-1.141c0.499,1.44,1.2,2.471,2.1,3.091c0.9,0.62,2.101,0.93,3.602,0.93
		c1.64,0,2.91-0.349,3.811-1.049c0.7-0.519,1.05-1.167,1.05-1.946c0-0.879-0.46-1.559-1.38-2.038
		c-0.66-0.339-2.411-0.759-5.251-1.258c-4.241-0.739-7.187-1.424-8.837-2.054c-1.65-0.629-3.041-1.693-4.171-3.192
		c-1.131-1.498-1.695-3.207-1.695-5.126c0-2.099,0.609-3.906,1.83-5.426c1.22-1.519,2.9-2.652,5.041-3.402
		c2.141-0.749,5.011-1.124,8.612-1.124c3.8,0,6.605,0.29,8.416,0.87c1.811,0.581,3.32,1.48,4.531,2.701
		c1.21,1.22,2.215,2.87,3.016,4.95l-11.582,1.141c-0.301-1.021-0.801-1.771-1.501-2.25c-0.96-0.641-2.12-0.961-3.48-0.961
		c-1.38,0-2.386,0.245-3.016,0.734s-0.945,1.084-0.945,1.782c0,0.779,0.4,1.368,1.2,1.768c0.8,0.4,2.54,0.76,5.222,1.079
		c4.061,0.46,7.081,1.1,9.062,1.919s3.496,1.988,4.546,3.507s1.575,3.188,1.575,5.006c0,1.839-0.555,3.627-1.665,5.366
		c-1.11,1.738-2.861,3.122-5.251,4.151c-2.391,1.028-5.646,1.543-9.768,1.543c-5.821,0-9.967-0.829-12.438-2.49
		C700.899,948.146,699.314,945.786,698.614,942.726z"/>
	<path fill="#B2BCBB" d="M738.342,939.335h13.053v12.242h-13.053V939.335z"/>
	<path fill="#B2BCBB" d="M757.276,935.733c0-4.86,1.64-8.866,4.921-12.017c3.28-3.151,7.712-4.727,13.293-4.727
		c6.381,0,11.202,1.851,14.463,5.552c2.62,2.98,3.931,6.651,3.931,11.012c0,4.901-1.625,8.917-4.876,12.048
		s-7.747,4.695-13.487,4.695c-5.121,0-9.263-1.3-12.423-3.9C759.217,945.176,757.276,940.955,757.276,935.733z M769.519,935.704
		c0,2.841,0.575,4.941,1.726,6.301c1.15,1.361,2.596,2.041,4.336,2.041c1.76,0,3.206-0.67,4.336-2.011
		c1.13-1.34,1.695-3.49,1.695-6.451c0-2.761-0.57-4.816-1.71-6.166c-1.141-1.351-2.551-2.025-4.231-2.025
		c-1.78,0-3.251,0.685-4.41,2.055C770.099,930.818,769.519,932.903,769.519,935.704z"/>
	<path fill="#B2BCBB" d="M799.885,919.711h11.433v5.221c1.1-2.261,2.235-3.815,3.405-4.666c1.171-0.85,2.615-1.275,4.336-1.275
		c1.801,0,3.771,0.561,5.912,1.681l-3.781,8.701c-1.44-0.6-2.58-0.899-3.421-0.899c-1.601,0-2.841,0.66-3.721,1.98
		c-1.26,1.86-1.891,5.341-1.891,10.441v10.683h-12.272V919.711z"/>
	<path fill="#B2BCBB" d="M850.745,919.711h11.433v30.096l0.03,1.41c0,2-0.426,3.906-1.275,5.717c-0.851,1.81-1.98,3.275-3.391,4.396
		s-3.201,1.931-5.371,2.431c-2.171,0.5-4.656,0.75-7.457,0.75c-6.401,0-10.798-0.96-13.188-2.881
		c-2.391-1.92-3.586-4.491-3.586-7.711c0-0.4,0.02-0.94,0.061-1.621l11.852,1.351c0.301,1.1,0.761,1.86,1.381,2.28
		c0.9,0.62,2.03,0.931,3.391,0.931c1.76,0,3.075-0.471,3.945-1.41c0.871-0.94,1.306-2.581,1.306-4.921v-4.831
		c-1.2,1.42-2.4,2.45-3.601,3.09c-1.881,1.001-3.911,1.501-6.092,1.501c-4.261,0-7.701-1.86-10.321-5.581
		c-1.86-2.641-2.791-6.132-2.791-10.473c0-4.961,1.2-8.741,3.601-11.342s5.541-3.901,9.422-3.901c2.48,0,4.526,0.42,6.137,1.261
		c1.609,0.84,3.115,2.23,4.516,4.171V919.711z M839.253,935.164c0,2.301,0.49,4.006,1.471,5.116c0.979,1.109,2.27,1.665,3.87,1.665
		c1.521,0,2.796-0.575,3.826-1.726s1.545-2.885,1.545-5.206c0-2.32-0.54-4.096-1.62-5.326s-2.4-1.846-3.961-1.846
		s-2.806,0.565-3.735,1.695C839.718,930.668,839.253,932.543,839.253,935.164z"/>
</g>
<g>
	<g>
		<path fill-rule="evenodd" clip-rule="evenodd" fill="#B2BBBA" d="M517.604,57.186c-4.559-8.277-12.324-11.569-21.339-11.569
			c-13.125,0-23.571,9.257-23.571,24.92c0,15.93,9.821,24.917,24.015,24.917c9.11,0,16.879-4.984,21.162-12.548l-10.001-5.074
			c-2.227,5.343-5.626,6.944-9.912,6.944c-7.409,0-10.802-6.143-10.802-14.24s2.858-14.241,10.802-14.241
			c2.143,0,6.426,1.157,8.927,6.497L517.604,57.186z"/>
		<path fill-rule="evenodd" clip-rule="evenodd" fill="#B2BBBA" d="M543.128,56.296c7.943,0,11.341,6.143,11.341,13.708
			c0,8.631-3.397,14.773-11.341,14.773c-7.949,0-11.336-6.143-11.336-14.24S535.179,56.296,543.128,56.296z M543.128,45.617
			c-14.819,0-25.267,8.989-25.267,24.92c0,15.93,10.447,24.917,25.267,24.917c14.818,0,25.265-8.987,25.265-24.917
			C568.393,54.605,557.946,45.617,543.128,45.617z"/>
		<path fill-rule="evenodd" clip-rule="evenodd" fill="#B2BBBA" d="M571.247,94.209h13.929V64.75c0-4.271,1.789-7.921,7.412-7.921
			c5.356,0,6.781,3.117,6.781,7.742v29.638h13.929V65.108c0-4.805,2.413-8.278,7.056-8.278c5.269,0,7.141,3.025,7.141,9.701v27.678
			h13.928V58.078c0-10.86-9.996-12.461-14.643-12.461c-5.538,0-10.712,1.691-15.266,6.32c-3.124-4.185-7.144-6.32-12.588-6.32
			c-4.286,0-10.178,1.246-13.75,5.43v-4.185h-13.929V94.209z"/>
		<path fill-rule="evenodd" clip-rule="evenodd" fill="#B2BBBA" d="M645.881,94.209h13.924V64.75c0-4.271,1.783-7.921,7.409-7.921
			c5.361,0,6.787,3.117,6.787,7.742v29.638h13.931V65.108c0-4.805,2.408-8.278,7.053-8.278c5.264,0,7.144,3.025,7.144,9.701v27.678
			h13.923V58.078c0-10.86-9.999-12.461-14.641-12.461c-5.535,0-10.711,1.691-15.266,6.32c-3.124-4.185-7.141-6.32-12.593-6.32
			c-4.281,0-10.175,1.246-13.747,5.43v-4.185h-13.924V94.209z"/>
		<path fill-rule="evenodd" clip-rule="evenodd" fill="#B2BBBA" d="M744.166,56.296c7.946,0,11.341,6.143,11.341,13.708
			c0,8.631-3.395,14.773-11.341,14.773c-7.944,0-11.334-6.143-11.334-14.24S736.222,56.296,744.166,56.296z M744.166,45.617
			c-14.824,0-25.265,8.989-25.265,24.92c0,15.93,10.44,24.917,25.265,24.917c14.823,0,25.271-8.987,25.271-24.917
			C769.438,54.605,758.989,45.617,744.166,45.617z"/>
		<path fill-rule="evenodd" clip-rule="evenodd" fill="#B2BBBA" d="M773.184,94.209h13.923V64.75c0-4.271,1.784-7.921,7.414-7.921
			c5.357,0,6.782,3.117,6.782,7.742v29.638h13.929V59.235c0-7.123-3.124-13.618-14.375-13.618c-4.283,0-10.175,1.246-13.75,5.43
			v-4.185h-13.923V94.209z"/>
		<path fill-rule="evenodd" clip-rule="evenodd" fill="#B2BBBA" d="M861.737,52.469c-6.426-4.271-13.654-6.852-20.979-6.852
			c-9.647,0-20.088,4.627-20.088,16.553c0,16.821,28.122,10.948,28.122,18.334c0,4.273-5.264,4.807-7.59,4.807
			c-6.338,0-10.714-2.58-15.002-6.676l-8.659,7.477c6.968,6.407,12.859,9.343,23.217,9.343c10.355,0,21.428-4.448,21.428-16.909
			c0-17.711-28.124-11.034-28.124-19.134c0-2.403,2.499-3.648,5.981-3.648c4.373,0,10.36,1.78,13.125,5.071L861.737,52.469z"/>
	</g>
	<g>
		<path fill-rule="evenodd" clip-rule="evenodd" fill="#B2BBBA" d="M182.355,59.337c-4.551-8.276-12.32-11.572-21.335-11.572
			c-13.125,0-23.57,9.258-23.57,24.923c0,15.93,9.818,24.917,24.015,24.917c9.108,0,16.876-4.986,21.159-12.55l-9.999-5.071
			c-2.233,5.342-5.625,6.942-9.911,6.942c-7.41,0-10.802-6.14-10.802-14.238c0-8.102,2.858-14.241,10.802-14.241
			c2.145,0,6.428,1.156,8.93,6.496L182.355,59.337z"/>
		<path fill-rule="evenodd" clip-rule="evenodd" fill="#B2BBBA" d="M185.755,96.361h13.928V68.95c0-5.253,3.305-6.675,11.607-7.654
			l1.516-0.18l-0.088-12.28c-4.913,0.357-9.999,2.134-13.035,4.982v-4.805h-13.928V96.361z"/>
		<path fill-rule="evenodd" clip-rule="evenodd" fill="#B2BBBA" d="M260.108,75.535c-0.09-14.596-5.981-27.77-23.304-27.77
			c-14.46,0-23.302,9.612-23.302,26.344c0,13.352,8.574,23.496,23.302,23.496c10.626,0,18.216-4.183,23.034-13.083l-10.446-5.426
			c-4.015,5.694-6.428,8.365-11.604,8.365c-4.464,0-10.267-2.848-10.357-11.927H260.108z M227.254,66.992
			c0.622-6.232,5.445-9.078,9.462-9.078s9.015,2.133,9.464,9.078H227.254z"/>
		<path fill-rule="evenodd" clip-rule="evenodd" fill="#B2BBBA" d="M292.057,76.603c0,7.209-4.105,10.859-9.552,10.859
			c-3.393,0-6.519-1.603-6.519-5.34c0-3.829,3.214-5.166,6.697-6.143l9.374-2.669V76.603z M305.451,61.473
			c-0.088-10.68-8.215-13.707-21.165-13.707c-6.426,0-19.102,1.248-19.551,14.865h13.396c0.712-4.716,2.855-6.318,7.317-6.318
			c3.753,0,6.609,1.511,6.609,5.07V65.3l-5.091,0.714c-15.175,2.134-24.371,6.139-24.371,17.531c0,9.075,6.785,14.061,15.89,14.061
			c5,0,11.963-2.402,14.284-6.142h0.181c0.088,1.603,0.356,3.293,0.893,4.897H306.7c-1.162-2.938-1.25-6.587-1.25-9.879V61.473z"/>
		<path fill-rule="evenodd" clip-rule="evenodd" fill="#B2BBBA" d="M338.202,49.903h-8.305V36.197h-13.928v13.706h-6.785v8.544
			h6.785v24.917c0,6.854,1.696,14.241,13.572,14.241c3.033,0,7.143-0.354,8.93-0.534V86.127c-0.717,0.087-2.68,0.267-4.198,0.267
			c-2.501,0-4.375-0.98-4.375-4.719V58.448h8.305V49.903z"/>
		<path fill-rule="evenodd" clip-rule="evenodd" fill="#B2BBBA" d="M343.444,49.014v47.348h13.928V49.014H343.444z M357.373,43.673
			v-10.68h-13.928v10.68H357.373z"/>
		<polygon fill-rule="evenodd" clip-rule="evenodd" fill="#B2BBBA" points="376.118,96.361 390.134,96.361 406.386,49.014 
			391.567,49.014 383.352,82.475 383.171,82.475 374.957,49.014 360.047,49.014 		"/>
		<path fill-rule="evenodd" clip-rule="evenodd" fill="#B2BBBA" d="M451.364,75.535c-0.09-14.596-5.984-27.77-23.302-27.77
			c-14.467,0-23.302,9.612-23.302,26.344c0,13.352,8.568,23.496,23.302,23.496c10.622,0,18.211-4.183,23.034-13.083l-10.448-5.426
			c-4.015,5.694-6.428,8.365-11.604,8.365c-4.466,0-10.27-2.848-10.358-11.927H451.364z M418.508,66.992
			c0.625-6.232,5.444-9.078,9.464-9.078c4.018,0,9.018,2.133,9.464,9.078H418.508z"/>
	</g>
</g>
</svg>
