<?xml version="1.0" encoding="UTF-8" standalone="no"?>
<!-- Created with Inkscape (http://www.inkscape.org/) -->
<svg
   xmlns:dc="http://purl.org/dc/elements/1.1/"
   xmlns:cc="http://web.resource.org/cc/"
   xmlns:rdf="http://www.w3.org/1999/02/22-rdf-syntax-ns#"
   xmlns:svg="http://www.w3.org/2000/svg"
   xmlns="http://www.w3.org/2000/svg"
   xmlns:xlink="http://www.w3.org/1999/xlink"
   xmlns:sodipodi="http://sodipodi.sourceforge.net/DTD/sodipodi-0.dtd"
   xmlns:inkscape="http://www.inkscape.org/namespaces/inkscape"
   width="1200"
   height="900"
   id="svg5698"
   sodipodi:version="0.32"
   inkscape:version="0.45+devel"
   version="1.0"
   sodipodi:docname="Sharing_creative_works_IMG-14.svg"
   inkscape:output_extension="org.inkscape.output.svg.inkscape">
  <defs
     id="defs5700">
    <filter
       inkscape:collect="always"
       id="filter5677">
      <feGaussianBlur
         inkscape:collect="always"
         stdDeviation="3.1097041"
         id="feGaussianBlur5679" />
    </filter>
    <linearGradient
       id="linearGradient4333">
      <stop
         id="stop4335"
         offset="0"
         style="stop-color:#145b1b;stop-opacity:1;" />
      <stop
         id="stop4337"
         offset="1"
         style="stop-color:#0c2708;stop-opacity:1;" />
    </linearGradient>
    <linearGradient
       inkscape:collect="always"
       id="linearGradient5025">
      <stop
         style="stop-color:#ffffff;stop-opacity:1;"
         offset="0"
         id="stop5027" />
      <stop
         style="stop-color:#ffffff;stop-opacity:0;"
         offset="1"
         id="stop5029" />
    </linearGradient>
    <filter
       inkscape:collect="always"
       x="-0.76861268"
       width="2.5372255"
       y="-0.99711919"
       height="2.9942384"
       id="filter5017">
      <feGaussianBlur
         inkscape:collect="always"
         stdDeviation="2.508601"
         id="feGaussianBlur5019" />
    </filter>
    <filter
       inkscape:collect="always"
       x="-0.56025141"
       width="2.1205029"
       y="-0.72681266"
       height="2.4536252"
       id="filter5021">
      <feGaussianBlur
         inkscape:collect="always"
         stdDeviation="1.8285507"
         id="feGaussianBlur5023" />
    </filter>
    <linearGradient
       id="linearGradient3580">
      <stop
         style="stop-color:#8cb2c4;stop-opacity:1;"
         offset="0"
         id="stop3582" />
      <stop
         style="stop-color:#4f8199;stop-opacity:1;"
         offset="1"
         id="stop3584" />
    </linearGradient>
    <linearGradient
       id="linearGradient3450">
      <stop
         style="stop-color:#e3b249;stop-opacity:1;"
         offset="0"
         id="stop3452" />
      <stop
         style="stop-color:#fad6bb;stop-opacity:1;"
         offset="1"
         id="stop3454" />
    </linearGradient>
    <linearGradient
       id="linearGradient3586">
      <stop
         style="stop-color:#232941;stop-opacity:1;"
         offset="0"
         id="stop3588" />
      <stop
         style="stop-color:#0e111b;stop-opacity:1;"
         offset="1"
         id="stop3590" />
    </linearGradient>
    <radialGradient
       inkscape:collect="always"
       xlink:href="#linearGradient3580"
       id="radialGradient23038"
       cx="594.49603"
       cy="370.88586"
       fx="594.49603"
       fy="370.88586"
       r="346.2814"
       gradientTransform="matrix(2.7032078,0,0,1.787426,-1007.0463,-218.14462)"
       gradientUnits="userSpaceOnUse" />
    <linearGradient
       inkscape:collect="always"
       xlink:href="#linearGradient3450"
       id="linearGradient20325"
       gradientUnits="userSpaceOnUse"
       gradientTransform="matrix(0.5744615,-5.4338075e-2,5.9237928e-2,0.5269452,161.61173,96.95423)"
       x1="220.07935"
       y1="511.87619"
       x2="202.79773"
       y2="530.45868" />
    <linearGradient
       inkscape:collect="always"
       xlink:href="#linearGradient3450"
       id="linearGradient20327"
       gradientUnits="userSpaceOnUse"
       gradientTransform="matrix(0.5331962,0,0,0.5331962,430.3936,2107.2174)"
       x1="419.62714"
       y1="695.63861"
       x2="296.61383"
       y2="726.5874" />
    <linearGradient
       inkscape:collect="always"
       xlink:href="#linearGradient3450"
       id="linearGradient20329"
       gradientUnits="userSpaceOnUse"
       gradientTransform="matrix(0.5524412,-9.478281e-2,9.478281e-2,0.5524412,342.68942,2108.8702)"
       x1="404.89731"
       y1="707.93225"
       x2="361.43988"
       y2="749.03271" />
    <radialGradient
       inkscape:collect="always"
       xlink:href="#linearGradient3586"
       id="radialGradient20331"
       gradientUnits="userSpaceOnUse"
       gradientTransform="matrix(-1.3989447,-0.676641,0.7539023,-1.5586812,396.22771,2028.3318)"
       cx="465.63034"
       cy="791.70404"
       fx="465.63034"
       fy="791.70404"
       r="72.143639" />
    <radialGradient
       inkscape:collect="always"
       xlink:href="#linearGradient4333"
       id="radialGradient20333"
       gradientUnits="userSpaceOnUse"
       gradientTransform="matrix(-1.1533233,0.5735668,-1.0595595,-2.1305444,1479.8065,1486.8949)"
       cx="419.00775"
       cy="621.91498"
       fx="419.00775"
       fy="621.91498"
       r="70.580399" />
    <linearGradient
       inkscape:collect="always"
       xlink:href="#linearGradient4333"
       id="linearGradient20335"
       gradientUnits="userSpaceOnUse"
       gradientTransform="matrix(0.6652596,-0.1796492,0.1796492,0.6652596,12.025667,84.508391)"
       x1="336.86676"
       y1="562.43555"
       x2="460.44589"
       y2="819.55457" />
    <linearGradient
       inkscape:collect="always"
       xlink:href="#linearGradient3450"
       id="linearGradient20337"
       gradientUnits="userSpaceOnUse"
       gradientTransform="matrix(0.6028771,0,0,0.6028771,397.61067,2068.9583)"
       x1="419.62714"
       y1="695.63861"
       x2="296.61383"
       y2="726.5874" />
    <linearGradient
       inkscape:collect="always"
       xlink:href="#linearGradient3450"
       id="linearGradient20339"
       gradientUnits="userSpaceOnUse"
       gradientTransform="matrix(0.6246371,-0.1071695,0.1071695,0.6246371,300.49794,2072.9805)"
       x1="404.89731"
       y1="707.93225"
       x2="361.43988"
       y2="749.03271" />
    <linearGradient
       inkscape:collect="always"
       xlink:href="#linearGradient4333"
       id="linearGradient20341"
       gradientUnits="userSpaceOnUse"
       gradientTransform="matrix(0.6890892,0,0,0.7468776,53.624225,-24.674407)"
       x1="274.39923"
       y1="633.20105"
       x2="408.6315"
       y2="468.75436" />
    <linearGradient
       inkscape:collect="always"
       xlink:href="#linearGradient3450"
       id="linearGradient20343"
       gradientUnits="userSpaceOnUse"
       gradientTransform="matrix(0.6564598,1.7942585e-2,-1.7943535e-2,0.6564945,51.755021,20.739609)"
       x1="502.08383"
       y1="408.34366"
       x2="407.39011"
       y2="452.92331" />
    <linearGradient
       inkscape:collect="always"
       xlink:href="#linearGradient5025"
       id="linearGradient20345"
       gradientUnits="userSpaceOnUse"
       gradientTransform="matrix(1.7093417,0,0,1.7093417,-1628.4493,-3151.9638)"
       x1="1154.818"
       y1="2049.5571"
       x2="1150.9015"
       y2="2048.5779" />
    <linearGradient
       inkscape:collect="always"
       xlink:href="#linearGradient3450"
       id="linearGradient20347"
       gradientUnits="userSpaceOnUse"
       gradientTransform="matrix(0.5810675,-8.9468914e-2,9.1631545e-2,0.5951622,28.282145,115.94212)"
       x1="437.66718"
       y1="421.37421"
       x2="404.25797"
       y2="461.72815" />
    <clipPath
       clipPathUnits="userSpaceOnUse"
       id="clipPath43100">
      <path
         sodipodi:nodetypes="ccccc"
         id="path43102"
         d="M 14.966615,72.22587 L 1187.7557,60.296225 L 1180.7348,829.46823 L 9.7954111,839.07207 L 14.966615,72.22587 z"
         style="opacity:0.97905734;fill:url(#radialGradient43104);fill-opacity:1;stroke:none;stroke-width:2;stroke-linejoin:round;stroke-miterlimit:4;stroke-dashoffset:0;stroke-opacity:0.21195649" />
    </clipPath>
  </defs>
  <sodipodi:namedview
     id="base"
     pagecolor="#ffffff"
     bordercolor="#666666"
     borderopacity="1.0"
     gridtolerance="10000"
     guidetolerance="10"
     objecttolerance="10"
     inkscape:pageopacity="0.0"
     inkscape:pageshadow="2"
     inkscape:zoom="0.35355339"
     inkscape:cx="529.71729"
     inkscape:cy="428.90333"
     inkscape:document-units="px"
     inkscape:current-layer="layer1"
     borderlayer="false"
     showborder="true"
     inkscape:window-width="940"
     inkscape:window-height="657"
     inkscape:window-x="153"
     inkscape:window-y="42"
     showguides="true"
     inkscape:guide-bbox="true">
    <sodipodi:guide
       orientation="horizontal"
       position="436"
       id="guide23063" />
    <sodipodi:guide
       orientation="vertical"
       position="604"
       id="guide23065" />
    <sodipodi:guide
       orientation="vertical"
       position="550.3362"
       id="guide43040" />
  </sodipodi:namedview>
  <metadata
     id="metadata5703">
    <rdf:RDF>
      <cc:Work
         rdf:about="">
        <dc:format>image/svg+xml</dc:format>
        <dc:type
           rdf:resource="http://purl.org/dc/dcmitype/StillImage" />
        <dc:title>Sharing Creative Works 14</dc:title>
        <dc:creator>
          <cc:Agent>
            <dc:title>Alex Roberts &amp; Rebecca Rojer</dc:title>
          </cc:Agent>
        </dc:creator>
        <dc:rights>
          <cc:Agent>
            <dc:title>Public Domain. CC-BY, CC-SA, CC-NC, and CC-ND icons are trademarks of Creative Commons Corporation. CC circle icon is a registered trademark of Creative Commons Corporation.</dc:title>
          </cc:Agent>
        </dc:rights>
        <dc:publisher>
          <cc:Agent>
            <dc:title>Creative Commons</dc:title>
          </cc:Agent>
        </dc:publisher>
        <dc:source></dc:source>
        <dc:subject>
          <rdf:Bag>
            <rdf:li>creative commons</rdf:li>
            <rdf:li>cc</rdf:li>
            <rdf:li>licensing</rdf:li>
            <rdf:li>copyright</rdf:li>
            <rdf:li>tutorial</rdf:li>
            <rdf:li>documentation</rdf:li>
            <rdf:li>education</rdf:li>
          </rdf:Bag>
        </dc:subject>
        <cc:license
           rdf:resource="http://creativecommons.org/licenses/publicdomain/" />
        <dc:description> CC circle icon is a registered trademark of Creative Commons Corporation.</dc:description>
      </cc:Work>
      <cc:License
         rdf:about="http://creativecommons.org/licenses/publicdomain/">
        <cc:permits
           rdf:resource="http://web.resource.org/cc/Reproduction" />
        <cc:permits
           rdf:resource="http://web.resource.org/cc/Distribution" />
        <cc:permits
           rdf:resource="http://web.resource.org/cc/DerivativeWorks" />
      </cc:License>
    </rdf:RDF>
  </metadata>
  <g
     inkscape:label="Layer 1"
     inkscape:groupmode="layer"
     id="layer1">
    <rect
       style="opacity:1;fill:#000000;fill-opacity:1;stroke:none;stroke-width:0.5;stroke-linecap:round;stroke-linejoin:round;stroke-miterlimit:4;stroke-dasharray:none;stroke-dashoffset:0;stroke-opacity:0.85326089"
       id="rect12839"
       width="1200"
       height="900"
       x="0"
       y="7.6293945e-06" />
    <path
       style="opacity:0.97905734;fill:url(#radialGradient23038);fill-opacity:1;stroke:none;stroke-width:2;stroke-linejoin:round;stroke-miterlimit:4;stroke-dashoffset:0;stroke-opacity:0.21195649"
       d="M 14.966615,72.22587 L 1187.7557,60.296225 L 1180.7348,829.46823 L 9.7954111,839.07207 L 14.966615,72.22587 z"
       id="rect4391"
       sodipodi:nodetypes="ccccc" />
    <path
       style="opacity:0.75916233;fill:#ffc33f;fill-opacity:1;stroke:none;stroke-width:4;stroke-linecap:round;stroke-linejoin:round;stroke-miterlimit:4;stroke-dasharray:4, 8;stroke-dashoffset:0;stroke-opacity:0.85326089"
       d="M 9.7954111,756.32754 L 1183.7955,755.4779 L 1180.3707,827.94798 L 9.7954111,838.82207 L 9.7954111,756.32754 z"
       id="rect5444"
       sodipodi:nodetypes="ccccc" />
    <g
       id="g3900"
       transform="matrix(0.6767671,0,0,0.6648303,-46.52715,343.67714)"
       clip-path="none">
      <g
         transform="matrix(3.1218769,0,0,3.1218769,-3892.4926,-810.57403)"
         id="g3922" />
    </g>
    <g
       id="g8062"
       transform="translate(205.33252,13.472393)"
       clip-path="none" />
    <g
       id="g4255"
       transform="matrix(3.0099552,0,0,3.0099552,-472.90319,112.03936)">
      <circle
         style="fill:#ffffff"
         sodipodi:ry="10.80664"
         sodipodi:rx="10.80664"
         sodipodi:cy="15.31348"
         sodipodi:cx="255.55124"
         id="circle4257"
         r="10.80664"
         cy="15.31348"
         cx="255.55124" />
      <g
         id="g4259">
        <path
           id="path4261"
           d="M 258.67819,12.18701 C 258.67819,11.77051 258.3403,11.4331 257.92526,11.4331 L 253.15182,11.4331 C 252.73678,11.4331 252.39889,11.7705 252.39889,12.18701 L 252.39889,16.95996 L 253.72994,16.95996 L 253.72994,22.61182 L 257.34713,22.61182 L 257.34713,16.95996 L 258.67818,16.95996 L 258.67818,12.18701 L 258.67819,12.18701 z" />
        <circle
           sodipodi:ry="1.63281"
           sodipodi:rx="1.63281"
           sodipodi:cy="9.1723604"
           sodipodi:cx="255.53854"
           id="circle4263"
           r="1.63281"
           cy="9.1723604"
           cx="255.53854" />
      </g>
      <path
         style="fill-rule:evenodd"
         id="path4265"
         d="M 255.5239,3.40723 C 252.29148,3.40723 249.55515,4.53516 247.31589,6.79102 C 245.01804,9.12452 243.8696,11.88672 243.8696,15.07569 C 243.8696,18.26466 245.01804,21.00733 247.31589,23.30225 C 249.61374,25.59668 252.35007,26.74414 255.5239,26.74414 C 258.73679,26.74414 261.52195,25.58789 263.87742,23.27295 C 266.09715,21.07568 267.2075,18.34326 267.2075,15.07568 C 267.2075,11.8081 266.07762,9.04687 263.8198,6.79101 C 261.56003,4.53516 258.79538,3.40723 255.5239,3.40723 z M 255.55319,5.50684 C 258.20163,5.50684 260.45065,6.44092 262.30026,8.30811 C 264.1694,10.15528 265.10397,12.41114 265.10397,15.07569 C 265.10397,17.75928 264.18893,19.98633 262.35885,21.75587 C 260.43014,23.66212 258.16256,24.61476 255.55319,24.61476 C 252.94284,24.61476 250.69381,23.67189 248.80612,21.78517 C 246.91647,19.89845 245.97311,17.66212 245.97311,15.0757 C 245.97311,12.48879 246.92721,10.23341 248.83541,8.30812 C 250.6655,6.44092 252.90475,5.50684 255.55319,5.50684 z"
         clip-rule="evenodd" />
    </g>
    <g
       transform="matrix(3.0099552,0,0,3.0099552,-328.93032,-1522.7405)"
       id="g4267">
      <g
         id="g4269"
         transform="matrix(0.624995,0,0,0.624995,356.3859,679.94613)">
        <path
           id="path4271"
           cx="475.97119"
           ry="29.209877"
           cy="252.08646"
           type="arc"
           rx="29.209877"
           d="M -175.0083,-139.1153 C -175.00204,-129.7035 -182.62555,-122.06751 -192.03812,-122.06049 C -201.44913,-122.05341 -209.08512,-129.67774 -209.09293,-139.09028 C -209.09293,-139.09809 -209.09293,-139.10749 -209.09293,-139.1153 C -209.09919,-148.52784 -201.47413,-156.1623 -192.06311,-156.17011 C -182.65054,-156.17713 -175.01456,-148.55207 -175.0083,-139.14026 C -175.0083,-139.13092 -175.0083,-139.1239 -175.0083,-139.1153 z"
           style="fill:#ffffff" />
        <g
           id="g4273"
           transform="translate(-23.9521,-89.72962)">
          <path
             id="path4275"
             d="M -168.2204,-68.05536 C -173.39234,-68.05536 -177.76892,-66.25067 -181.35175,-62.64203 C -185.02836,-58.90759 -186.86588,-54.48883 -186.86588,-49.38568 C -186.86588,-44.28253 -185.02836,-39.89416 -181.35175,-36.22308 C -177.67673,-32.55114 -173.29859,-30.71521 -168.2204,-30.71521 C -163.07974,-30.71521 -158.62503,-32.56677 -154.85312,-36.26996 C -151.30307,-39.78558 -149.52652,-44.15827 -149.52652,-49.38568 C -149.52652,-54.6123 -151.33432,-59.03265 -154.94843,-62.64203 C -158.5625,-66.25067 -162.98599,-68.05536 -168.2204,-68.05536 z M -168.17352,-64.69519 C -163.936,-64.69519 -160.33752,-63.20221 -157.37655,-60.21466 C -154.38748,-57.25836 -152.89214,-53.64899 -152.89214,-49.38568 C -152.89214,-45.09186 -154.35466,-41.52856 -157.28438,-38.69653 C -160.36876,-35.64727 -163.99849,-34.12304 -168.17351,-34.12304 C -172.34856,-34.12304 -175.94701,-35.63244 -178.96892,-38.64965 C -181.9908,-41.66918 -183.50176,-45.24657 -183.50176,-49.38567 C -183.50176,-53.52398 -181.97518,-57.13414 -178.92205,-60.21465 C -175.9939,-63.20221 -172.41107,-64.69519 -168.17352,-64.69519 z" />
          <path
             id="path4277"
             d="M -176.49548,-52.02087 C -175.75171,-56.71856 -172.44387,-59.22949 -168.30008,-59.22949 C -162.33911,-59.22949 -158.70783,-54.90448 -158.70783,-49.1372 C -158.70783,-43.50982 -162.57194,-39.13793 -168.39383,-39.13793 C -172.39856,-39.13793 -175.98297,-41.60277 -176.63611,-46.43877 L -171.93292,-46.43877 C -171.7923,-43.92778 -170.1626,-43.04418 -167.83447,-43.04418 C -165.1813,-43.04418 -163.4563,-45.50908 -163.4563,-49.27709 C -163.4563,-53.22942 -164.94693,-55.32244 -167.74228,-55.32244 C -169.79074,-55.32244 -171.55948,-54.57787 -171.93292,-52.02087 L -170.56418,-52.02789 L -174.26734,-48.32629 L -177.96894,-52.02789 L -176.49548,-52.02087 z" />
        </g>
      </g>
      <g
         transform="translate(-34.843494,503.01293)"
         id="g4279">
        <circle
           cx="242.56226"
           cy="90.224609"
           r="10.8064"
           id="circle4281"
           sodipodi:cx="242.56226"
           sodipodi:cy="90.224609"
           sodipodi:rx="10.8064"
           sodipodi:ry="10.8064"
           style="fill:#ffffff" />
        <g
           id="g4283">
          <path
             d="M 245.68994,87.09766 C 245.68994,86.68116 245.35205,86.34424 244.93603,86.34424 L 240.16357,86.34424 C 239.74755,86.34424 239.40966,86.68115 239.40966,87.09766 L 239.40966,91.87061 L 240.74071,91.87061 L 240.74071,97.52295 L 244.3579,97.52295 L 244.3579,91.87061 L 245.68993,91.87061 L 245.68993,87.09766 L 245.68994,87.09766 z"
             id="path4285" />
          <circle
             cx="242.5498"
             cy="84.083008"
             r="1.63232"
             id="circle4287"
             sodipodi:cx="242.5498"
             sodipodi:cy="84.083008"
             sodipodi:rx="1.63232"
             sodipodi:ry="1.63232" />
        </g>
        <path
           clip-rule="evenodd"
           d="M 242.53467,78.31836 C 239.30322,78.31836 236.56641,79.4458 234.32715,81.70215 C 232.0293,84.03516 230.88086,86.79736 230.88086,89.98633 C 230.88086,93.1753 232.0293,95.91846 234.32715,98.21338 C 236.625,100.50781 239.36133,101.65527 242.53467,101.65527 C 245.74756,101.65527 248.53272,100.49853 250.88819,98.18359 C 253.10889,95.98681 254.21827,93.2539 254.21827,89.98632 C 254.21827,86.71874 253.08936,83.95751 250.83057,81.70214 C 248.57178,79.4458 245.80615,78.31836 242.53467,78.31836 z M 242.56396,80.41797 C 245.2124,80.41797 247.46142,81.35156 249.31103,83.21875 C 251.18115,85.06592 252.11572,87.32227 252.11572,89.98633 C 252.11572,92.66992 251.20068,94.89746 249.36963,96.66699 C 247.4419,98.57275 245.17334,99.52539 242.56397,99.52539 C 239.9546,99.52539 237.70557,98.58252 235.81739,96.6958 C 233.92774,94.80957 232.98389,92.57324 232.98389,89.98633 C 232.98389,87.3999 233.93799,85.14404 235.84619,83.21875 C 237.67676,81.35156 239.9165,80.41797 242.56396,80.41797 z"
           id="path4289"
           style="fill-rule:evenodd" />
      </g>
    </g>
    <g
       id="g43042"
       clip-path="url(#clipPath43100)">
      <g
         style="opacity:0.5;fill:#001226;fill-opacity:1;stroke:none;filter:url(#filter5677)"
         id="g5595"
         transform="matrix(1.4256628,0,0,1.4256628,-338.98406,21.449645)"
         mask="none">
        <path
           sodipodi:nodetypes="cscc"
           style="fill:#001226;fill-opacity:1;fill-rule:evenodd;stroke:none;stroke-width:1px;stroke-linecap:butt;stroke-linejoin:miter;stroke-opacity:1"
           d="M 310.17249,396.16865 C 310.17249,396.16865 315.26957,322.72723 314.60002,311.60707 C 313.93047,300.48706 321.5297,311.01657 321.5297,311.01657 C 321.5297,311.01657 326.93275,379.73656 332.65394,389.31366"
           id="path5597" />
        <g
           style="fill:#001226;fill-opacity:1;stroke:none"
           id="g5599"
           transform="matrix(0.880347,-0.3617305,0.3617305,0.880347,-1062.3681,-1493.6761)">
          <path
             sodipodi:nodetypes="czszcczsz"
             id="path5601"
             d="M 613.76266,2399.7358 C 616.61593,2396.2338 621.75951,2399.2314 622.24054,2401.3001 C 622.72157,2403.3689 620.33835,2408.3466 617.83538,2420.9965 C 615.89885,2430.784 614.10762,2438.8223 614.22242,2440.5819 C 614.3372,2442.3413 622.2171,2471.6865 622.2171,2471.6865 L 616.10226,2476.0734 C 616.10226,2476.0734 602.02595,2447.7204 601.6,2443.6339 C 601.17407,2439.5474 602.86166,2432.7416 604.96682,2423.1615 C 607.988,2409.4129 610.90939,2403.238 613.76266,2399.7358 z"
             style="fill:#001226;fill-opacity:1;fill-rule:evenodd;stroke:none;stroke-width:1px;stroke-linecap:butt;stroke-linejoin:miter;stroke-opacity:1" />
          <path
             id="path5603"
             d="M 620.5945,2471.2084 L 614.65254,2474.0992 C 614.65254,2474.0992 619.34669,2488.095 620.69416,2490.3962 C 621.14882,2491.1726 622.64736,2493.0504 623.69952,2493.3707 L 620.4982,2485.9726 L 625.48475,2494.0547 C 625.9028,2494.7585 626.4055,2494.8074 627.0366,2494.5272 L 623.31695,2485.9691 L 628.65653,2494.3915 C 629.31214,2494.5819 629.31401,2494.1544 629.36902,2493.631 L 624.94545,2484.9059 L 629.99643,2491.6702 C 630.23158,2491.5312 630.60311,2490.9115 630.23132,2490.2467 C 629.73892,2489.3662 624.92347,2480.1884 625.5523,2477.053 C 625.5523,2477.053 630.2362,2480.3673 631.07212,2480.4423 C 631.59274,2480.489 633.17502,2480.146 632.71392,2479.2424 C 631.4547,2476.7748 619.9027,2470.3132 620.5945,2471.2084 z"
             style="fill:#001226;fill-opacity:1;fill-rule:evenodd;stroke:none;stroke-width:1px;stroke-linecap:butt;stroke-linejoin:miter;stroke-opacity:1"
             sodipodi:nodetypes="ccscccccccccscssc" />
        </g>
        <path
           style="fill:#001226;fill-opacity:1;fill-rule:evenodd;stroke:none;stroke-width:1px;stroke-linecap:butt;stroke-linejoin:miter;stroke-opacity:1"
           d="M 304.2671,442.18814 C 304.2671,442.18814 304.62332,455.09053 303.13108,464.3689 C 300.88141,478.35524 300.08469,509.79607 301.79472,531.92211 C 304.47872,566.65257 296.29763,597.92499 296.32378,598.89691 C 296.48976,605.0515 317.91961,598.29991 320.50379,598.12409 C 322.62218,597.98002 326.11414,564.18989 325.49023,536.9096 C 324.61048,514.99023 326.60421,486.10868 326.8618,486.36643 C 326.8618,486.36643 330.06306,526.28939 335.95702,543.90035 C 341.85082,561.51102 334.75047,598.22493 333.07225,597.66542 C 340.69401,602.50204 349.69331,601.82794 358.66781,601.25241 C 361.09663,580.16164 359.8089,565.996 359.00372,545.22497 C 358.5322,533.75151 341.88922,464.4398 341.88922,464.4398 L 342.11992,443.75298 L 304.2671,442.18814 z"
           id="path5605"
           sodipodi:nodetypes="csssscczcccccc" />
        <path
           style="fill:#001226;fill-opacity:1;fill-rule:evenodd;stroke:none;stroke-width:1px;stroke-linecap:butt;stroke-linejoin:miter;stroke-opacity:1"
           d="M 308.53038,378.02433 C 296.92134,381.41101 288.3658,388.44167 288.04311,394.53321 C 295.61006,409.76586 298.2929,417.36888 299.23387,428.99881 C 300.573,445.54942 303.99471,442.99603 303.95893,468.79084 C 322.09194,478.98746 316.02684,465.02773 342.79871,469.43803 C 341.89028,447.19514 343.10197,421.5902 353.249,404.47646 C 355.59271,400.52362 355.55612,395.37814 357.93732,390.47213 C 348.35327,384.07097 339.43849,382.25065 328.66089,377.08491 C 328.66089,377.08491 326.23174,388.00975 320.34546,388.49004 C 314.61354,388.95794 308.53038,378.02433 308.53038,378.02433 z"
           id="path5607"
           sodipodi:nodetypes="ccsccscczc" />
        <path
           id="path5609"
           d="M 342.60837,383.24857 C 348.32364,382.72958 352.42569,386.25519 357.83089,390.33894 C 357.83089,390.33894 360.22025,403.16847 362.76956,420.32969 C 355.50245,426.17194 347.8432,420.30731 341.30205,424.14707 C 340.63415,416.62705 342.60837,383.24857 342.60837,383.24857 z"
           style="fill:#001226;fill-opacity:1;fill-rule:evenodd;stroke:none;stroke-width:1px;stroke-linecap:butt;stroke-linejoin:miter;stroke-opacity:1"
           sodipodi:nodetypes="ccccc" />
        <g
           style="fill:#001226;fill-opacity:1;stroke:none"
           transform="matrix(0.8922518,-0.1120662,0.1120662,0.8922518,-517.8009,-1680.4327)"
           id="g5611">
          <path
             style="fill:#001226;fill-opacity:1;fill-rule:evenodd;stroke:none;stroke-width:1px;stroke-linecap:butt;stroke-linejoin:miter;stroke-opacity:1"
             d="M 604.94336,2399.7046 C 608.16951,2395.7449 613.98528,2399.1342 614.52918,2401.4733 C 615.07307,2403.8124 612.3784,2409.4407 609.54833,2423.7437 C 607.35872,2434.8103 605.33341,2443.8991 605.46321,2445.8886 C 605.59299,2447.878 615.53458,2482.5361 615.53458,2482.5361 L 608.62062,2487.4963 C 608.62062,2487.4963 591.67284,2453.96 591.19122,2449.3395 C 590.70963,2444.7189 592.61776,2437.0237 594.99804,2426.1916 C 598.41404,2410.6463 601.71721,2403.6644 604.94336,2399.7046 z"
             id="path5613"
             sodipodi:nodetypes="czszcczsz" />
          <path
             sodipodi:nodetypes="ccscccccccccscssc"
             style="fill:#001226;fill-opacity:1;fill-rule:evenodd;stroke:none;stroke-width:1px;stroke-linecap:butt;stroke-linejoin:miter;stroke-opacity:1"
             d="M 614.72112,2482.671 L 608.00264,2485.9395 C 608.00264,2485.9395 613.31024,2501.7644 614.83381,2504.3663 C 615.34788,2505.2442 617.04226,2507.3674 618.23192,2507.7295 L 614.61224,2499.3646 L 620.25046,2508.5029 C 620.72314,2509.2987 621.29154,2509.354 622.00511,2509.0372 L 617.79936,2499.3607 L 623.83674,2508.8838 C 624.57803,2509.099 624.58014,2508.6157 624.64234,2508.0239 L 619.64068,2498.1585 L 625.35175,2505.8068 C 625.61763,2505.6497 626.03771,2504.949 625.61733,2504.1973 C 625.06058,2503.2017 619.61583,2492.8245 620.32683,2489.2794 C 620.32683,2489.2794 625.62285,2493.0268 626.56801,2493.1116 C 627.15667,2493.1644 628.94573,2492.7766 628.42437,2491.7549 C 627.00059,2488.9648 613.93892,2481.6588 614.72112,2482.671 z"
             id="path5615" />
        </g>
        <path
           style="fill:#001226;fill-opacity:1;fill-rule:evenodd;stroke:none;stroke-width:1px;stroke-linecap:butt;stroke-linejoin:miter;stroke-opacity:1"
           d="M 289.94848,387.82033 C 295.48118,384.02577 298.62806,386.94637 300.61009,389.92064 C 302.541,392.81841 302.99526,414.26127 300.63352,423.93965 C 293.19039,431.44667 290.62982,415.02124 280.52055,420.21585 C 282.78132,399.96744 284.41574,391.61488 289.94848,387.82033 z"
           id="path5617"
           sodipodi:nodetypes="czccz" />
        <path
           style="fill:#001226;fill-opacity:1;fill-rule:evenodd;stroke:none;stroke-width:1px;stroke-linecap:butt;stroke-linejoin:miter;stroke-opacity:1"
           d="M 351.61477,374.1111 C 346.69727,379.75425 354.36046,378.93139 359.8287,376.53961 C 353.83723,389.39257 334.14304,387.97362 329.17471,382.01647 C 322.06323,371.19972 325.72646,311.79498 325.72646,311.79498 C 316.00939,300.39408 346.05507,301.49707 354.63893,304.10398 C 368.05654,311.71849 361.65266,362.59153 351.61477,374.1111 z"
           id="path5619"
           sodipodi:nodetypes="cccccs" />
        <path
           sodipodi:nodetypes="czszzccc"
           id="path5621"
           d="M 341.02388,307.21476 C 341.02388,307.21476 353.04189,310.66296 356.79034,317.47971 C 360.56282,324.34029 356.56478,328.84705 356.96449,339.95058 C 357.65174,359.03553 350.76062,374.86185 340.23534,374.94545 C 329.71157,375.02905 321.29022,369.40101 316.0892,356.92056 C 310.90544,344.48137 310.1706,339.63794 302.5189,331.77475 L 309.28739,310.47082 L 341.02388,307.21476 z"
           style="fill:#001226;fill-opacity:1;fill-rule:evenodd;stroke:none;stroke-width:1px;stroke-linecap:butt;stroke-linejoin:miter;stroke-opacity:1" />
        <path
           sodipodi:nodetypes="ccscczs"
           id="path5623"
           d="M 294.51082,376.3384 C 295.59966,380.4282 293.47581,385.38577 282.51345,382.15132 C 291.24871,396.67177 300.55315,394.75817 309.61523,385.93499 C 314.71351,380.97108 312.43223,343.0789 315.02598,335.26181 C 322.77511,311.90716 337.30461,325.69258 359.66981,317.04145 C 357.93596,294.68139 304.85558,293.22661 297.77377,322.21111 C 290.61147,351.52488 290.54412,361.43804 294.51082,376.3384 z"
           style="fill:#001226;fill-opacity:1;fill-rule:evenodd;stroke:none;stroke-width:1px;stroke-linecap:butt;stroke-linejoin:miter;stroke-opacity:1" />
        <path
           sodipodi:nodetypes="csc"
           id="path5625"
           d="M 340.45893,338.95205 C 340.0757,345.75973 341.70751,347.97463 343.30319,350.95403 C 344.44201,353.08095 341.75029,354.58653 339.18375,353.5041"
           style="fill:#001226;fill-opacity:1;fill-rule:evenodd;stroke:none;stroke-width:0.69832414px;stroke-linecap:butt;stroke-linejoin:miter;stroke-opacity:1" />
        <g
           style="fill:#001226;fill-opacity:1;stroke:none"
           id="g5627"
           transform="matrix(1.6160122,0,0,1.6160122,-1219.0826,-3402.2459)">
          <path
             style="fill:#001226;fill-opacity:1;fill-rule:evenodd;stroke:none;stroke-width:0.45502043;stroke-linecap:butt;stroke-linejoin:miter;stroke-miterlimit:4;stroke-dasharray:none;stroke-opacity:0.85326089"
             d="M 966.85553,2316.2442 C 969.50983,2312.7096 972.82141,2311.9977 974.64381,2315.0224 C 971.3972,2317.5158 970.32351,2317.481 966.85553,2316.2442 z"
             id="path5629"
             sodipodi:nodetypes="ccc" />
          <path
             sodipodi:nodetypes="ccc"
             id="path5631"
             d="M 961.75793,2316.1348 C 960.09758,2312.8546 956.86933,2312.3423 954.02406,2315.3681 C 956.6273,2317.6086 957.75713,2317.5173 961.75793,2316.1348 z"
             style="fill:#001226;fill-opacity:1;fill-rule:evenodd;stroke:none;stroke-width:0.44679549;stroke-linecap:butt;stroke-linejoin:miter;stroke-miterlimit:4;stroke-dasharray:none;stroke-opacity:0.85326089" />
          <path
             sodipodi:type="arc"
             style="opacity:1;fill:#001226;fill-opacity:1;stroke:none;stroke-width:1.5;stroke-miterlimit:4;stroke-dasharray:none;stroke-dashoffset:60;stroke-opacity:1"
             id="path5633"
             sodipodi:cx="237.24124"
             sodipodi:cy="423.47012"
             sodipodi:rx="2.1414132"
             sodipodi:ry="2.4147851"
             d="M 239.38265,423.47012 A 2.1414132,2.4147851 0 1 1 238.12875,421.27249 L 237.24124,423.47012 z"
             sodipodi:start="0"
             sodipodi:end="5.1397253"
             transform="matrix(0.3915511,0,0,0.3916251,865.59845,2149.551)" />
          <path
             sodipodi:end="5.1397253"
             sodipodi:start="0"
             d="M 239.38265,423.47012 A 2.1414132,2.4147851 0 1 1 238.12875,421.27249 L 237.24124,423.47012 z"
             sodipodi:ry="2.4147851"
             sodipodi:rx="2.1414132"
             sodipodi:cy="423.47012"
             sodipodi:cx="237.24124"
             id="path5635"
             style="opacity:1;fill:#001226;fill-opacity:1;stroke:none;stroke-width:1.5;stroke-miterlimit:4;stroke-dasharray:none;stroke-dashoffset:60;stroke-opacity:1"
             sodipodi:type="arc"
             transform="matrix(0.3915511,0,0,0.3916251,878.41055,2149.2918)" />
        </g>
        <path
           sodipodi:nodetypes="cssssc"
           id="path5637"
           d="M 346.49318,332.08285 C 346.49318,332.08285 350.09771,331.93243 351.51968,332.1914 C 352.94181,332.45006 356.11276,334.34401 356.56523,334.34401 C 357.01771,334.34401 357.14696,333.43876 356.8239,332.92173 C 356.50053,332.4044 352.98384,330.39798 351.62641,330.52663 C 350.26899,330.65649 346.36408,330.85438 346.49318,332.08285 z"
           style="fill:#001226;fill-opacity:1;fill-rule:evenodd;stroke:none;stroke-width:1px;stroke-linecap:butt;stroke-linejoin:miter;stroke-opacity:1" />
        <path
           sodipodi:nodetypes="cczc"
           id="path5639"
           d="M 351.31695,357.90684 C 342.49786,361.12767 338.69877,360.81398 329.98808,358.94422 C 333.34256,364.71799 338.64495,367.25898 341.60879,367.2874 C 344.57247,367.31567 348.61889,363.51129 351.31695,357.90684 z"
           style="fill:#001226;fill-opacity:1;fill-rule:evenodd;stroke:none;stroke-width:1.5117749px;stroke-linecap:butt;stroke-linejoin:miter;stroke-opacity:0.85326089" />
        <path
           sodipodi:nodetypes="cssssc"
           style="fill:#001226;fill-opacity:1;fill-rule:evenodd;stroke:none;stroke-width:1px;stroke-linecap:butt;stroke-linejoin:miter;stroke-opacity:1"
           d="M 333.67741,333.16664 C 333.67741,333.16664 328.20586,332.73775 326.86386,332.75332 C 325.41862,332.76965 321.90779,334.94615 321.4555,334.95295 C 321.00304,334.96006 320.8598,334.05708 321.17482,333.53476 C 321.49003,333.01274 325.54579,330.99694 326.90505,331.10488 C 328.26432,331.21343 333.78777,331.93621 333.67741,333.16664 z"
           id="path5641" />
        <path
           style="fill:#001226;fill-opacity:1;fill-rule:evenodd;stroke:none;stroke-width:1px;stroke-linecap:butt;stroke-linejoin:miter;stroke-opacity:1"
           d="M 313.97542,340.52233 C 308.09546,331.37836 298.7669,341.81883 316.21056,357.05782"
           id="path5643"
           sodipodi:nodetypes="cc" />
        <path
           transform="matrix(1.3859526,0,0,1.5707465,-1257.3884,-2869.2763)"
           d="M 1164.1988,2048.72 A 3.9165645,3.0190184 0 1 1 1156.3657,2048.72 A 3.9165645,3.0190184 0 1 1 1164.1988,2048.72 z"
           sodipodi:ry="3.0190184"
           sodipodi:rx="3.9165645"
           sodipodi:cy="2048.72"
           sodipodi:cx="1160.2822"
           id="path5645"
           style="opacity:0.35;fill:#001226;fill-opacity:1;stroke:none;stroke-width:0.5;stroke-linecap:round;stroke-linejoin:round;stroke-miterlimit:4;stroke-dasharray:none;stroke-dashoffset:0;stroke-opacity:0.85326089;filter:url(#filter5017)"
           sodipodi:type="arc" />
        <path
           sodipodi:type="arc"
           style="opacity:0.35;fill:#001226;fill-opacity:1;stroke:none;stroke-width:0.5;stroke-linecap:round;stroke-linejoin:round;stroke-miterlimit:4;stroke-dasharray:none;stroke-dashoffset:0;stroke-opacity:0.85326089;filter:url(#filter5021)"
           id="path5647"
           sodipodi:cx="1160.2822"
           sodipodi:cy="2048.72"
           sodipodi:rx="3.9165645"
           sodipodi:ry="3.0190184"
           d="M 1164.1988,2048.72 A 3.9165645,3.0190184 0 1 1 1156.3657,2048.72 A 3.9165645,3.0190184 0 1 1 1164.1988,2048.72 z"
           transform="matrix(2.062567,0,0,1.9865323,-2066.3021,-3719.8497)" />
      </g>
      <g
         mask="none"
         transform="matrix(1.4256628,0,0,1.4256628,-334.91721,21.449645)"
         id="g19505">
        <path
           id="path4580"
           d="M 310.17249,396.16865 C 310.17249,396.16865 315.26957,322.72723 314.60002,311.60707 C 313.93047,300.48706 321.5297,311.01657 321.5297,311.01657 C 321.5297,311.01657 326.93275,379.73656 332.65394,389.31366"
           style="fill:url(#linearGradient20325);fill-opacity:1;fill-rule:evenodd;stroke:none;stroke-width:1px;stroke-linecap:butt;stroke-linejoin:miter;stroke-opacity:1"
           sodipodi:nodetypes="cscc" />
        <g
           transform="matrix(0.880347,-0.3617305,0.3617305,0.880347,-1062.3681,-1493.6761)"
           id="g4566">
          <path
             style="fill:url(#linearGradient20327);fill-opacity:1;fill-rule:evenodd;stroke:none;stroke-width:1px;stroke-linecap:butt;stroke-linejoin:miter;stroke-opacity:1"
             d="M 613.76266,2399.7358 C 616.61593,2396.2338 621.75951,2399.2314 622.24054,2401.3001 C 622.72157,2403.3689 620.33835,2408.3466 617.83538,2420.9965 C 615.89885,2430.784 614.10762,2438.8223 614.22242,2440.5819 C 614.3372,2442.3413 622.2171,2471.6865 622.2171,2471.6865 L 616.10226,2476.0734 C 616.10226,2476.0734 602.02595,2447.7204 601.6,2443.6339 C 601.17407,2439.5474 602.86166,2432.7416 604.96682,2423.1615 C 607.988,2409.4129 610.90939,2403.238 613.76266,2399.7358 z"
             id="path4568"
             sodipodi:nodetypes="czszcczsz" />
          <path
             sodipodi:nodetypes="ccscccccccccscssc"
             style="fill:url(#linearGradient20329);fill-opacity:1;fill-rule:evenodd;stroke:none;stroke-width:1px;stroke-linecap:butt;stroke-linejoin:miter;stroke-opacity:1"
             d="M 620.5945,2471.2084 L 614.65254,2474.0992 C 614.65254,2474.0992 619.34669,2488.095 620.69416,2490.3962 C 621.14882,2491.1726 622.64736,2493.0504 623.69952,2493.3707 L 620.4982,2485.9726 L 625.48475,2494.0547 C 625.9028,2494.7585 626.4055,2494.8074 627.0366,2494.5272 L 623.31695,2485.9691 L 628.65653,2494.3915 C 629.31214,2494.5819 629.31401,2494.1544 629.36902,2493.631 L 624.94545,2484.9059 L 629.99643,2491.6702 C 630.23158,2491.5312 630.60311,2490.9115 630.23132,2490.2467 C 629.73892,2489.3662 624.92347,2480.1884 625.5523,2477.053 C 625.5523,2477.053 630.2362,2480.3673 631.07212,2480.4423 C 631.59274,2480.489 633.17502,2480.146 632.71392,2479.2424 C 631.4547,2476.7748 619.9027,2470.3132 620.5945,2471.2084 z"
             id="path4570" />
        </g>
        <path
           sodipodi:nodetypes="csssscczcccccc"
           id="path4061"
           d="M 304.2671,442.18814 C 304.2671,442.18814 304.62332,455.09053 303.13108,464.3689 C 300.88141,478.35524 300.08469,509.79607 301.79472,531.92211 C 304.47872,566.65257 296.29763,597.92499 296.32378,598.89691 C 296.48976,605.0515 317.91961,598.29991 320.50379,598.12409 C 322.62218,597.98002 326.11414,564.18989 325.49023,536.9096 C 324.61048,514.99023 326.60421,486.10868 326.8618,486.36643 C 326.8618,486.36643 330.06306,526.28939 335.95702,543.90035 C 341.85082,561.51102 334.75047,598.22493 333.07225,597.66542 C 340.69401,602.50204 349.69331,601.82794 358.66781,601.25241 C 361.09663,580.16164 359.8089,565.996 359.00372,545.22497 C 358.5322,533.75151 341.88922,464.4398 341.88922,464.4398 L 342.11992,443.75298 L 304.2671,442.18814 z"
           style="fill:url(#radialGradient20331);fill-opacity:1;fill-rule:evenodd;stroke:none;stroke-width:1px;stroke-linecap:butt;stroke-linejoin:miter;stroke-opacity:1" />
        <path
           sodipodi:nodetypes="ccsccscczc"
           id="path4071"
           d="M 308.53038,378.02433 C 296.92134,381.41101 288.3658,388.44167 288.04311,394.53321 C 295.61006,409.76586 298.2929,417.36888 299.23387,428.99881 C 300.573,445.54942 303.99471,442.99603 303.95893,468.79084 C 322.09194,478.98746 316.02684,465.02773 342.79871,469.43803 C 341.89028,447.19514 343.10197,421.5902 353.249,404.47646 C 355.59271,400.52362 355.55612,395.37814 357.93732,390.47213 C 348.35327,384.07097 339.43849,382.25065 328.66089,377.08491 C 328.66089,377.08491 326.23174,388.00975 320.34546,388.49004 C 314.61354,388.95794 308.53038,378.02433 308.53038,378.02433 z"
           style="fill:url(#radialGradient20333);fill-opacity:1;fill-rule:evenodd;stroke:none;stroke-width:1px;stroke-linecap:butt;stroke-linejoin:miter;stroke-opacity:1" />
        <path
           sodipodi:nodetypes="ccccc"
           style="fill:url(#linearGradient20335);fill-opacity:1;fill-rule:evenodd;stroke:none;stroke-width:1px;stroke-linecap:butt;stroke-linejoin:miter;stroke-opacity:1"
           d="M 342.60837,383.24857 C 348.32364,382.72958 352.42569,386.25519 357.83089,390.33894 C 357.83089,390.33894 360.22025,403.16847 362.76956,420.32969 C 355.50245,426.17194 347.8432,420.30731 341.30205,424.14707 C 340.63415,416.62705 342.60837,383.24857 342.60837,383.24857 z"
           id="path4067" />
        <g
           id="g4315"
           transform="matrix(0.8922518,-0.1120662,0.1120662,0.8922518,-517.8009,-1680.4327)">
          <path
             sodipodi:nodetypes="czszcczsz"
             id="path4075"
             d="M 604.94336,2399.7046 C 608.16951,2395.7449 613.98528,2399.1342 614.52918,2401.4733 C 615.07307,2403.8124 612.3784,2409.4407 609.54833,2423.7437 C 607.35872,2434.8103 605.33341,2443.8991 605.46321,2445.8886 C 605.59299,2447.878 615.53458,2482.5361 615.53458,2482.5361 L 608.62062,2487.4963 C 608.62062,2487.4963 591.67284,2453.96 591.19122,2449.3395 C 590.70963,2444.7189 592.61776,2437.0237 594.99804,2426.1916 C 598.41404,2410.6463 601.71721,2403.6644 604.94336,2399.7046 z"
             style="fill:url(#linearGradient20337);fill-opacity:1;fill-rule:evenodd;stroke:none;stroke-width:1px;stroke-linecap:butt;stroke-linejoin:miter;stroke-opacity:1" />
          <path
             id="path4079"
             d="M 614.72112,2482.671 L 608.00264,2485.9395 C 608.00264,2485.9395 613.31024,2501.7644 614.83381,2504.3663 C 615.34788,2505.2442 617.04226,2507.3674 618.23192,2507.7295 L 614.61224,2499.3646 L 620.25046,2508.5029 C 620.72314,2509.2987 621.29154,2509.354 622.00511,2509.0372 L 617.79936,2499.3607 L 623.83674,2508.8838 C 624.57803,2509.099 624.58014,2508.6157 624.64234,2508.0239 L 619.64068,2498.1585 L 625.35175,2505.8068 C 625.61763,2505.6497 626.03771,2504.949 625.61733,2504.1973 C 625.06058,2503.2017 619.61583,2492.8245 620.32683,2489.2794 C 620.32683,2489.2794 625.62285,2493.0268 626.56801,2493.1116 C 627.15667,2493.1644 628.94573,2492.7766 628.42437,2491.7549 C 627.00059,2488.9648 613.93892,2481.6588 614.72112,2482.671 z"
             style="fill:url(#linearGradient20339);fill-opacity:1;fill-rule:evenodd;stroke:none;stroke-width:1px;stroke-linecap:butt;stroke-linejoin:miter;stroke-opacity:1"
             sodipodi:nodetypes="ccscccccccccscssc" />
        </g>
        <path
           sodipodi:nodetypes="czccz"
           id="path4081"
           d="M 289.94848,387.82033 C 295.48118,384.02577 298.62806,386.94637 300.61009,389.92064 C 302.541,392.81841 302.99526,414.26127 300.63352,423.93965 C 293.19039,431.44667 290.62982,415.02124 280.52055,420.21585 C 282.78132,399.96744 284.41574,391.61488 289.94848,387.82033 z"
           style="fill:url(#linearGradient20341);fill-opacity:1;fill-rule:evenodd;stroke:none;stroke-width:1px;stroke-linecap:butt;stroke-linejoin:miter;stroke-opacity:1" />
        <path
           sodipodi:nodetypes="cccccs"
           id="path4578"
           d="M 351.61477,374.1111 C 346.69727,379.75425 354.36046,378.93139 359.8287,376.53961 C 353.83723,389.39257 334.14304,387.97362 329.17471,382.01647 C 322.06323,371.19972 325.72646,311.79498 325.72646,311.79498 C 316.00939,300.39408 346.05507,301.49707 354.63893,304.10398 C 368.05654,311.71849 361.65266,362.59153 351.61477,374.1111 z"
           style="fill:#281e12;fill-opacity:1;fill-rule:evenodd;stroke:none;stroke-width:1px;stroke-linecap:butt;stroke-linejoin:miter;stroke-opacity:1" />
        <path
           style="fill:url(#linearGradient20343);fill-opacity:1;fill-rule:evenodd;stroke:none;stroke-width:1px;stroke-linecap:butt;stroke-linejoin:miter;stroke-opacity:1"
           d="M 341.02388,307.21476 C 341.02388,307.21476 353.04189,310.66296 356.79034,317.47971 C 360.56282,324.34029 356.56478,328.84705 356.96449,339.95058 C 357.65174,359.03553 350.76062,374.86185 340.23534,374.94545 C 329.71157,375.02905 321.29022,369.40101 316.0892,356.92056 C 310.90544,344.48137 310.1706,339.63794 302.5189,331.77475 L 309.28739,310.47082 L 341.02388,307.21476 z"
           id="path4582"
           sodipodi:nodetypes="czszzccc" />
        <path
           style="fill:#281e12;fill-opacity:1;fill-rule:evenodd;stroke:none;stroke-width:1px;stroke-linecap:butt;stroke-linejoin:miter;stroke-opacity:1"
           d="M 294.51082,376.3384 C 295.59966,380.4282 293.47581,385.38577 282.51345,382.15132 C 291.24871,396.67177 300.55315,394.75817 309.61523,385.93499 C 314.71351,380.97108 312.43223,343.0789 315.02598,335.26181 C 322.77511,311.90716 337.30461,325.69258 359.66981,317.04145 C 357.93596,294.68139 304.85558,293.22661 297.77377,322.21111 C 290.61147,351.52488 290.54412,361.43804 294.51082,376.3384 z"
           id="path4610"
           sodipodi:nodetypes="ccscczs" />
        <path
           style="fill:url(#linearGradient20345);fill-opacity:1;fill-rule:evenodd;stroke:#946039;stroke-width:0.69832414px;stroke-linecap:butt;stroke-linejoin:miter;stroke-opacity:1"
           d="M 340.45893,338.95205 C 340.0757,345.75973 341.70751,347.97463 343.30319,350.95403 C 344.44201,353.08095 341.75029,354.58653 339.18375,353.5041"
           id="path4586"
           sodipodi:nodetypes="csc" />
        <g
           transform="matrix(1.6160122,0,0,1.6160122,-1219.0826,-3402.2459)"
           id="g4588">
          <path
             sodipodi:nodetypes="ccc"
             id="path4590"
             d="M 966.85553,2316.2442 C 969.50983,2312.7096 972.82141,2311.9977 974.64381,2315.0224 C 971.3972,2317.5158 970.32351,2317.481 966.85553,2316.2442 z"
             style="fill:#ffffff;fill-opacity:1;fill-rule:evenodd;stroke:#79441f;stroke-width:0.45502043;stroke-linecap:butt;stroke-linejoin:miter;stroke-miterlimit:4;stroke-dasharray:none;stroke-opacity:0.85326089" />
          <path
             style="fill:#ffffff;fill-opacity:1;fill-rule:evenodd;stroke:#79441f;stroke-width:0.44679549;stroke-linecap:butt;stroke-linejoin:miter;stroke-miterlimit:4;stroke-dasharray:none;stroke-opacity:0.85326089"
             d="M 961.75793,2316.1348 C 960.09758,2312.8546 956.86933,2312.3423 954.02406,2315.3681 C 956.6273,2317.6086 957.75713,2317.5173 961.75793,2316.1348 z"
             id="path4592"
             sodipodi:nodetypes="ccc" />
          <path
             transform="matrix(0.3915511,0,0,0.3916251,865.59845,2149.551)"
             sodipodi:end="5.1397253"
             sodipodi:start="0"
             d="M 239.38265,423.47012 A 2.1414132,2.4147851 0 1 1 238.12875,421.27249 L 237.24124,423.47012 z"
             sodipodi:ry="2.4147851"
             sodipodi:rx="2.1414132"
             sodipodi:cy="423.47012"
             sodipodi:cx="237.24124"
             id="path4594"
             style="opacity:1;fill:#131313;fill-opacity:1;stroke:none;stroke-width:1.5;stroke-miterlimit:4;stroke-dasharray:none;stroke-dashoffset:60;stroke-opacity:1"
             sodipodi:type="arc" />
          <path
             transform="matrix(0.3915511,0,0,0.3916251,878.41055,2149.2918)"
             sodipodi:type="arc"
             style="opacity:1;fill:#131313;fill-opacity:1;stroke:none;stroke-width:1.5;stroke-miterlimit:4;stroke-dasharray:none;stroke-dashoffset:60;stroke-opacity:1"
             id="path4596"
             sodipodi:cx="237.24124"
             sodipodi:cy="423.47012"
             sodipodi:rx="2.1414132"
             sodipodi:ry="2.4147851"
             d="M 239.38265,423.47012 A 2.1414132,2.4147851 0 1 1 238.12875,421.27249 L 237.24124,423.47012 z"
             sodipodi:start="0"
             sodipodi:end="5.1397253" />
        </g>
        <path
           style="fill:#281e12;fill-opacity:1;fill-rule:evenodd;stroke:none;stroke-width:1px;stroke-linecap:butt;stroke-linejoin:miter;stroke-opacity:1"
           d="M 346.49318,332.08285 C 346.49318,332.08285 350.09771,331.93243 351.51968,332.1914 C 352.94181,332.45006 356.11276,334.34401 356.56523,334.34401 C 357.01771,334.34401 357.14696,333.43876 356.8239,332.92173 C 356.50053,332.4044 352.98384,330.39798 351.62641,330.52663 C 350.26899,330.65649 346.36408,330.85438 346.49318,332.08285 z"
           id="path4598"
           sodipodi:nodetypes="cssssc" />
        <path
           style="fill:#ffffff;fill-opacity:1;fill-rule:evenodd;stroke:#ffb8a3;stroke-width:1.5117749px;stroke-linecap:butt;stroke-linejoin:miter;stroke-opacity:0.85326089"
           d="M 351.31695,357.90684 C 342.49786,361.12767 338.69877,360.81398 329.98808,358.94422 C 333.34256,364.71799 338.64495,367.25898 341.60879,367.2874 C 344.57247,367.31567 348.61889,363.51129 351.31695,357.90684 z"
           id="path4602"
           sodipodi:nodetypes="cczc" />
        <path
           id="path4600"
           d="M 333.67741,333.16664 C 333.67741,333.16664 328.20586,332.73775 326.86386,332.75332 C 325.41862,332.76965 321.90779,334.94615 321.4555,334.95295 C 321.00304,334.96006 320.8598,334.05708 321.17482,333.53476 C 321.49003,333.01274 325.54579,330.99694 326.90505,331.10488 C 328.26432,331.21343 333.78777,331.93621 333.67741,333.16664 z"
           style="fill:#281e12;fill-opacity:1;fill-rule:evenodd;stroke:none;stroke-width:1px;stroke-linecap:butt;stroke-linejoin:miter;stroke-opacity:1"
           sodipodi:nodetypes="cssssc" />
        <path
           sodipodi:nodetypes="cc"
           id="path4091"
           d="M 313.97542,340.52233 C 308.09546,331.37836 298.7669,341.81883 316.21056,357.05782"
           style="fill:url(#linearGradient20347);fill-opacity:1;fill-rule:evenodd;stroke:none;stroke-width:1px;stroke-linecap:butt;stroke-linejoin:miter;stroke-opacity:1" />
        <path
           sodipodi:type="arc"
           style="opacity:0.35;fill:#ba4d18;fill-opacity:1;stroke:none;stroke-width:0.5;stroke-linecap:round;stroke-linejoin:round;stroke-miterlimit:4;stroke-dasharray:none;stroke-dashoffset:0;stroke-opacity:0.85326089;filter:url(#filter5017)"
           id="path4628"
           sodipodi:cx="1160.2822"
           sodipodi:cy="2048.72"
           sodipodi:rx="3.9165645"
           sodipodi:ry="3.0190184"
           d="M 1164.1988,2048.72 A 3.9165645,3.0190184 0 1 1 1156.3657,2048.72 A 3.9165645,3.0190184 0 1 1 1164.1988,2048.72 z"
           transform="matrix(1.3859526,0,0,1.5707465,-1257.3884,-2869.2763)" />
        <path
           transform="matrix(2.062567,0,0,1.9865323,-2066.3021,-3719.8497)"
           d="M 1164.1988,2048.72 A 3.9165645,3.0190184 0 1 1 1156.3657,2048.72 A 3.9165645,3.0190184 0 1 1 1164.1988,2048.72 z"
           sodipodi:ry="3.0190184"
           sodipodi:rx="3.9165645"
           sodipodi:cy="2048.72"
           sodipodi:cx="1160.2822"
           id="path4654"
           style="opacity:0.35;fill:#ba4d18;fill-opacity:1;stroke:none;stroke-width:0.5;stroke-linecap:round;stroke-linejoin:round;stroke-miterlimit:4;stroke-dasharray:none;stroke-dashoffset:0;stroke-opacity:0.85326089;filter:url(#filter5021)"
           sodipodi:type="arc" />
      </g>
    </g>
    <g
       transform="matrix(3.0099552,0,0,3.0099552,-750.32255,-885.77448)"
       id="g4291">
      <g
         id="g4293"
         transform="matrix(1.146822,0,0,1.146822,563.09351,452.2553)">
        <path
           id="path4295"
           cx="475.97119"
           ry="29.209877"
           cy="252.08646"
           type="arc"
           rx="29.209877"
           d="M -154.14499,-1.09436 C -154.14157,3.73257 -158.051,7.64752 -162.87836,7.65134 C -167.70488,7.65433 -171.62026,3.74448 -171.62366,-1.0816 C -171.62366,-1.0867 -171.62366,-1.09054 -171.62366,-1.09436 C -171.62706,-5.92175 -167.71765,-9.8367 -162.89115,-9.84051 C -158.06376,-9.8435 -154.14838,-5.93365 -154.145,-1.10757 C -154.14499,-1.1033 -154.14499,-1.09863 -154.14499,-1.09436 z"
           style="fill:#ffffff" />
        <path
           id="path4297"
           d="M -162.89709,-11.26941 C -160.04528,-11.26941 -157.63372,-10.28589 -155.66412,-8.31925 C -153.69452,-6.35178 -152.70929,-3.94321 -152.70929,-1.09437 C -152.70929,1.75445 -153.67749,4.13704 -155.61304,6.05385 C -157.66779,8.07198 -160.09552,9.08022 -162.8971,9.08022 C -165.66544,9.08022 -168.0506,8.07967 -170.05428,6.07854 C -172.05794,4.07827 -173.05935,1.68672 -173.05935,-1.09437 C -173.05935,-3.87593 -172.05795,-6.28449 -170.05428,-8.31925 C -168.1017,-10.28589 -165.71568,-11.26941 -162.89709,-11.26941 z M -170.77042,-3.82825 C -171.07357,-2.96945 -171.22513,-2.05832 -171.22513,-1.09436 C -171.22513,1.16092 -170.40254,3.11054 -168.75568,4.7561 C -167.1088,6.40045 -165.14771,7.22345 -162.87156,7.22345 C -160.59623,7.22345 -158.61897,6.39276 -156.93803,4.73013 C -156.37516,4.18686 -155.91108,3.59335 -155.54747,2.95044 L -159.38365,1.24268 C -159.64339,2.53318 -160.79295,3.40473 -162.18352,3.5069 L -162.18352,5.07587 L -163.35182,5.07587 L -163.35182,3.5069 C -164.49374,3.49414 -165.59733,3.02707 -166.44035,2.28879 L -165.03958,0.87567 C -164.3643,1.51089 -163.68904,1.79617 -162.76768,1.79617 C -162.17073,1.79617 -161.5091,1.56241 -161.5091,0.78454 C -161.5091,0.50906 -161.6164,0.31747 -161.78412,0.17355 L -162.75403,-0.25901 L -163.96237,-0.79633 C -164.55929,-1.06287 -165.06511,-1.28727 -165.57347,-1.51377 L -170.77042,-3.82825 z M -162.87155,-9.43817 C -165.18092,-9.43817 -167.1335,-8.62451 -168.72928,-6.99597 C -169.16441,-6.5574 -169.54164,-6.0993 -169.86353,-5.62158 L -165.97286,-3.88955 C -165.62201,-4.96887 -164.59676,-5.62371 -163.35181,-5.69607 L -163.35181,-7.26504 L -162.18351,-7.26504 L -162.18351,-5.69607 C -161.37882,-5.65734 -160.49662,-5.43679 -159.62721,-4.76321 L -160.96412,-3.38885 C -161.45716,-3.7384 -162.07963,-3.98492 -162.70295,-3.98492 C -163.20875,-3.98492 -163.92236,-3.82992 -163.92236,-3.19513 C -163.92236,-3.09763 -163.89085,-3.01245 -163.83123,-2.93668 L -162.5301,-2.35764 L -161.64961,-1.96506 C -161.08674,-1.71344 -160.54857,-1.47501 -160.01552,-1.23743 L -154.80239,1.08343 C -154.62954,0.40093 -154.54354,-0.32544 -154.54354,-1.09437 C -154.54354,-3.41865 -155.35845,-5.38487 -156.9883,-6.99598 C -158.60193,-8.62451 -160.56302,-9.43817 -162.87155,-9.43817 z" />
      </g>
      <g
         transform="translate(105.15601,286.1023)"
         id="g4299">
        <circle
           cx="242.56226"
           cy="165.13574"
           r="10.8064"
           id="circle4301"
           sodipodi:cx="242.56226"
           sodipodi:cy="165.13574"
           sodipodi:rx="10.8064"
           sodipodi:ry="10.8064"
           style="fill:#ffffff" />
        <g
           id="g4303">
          <path
             d="M 245.68994,162.00928 C 245.68994,161.59278 245.35205,161.25537 244.93603,161.25537 L 240.16357,161.25537 C 239.74755,161.25537 239.40966,161.59277 239.40966,162.00928 L 239.40966,166.78223 L 240.74071,166.78223 L 240.74071,172.43409 L 244.3579,172.43409 L 244.3579,166.78223 L 245.68993,166.78223 L 245.68993,162.00928 L 245.68994,162.00928 z"
             id="path4305" />
          <circle
             cx="242.5498"
             cy="158.99463"
             r="1.63232"
             id="circle4307"
             sodipodi:cx="242.5498"
             sodipodi:cy="158.99463"
             sodipodi:rx="1.63232"
             sodipodi:ry="1.63232" />
        </g>
        <path
           clip-rule="evenodd"
           d="M 242.53467,153.22949 C 239.30322,153.22949 236.56641,154.35693 234.32715,156.61328 C 232.0293,158.94678 230.88086,161.70898 230.88086,164.89795 C 230.88086,168.08692 232.0293,170.82959 234.32715,173.12451 C 236.625,175.41894 239.36133,176.5664 242.53467,176.5664 C 245.74756,176.5664 248.53272,175.41015 250.88819,173.09521 C 253.10889,170.89794 254.21827,168.16552 254.21827,164.89794 C 254.21827,161.63036 253.08936,158.86913 250.83057,156.61327 C 248.57178,154.35693 245.80615,153.22949 242.53467,153.22949 z M 242.56396,155.3291 C 245.2124,155.3291 247.46142,156.26318 249.31103,158.12988 C 251.18115,159.97754 252.11572,162.2334 252.11572,164.89795 C 252.11572,167.58154 251.20068,169.80859 249.36963,171.57813 C 247.4419,173.48438 245.17334,174.43702 242.56397,174.43702 C 239.9546,174.43702 237.70557,173.49366 235.81739,171.60743 C 233.92774,169.72071 232.98389,167.48438 232.98389,164.89796 C 232.98389,162.31105 233.93799,160.05519 235.84619,158.12989 C 237.67676,156.26318 239.9165,155.3291 242.56396,155.3291 z"
           id="path4309"
           style="fill-rule:evenodd" />
      </g>
    </g>
    <g
       id="g4313"
       transform="matrix(3.0099552,0,0,3.0099552,-433.80767,-354.78544)">
      <circle
         style="fill:#ffffff"
         sodipodi:ry="10.8064"
         sodipodi:rx="10.8064"
         sodipodi:cy="240.00684"
         sodipodi:cx="242.56226"
         id="circle4315"
         r="10.8064"
         cy="240.00684"
         cx="242.56226" />
      <g
         id="g4317">
        <path
           id="path4319"
           d="M 245.68994,236.87988 C 245.68994,236.46289 245.35205,236.12597 244.93603,236.12597 L 240.16357,236.12597 C 239.74755,236.12597 239.40966,236.46288 239.40966,236.87988 L 239.40966,241.65234 L 240.74071,241.65234 L 240.74071,247.30468 L 244.3579,247.30468 L 244.3579,241.65234 L 245.68993,241.65234 L 245.68993,236.87988 L 245.68994,236.87988 z" />
        <circle
           sodipodi:ry="1.63232"
           sodipodi:rx="1.63232"
           sodipodi:cy="233.86523"
           sodipodi:cx="242.5498"
           id="circle4321"
           r="1.63232"
           cy="233.86523"
           cx="242.5498" />
      </g>
      <path
         style="fill-rule:evenodd"
         id="path4323"
         d="M 242.53467,228.10059 C 239.30322,228.10059 236.56641,229.22754 234.32715,231.48438 C 232.0293,233.81739 230.88086,236.58008 230.88086,239.76856 C 230.88086,242.95704 232.0293,245.7002 234.32715,247.99512 C 236.625,250.29004 239.36133,251.4375 242.53467,251.4375 C 245.74756,251.4375 248.53272,250.28027 250.88819,247.96582 C 253.10889,245.76855 254.21827,243.03613 254.21827,239.76855 C 254.21827,236.50097 253.08936,233.74023 250.83057,231.48437 C 248.57178,229.22754 245.80615,228.10059 242.53467,228.10059 z M 242.56396,230.2002 C 245.2124,230.2002 247.46142,231.13379 249.31103,233.00098 C 251.18115,234.84766 252.11572,237.1045 252.11572,239.76856 C 252.11572,242.45215 251.20068,244.67969 249.36963,246.44922 C 247.4419,248.35449 245.17334,249.30762 242.56397,249.30762 C 239.9546,249.30762 237.70557,248.36426 235.81739,246.47852 C 233.92774,244.5918 232.98389,242.35547 232.98389,239.76856 C 232.98389,237.18165 233.93799,234.92579 235.84619,233.00098 C 237.67676,231.13379 239.9165,230.2002 242.56396,230.2002 z"
         clip-rule="evenodd" />
    </g>
    <g
       transform="matrix(1.8812069,0,0,1.8812069,-984.66162,599.16807)"
       id="g4325">
      <path
         style="fill:#ffffff"
         d="M 743.93005,-123.39972 C 743.93634,-113.98871 736.31128,-106.35272 726.89868,-106.34491 C 717.48767,-106.34021 709.85168,-113.96213 709.84387,-123.37628 C 709.84387,-123.38409 709.84387,-123.39346 709.84387,-123.39972 C 709.83764,-132.81229 717.46264,-140.44675 726.87524,-140.45456 C 736.28784,-140.46237 743.92224,-132.83728 743.93005,-123.42471 C 743.93005,-123.4169 743.93005,-123.40909 743.93005,-123.39972 z"
         rx="29.209877"
         type="arc"
         cy="252.08646"
         ry="29.209877"
         cx="475.97119"
         id="path4327" />
      <g
         transform="translate(-23.9521,-87.92102)"
         id="g4329">
        <path
           d="M 750.57263,-54.14914 C 745.39917,-54.14914 741.02258,-52.34604 737.43976,-48.7366 C 733.76319,-45.00219 731.92566,-40.58343 731.92566,-35.4787 C 731.92566,-30.37552 733.76318,-25.98956 737.43976,-22.3161 C 741.11633,-18.64419 745.49292,-16.80823 750.57263,-16.80823 C 755.71179,-16.80823 760.16809,-18.66138 763.93835,-22.36298 C 767.48999,-25.88019 769.2666,-30.25211 769.2666,-35.4787 C 769.2666,-40.70844 767.45874,-45.12564 763.8446,-48.7366 C 760.23059,-52.34604 755.80554,-54.14914 750.57263,-54.14914 z M 750.61951,-50.79129 C 754.85547,-50.79129 758.45398,-49.29599 761.41492,-46.30691 C 764.40558,-43.3522 765.90088,-39.74435 765.90088,-35.47869 C 765.90088,-31.1849 764.43683,-27.62237 761.50708,-24.7911 C 758.42273,-21.74108 754.79297,-20.21764 750.61951,-20.21764 C 746.44294,-20.21764 742.84449,-21.72545 739.82257,-24.74578 C 736.80066,-27.76299 735.28973,-31.34115 735.28973,-35.47869 C 735.28973,-39.61935 736.81628,-43.22719 739.86944,-46.30691 C 742.79919,-49.29599 746.38196,-50.79129 750.61951,-50.79129 z"
           id="path4331" />
        <g
           id="g4333">
          <path
             d="M 757.65088,-39.90375 L 744.07727,-39.90375 L 744.07727,-36.68964 L 757.65088,-36.68964 L 757.65088,-39.90375 z M 757.65088,-33.90369 L 744.07727,-33.90369 L 744.07727,-30.68961 L 757.65088,-30.68961 L 757.65088,-33.90369 z"
             id="path4335" />
        </g>
      </g>
    </g>
    <g
       transform="matrix(3.0099552,0,0,3.0099552,-723.35422,-893.03193)"
       id="g4337">
      <g
         id="g4339"
         transform="translate(135.29289,714.97338)">
        <g
           id="g4341"
           transform="matrix(1.146822,0,0,1.146822,-67.14005,-41.89676)">
          <path
             id="path4343"
             cx="475.97119"
             ry="29.209877"
             cy="252.08646"
             type="arc"
             rx="29.209877"
             d="M 269.61823,-131.7348 C 269.62247,-126.90787 265.71222,-122.99292 260.88486,-122.98907 C 256.05832,-122.98611 252.14295,-126.89593 252.13956,-131.72204 C 252.13956,-131.72714 252.13956,-131.73098 252.13956,-131.7348 C 252.13614,-136.56216 256.04642,-140.47711 260.87293,-140.48095 C 265.69944,-140.48394 269.61481,-136.57409 269.61823,-131.74801 C 269.61823,-131.74374 269.61823,-131.73907 269.61823,-131.7348 z"
             style="fill:#ffffff" />
          <path
             id="path4345"
             d="M 260.86526,-141.90982 C 263.71875,-141.90982 266.12945,-140.9263 268.09909,-138.95969 C 270.06869,-136.99219 271.05392,-134.58362 271.05392,-131.73481 C 271.05392,-128.88642 270.08572,-126.5034 268.15017,-124.58659 C 266.09539,-122.56843 263.6668,-121.56022 260.86526,-121.56022 C 258.0986,-121.56022 255.71261,-122.56077 253.70892,-124.5619 C 251.70526,-126.56214 250.70385,-128.95368 250.70385,-131.73481 C 250.70385,-134.51637 251.70525,-136.92493 253.70892,-138.95969 C 255.6615,-140.9263 258.04752,-141.90982 260.86526,-141.90982 z M 252.9928,-134.46866 C 252.68964,-133.6099 252.53723,-132.69876 252.53723,-131.7348 C 252.53723,-129.47952 253.36151,-127.5299 255.00839,-125.88431 C 256.65524,-124.23999 258.61636,-123.41742 260.89166,-123.41742 C 263.1661,-123.41742 265.14422,-124.24808 266.82516,-125.91028 C 267.38803,-126.45398 267.85214,-127.04709 268.21572,-127.69 L 264.37954,-129.39776 C 264.11984,-128.10726 262.96941,-127.23571 261.5797,-127.13351 L 261.5797,-125.56457 L 260.41137,-125.56457 L 260.41137,-127.13351 C 259.26946,-127.1463 258.16674,-127.61337 257.32287,-128.35165 L 258.72448,-129.76477 C 259.39892,-129.12952 260.07418,-128.8447 260.99554,-128.8447 C 261.59246,-128.8447 262.25412,-129.07801 262.25412,-129.8559 C 262.25412,-130.13135 262.14767,-130.32297 261.97992,-130.46729 L 261.00919,-130.89817 L 259.8017,-131.43677 C 259.20392,-131.70331 258.69724,-131.92768 258.18973,-132.15418 L 252.9928,-134.46866 z M 260.89166,-140.07861 C 258.58145,-140.07861 256.6297,-139.26495 255.03308,-137.63638 C 254.59878,-137.19784 254.2207,-136.74014 253.90054,-136.26199 L 257.78952,-134.52996 C 258.1412,-135.60931 259.16644,-136.26412 260.41138,-136.33651 L 260.41138,-137.90548 L 261.57971,-137.90548 L 261.57971,-136.33651 C 262.3844,-136.29775 263.2666,-136.07723 264.13601,-135.40365 L 262.7991,-134.02926 C 262.30606,-134.37927 261.68359,-134.62536 261.06027,-134.62536 C 260.55444,-134.62536 259.83999,-134.47036 259.83999,-133.83468 C 259.83999,-133.73803 259.87322,-133.65289 259.93197,-133.57626 L 261.23312,-132.99807 L 262.11361,-132.60549 C 262.67648,-132.35387 263.21465,-132.11544 263.74685,-131.87829 L 268.96084,-129.557 C 269.13284,-130.2395 269.21969,-130.96587 269.21969,-131.7348 C 269.21969,-134.05823 268.40478,-136.02569 266.77493,-137.63638 C 265.16129,-139.26495 263.20102,-140.07861 260.89166,-140.07861 z" />
        </g>
      </g>
      <g
         id="g4347"
         transform="matrix(0.624995,0,0,0.624995,164.63612,824.85118)">
        <path
           id="path4349"
           cx="475.97119"
           ry="29.209877"
           cy="252.08646"
           type="arc"
           rx="29.209877"
           d="M 387.83435,-482.97366 C 387.84216,-473.56265 380.2171,-465.92666 370.80609,-465.91885 C 361.39349,-465.91342 353.75751,-473.53689 353.75122,-482.95022 C 353.75122,-482.9573 353.75122,-482.96664 353.75122,-482.97366 C 353.74499,-492.38546 361.36847,-500.02145 370.78107,-500.02853 C 380.19208,-500.03634 387.82807,-492.41128 387.83435,-482.99948 C 387.83435,-482.99008 387.83435,-482.98306 387.83435,-482.97366 z"
           style="fill:#ffffff" />
        <g
           id="g4351"
           transform="translate(-23.9521,-87.92102)">
          <path
             id="path4353"
             d="M 394.47845,-413.72311 C 389.30651,-413.72311 384.9284,-411.92001 381.34552,-408.30978 C 377.66895,-404.5762 375.83142,-400.15817 375.83142,-395.05264 C 375.83142,-389.94949 377.66894,-385.56271 381.34552,-381.89084 C 385.02057,-378.21896 389.40027,-376.38297 394.47845,-376.38297 C 399.61914,-376.38297 404.07385,-378.23533 407.84417,-381.93613 C 411.39422,-385.45334 413.17236,-389.82608 413.17236,-395.05265 C 413.17236,-400.28239 411.36456,-404.69962 407.75042,-408.30979 C 404.13635,-411.92001 399.7113,-413.72311 394.47845,-413.72311 z M 394.5238,-410.36453 C 398.76129,-410.36453 402.3598,-408.86996 405.32074,-405.88168 C 408.3114,-402.92617 409.80518,-399.31753 409.80518,-395.05264 C 409.80518,-390.75888 408.34266,-387.19638 405.41449,-384.36508 C 402.32855,-381.31503 398.69879,-379.79239 394.5238,-379.79239 C 390.34875,-379.79239 386.7503,-381.3002 383.72839,-384.31979 C 380.70648,-387.337 379.19555,-390.91592 379.19555,-395.05264 C 379.19555,-399.19333 380.7221,-402.80197 383.77679,-405.88168 C 386.70496,-408.86996 390.28625,-410.36453 394.5238,-410.36453 z" />
          <g
             id="g4355">
            <path
               id="path4357"
               d="M 401.55505,-399.47849 L 387.98468,-399.47849 L 387.98468,-396.26359 L 401.55505,-396.26359 L 401.55505,-399.47849 z M 401.55505,-393.47763 L 387.98468,-393.47763 L 387.98468,-390.26358 L 401.55505,-390.26358 L 401.55505,-393.47763 z" />
          </g>
        </g>
      </g>
      <g
         transform="translate(-153.18898,506.92358)"
         id="g4359">
        <circle
           cx="491.9473"
           cy="15.31396"
           r="10.80615"
           id="circle4361"
           sodipodi:cx="491.9473"
           sodipodi:cy="15.31396"
           sodipodi:rx="10.80615"
           sodipodi:ry="10.80615"
           style="fill:#ffffff" />
        <g
           id="g4363">
          <path
             d="M 495.07474,12.18701 C 495.07474,11.77051 494.73685,11.43359 494.32083,11.43359 L 489.54837,11.43359 C 489.13235,11.43359 488.79446,11.7705 488.79446,12.18701 L 488.79446,16.95996 L 490.12551,16.95996 L 490.12551,22.6123 L 493.7427,22.6123 L 493.7427,16.95996 L 495.07473,16.95996 L 495.07473,12.18701 L 495.07474,12.18701 z"
             id="path4365" />
          <circle
             cx="491.9346"
             cy="9.1723604"
             r="1.63232"
             id="circle4367"
             sodipodi:cx="491.9346"
             sodipodi:cy="9.1723604"
             sodipodi:rx="1.63232"
             sodipodi:ry="1.63232" />
        </g>
        <path
           clip-rule="evenodd"
           d="M 491.91946,3.40771 C 488.68801,3.40771 485.95169,4.53515 483.71243,6.7915 C 481.41458,9.12451 480.26614,11.88671 480.26614,15.07568 C 480.26614,18.26465 481.41458,21.00781 483.71243,23.30273 C 486.01028,25.59716 488.74661,26.74462 491.91946,26.74462 C 495.13235,26.74462 497.91751,25.58788 500.27395,23.27294 C 502.49368,21.07616 503.60305,18.34325 503.60305,15.07567 C 503.60305,11.80809 502.47414,9.04735 500.21535,6.79149 C 497.95657,4.53516 495.19193,3.40771 491.91946,3.40771 z M 491.94974,5.50732 C 494.59818,5.50732 496.84622,6.44091 498.69583,8.3081 C 500.56595,10.15527 501.50052,12.41162 501.50052,15.07568 C 501.50052,17.75927 500.58548,19.98681 498.75443,21.75634 C 496.8267,23.6621 494.55814,24.61474 491.94974,24.61474 C 489.33939,24.61474 487.09036,23.67187 485.20169,21.78564 C 483.31302,19.89892 482.36868,17.66259 482.36868,15.07568 C 482.36868,12.48925 483.32278,10.23339 485.23098,8.3081 C 487.06204,6.44092 489.3013,5.50732 491.94974,5.50732 z"
           id="path4369"
           style="fill-rule:evenodd" />
      </g>
    </g>
    <g
       transform="matrix(3.0099552,0,0,3.0099552,-1268.1546,323.57635)"
       id="g4371">
      <g
         transform="translate(27.811531,-5.9904763)"
         id="g4373">
        <circle
           cx="491.94629"
           cy="90.231934"
           r="10.80615"
           id="circle4375"
           sodipodi:cx="491.94629"
           sodipodi:cy="90.231934"
           sodipodi:rx="10.80615"
           sodipodi:ry="10.80615"
           style="fill:#ffffff" />
        <g
           id="g4377">
          <path
             d="M 495.07373,87.10498 C 495.07373,86.68848 494.73584,86.35107 494.31982,86.35107 L 489.54736,86.35107 C 489.13134,86.35107 488.79345,86.68847 488.79345,87.10498 L 488.79345,91.87793 L 490.1245,91.87793 L 490.1245,97.52979 L 493.74169,97.52979 L 493.74169,91.87793 L 495.07372,91.87793 L 495.07372,87.10498 L 495.07373,87.10498 z"
             id="path4379" />
          <circle
             cx="491.93359"
             cy="84.090332"
             r="1.63232"
             id="circle4381"
             sodipodi:cx="491.93359"
             sodipodi:cy="84.090332"
             sodipodi:rx="1.63232"
             sodipodi:ry="1.63232" />
        </g>
        <path
           clip-rule="evenodd"
           d="M 491.91846,78.3252 C 488.68701,78.3252 485.95069,79.45313 483.71143,81.70899 C 481.41358,84.04249 480.26514,86.80469 480.26514,89.99366 C 480.26514,93.18263 481.41358,95.9253 483.71143,98.22071 C 486.00928,100.51466 488.74561,101.6626 491.91846,101.6626 C 495.13135,101.6626 497.91651,100.50586 500.27295,98.19092 C 502.49268,95.99365 503.60205,93.26123 503.60205,89.99365 C 503.60205,86.72607 502.47314,83.96484 500.21435,81.70898 C 497.95556,79.45312 495.19092,78.3252 491.91846,78.3252 z M 491.94873,80.4248 C 494.59717,80.4248 496.84521,81.35888 498.69482,83.22607 C 500.56494,85.07324 501.49951,87.32959 501.49951,89.99365 C 501.49951,92.67724 500.58447,94.90429 498.75342,96.67431 C 496.82569,98.58007 494.55713,99.53271 491.94873,99.53271 C 489.33838,99.53271 487.08935,98.58984 485.20068,96.70312 C 483.31201,94.81689 482.36767,92.58056 482.36767,89.99365 C 482.36767,87.40674 483.32177,85.15136 485.22997,83.22607 C 487.06104,81.35889 489.30029,80.4248 491.94873,80.4248 z"
           id="path4383"
           style="fill-rule:evenodd" />
      </g>
      <g
         id="g4385"
         transform="matrix(0.624995,0,0,0.624995,185.08423,310.94232)">
        <path
           id="path4387"
           cx="475.97119"
           ry="29.209877"
           cy="252.08646"
           type="arc"
           rx="29.209877"
           d="M 644.57642,-363.11569 C 644.58423,-353.70389 636.95911,-346.0679 627.54663,-346.06088 C 618.13403,-346.05539 610.49963,-353.67813 610.4917,-363.09225 C 610.4917,-363.09927 610.4917,-363.10867 610.4917,-363.11569 C 610.48547,-372.52749 618.1106,-380.16348 627.52161,-380.1705 C 636.93421,-380.17752 644.56861,-372.55246 644.57642,-363.14145 C 644.57642,-363.13211 644.57642,-363.12509 644.57642,-363.11569 z"
           style="fill:#ffffff" />
        <g
           id="g4389"
           transform="translate(-23.9521,-89.72962)">
          <path
             id="path4391"
             d="M 651.36426,-292.05655 C 646.19238,-292.05655 641.81421,-290.25107 638.23291,-286.64322 C 634.5564,-282.90878 632.71729,-278.48923 632.71729,-273.38608 C 632.71729,-268.28293 634.5564,-263.89615 638.23291,-260.22348 C 641.90796,-256.55154 646.28613,-254.71561 651.36426,-254.71561 C 656.50501,-254.71561 660.95972,-256.56797 664.72998,-260.26957 C 668.28162,-263.78678 670.05823,-268.15873 670.05823,-273.38609 C 670.05823,-278.61351 668.25196,-283.03306 664.63623,-286.64323 C 661.02222,-290.25107 656.59875,-292.05655 651.36426,-292.05655 z M 651.41113,-288.69559 C 655.64868,-288.69559 659.2456,-287.20261 662.20654,-284.21427 C 665.19726,-281.25883 666.6925,-277.65098 666.6925,-273.38608 C 666.6925,-269.09232 665.22851,-265.52976 662.2987,-262.69614 C 659.21594,-259.64768 655.58459,-258.12345 651.41113,-258.12345 C 647.23608,-258.12345 643.63769,-259.63285 640.61572,-262.65085 C 637.59387,-265.66959 636.08288,-269.24698 636.08288,-273.38608 C 636.08288,-277.52518 637.6079,-281.13455 640.66259,-284.21427 C 643.59082,-287.20261 647.17358,-288.69559 651.41113,-288.69559 z" />
          <path
             id="path4393"
             d="M 643.08923,-276.02048 C 643.833,-280.71897 647.13928,-283.22989 651.28466,-283.22989 C 657.24401,-283.22989 660.87682,-278.90488 660.87682,-273.13767 C 660.87682,-267.5095 657.01122,-263.13913 651.19078,-263.13913 C 647.18614,-263.13913 643.6002,-265.60245 642.94859,-270.43997 L 647.65171,-270.43997 C 647.79233,-267.92898 649.4221,-267.04465 651.75022,-267.04465 C 654.40342,-267.04465 656.12681,-269.50949 656.12681,-273.27671 C 656.12681,-277.23142 654.6378,-279.32285 651.84239,-279.32285 C 649.79393,-279.32285 648.02513,-278.57834 647.65172,-276.02048 L 649.01891,-276.02988 L 645.31737,-272.32669 L 641.61571,-276.02988 L 643.08923,-276.02048 z" />
        </g>
      </g>
      <g
         id="g4395"
         transform="matrix(1.146822,0,0,1.146822,-55.778583,160.16252)">
        <path
           id="path4397"
           cx="475.97119"
           ry="29.209877"
           cy="252.08646"
           type="arc"
           rx="29.209877"
           d="M 536.23669,-66.41458 C 536.24096,-61.18613 532.00543,-56.94675 526.77868,-56.94208 C 521.55108,-56.93866 517.30956,-61.17337 517.30615,-66.40094 C 517.30615,-66.40564 517.30615,-66.41031 517.30615,-66.41458 C 517.30194,-71.64218 521.53747,-75.88241 526.76422,-75.88708 C 531.99182,-75.8905 536.23334,-71.65536 536.23669,-66.42819 C 536.23669,-66.42438 536.23669,-66.41882 536.23669,-66.41458 z"
           style="fill:#ffffff" />
        <path
           id="path4399"
           d="M 526.75824,-76.5896 C 529.6109,-76.5896 532.02161,-75.60565 533.99121,-73.63944 C 535.96167,-71.67197 536.94604,-69.2634 536.94604,-66.41459 C 536.94604,-63.56578 535.97784,-61.18318 534.04315,-59.26634 C 531.98755,-57.24821 529.55981,-56.23958 526.75824,-56.23958 C 523.99072,-56.23958 521.60474,-57.24013 519.60193,-59.24123 C 517.59827,-61.2415 516.59601,-63.63347 516.59601,-66.4146 C 516.59601,-69.19573 517.59827,-71.6043 519.60193,-73.63945 C 521.5545,-75.60565 523.93964,-76.5896 526.75824,-76.5896 z M 518.8858,-69.14801 C 518.58178,-68.28967 518.43023,-67.37851 518.43023,-66.41458 C 518.43023,-64.15884 519.25366,-62.20926 520.90051,-60.56409 C 522.54736,-58.91935 524.50848,-58.09674 526.78381,-58.09674 C 529.05908,-58.09674 531.03723,-58.92743 532.71814,-60.58963 C 533.28015,-61.13333 533.74426,-61.72644 534.10785,-62.36935 L 530.27252,-64.07751 C 530.01282,-62.78659 528.86242,-61.91546 527.47186,-61.81286 L 527.47186,-60.24389 L 526.30353,-60.24389 L 526.30353,-61.81286 C 525.16248,-61.82604 524.0589,-62.29312 523.21503,-63.0314 L 524.61664,-64.44412 C 525.29187,-63.80929 525.96631,-63.52402 526.8877,-63.52402 C 527.48548,-63.52402 528.1471,-63.75736 528.1471,-64.53565 C 528.1471,-64.8107 528.0398,-65.00272 527.87208,-65.14664 L 526.90217,-65.5788 L 525.69386,-66.11655 C 525.09608,-66.38263 524.59022,-66.60746 524.08271,-66.83396 L 518.8858,-69.14801 z M 526.78381,-74.75793 C 524.47442,-74.75793 522.5227,-73.9443 520.92608,-72.31573 C 520.49175,-71.87762 520.1137,-71.41949 519.79266,-70.94134 L 523.68249,-69.20974 C 524.03417,-70.28863 525.05944,-70.94347 526.30352,-71.01629 L 526.30352,-72.58523 L 527.47185,-72.58523 L 527.47185,-71.01629 C 528.27654,-70.97711 529.15874,-70.75655 530.02898,-70.083 L 528.69207,-68.70904 C 528.19817,-69.05859 527.57574,-69.30511 526.95238,-69.30511 C 526.44658,-69.30511 525.73296,-69.15014 525.73296,-68.51532 C 525.73296,-68.41782 525.76537,-68.33225 525.82409,-68.25687 L 527.12524,-67.6774 L 528.00573,-67.28485 C 528.56945,-67.03363 529.1068,-66.79523 529.63982,-66.55765 L 534.85381,-64.23633 C 535.02581,-64.91928 535.11181,-65.64563 535.11181,-66.41458 C 535.11181,-68.73886 534.29693,-70.70505 532.6679,-72.31573 C 531.05426,-73.94431 529.09314,-74.75793 526.78381,-74.75793 z" />
      </g>
    </g>
    <text
       xml:space="preserve"
       style="font-size:25.98800468px;font-style:normal;font-weight:bold;writing-mode:lr-tb;fill:#121513;fill-opacity:1;stroke:none;stroke-width:1px;stroke-linecap:butt;stroke-linejoin:miter;stroke-opacity:1;font-family:'Bitstream Vera Sans'"
       x="550.20929"
       y="167.1049"
       id="text5699"><tspan
         sodipodi:role="line"
         id="tspan5701"
         x="550.20929"
         y="167.1049">Attribution</tspan></text>
    <text
       id="text5703"
       y="270.85727"
       x="550.22235"
       style="font-size:23.32131386px;font-style:normal;font-weight:bold;writing-mode:lr-tb;fill:#121513;fill-opacity:1;stroke:none;stroke-width:1px;stroke-linecap:butt;stroke-linejoin:miter;stroke-opacity:1;font-family:'Bitstream Vera Sans'"
       xml:space="preserve"><tspan
         y="270.85727"
         x="550.22235"
         id="tspan5705"
         sodipodi:role="line">Attribution ShareAlike</tspan></text>
    <text
       xml:space="preserve"
       style="font-size:22.88038826px;font-style:normal;font-weight:bold;writing-mode:lr-tb;fill:#121513;fill-opacity:1;stroke:none;stroke-width:1px;stroke-linecap:butt;stroke-linejoin:miter;stroke-opacity:1;font-family:'Bitstream Vera Sans'"
       x="550.22449"
       y="480.24515"
       id="text5707"><tspan
         sodipodi:role="line"
         id="tspan5709"
         x="550.22449"
         y="480.24515">Attribution Noncommercial</tspan></text>
    <text
       id="text5711"
       y="375.57883"
       x="550.22418"
       style="font-size:22.93746948px;font-style:normal;font-weight:bold;writing-mode:lr-tb;fill:#121513;fill-opacity:1;stroke:none;stroke-width:1px;stroke-linecap:butt;stroke-linejoin:miter;stroke-opacity:1;font-family:'Bitstream Vera Sans'"
       xml:space="preserve"><tspan
         y="375.57883"
         x="550.22418"
         id="tspan5713"
         sodipodi:role="line">Attribution No Derivatives</tspan></text>
    <text
       xml:space="preserve"
       style="font-size:22.11854935px;font-style:normal;font-weight:bold;writing-mode:lr-tb;fill:#121513;fill-opacity:1;stroke:none;stroke-width:1px;stroke-linecap:butt;stroke-linejoin:miter;stroke-opacity:1;font-family:'Bitstream Vera Sans'"
       x="550.19305"
       y="689.39459"
       id="text5715"><tspan
         sodipodi:role="line"
         id="tspan5717"
         x="550.19305"
         y="689.39459">Attribution Noncommercial No Derivatives</tspan></text>
    <text
       id="text5719"
       y="586.19623"
       x="550.22754"
       style="font-size:22.25522995px;font-style:normal;font-weight:bold;writing-mode:lr-tb;fill:#121513;fill-opacity:1;stroke:none;stroke-width:1px;stroke-linecap:butt;stroke-linejoin:miter;stroke-opacity:1;font-family:'Bitstream Vera Sans'"
       xml:space="preserve"><tspan
         y="586.19623"
         x="550.22754"
         id="tspan5721"
         sodipodi:role="line">Attribution Noncommercial ShareAlike</tspan></text>
    <g
       id="g11708"
       transform="matrix(1.2933628,0,0,1.2933628,531.13721,82.502582)"
       style="opacity:1">
      <path
         transform="matrix(1.0434783,0,0,1.0434783,-19.086957,-24.478261)"
         d="M 462,563 A 23,23 0 1 1 416,563 A 23,23 0 1 1 462,563 z"
         sodipodi:ry="23"
         sodipodi:rx="23"
         sodipodi:cy="563"
         sodipodi:cx="439"
         id="path11706"
         style="opacity:1;fill:#ffffff;fill-opacity:1;stroke:none;stroke-width:4;stroke-linecap:round;stroke-linejoin:round;stroke-miterlimit:4;stroke-dasharray:4, 8;stroke-dashoffset:0;stroke-opacity:0.85326089"
         sodipodi:type="arc" />
      <path
         id="text11701"
         d="M 438.94946,534.7 C 446.86669,534.70006 453.60478,537.46267 459.16375,542.98786 C 461.82525,545.64945 463.84667,548.69844 465.22804,552.13482 C 466.60929,555.5376 467.29994,559.15932 467.3,563 C 467.29994,566.87443 466.60929,570.513 465.22804,573.91571 C 463.88036,577.28478 461.87578,580.26638 459.21429,582.86054 C 456.45162,585.58947 453.31841,587.67828 449.81464,589.12696 C 446.3108,590.57566 442.68908,591.3 438.94946,591.3 C 435.2098,591.3 431.62176,590.5925 428.18536,589.1775 C 424.7826,587.72881 421.71677,585.65685 418.98786,582.96161 C 416.29261,580.23269 414.2375,577.16686 412.8225,573.76411 C 411.4075,570.36139 410.7,566.77336 410.7,563 C 410.7,559.26039 411.4075,555.67236 412.8225,552.23589 C 414.27119,548.76582 416.35999,545.6663 419.08893,542.93732 C 424.47939,537.44583 431.09956,534.70006 438.94946,534.7 M 439.05054,539.80411 C 432.58194,539.80416 427.14094,542.06142 422.7275,546.57589 C 420.50392,548.8332 418.78571,551.37683 417.57286,554.20679 C 416.39368,557.00313 415.8041,559.9342 415.80411,563 C 415.8041,566.03217 416.39368,568.96324 417.57286,571.79321 C 418.78571,574.58954 420.50392,577.09948 422.7275,579.32304 C 424.95106,581.51293 427.461,583.19745 430.25732,584.37661 C 433.05361,585.52209 435.98468,586.09483 439.05054,586.09482 C 442.08265,586.09483 445.01372,585.50524 447.84375,584.32607 C 450.7074,583.14691 453.28472,581.44555 455.57571,579.22196 C 459.98912,574.9096 462.19584,569.50228 462.19589,563 C 462.19584,559.86682 461.6231,556.90206 460.47768,554.10571 C 459.33215,551.30944 457.66448,548.81635 455.47464,546.62643 C 450.92639,542.07826 445.45169,539.80416 439.05054,539.80411 M 438.69679,558.30018 L 434.90661,560.27107 C 434.5023,559.42884 433.99694,558.83926 433.39054,558.50232 C 432.81778,558.16545 432.27873,557.997 431.77339,557.99696 C 429.24659,557.997 427.9832,559.66467 427.98321,563 C 427.9832,564.5161 428.30326,565.72895 428.94339,566.63857 C 429.58349,567.54824 430.52683,568.00306 431.77339,568.00304 C 433.4242,568.00306 434.58652,567.19449 435.26036,565.57732 L 438.74732,567.34607 C 438.0061,568.7274 436.97855,569.82234 435.66464,570.63089 C 434.35069,571.40579 432.902,571.79323 431.31857,571.79321 C 428.79177,571.79323 426.7535,571.01835 425.20375,569.46857 C 423.65398,567.91883 422.87909,565.76264 422.87911,563 C 422.87909,560.30479 423.65398,558.16545 425.20375,556.58196 C 426.78719,554.99855 428.77492,554.20682 431.16696,554.20679 C 434.67075,554.20682 437.18069,555.57129 438.69679,558.30018 M 455.01982,558.30018 L 451.28018,560.27107 C 450.87585,559.42884 450.3705,558.83926 449.76411,558.50232 C 449.19133,558.16545 448.63544,557.997 448.09643,557.99696 C 445.56961,557.997 444.30622,559.66467 444.30625,563 C 444.30622,564.5161 444.62628,565.72895 445.26643,566.63857 C 445.90651,567.54824 446.84984,568.00306 448.09643,568.00304 C 449.74722,568.00306 450.90954,567.19449 451.58339,565.57732 L 455.12089,567.34607 C 454.34597,568.7274 453.30156,569.82234 451.98768,570.63089 C 450.67371,571.40579 449.24187,571.79323 447.69214,571.79321 C 445.13163,571.79323 443.07652,571.01835 441.52679,569.46857 C 440.01068,567.91883 439.25265,565.76264 439.25268,563 C 439.25265,560.30479 440.02753,558.16545 441.57732,556.58196 C 443.16074,554.99855 445.14848,554.20682 447.54054,554.20679 C 451.0443,554.20682 453.5374,555.57129 455.01982,558.30018"
         style="font-size:70.75px;font-style:normal;font-weight:bold;writing-mode:lr-tb;fill:#000000;fill-opacity:1;stroke:none;stroke-width:1px;stroke-linecap:butt;stroke-linejoin:miter;stroke-opacity:1;font-family:'CC Icons'" />
    </g>
  </g>
</svg>
