<?xml version="1.0" encoding="UTF-8" standalone="no"?>
<!-- Created with Inkscape (http://www.inkscape.org/) -->
<svg
   xmlns:dc="http://purl.org/dc/elements/1.1/"
   xmlns:cc="http://web.resource.org/cc/"
   xmlns:rdf="http://www.w3.org/1999/02/22-rdf-syntax-ns#"
   xmlns:svg="http://www.w3.org/2000/svg"
   xmlns="http://www.w3.org/2000/svg"
   xmlns:xlink="http://www.w3.org/1999/xlink"
   xmlns:sodipodi="http://sodipodi.sourceforge.net/DTD/sodipodi-0.dtd"
   xmlns:inkscape="http://www.inkscape.org/namespaces/inkscape"
   width="720px"
   height="486px"
   id="svg2160"
   sodipodi:version="0.32"
   inkscape:version="0.45.1"
   sodipodi:docbase="/Users/rebecca/Documents/creative_commons/videobumpers/simple/grad"
   sodipodi:docname="by-nc-nd_grad.svg"
   inkscape:output_extension="org.inkscape.output.svg.inkscape"
   inkscape:export-filename="/Users/rebecca/Documents/creative_commons/videobumpers/simple/grad/png/by-nc-nd_grad.png"
   inkscape:export-xdpi="90"
   inkscape:export-ydpi="90">
  <defs
     id="defs2162">
    <linearGradient
       id="linearGradient8212">
      <stop
         style="stop-color:#5e5322;stop-opacity:1;"
         offset="0"
         id="stop8214" />
      <stop
         id="stop8220"
         offset="0.5"
         style="stop-color:#b09a0f;stop-opacity:1;" />
      <stop
         style="stop-color:#edd612;stop-opacity:1;"
         offset="1"
         id="stop8216" />
    </linearGradient>
    <linearGradient
       id="linearGradient6151">
      <stop
         style="stop-color:#5e5322;stop-opacity:1;"
         offset="0"
         id="stop6153" />
      <stop
         id="stop6159"
         offset="0.5"
         style="stop-color:#5e5322;stop-opacity:0.49803922;" />
      <stop
         style="stop-color:#5e5322;stop-opacity:0;"
         offset="1"
         id="stop6155" />
    </linearGradient>
    <linearGradient
       inkscape:collect="always"
       xlink:href="#linearGradient8212"
       id="linearGradient8218"
       x1="398.66666"
       y1="619.02332"
       x2="398.66666"
       y2="-12.348995"
       gradientUnits="userSpaceOnUse" />
    <filter
       inkscape:collect="always"
       id="filter7788">
      <feGaussianBlur
         inkscape:collect="always"
         stdDeviation="4.111933"
         id="feGaussianBlur7790" />
    </filter>
  </defs>
  <sodipodi:namedview
     id="base"
     pagecolor="#ffffff"
     bordercolor="#666666"
     borderopacity="1.0"
     inkscape:pageopacity="0.0"
     inkscape:pageshadow="2"
     inkscape:zoom="0.75"
     inkscape:cx="387.89889"
     inkscape:cy="234.31277"
     inkscape:document-units="px"
     inkscape:current-layer="layer1"
     inkscape:window-width="931"
     inkscape:window-height="622"
     inkscape:window-x="17"
     inkscape:window-y="22" />
  <metadata
     id="metadata2165">
    <rdf:RDF>
      <cc:Work
         rdf:about="">
        <dc:format>image/svg+xml</dc:format>
        <dc:type
           rdf:resource="http://purl.org/dc/dcmitype/StillImage" />
      </cc:Work>
    </rdf:RDF>
  </metadata>
  <g
     id="layer1"
     inkscape:label="Layer 1"
     inkscape:groupmode="layer">
    <rect
       style="opacity:1;fill:url(#linearGradient8218);fill-opacity:1;stroke-width:0.69999999;stroke-miterlimit:4;stroke-dasharray:none;stroke-opacity:1"
       id="rect2168"
       width="720"
       height="486"
       x="1.3333333"
       y="2"
       ry="0" />
    <g
       transform="translate(2,1.6762712)"
       id="g6789"
       style="opacity:0.6;fill:#121513;filter:url(#filter7788)">
      <text
         xml:space="preserve"
         style="font-size:20px;fill:#121513"
         x="68.369469"
         y="318.37961"
         id="text6791"><tspan
           sodipodi:role="line"
           x="68.369469"
           y="318.37961"
           id="tspan6793">Except where otherwise noted, this work is licensed under </tspan></text>
      <text
         xml:space="preserve"
         style="font-size:21px;font-weight:bold;fill:#121513"
         x="65.964439"
         y="358.37958"
         id="text6795"><tspan
           sodipodi:role="line"
           id="tspan6797"
           x="65.964439"
           y="358.37958">http://creativecommons.org/licenses/by-nc-nd/3.0</tspan><tspan
           sodipodi:role="line"
           x="65.964439"
           y="384.62958"
           id="tspan6799" /></text>
      <g
         style="fill:#121513"
         id="g6801"
         transform="translate(-81.973127,-3.3151453)">
        <g
           transform="matrix(2.0312189,0,0,2.03125,212.61292,-243.32602)"
           id="g6803"
           style="fill:#121513">
          <path
             style="fill:#121513"
             id="path6805"
             d="M 40.61133,208.38574 C 40.61133,207.24414 39.68457,206.31933 38.54492,206.31933 L 25.45557,206.31933 C 24.31446,206.31933 23.38916,207.24413 23.38916,208.38574 L 23.38916,221.47558 L 27.04004,221.47558 L 27.04004,236.97558 L 36.95996,236.97558 L 36.95996,221.47558 L 40.61133,221.47558 L 40.61133,208.38574 L 40.61133,208.38574 z " />
          <circle
             style="fill:#121513"
             sodipodi:ry="4.47754"
             sodipodi:rx="4.47754"
             sodipodi:cy="200.11914"
             sodipodi:cx="32"
             id="circle6807"
             r="4.47754"
             cy="200.11914"
             cx="32" />
          <path
             style="fill:#121513;fill-rule:evenodd"
             id="path6809"
             d="M 31.95996,184.30859 C 23.09521,184.30859 15.5918,187.40136 9.45166,193.58789 C 3.14941,199.98828 0,207.56152 0,216.30859 C 0,225.05468 3.14941,232.57617 9.45166,238.86914 C 15.75195,245.16211 23.25537,248.30859 31.95996,248.30859 C 40.77051,248.30859 48.40723,245.13671 54.86914,238.78906 C 60.95605,232.76367 64.00098,225.26953 64.00098,216.30859 C 64.00098,207.34765 60.90332,199.77441 54.70899,193.58789 C 48.51367,187.40137 40.93066,184.30859 31.95996,184.30859 z M 32.04004,190.06738 C 39.30274,190.06738 45.46973,192.62695 50.54395,197.74804 C 55.66993,202.81445 58.23243,209.00097 58.23243,216.30859 C 58.23243,223.66797 55.72364,229.77539 50.70313,234.6289 C 45.41602,239.85546 39.19532,242.46874 32.04004,242.46874 C 24.8833,242.46874 18.71582,239.8828 13.53613,234.70897 C 8.35644,229.53514 5.7666,223.40234 5.7666,216.30859 C 5.7666,209.21484 8.3833,203.02832 13.6167,197.74804 C 18.63672,192.62695 24.77686,190.06738 32.04004,190.06738 z "
             clip-rule="evenodd" />
        </g>
        <path
           id="path6811"
           d="M 443.22314,131.0508 C 461.44487,131.0508 476.84985,137.33299 489.43407,149.89937 C 502.01434,162.46774 508.30646,177.85088 508.30646,196.0508 C 508.30646,214.25072 502.12147,229.4732 489.7594,241.71425 C 476.63163,254.60595 461.11954,261.0508 443.22314,261.0508 C 425.54493,261.0508 410.30261,254.66149 397.50414,241.87692 C 384.7037,229.09432 378.30646,213.81632 378.30646,196.0508 C 378.30646,178.28528 384.7037,162.90017 397.50414,149.89937 C 409.97728,137.33299 425.21958,131.0508 443.22314,131.0508 z M 392.92985,178.59078 C 390.98985,184.07557 390.01984,189.89557 390.01984,196.0508 C 390.01984,210.45998 395.28046,222.91725 405.8017,233.42461 C 416.32492,243.93395 428.84965,249.18861 443.38578,249.18861 C 457.92191,249.18861 470.5577,243.88238 481.29715,233.26394 C 484.89151,229.78858 487.8511,225.99984 490.17593,221.89172 L 465.67398,210.97969 C 464.01168,219.22371 456.66427,224.79378 447.78152,225.44839 L 447.78152,235.46778 L 440.32105,235.46778 L 440.32105,225.44839 C 433.02521,225.36507 425.97733,222.38367 420.58975,217.66458 L 429.5439,208.63701 C 433.85436,212.69555 438.16482,214.51852 444.05227,214.51852 C 447.86483,214.51852 452.09395,213.02681 452.09395,208.0578 C 452.09395,206.29632 451.41157,205.07242 450.33645,204.15202 L 444.14154,201.39277 L 436.4232,197.95709 C 432.60667,196.25711 429.37334,194.81698 426.12809,193.37487 L 392.92985,178.59078 z M 443.38578,142.74834 C 428.63541,142.74834 416.16227,147.94946 405.96633,158.35167 C 403.18923,161.15059 400.77712,164.07647 398.72604,167.12929 L 423.57315,178.19207 C 425.81864,171.3009 432.36862,167.12135 440.32105,166.65322 L 440.32105,156.63384 L 447.78152,156.63384 L 447.78152,166.65322 C 452.92313,166.90119 458.56063,168.30957 464.11485,172.61607 L 455.57726,181.39369 C 452.42724,179.15812 448.44804,177.5831 444.4649,177.5831 C 441.23355,177.5831 436.67315,178.57888 436.67315,182.63543 C 436.67315,183.25434 436.87944,183.79982 437.25634,184.28582 L 445.56781,187.98531 L 451.19342,190.49265 C 454.79173,192.09346 458.22741,193.62285 461.63134,195.13834 L 494.9367,209.96805 C 496.0396,205.60404 496.59104,200.9643 496.59104,196.05082 C 496.59104,181.20722 491.38597,168.64085 480.97185,158.35169 C 470.66484,147.94946 458.14013,142.74834 443.38578,142.74834 z "
           style="fill:#121513" />
        <g
           style="fill:#121513"
           transform="matrix(2.03125,0,0,2.0311519,544,131.05708)"
           id="g6813">
          <path
             style="opacity:1;fill:#121513;fill-opacity:1;fill-rule:nonzero;stroke:none;stroke-width:259.50698853;stroke-linecap:butt;stroke-linejoin:round;stroke-miterlimit:4;stroke-dasharray:none;stroke-dashoffset:0;stroke-opacity:1"
             d="M 31.1875,0 C 13.904525,0.43835438 3.7379722e-13,14.612004 0,32 C 2.3684758e-15,49.663996 14.336004,64 32,64 C 49.663996,64 64,49.663996 64,32 C 64,14.336004 49.663996,1.3812956e-13 32,0 C 31.724,3.7007434e-17 31.461833,-0.0069580061 31.1875,0 z M 31.15625,5.5 C 31.439783,5.4910103 31.714297,5.5 32,5.5 C 46.628003,5.4999998 58.5,17.371998 58.5,32 C 58.499998,46.628001 46.628002,58.5 32,58.5 C 17.371999,58.499999 5.5,46.628002 5.5,32 C 5.4999999,17.657701 16.922915,5.9512829 31.15625,5.5 z "
             id="path6815" />
          <path
             id="path6817"
             style="opacity:1;fill:#121513;fill-opacity:1;fill-rule:nonzero;stroke:none;stroke-width:259.50698853;stroke-linecap:butt;stroke-linejoin:round;stroke-miterlimit:4;stroke-dashoffset:0;stroke-opacity:1"
             d="M 20.784527,24.431595 L 44.347734,24.431595 L 44.347734,30.211249 L 20.784527,30.211249 L 20.784527,24.431595 z M 20.784527,34.879433 L 44.347734,34.879433 L 44.347734,40.659087 L 20.784527,40.659087 L 20.784527,34.879433 z " />
        </g>
      </g>
    </g>
    <g
       id="g3509"
       transform="translate(0,-0.3237288)">
      <text
         id="text6295"
         y="318.37961"
         x="68.369469"
         style="font-size:20px;fill:#ededee"
         xml:space="preserve"><tspan
           id="tspan6297"
           y="318.37961"
           x="68.369469"
           sodipodi:role="line">Except where otherwise noted, this work is licensed under </tspan></text>
      <text
         id="text6299"
         y="358.37958"
         x="65.964439"
         style="font-size:21px;font-weight:bold;fill:#ededee"
         xml:space="preserve"><tspan
           y="358.37958"
           x="65.964439"
           id="tspan6301"
           sodipodi:role="line">http://creativecommons.org/licenses/by-nc-nd/3.0</tspan><tspan
           id="tspan6303"
           y="384.62958"
           x="65.964439"
           sodipodi:role="line" /></text>
      <g
         transform="translate(-81.973127,-3.3151453)"
         id="g6305"
         style="fill:#ededee">
        <g
           style="fill:#ededee"
           id="g6307"
           transform="matrix(2.0312189,0,0,2.03125,212.61292,-243.32602)">
          <path
             d="M 40.61133,208.38574 C 40.61133,207.24414 39.68457,206.31933 38.54492,206.31933 L 25.45557,206.31933 C 24.31446,206.31933 23.38916,207.24413 23.38916,208.38574 L 23.38916,221.47558 L 27.04004,221.47558 L 27.04004,236.97558 L 36.95996,236.97558 L 36.95996,221.47558 L 40.61133,221.47558 L 40.61133,208.38574 L 40.61133,208.38574 z "
             id="path6309"
             style="fill:#ededee" />
          <circle
             cx="32"
             cy="200.11914"
             r="4.47754"
             id="circle6311"
             sodipodi:cx="32"
             sodipodi:cy="200.11914"
             sodipodi:rx="4.47754"
             sodipodi:ry="4.47754"
             style="fill:#ededee" />
          <path
             clip-rule="evenodd"
             d="M 31.95996,184.30859 C 23.09521,184.30859 15.5918,187.40136 9.45166,193.58789 C 3.14941,199.98828 0,207.56152 0,216.30859 C 0,225.05468 3.14941,232.57617 9.45166,238.86914 C 15.75195,245.16211 23.25537,248.30859 31.95996,248.30859 C 40.77051,248.30859 48.40723,245.13671 54.86914,238.78906 C 60.95605,232.76367 64.00098,225.26953 64.00098,216.30859 C 64.00098,207.34765 60.90332,199.77441 54.70899,193.58789 C 48.51367,187.40137 40.93066,184.30859 31.95996,184.30859 z M 32.04004,190.06738 C 39.30274,190.06738 45.46973,192.62695 50.54395,197.74804 C 55.66993,202.81445 58.23243,209.00097 58.23243,216.30859 C 58.23243,223.66797 55.72364,229.77539 50.70313,234.6289 C 45.41602,239.85546 39.19532,242.46874 32.04004,242.46874 C 24.8833,242.46874 18.71582,239.8828 13.53613,234.70897 C 8.35644,229.53514 5.7666,223.40234 5.7666,216.30859 C 5.7666,209.21484 8.3833,203.02832 13.6167,197.74804 C 18.63672,192.62695 24.77686,190.06738 32.04004,190.06738 z "
             id="path6313"
             style="fill:#ededee;fill-rule:evenodd" />
        </g>
        <path
           style="fill:#ededee"
           d="M 443.22314,131.0508 C 461.44487,131.0508 476.84985,137.33299 489.43407,149.89937 C 502.01434,162.46774 508.30646,177.85088 508.30646,196.0508 C 508.30646,214.25072 502.12147,229.4732 489.7594,241.71425 C 476.63163,254.60595 461.11954,261.0508 443.22314,261.0508 C 425.54493,261.0508 410.30261,254.66149 397.50414,241.87692 C 384.7037,229.09432 378.30646,213.81632 378.30646,196.0508 C 378.30646,178.28528 384.7037,162.90017 397.50414,149.89937 C 409.97728,137.33299 425.21958,131.0508 443.22314,131.0508 z M 392.92985,178.59078 C 390.98985,184.07557 390.01984,189.89557 390.01984,196.0508 C 390.01984,210.45998 395.28046,222.91725 405.8017,233.42461 C 416.32492,243.93395 428.84965,249.18861 443.38578,249.18861 C 457.92191,249.18861 470.5577,243.88238 481.29715,233.26394 C 484.89151,229.78858 487.8511,225.99984 490.17593,221.89172 L 465.67398,210.97969 C 464.01168,219.22371 456.66427,224.79378 447.78152,225.44839 L 447.78152,235.46778 L 440.32105,235.46778 L 440.32105,225.44839 C 433.02521,225.36507 425.97733,222.38367 420.58975,217.66458 L 429.5439,208.63701 C 433.85436,212.69555 438.16482,214.51852 444.05227,214.51852 C 447.86483,214.51852 452.09395,213.02681 452.09395,208.0578 C 452.09395,206.29632 451.41157,205.07242 450.33645,204.15202 L 444.14154,201.39277 L 436.4232,197.95709 C 432.60667,196.25711 429.37334,194.81698 426.12809,193.37487 L 392.92985,178.59078 z M 443.38578,142.74834 C 428.63541,142.74834 416.16227,147.94946 405.96633,158.35167 C 403.18923,161.15059 400.77712,164.07647 398.72604,167.12929 L 423.57315,178.19207 C 425.81864,171.3009 432.36862,167.12135 440.32105,166.65322 L 440.32105,156.63384 L 447.78152,156.63384 L 447.78152,166.65322 C 452.92313,166.90119 458.56063,168.30957 464.11485,172.61607 L 455.57726,181.39369 C 452.42724,179.15812 448.44804,177.5831 444.4649,177.5831 C 441.23355,177.5831 436.67315,178.57888 436.67315,182.63543 C 436.67315,183.25434 436.87944,183.79982 437.25634,184.28582 L 445.56781,187.98531 L 451.19342,190.49265 C 454.79173,192.09346 458.22741,193.62285 461.63134,195.13834 L 494.9367,209.96805 C 496.0396,205.60404 496.59104,200.9643 496.59104,196.05082 C 496.59104,181.20722 491.38597,168.64085 480.97185,158.35169 C 470.66484,147.94946 458.14013,142.74834 443.38578,142.74834 z "
           id="path6315" />
        <g
           id="g6317"
           transform="matrix(2.03125,0,0,2.0311519,544,131.05708)"
           style="fill:#ededee">
          <path
             id="path6319"
             d="M 31.1875,0 C 13.904525,0.43835438 3.7379722e-13,14.612004 0,32 C 2.3684758e-15,49.663996 14.336004,64 32,64 C 49.663996,64 64,49.663996 64,32 C 64,14.336004 49.663996,1.3812956e-13 32,0 C 31.724,3.7007434e-17 31.461833,-0.0069580061 31.1875,0 z M 31.15625,5.5 C 31.439783,5.4910103 31.714297,5.5 32,5.5 C 46.628003,5.4999998 58.5,17.371998 58.5,32 C 58.499998,46.628001 46.628002,58.5 32,58.5 C 17.371999,58.499999 5.5,46.628002 5.5,32 C 5.4999999,17.657701 16.922915,5.9512829 31.15625,5.5 z "
             style="opacity:1;fill:#ededee;fill-opacity:1;fill-rule:nonzero;stroke:none;stroke-width:259.50698853;stroke-linecap:butt;stroke-linejoin:round;stroke-miterlimit:4;stroke-dasharray:none;stroke-dashoffset:0;stroke-opacity:1" />
          <path
             d="M 20.784527,24.431595 L 44.347734,24.431595 L 44.347734,30.211249 L 20.784527,30.211249 L 20.784527,24.431595 z M 20.784527,34.879433 L 44.347734,34.879433 L 44.347734,40.659087 L 20.784527,40.659087 L 20.784527,34.879433 z "
             style="opacity:1;fill:#ededee;fill-opacity:1;fill-rule:nonzero;stroke:none;stroke-width:259.50698853;stroke-linecap:butt;stroke-linejoin:round;stroke-miterlimit:4;stroke-dashoffset:0;stroke-opacity:1"
             id="path6321" />
        </g>
      </g>
    </g>
  </g>
</svg>
