<?xml version="1.0" encoding="UTF-8" standalone="no"?>
<!-- Created with Inkscape (http://www.inkscape.org/) -->
<svg
   xmlns:dc="http://purl.org/dc/elements/1.1/"
   xmlns:cc="http://web.resource.org/cc/"
   xmlns:rdf="http://www.w3.org/1999/02/22-rdf-syntax-ns#"
   xmlns:svg="http://www.w3.org/2000/svg"
   xmlns="http://www.w3.org/2000/svg"
   xmlns:sodipodi="http://sodipodi.sourceforge.net/DTD/sodipodi-0.dtd"
   xmlns:inkscape="http://www.inkscape.org/namespaces/inkscape"
   width="744.09448819"
   height="1052.3622047"
   id="svg16293"
   sodipodi:version="0.32"
   inkscape:version="0.45.1"
   sodipodi:docbase="/Users/rebecca/Documents/creative_commons/sugar"
   sodipodi:docname="advancedsharesettings-01.svg"
   inkscape:output_extension="org.inkscape.output.svg.inkscape">
  <defs
     id="defs16295" />
  <sodipodi:namedview
     id="base"
     pagecolor="#ffffff"
     bordercolor="#666666"
     borderopacity="1.0"
     gridtolerance="10000"
     guidetolerance="10"
     objecttolerance="10"
     inkscape:pageopacity="0.0"
     inkscape:pageshadow="2"
     inkscape:zoom="0.35"
     inkscape:cx="375"
     inkscape:cy="520"
     inkscape:document-units="px"
     inkscape:current-layer="layer1"
     inkscape:window-width="697"
     inkscape:window-height="581"
     inkscape:window-x="109"
     inkscape:window-y="122" />
  <metadata
     id="metadata16298">
    <rdf:RDF>
      <cc:Work
         rdf:about="">
        <dc:format>image/svg+xml</dc:format>
        <dc:type
           rdf:resource="http://purl.org/dc/dcmitype/StillImage" />
      </cc:Work>
    </rdf:RDF>
  </metadata>
  <g
     inkscape:label="Layer 1"
     inkscape:groupmode="layer"
     id="layer1">
    <g
       id="g16133"
       transform="translate(1148.4741,541.23055)">
      <g
         id="g16128">
        <rect
           style="font-size:8px;fill:#191919;fill-opacity:1;stroke:#191919;stroke-width:1.36104763;stroke-miterlimit:4;stroke-dasharray:none;stroke-opacity:1"
           id="rect2902"
           width="266.23123"
           height="273.77664"
           x="-898.7326"
           y="-237.215" />
        <text
           xml:space="preserve"
           style="font-size:10px;font-style:normal;font-weight:normal;fill:#ffffff;fill-opacity:1;stroke:none;stroke-width:1px;stroke-linecap:butt;stroke-linejoin:miter;stroke-opacity:1;font-family:Sans"
           x="-895.53351"
           y="-225.20215"
           id="text4842"><tspan
             sodipodi:role="line"
             id="tspan4844"
             x="-895.53351"
             y="-225.20215"
             style="font-size:10px;font-weight:bold">Advanced Share Settings</tspan></text>
      </g>
      <g
         id="g15776">
        <g
           id="g15716">
          <g
             id="g15143">
            <rect
               style="fill:#7f7f7f;fill-opacity:1;stroke:#7f7f7f;stroke-width:0.91746616;stroke-miterlimit:4;stroke-dasharray:none;stroke-opacity:1"
               id="rect9637"
               width="266.60165"
               height="254.11382"
               x="-898.91077"
               y="-217.28661" />
            <g
               id="g14757">
              <text
                 id="text5815"
                 y="-206.80176"
                 x="-894.18292"
                 style="font-size:10px;font-style:normal;font-weight:normal;fill:#ffffff;fill-opacity:1;stroke:none;stroke-width:1px;stroke-linecap:butt;stroke-linejoin:miter;stroke-opacity:1;font-family:Sans"
                 xml:space="preserve"><tspan
                   y="-206.80176"
                   x="-894.18292"
                   id="tspan5817"
                   sodipodi:role="line">Privacy</tspan><tspan
                   id="tspan6812"
                   y="-194.30176"
                   x="-894.18292"
                   sodipodi:role="line" /><tspan
                   id="tspan6810"
                   y="-181.80176"
                   x="-894.18292"
                   sodipodi:role="line" /><tspan
                   id="tspan6790"
                   y="-169.30176"
                   x="-894.18292"
                   sodipodi:role="line" /></text>
              <g
                 transform="translate(0,-38)"
                 id="g10391">
                <g
                   id="g10350">
                  <g
                     style="fill:#b3b3b3"
                     transform="matrix(1.0111271,0,0,1.0056781,-263.0746,-375.49625)"
                     id="g9598">
                    <path
                       sodipodi:type="arc"
                       style="fill:#b3b3b3;fill-opacity:1"
                       id="path9600"
                       sodipodi:cx="746.42474"
                       sodipodi:cy="73.288055"
                       sodipodi:rx="8.398118"
                       sodipodi:ry="8.398118"
                       d="M 754.82286 73.288055 A 8.398118 8.398118 0 1 1  738.02663,73.288055 A 8.398118 8.398118 0 1 1  754.82286 73.288055 z"
                       transform="matrix(0.3568603,0,0,0.3619276,-871.2518,187.01574)" />
                    <path
                       sodipodi:type="arc"
                       style="fill:#b3b3b3;fill-opacity:1"
                       id="path9602"
                       sodipodi:cx="746.42474"
                       sodipodi:cy="73.288055"
                       sodipodi:rx="8.398118"
                       sodipodi:ry="8.398118"
                       d="M 754.82286 73.288055 A 8.398118 8.398118 0 1 1  738.02663,73.288055 A 8.398118 8.398118 0 1 1  754.82286 73.288055 z"
                       transform="matrix(0.3568603,0,0,0.3619276,-863.81936,190.29841)" />
                    <path
                       sodipodi:type="arc"
                       style="fill:#b3b3b3;fill-opacity:1"
                       id="path9604"
                       sodipodi:cx="746.42474"
                       sodipodi:cy="73.288055"
                       sodipodi:rx="8.398118"
                       sodipodi:ry="8.398118"
                       d="M 754.82286 73.288055 A 8.398118 8.398118 0 1 1  738.02663,73.288055 A 8.398118 8.398118 0 1 1  754.82286 73.288055 z"
                       transform="matrix(0.3568603,0,0,0.3619276,-860.58265,197.83639)" />
                    <path
                       sodipodi:type="arc"
                       style="fill:#b3b3b3;fill-opacity:1"
                       id="path9606"
                       sodipodi:cx="746.42474"
                       sodipodi:cy="73.288055"
                       sodipodi:rx="8.398118"
                       sodipodi:ry="8.398118"
                       d="M 754.82286 73.288055 A 8.398118 8.398118 0 1 1  738.02663,73.288055 A 8.398118 8.398118 0 1 1  754.82286 73.288055 z"
                       transform="matrix(0.3568603,0,0,0.3619276,-863.81936,205.61754)" />
                    <path
                       sodipodi:type="arc"
                       style="fill:#b3b3b3;fill-opacity:1"
                       id="path9608"
                       sodipodi:cx="746.42474"
                       sodipodi:cy="73.288055"
                       sodipodi:rx="8.398118"
                       sodipodi:ry="8.398118"
                       d="M 754.82286 73.288055 A 8.398118 8.398118 0 1 1  738.02663,73.288055 A 8.398118 8.398118 0 1 1  754.82286 73.288055 z"
                       transform="matrix(0.3568603,0,0,0.3619276,-871.25181,208.77863)"
                       inkscape:transform-center-x="-3.3592471" />
                    <path
                       sodipodi:type="arc"
                       style="fill:#b3b3b3;fill-opacity:1"
                       id="path9610"
                       sodipodi:cx="746.42474"
                       sodipodi:cy="73.288055"
                       sodipodi:rx="8.398118"
                       sodipodi:ry="8.398118"
                       d="M 754.82286 73.288055 A 8.398118 8.398118 0 1 1  738.02663,73.288055 A 8.398118 8.398118 0 1 1  754.82286 73.288055 z"
                       transform="matrix(0.3568603,0,0,0.3619276,-879.16377,205.49596)" />
                    <path
                       sodipodi:type="arc"
                       style="fill:#b3b3b3;fill-opacity:1"
                       id="path9612"
                       sodipodi:cx="746.42474"
                       sodipodi:cy="73.288055"
                       sodipodi:rx="8.398118"
                       sodipodi:ry="8.398118"
                       d="M 754.82286 73.288055 A 8.398118 8.398118 0 1 1  738.02663,73.288055 A 8.398118 8.398118 0 1 1  754.82286 73.288055 z"
                       transform="matrix(0.3568603,0,0,0.3619276,-882.28061,197.8364)"
                       inkscape:transform-center-y="5.0388707" />
                    <path
                       sodipodi:type="arc"
                       style="fill:#b3b3b3;fill-opacity:1"
                       id="path9614"
                       sodipodi:cx="746.42474"
                       sodipodi:cy="73.288055"
                       sodipodi:rx="8.398118"
                       sodipodi:ry="8.398118"
                       d="M 754.82286 73.288055 A 8.398118 8.398118 0 1 1  738.02663,73.288055 A 8.398118 8.398118 0 1 1  754.82286 73.288055 z"
                       transform="matrix(0.3568603,0,0,0.3619276,-879.04389,189.93367)" />
                  </g>
                  <g
                     transform="translate(671.9893,2.715757)"
                     id="g55586">
                    <text
                       xml:space="preserve"
                       style="font-size:6px;font-style:normal;font-weight:normal;fill:#ffffff;fill-opacity:1;stroke:none;stroke-width:1px;stroke-linecap:butt;stroke-linejoin:miter;stroke-opacity:1;font-family:Sans"
                       x="-1554.8877"
                       y="-130.07826"
                       id="text6860"><tspan
                         sodipodi:role="line"
                         id="tspan6862"
                         x="-1554.8877"
                         y="-130.07826">Everyone</tspan></text>
                    <path
                       sodipodi:type="arc"
                       style="fill:#ffffff;fill-opacity:1;stroke:none;stroke-width:0.92900002;stroke-miterlimit:4;stroke-dasharray:none;stroke-opacity:1"
                       id="path17636"
                       sodipodi:cx="-809.46051"
                       sodipodi:cy="261.23386"
                       sodipodi:rx="3.3587573"
                       sodipodi:ry="3.3587573"
                       d="M -806.10175 261.23386 A 3.3587573 3.3587573 0 1 1  -812.81927,261.23386 A 3.3587573 3.3587573 0 1 1  -806.10175 261.23386 z"
                       transform="translate(-753.89825,-392.8751)" />
                  </g>
                </g>
                <g
                   id="g10384">
                  <g
                     transform="translate(671.9893,2.715757)"
                     id="g55607">
                    <text
                       xml:space="preserve"
                       style="font-size:6px;font-style:normal;font-weight:normal;fill:#ffffff;fill-opacity:1;stroke:none;stroke-width:1px;stroke-linecap:butt;stroke-linejoin:miter;stroke-opacity:1;font-family:Sans"
                       x="-1430.5889"
                       y="-129.98598"
                       id="text6868"><tspan
                         sodipodi:role="line"
                         id="tspan6870"
                         x="-1430.5889"
                         y="-129.98598">Keep Private</tspan></text>
                    <path
                       sodipodi:type="arc"
                       style="fill:#ffffff;fill-opacity:1;stroke:none;stroke-width:0.92900002;stroke-miterlimit:4;stroke-dasharray:none;stroke-opacity:1"
                       id="path18619"
                       sodipodi:cx="-809.46051"
                       sodipodi:cy="261.23386"
                       sodipodi:rx="3.3587573"
                       sodipodi:ry="3.3587573"
                       d="M -806.10175 261.23386 A 3.3587573 3.3587573 0 1 1  -812.81927,261.23386 A 3.3587573 3.3587573 0 1 1  -806.10175 261.23386 z"
                       transform="translate(-628.89825,-392.8751)" />
                  </g>
                  <path
                     transform="matrix(0.1163657,0,0,0.1147609,-836.2646,-161.52579)"
                     d="M 829.06222 102.17757 A 49.04501 49.04501 0 1 1  730.9722,102.17757 A 49.04501 49.04501 0 1 1  829.06222 102.17757 z"
                     sodipodi:ry="49.04501"
                     sodipodi:rx="49.04501"
                     sodipodi:cy="102.17757"
                     sodipodi:cx="780.01721"
                     id="path32393"
                     style="fill:#b3b3b3;fill-opacity:1;fill-rule:evenodd;stroke:none;stroke-width:1px;stroke-linecap:butt;stroke-linejoin:miter;stroke-opacity:1"
                     sodipodi:type="arc" />
                </g>
                <g
                   id="g10372">
                  <g
                     style="fill:#ffffff"
                     transform="matrix(2.6276774,0,0,2.6276774,-2168.466,-1338.4761)"
                     id="g32427">
                    <path
                       sodipodi:type="arc"
                       style="fill:#ffffff;fill-opacity:1"
                       id="path32429"
                       sodipodi:cx="746.42474"
                       sodipodi:cy="73.288055"
                       sodipodi:rx="8.398118"
                       sodipodi:ry="8.398118"
                       d="M 754.82286 73.288055 A 8.398118 8.398118 0 1 1  738.02663,73.288055 A 8.398118 8.398118 0 1 1  754.82286 73.288055 z"
                       transform="matrix(0.1488429,0,0,0.1488429,404.37296,439.28995)" />
                    <path
                       sodipodi:type="arc"
                       style="fill:#ffffff;fill-opacity:1"
                       id="path32431"
                       sodipodi:cx="746.42474"
                       sodipodi:cy="73.288055"
                       sodipodi:rx="8.398118"
                       sodipodi:ry="8.398118"
                       d="M 754.82286 73.288055 A 8.398118 8.398118 0 1 1  738.02663,73.288055 A 8.398118 8.398118 0 1 1  754.82286 73.288055 z"
                       transform="matrix(0.1488429,0,0,0.1488429,406.61123,443.62864)" />
                    <path
                       sodipodi:type="arc"
                       style="fill:#ffffff;fill-opacity:1"
                       id="path32433"
                       sodipodi:cx="746.42474"
                       sodipodi:cy="73.288055"
                       sodipodi:rx="8.398118"
                       sodipodi:ry="8.398118"
                       d="M 754.82286 73.288055 A 8.398118 8.398118 0 1 1  738.02663,73.288055 A 8.398118 8.398118 0 1 1  754.82286 73.288055 z"
                       transform="matrix(0.1488429,0,0,0.1488429,401.55639,443.58915)" />
                  </g>
                  <g
                     id="g10365">
                    <text
                       xml:space="preserve"
                       style="font-size:6px;font-style:normal;font-weight:normal;fill:#ffffff;fill-opacity:1;stroke:none;stroke-width:1px;stroke-linecap:butt;stroke-linejoin:miter;stroke-opacity:1;font-family:Sans"
                       x="-820.8476"
                       y="-127.32295"
                       id="text38122"><tspan
                         sodipodi:role="line"
                         id="tspan38124"
                         x="-820.8476"
                         y="-127.32295">Group</tspan></text>
                    <g
                       id="g55646"
                       transform="translate(671.9893,2.715757)">
                      <path
                         transform="translate(-691.39825,-392.8751)"
                         d="M -806.10175 261.23386 A 3.3587573 3.3587573 0 1 1  -812.81927,261.23386 A 3.3587573 3.3587573 0 1 1  -806.10175 261.23386 z"
                         sodipodi:ry="3.3587573"
                         sodipodi:rx="3.3587573"
                         sodipodi:cy="261.23386"
                         sodipodi:cx="-809.46051"
                         id="path43982"
                         style="fill:#ffffff;fill-opacity:1;stroke:none;stroke-width:0.92900002;stroke-miterlimit:4;stroke-dasharray:none;stroke-opacity:1"
                         sodipodi:type="arc" />
                      <path
                         transform="matrix(0.5,0,0,0.5,-1182.3588,-263.39124)"
                         d="M -634 263.5 A 3 3 0 1 1  -640,263.5 A 3 3 0 1 1  -634 263.5 z"
                         sodipodi:ry="3"
                         sodipodi:rx="3"
                         sodipodi:cy="263.5"
                         sodipodi:cx="-637"
                         id="path55636"
                         style="fill:#666666;fill-opacity:1;stroke:none;stroke-width:0.92900002;stroke-miterlimit:4;stroke-dasharray:none;stroke-opacity:1"
                         sodipodi:type="arc" />
                    </g>
                  </g>
                </g>
              </g>
              <rect
                 y="-161.2916"
                 x="-820.03455"
                 height="24.13448"
                 width="44.558445"
                 id="rect39101"
                 style="fill:#3f3f3f;fill-opacity:1;stroke:#3f3f3f;stroke-width:0.95222908;stroke-miterlimit:4;stroke-dasharray:none;stroke-opacity:1" />
            </g>
          </g>
          <g
             id="g15580">
            <g
               id="g15576">
              <path
                 transform="matrix(0.2873331,0,0,0.2873331,-358.0194,-103.8155)"
                 d="M -1464.6794,-123.62829 L -1469.9238,-132.71184 L -1459.435,-132.71184 L -1464.6794,-123.62829 z "
                 inkscape:randomized="0"
                 inkscape:rounded="0"
                 inkscape:flatsided="true"
                 sodipodi:arg2="2.6179939"
                 sodipodi:arg1="1.5707963"
                 sodipodi:r2="3.0278518"
                 sodipodi:r1="6.0557041"
                 sodipodi:cy="-129.68399"
                 sodipodi:cx="-1464.6794"
                 sodipodi:sides="3"
                 id="path38130"
                 style="fill:#ffffff;fill-opacity:1;stroke:#ffffff;stroke-width:0.92900002;stroke-miterlimit:4;stroke-dasharray:none;stroke-opacity:1"
                 sodipodi:type="star" />
              <path
                 transform="matrix(0.2873331,0,0,-0.2873331,-358.0194,-194.92125)"
                 d="M -1464.6794,-123.62829 L -1469.9238,-132.71184 L -1459.435,-132.71184 L -1464.6794,-123.62829 z "
                 inkscape:randomized="0"
                 inkscape:rounded="0"
                 inkscape:flatsided="true"
                 sodipodi:arg2="2.6179939"
                 sodipodi:arg1="1.5707963"
                 sodipodi:r2="3.0278518"
                 sodipodi:r1="6.0557041"
                 sodipodi:cy="-129.68399"
                 sodipodi:cx="-1464.6794"
                 sodipodi:sides="3"
                 id="path24406"
                 style="fill:#ffffff;fill-opacity:1;stroke:#ffffff;stroke-width:0.92900002;stroke-miterlimit:4;stroke-dasharray:none;stroke-opacity:1"
                 sodipodi:type="star" />
            </g>
            <g
               id="g15569">
              <g
                 transform="matrix(0.6283588,0,0,0.6283588,159.12919,-28.811965)"
                 id="g10601">
                <rect
                   style="fill:#ffffff;fill-opacity:1;stroke:#ffffff;stroke-width:0.75082171;stroke-miterlimit:4;stroke-dasharray:none;stroke-opacity:1"
                   id="rect10603"
                   width="6.6067443"
                   height="6.6067443"
                   x="-1555.2697"
                   y="-206.14017" />
                <path
                   style="fill:none;fill-rule:evenodd;stroke:#3f3f3f;stroke-width:1px;stroke-linecap:butt;stroke-linejoin:miter;stroke-opacity:1"
                   d="M -1549.6688,-205.35007 L -1552.4467,-201.02887 L -1554.2987,-203.18947"
                   id="path10605" />
              </g>
              <rect
                 y="-151.49976"
                 x="-818.13818"
                 height="4.1514058"
                 width="4.1514058"
                 id="rect10615"
                 style="fill:#ffffff;fill-opacity:1;stroke:#ffffff;stroke-width:0.47178543;stroke-miterlimit:4;stroke-dasharray:none;stroke-opacity:1" />
              <rect
                 y="-144.65756"
                 x="-818.13818"
                 height="4.1514058"
                 width="4.1514058"
                 id="rect10621"
                 style="fill:#ffffff;fill-opacity:1;stroke:#ffffff;stroke-width:0.47178543;stroke-miterlimit:4;stroke-dasharray:none;stroke-opacity:1" />
            </g>
            <g
               id="g15135">
              <text
                 id="text43004"
                 y="-148.32054"
                 x="-810.71198"
                 style="font-size:4px;font-style:normal;font-weight:normal;fill:#ffffff;fill-opacity:1;stroke:none;stroke-width:1px;stroke-linecap:butt;stroke-linejoin:miter;stroke-opacity:1;font-family:Sans"
                 xml:space="preserve"><tspan
                   y="-148.32054"
                   x="-810.71198"
                   id="tspan43006"
                   sodipodi:role="line">&quot;My Class&quot;</tspan></text>
              <text
                 id="text43008"
                 y="-141.47835"
                 x="-810.35846"
                 style="font-size:4px;font-style:normal;font-weight:normal;fill:#ffffff;fill-opacity:1;stroke:none;stroke-width:1px;stroke-linecap:butt;stroke-linejoin:miter;stroke-opacity:1;font-family:Sans"
                 xml:space="preserve"><tspan
                   y="-141.47835"
                   x="-810.35846"
                   id="tspan43010"
                   sodipodi:role="line">All my groups</tspan></text>
              <text
                 id="text43000"
                 y="-155.16273"
                 x="-810.71198"
                 style="font-size:4px;font-style:normal;font-weight:normal;fill:#ffffff;fill-opacity:1;stroke:none;stroke-width:1px;stroke-linecap:butt;stroke-linejoin:miter;stroke-opacity:1;font-family:Sans"
                 xml:space="preserve"><tspan
                   y="-155.16273"
                   x="-810.71198"
                   id="tspan43002"
                   sodipodi:role="line">&quot;My Friends&quot;</tspan></text>
            </g>
          </g>
        </g>
        <g
           id="g14971">
          <rect
             y="-129.62851"
             x="-898.98438"
             height="166.55867"
             width="266.74893"
             id="rect12572"
             style="fill:#4d4d4d;fill-opacity:1;stroke:#4c4c4c;stroke-width:0.742984;stroke-miterlimit:4;stroke-dasharray:none;stroke-opacity:1" />
          <g
             id="g14919">
            <g
               id="g14745">
              <rect
                 ry="4.1901355"
                 y="11.215926"
                 x="-793.78406"
                 height="13.80546"
                 width="157.56813"
                 id="rect14729"
                 style="opacity:1;fill:#ffffff;fill-opacity:1;stroke:#4c4c4c;stroke-width:2.4318521;stroke-linejoin:miter;stroke-miterlimit:4;stroke-dasharray:none;stroke-dashoffset:0;stroke-opacity:1" />
              <text
                 id="text14731"
                 y="20.355473"
                 x="-766.40723"
                 style="font-size:6px;font-style:normal;font-weight:normal;fill:#000000;fill-opacity:1;stroke:none;stroke-width:1px;stroke-linecap:butt;stroke-linejoin:miter;stroke-opacity:1;font-family:Sans"
                 xml:space="preserve"><tspan
                   y="20.355473"
                   x="-766.40723"
                   id="tspan14733"
                   sodipodi:role="line">Creative Commons Attribution Share-Alike</tspan></text>
              <g
                 id="g35"
                 transform="matrix(0.1562476,0,0,0.15625,-791,-15.679562)">
	<path
   style="fill:#010101"
   id="path37"
   d="M 40.61133,208.38574 C 40.61133,207.24414 39.68457,206.31933 38.54492,206.31933 L 25.45557,206.31933 C 24.31446,206.31933 23.38916,207.24413 23.38916,208.38574 L 23.38916,221.47558 L 27.04004,221.47558 L 27.04004,236.97558 L 36.95996,236.97558 L 36.95996,221.47558 L 40.61133,221.47558 L 40.61133,208.38574 L 40.61133,208.38574 z " />

	<circle
   style="fill:#010101"
   sodipodi:ry="4.47754"
   sodipodi:rx="4.47754"
   sodipodi:cy="200.11914"
   sodipodi:cx="32"
   id="circle39"
   r="4.47754"
   cy="200.11914"
   cx="32" />

	<path
   style="fill:#010101;fill-rule:evenodd"
   id="path41"
   d="M 31.95996,184.30859 C 23.09521,184.30859 15.5918,187.40136 9.45166,193.58789 C 3.14941,199.98828 0,207.56152 0,216.30859 C 0,225.05468 3.14941,232.57617 9.45166,238.86914 C 15.75195,245.16211 23.25537,248.30859 31.95996,248.30859 C 40.77051,248.30859 48.40723,245.13671 54.86914,238.78906 C 60.95605,232.76367 64.00098,225.26953 64.00098,216.30859 C 64.00098,207.34765 60.90332,199.77441 54.70899,193.58789 C 48.51367,187.40137 40.93066,184.30859 31.95996,184.30859 z M 32.04004,190.06738 C 39.30274,190.06738 45.46973,192.62695 50.54395,197.74804 C 55.66993,202.81445 58.23243,209.00097 58.23243,216.30859 C 58.23243,223.66797 55.72364,229.77539 50.70313,234.6289 C 45.41602,239.85546 39.19532,242.46874 32.04004,242.46874 C 24.8833,242.46874 18.71582,239.8828 13.53613,234.70897 C 8.35644,229.53514 5.7666,223.40234 5.7666,216.30859 C 5.7666,209.21484 8.3833,203.02832 13.6167,197.74804 C 18.63672,192.62695 24.77686,190.06738 32.04004,190.06738 z "
   clip-rule="evenodd" />

</g>
              <g
                 id="g14739"
                 transform="matrix(0.1562488,0,0,0.15625,-779.49626,-30.078671)">
	<path
   style="fill-rule:evenodd"
   id="path14741"
   d="M 31.95898,276.46289 C 23.09521,276.46289 15.59179,279.55664 9.45166,285.74219 C 3.14941,292.14258 0,299.7168 0,308.46289 C 0,317.20898 3.14941,324.73047 9.45166,331.02344 C 15.75195,337.31739 23.25537,340.46289 31.95898,340.46289 C 40.77002,340.46289 48.40673,337.29004 54.86865,330.94336 C 60.95556,324.91699 64.00049,317.42285 64.00049,308.46289 C 64.00049,299.50293 60.90283,291.92969 54.7085,285.74219 C 48.51318,279.55664 40.93018,276.46289 31.95898,276.46289 z M 32.03955,282.22168 C 39.30225,282.22168 45.46924,284.78223 50.54346,289.90234 C 55.66944,294.96875 58.23194,301.15527 58.23194,308.46289 C 58.23194,315.82227 55.72315,321.92969 50.70264,326.78418 C 45.41553,332.01074 39.19483,334.62305 32.03955,334.62305 C 24.8833,334.62305 18.71631,332.03614 13.53613,326.86328 C 8.35644,321.68945 5.7666,315.55664 5.7666,308.46289 C 5.7666,301.36914 8.3833,295.18262 13.6167,289.90234 C 18.63672,284.78223 24.77686,282.22168 32.03955,282.22168 z "
   clip-rule="evenodd" />

	<path
   id="path14743"
   d="M 17.77539,303.94629 C 19.05225,295.89551 24.71924,291.59082 31.82227,291.59082 C 42.03858,291.59082 48.26416,299.00488 48.26416,308.88867 C 48.26416,318.53418 41.63916,326.02734 31.6626,326.02734 C 24.79883,326.02734 18.65332,321.80273 17.53565,313.51269 L 25.59717,313.51269 C 25.83643,317.81738 28.62988,319.33203 32.62061,319.33203 C 37.16944,319.33203 40.12354,315.10644 40.12354,308.64941 C 40.12354,301.87402 37.56885,298.28711 32.77979,298.28711 C 29.26856,298.28711 26.23584,299.5625 25.59717,303.94629 L 27.94043,303.93359 L 21.59522,310.27832 L 15.25,303.93359 L 17.77539,303.94629 z " />

</g>
            </g>
            <text
               xml:space="preserve"
               style="font-size:10px;font-style:normal;font-weight:normal;fill:#ffffff;fill-opacity:1;stroke:none;stroke-width:1px;stroke-linecap:butt;stroke-linejoin:miter;stroke-opacity:1;font-family:Sans"
               x="-894.18292"
               y="-116.54222"
               id="text45962"><tspan
                 sodipodi:role="line"
                 id="tspan45964"
                 x="-894.18292"
                 y="-116.54222">Rights</tspan></text>
            <g
               id="g14879">
              <g
                 style="fill:#ffffff"
                 id="g52"
                 transform="matrix(0.3124905,0,0,0.3124952,-915.0318,-143.09525)">
	
		<path
   style="fill:#ffffff"
   d="M 150.46436,184.30762 C 141.60108,184.30762 134.09717,187.39942 127.95655,193.58692 C 121.65577,199.98731 118.50538,207.55958 118.50538,216.30762 C 118.50538,225.05469 121.65577,232.57422 127.95655,238.86719 C 134.25733,245.16211 141.76124,248.3086 150.46436,248.3086 C 159.27588,248.3086 166.91358,245.13477 173.37647,238.78907 C 179.46241,232.76173 182.50733,225.26759 182.50733,216.30762 C 182.50733,207.34668 179.40967,199.77246 173.21631,193.58692 C 167.021,187.39941 159.43604,184.30762 150.46436,184.30762 z M 150.54443,190.06543 C 157.80908,190.06543 163.97607,192.62598 169.05029,197.74707 C 174.17724,202.81348 176.73974,208.99902 176.73974,216.30762 C 176.73974,223.66797 174.22997,229.77539 169.21044,234.62891 C 163.92333,239.85547 157.70165,242.46875 150.54442,242.46875 C 143.38817,242.46875 137.22215,239.88086 132.04247,234.70703 C 126.86278,229.53515 124.27294,223.40039 124.27294,216.30762 C 124.27294,209.21387 126.88817,203.02637 132.12255,197.74707 C 137.14209,192.62598 143.28271,190.06543 150.54443,190.06543 z "
   export-filename="/Users/bse/Documents/Work/cc/2006/cc/identity/rect50.png"
   export-xdpi="125.5578"
   export-ydpi="125.5578"
   id="path3477" />

	<path
   style="fill:#ffffff"
   id="path55"
   d="M 163.61279,207.13965 L 156.61181,207.13965 L 156.61181,200.1709 C 156.61181,199.20508 155.82861,198.4209 154.86181,198.4209 L 137.39404,198.4209 C 137.34131,198.41895 137.28857,198.41895 137.23779,198.4209 C 136.33154,198.50293 135.64013,199.2627 135.64404,200.1709 L 135.64404,223.73438 C 135.64404,224.70118 136.42724,225.48438 137.39404,225.48438 L 144.39404,225.48438 L 144.39404,232.45313 C 144.39404,233.41993 145.17724,234.20313 146.14404,234.20313 L 163.61279,234.20313 C 164.57959,234.20313 165.36279,233.41993 165.36279,232.45313 L 165.36279,208.88965 C 165.36279,207.92383 164.57959,207.13965 163.61279,207.13965 z M 139.14404,221.9834 L 139.14404,201.9209 L 153.11279,201.9209 L 153.11279,207.13965 L 146.14404,207.13965 C 146.08154,207.13672 146.01904,207.13672 145.95654,207.13965 C 145.06396,207.23633 144.38818,207.99219 144.39404,208.88965 L 144.39404,221.9834 L 139.14404,221.9834 z M 161.86279,210.63965 L 161.86279,230.70313 L 147.89404,230.70313 L 147.89404,210.63965 L 161.86279,210.63965 z " />

</g>
              <g
                 style="fill:#666666"
                 id="g13"
                 transform="matrix(0.3124976,0,0,0.3125,-878,-138.79822)">
	<path
   style="fill:#666666;fill-rule:evenodd"
   id="path15"
   d="M 31.95898,92.1543 C 23.09521,92.1543 15.59179,95.24707 9.45166,101.4336 C 3.14941,107.83398 0,115.40723 0,124.1543 C 0,132.90039 3.14941,140.4209 9.45166,146.71387 C 15.75195,153.00782 23.25537,156.1543 31.95898,156.1543 C 40.77002,156.1543 48.40673,152.98145 54.86865,146.63477 C 60.95556,140.6084 64.00049,133.11426 64.00049,124.1543 C 64.00049,115.19336 60.90283,107.62012 54.7085,101.4336 C 48.51318,95.24707 40.93018,92.1543 31.95898,92.1543 z M 32.03955,97.91309 C 39.30225,97.91309 45.46924,100.47266 50.54346,105.59375 C 55.66944,110.66016 58.23194,116.84668 58.23194,124.1543 C 58.23194,131.51368 55.72315,137.6211 50.70264,142.47461 C 45.41553,147.70117 39.19483,150.31445 32.03955,150.31445 C 24.8833,150.31445 18.71582,147.72754 13.53613,142.55371 C 8.35644,137.38086 5.7666,131.24707 5.7666,124.1543 C 5.7666,117.06055 8.3833,110.87403 13.6167,105.59375 C 18.63672,100.47266 24.77686,97.91309 32.03955,97.91309 z "
   clip-rule="evenodd" />

	<g
   style="fill:#666666"
   id="g17">
		<path
   style="fill:#666666;fill-rule:evenodd"
   id="path19"
   d="M 21.39941,118.41602 L 25.00146,118.41602 C 27.01367,118.41602 27.85791,119.38477 27.85791,121.14844 C 27.85791,122.51465 27.1377,123.83106 25.12549,123.83106 L 21.39942,123.83106 L 21.39942,118.41602 L 21.39941,118.41602 z M 16.97754,132.82422 L 21.44922,132.82422 L 21.44922,127.11035 L 24.90186,127.11035 C 30.96338,127.11035 32.27979,123.4834 32.27979,121.12402 C 32.27979,117.62109 30.51612,115.13672 25.74659,115.13672 L 16.97755,115.13672 L 16.97755,132.82422 L 16.97754,132.82422 z "
   clip-rule="evenodd" />

		<path
   style="fill:#666666;fill-rule:evenodd"
   id="path21"
   d="M 33.48389,132.82422 L 40.34034,132.82422 C 45.73096,132.82422 49.35694,130.26563 49.35694,123.98047 C 49.35694,117.69531 45.73096,115.13672 40.34034,115.13672 L 33.48389,115.13672 L 33.48389,132.82422 z M 37.90479,118.86328 L 40.41456,118.86328 C 43.74366,118.86328 44.93604,121.12402 44.93604,123.98047 C 44.93604,126.83692 43.74366,129.09766 40.43995,129.09766 L 37.90479,129.09766 L 37.90479,118.86328 z "
   clip-rule="evenodd" />

	</g>

</g>
              <g
                 id="g23"
                 transform="matrix(0.3124976,0,0,0.3125,-878,-98.394653)">
	<path
   style="fill-rule:evenodd"
   id="path25"
   d="M 31.95898,276.46289 C 23.09521,276.46289 15.59179,279.55664 9.45166,285.74219 C 3.14941,292.14258 0,299.7168 0,308.46289 C 0,317.20898 3.14941,324.73047 9.45166,331.02344 C 15.75195,337.31739 23.25537,340.46289 31.95898,340.46289 C 40.77002,340.46289 48.40673,337.29004 54.86865,330.94336 C 60.95556,324.91699 64.00049,317.42285 64.00049,308.46289 C 64.00049,299.50293 60.90283,291.92969 54.7085,285.74219 C 48.51318,279.55664 40.93018,276.46289 31.95898,276.46289 z M 32.03955,282.22168 C 39.30225,282.22168 45.46924,284.78223 50.54346,289.90234 C 55.66944,294.96875 58.23194,301.15527 58.23194,308.46289 C 58.23194,315.82227 55.72315,321.92969 50.70264,326.78418 C 45.41553,332.01074 39.19483,334.62305 32.03955,334.62305 C 24.8833,334.62305 18.71631,332.03614 13.53613,326.86328 C 8.35644,321.68945 5.7666,315.55664 5.7666,308.46289 C 5.7666,301.36914 8.3833,295.18262 13.6167,289.90234 C 18.63672,284.78223 24.77686,282.22168 32.03955,282.22168 z "
   clip-rule="evenodd" />

	<path
   id="path27"
   d="M 17.77539,303.94629 C 19.05225,295.89551 24.71924,291.59082 31.82227,291.59082 C 42.03858,291.59082 48.26416,299.00488 48.26416,308.88867 C 48.26416,318.53418 41.63916,326.02734 31.6626,326.02734 C 24.79883,326.02734 18.65332,321.80273 17.53565,313.51269 L 25.59717,313.51269 C 25.83643,317.81738 28.62988,319.33203 32.62061,319.33203 C 37.16944,319.33203 40.12354,315.10644 40.12354,308.64941 C 40.12354,301.87402 37.56885,298.28711 32.77979,298.28711 C 29.26856,298.28711 26.23584,299.5625 25.59717,303.94629 L 27.94043,303.93359 L 21.59522,310.27832 L 15.25,303.93359 L 17.77539,303.94629 z " />

</g>
              <g
                 style="fill:#ffffff"
                 id="g47"
                 transform="matrix(0.3124905,0,0,0.3125,-915.0318,-147.39465)">
	
		<path
   style="fill:#ffffff"
   d="M 150.46436,276.46289 C 141.60108,276.46289 134.09717,279.55469 127.95655,285.74219 C 121.65577,292.14258 118.50538,299.71485 118.50538,308.46289 C 118.50538,317.20898 121.65577,324.72851 127.95655,331.02148 C 134.25733,337.3164 141.76124,340.46289 150.46436,340.46289 C 159.27588,340.46289 166.91358,337.28906 173.37647,330.94336 C 179.46241,324.91602 182.50733,317.42188 182.50733,308.46289 C 182.50733,299.50195 179.40967,291.92773 173.21631,285.74219 C 167.021,279.55469 159.43604,276.46289 150.46436,276.46289 z M 150.54443,282.2207 C 157.80908,282.2207 163.97607,284.78125 169.05029,289.90234 C 174.17724,294.96875 176.73974,301.15429 176.73974,308.46289 C 176.73974,315.82227 174.22997,321.92969 169.21044,326.7832 C 163.92333,332.00976 157.70165,334.62304 150.54442,334.62304 C 143.38817,334.62304 137.22215,332.03515 132.04247,326.86132 C 126.86278,321.68944 124.27294,315.55468 124.27294,308.46288 C 124.27294,301.36913 126.88817,295.18163 132.12255,289.90233 C 137.14209,284.78125 143.28271,282.2207 150.54443,282.2207 z "
   export-filename="/Users/bse/Documents/Work/cc/2006/cc/identity/rect50.png"
   export-xdpi="125.5578"
   export-ydpi="125.5578"
   id="path3864" />

	<path
   style="fill:#ffffff"
   id="path50"
   d="M 171.43506,309.0293 L 165.06397,306.38086 L 165.06397,298.44531 L 145.4917,290.29687 L 136.76709,294.1289 L 136.76709,303.20507 L 136.85889,303.24413 L 129.16358,306.44725 L 129.16358,314.67186 L 137.38819,318.19725 L 145.65674,314.77537 L 146.21533,314.99803 L 162.96631,321.90428 L 163.34131,322.06053 L 163.71631,321.90428 L 171.46631,318.59178 L 172.06006,318.34178 L 172.06006,309.27928 L 171.43506,309.0293 z M 162.34131,319.50391 L 162.26319,319.47266 L 162.26319,319.52149 L 147.59131,313.44141 L 147.59131,307.65625 L 162.26319,313.65234 L 162.26319,313.83984 L 162.34131,313.87304 L 162.34131,319.50391 z M 163.32959,312.11328 L 158.67822,310.12109 L 163.68701,307.97461 L 168.46435,309.96094 L 163.32959,312.11328 z M 170.06006,316.99805 L 164.34131,319.46094 L 164.34131,313.85938 L 170.06006,311.45313 L 170.06006,316.99805 z " />

</g>
              <path
                 id="path43"
                 d="M -868.01282,-36.5 C -865.20947,-36.5 -862.83948,-35.53351 -860.90345,-33.600218 C -858.96802,-31.666625 -858,-29.299987 -858,-26.5 C -858,-23.700013 -858.95154,-21.358094 -860.85339,-19.474854 C -862.87306,-17.491515 -865.25953,-16.5 -868.01282,-16.5 C -870.73254,-16.5 -873.07751,-17.482972 -875.0465,-19.449828 C -877.01581,-21.416382 -878,-23.766843 -878,-26.5 C -878,-29.233156 -877.01581,-31.600097 -875.0465,-33.600218 C -873.12757,-35.53351 -870.7826,-36.5 -868.01282,-36.5 z M -875.75025,-29.186156 C -876.0487,-28.342343 -876.19794,-27.446959 -876.19794,-26.5 C -876.19794,-24.283203 -875.38862,-22.3667 -873.76996,-20.750184 C -872.15101,-19.133362 -870.22413,-18.324954 -867.9878,-18.324954 C -865.75146,-18.324954 -863.8075,-19.141297 -862.15528,-20.774903 C -861.6023,-21.309572 -861.14698,-21.892456 -860.78931,-22.524474 L -864.55885,-24.203246 C -864.81458,-22.934938 -865.94495,-22.078003 -867.31153,-21.977294 L -867.31153,-20.43585 L -868.4593,-20.43585 L -868.4593,-21.977294 C -869.58174,-21.990113 -870.66602,-22.44879 -871.49488,-23.174803 L -870.11731,-24.563659 C -869.45417,-23.939269 -868.79102,-23.658813 -867.88526,-23.658813 C -867.29871,-23.658813 -866.64808,-23.888306 -866.64808,-24.652769 C -866.64808,-24.923766 -866.75306,-25.112059 -866.91846,-25.253659 L -867.87153,-25.678159 L -869.05896,-26.206725 C -869.64612,-26.468259 -870.14355,-26.689818 -870.64282,-26.911682 L -875.75025,-29.186156 z M -867.9878,-34.700378 C -870.25709,-34.700378 -872.17602,-33.900206 -873.74463,-32.299866 C -874.17188,-31.869262 -874.54298,-31.419128 -874.85853,-30.949462 L -871.0359,-29.247497 C -870.69043,-30.307678 -869.68274,-30.950684 -868.4593,-31.022702 L -868.4593,-32.564146 L -867.31153,-32.564146 L -867.31153,-31.022702 C -866.52051,-30.984556 -865.6532,-30.767882 -864.7987,-30.105343 L -866.11218,-28.754941 C -866.5968,-29.098874 -867.20898,-29.341184 -867.82178,-29.341184 C -868.3189,-29.341184 -869.0205,-29.187987 -869.0205,-28.563902 C -869.0205,-28.468687 -868.98878,-28.384766 -868.93078,-28.309997 L -867.6521,-27.740843 L -866.78662,-27.3551 C -866.23303,-27.108822 -865.70446,-26.873531 -865.18078,-26.640378 L -860.05689,-24.358884 C -859.88721,-25.030272 -859.80238,-25.744078 -859.80238,-26.499997 C -859.80238,-28.783628 -860.60315,-30.716915 -862.20533,-32.299862 C -863.79102,-33.900206 -865.7179,-34.700378 -867.9878,-34.700378 z " />
            </g>
            <g
               id="g14896">
              <g
                 transform="translate(664.67822,127.33679)"
                 id="g14686">
                <rect
                   style="fill:#ffffff;fill-opacity:1;stroke:#ffffff;stroke-width:0.75082171;stroke-miterlimit:4;stroke-dasharray:none;stroke-opacity:1"
                   id="rect14688"
                   width="6.6067443"
                   height="6.6067443"
                   x="-1555.2697"
                   y="-206.14017" />
                <path
                   style="fill:none;fill-rule:evenodd;stroke:#3f3f3f;stroke-width:1px;stroke-linecap:butt;stroke-linejoin:miter;stroke-opacity:1"
                   d="M -1549.6688,-205.35007 L -1552.4467,-201.02887 L -1554.2987,-203.18947"
                   id="path14690" />
              </g>
              <g
                 transform="translate(664.67822,151.8368)"
                 id="g14693">
                <rect
                   style="fill:#ffffff;fill-opacity:1;stroke:#ffffff;stroke-width:0.75082171;stroke-miterlimit:4;stroke-dasharray:none;stroke-opacity:1"
                   id="rect14695"
                   width="6.6067443"
                   height="6.6067443"
                   x="-1555.2697"
                   y="-206.14017" />
                <path
                   style="fill:none;fill-rule:evenodd;stroke:#3f3f3f;stroke-width:1px;stroke-linecap:butt;stroke-linejoin:miter;stroke-opacity:1"
                   d="M -1549.6688,-205.35007 L -1552.4467,-201.02887 L -1554.2987,-203.18947"
                   id="path14697" />
              </g>
              <rect
                 y="-103.30338"
                 x="-890.59143"
                 height="6.6067443"
                 width="6.6067443"
                 id="rect14699"
                 style="fill:#ffffff;fill-opacity:1;stroke:#ffffff;stroke-width:0.75082171;stroke-miterlimit:4;stroke-dasharray:none;stroke-opacity:1" />
              <rect
                 y="-29.803371"
                 x="-890.59143"
                 height="6.6067443"
                 width="6.6067443"
                 id="rect14701"
                 style="fill:#ffffff;fill-opacity:1;stroke:#ffffff;stroke-width:0.75082171;stroke-miterlimit:4;stroke-dasharray:none;stroke-opacity:1" />
              <rect
                 y="-5.3033719"
                 x="-890.59143"
                 height="6.6067443"
                 width="6.6067443"
                 id="rect14703"
                 style="fill:#ffffff;fill-opacity:1;stroke:#ffffff;stroke-width:0.75082171;stroke-miterlimit:4;stroke-dasharray:none;stroke-opacity:1" />
            </g>
            <g
               id="g14907">
              <text
                 id="text14705"
                 y="-97.017578"
                 x="-849.75476"
                 style="font-size:8px;font-style:normal;font-weight:normal;fill:#ffffff;fill-opacity:1;stroke:none;stroke-width:1px;stroke-linecap:butt;stroke-linejoin:miter;stroke-opacity:1;font-family:Sans"
                 xml:space="preserve"><tspan
                   y="-97.017578"
                   x="-849.75476"
                   id="tspan14707"
                   sodipodi:role="line">Public Domain</tspan></text>
              <text
                 id="text14709"
                 y="-73.292976"
                 x="-849.75476"
                 style="font-size:8px;font-style:normal;font-weight:normal;fill:#ffffff;fill-opacity:1;stroke:none;stroke-width:1px;stroke-linecap:butt;stroke-linejoin:miter;stroke-opacity:1;font-family:Sans"
                 xml:space="preserve"><tspan
                   y="-73.292976"
                   x="-849.75476"
                   id="tspan14711"
                   sodipodi:role="line">Allow Sharing</tspan></text>
              <text
                 id="text14713"
                 y="-48.792965"
                 x="-849.75476"
                 style="font-size:8px;font-style:normal;font-weight:normal;fill:#ffffff;fill-opacity:1;stroke:none;stroke-width:1px;stroke-linecap:butt;stroke-linejoin:miter;stroke-opacity:1;font-family:Sans"
                 xml:space="preserve"><tspan
                   y="-48.792965"
                   x="-849.75476"
                   id="tspan14715"
                   sodipodi:role="line">Allow Remixing</tspan></text>
              <text
                 id="text14717"
                 y="-23.517578"
                 x="-849.75476"
                 style="font-size:8px;font-style:normal;font-weight:normal;fill:#ffffff;fill-opacity:1;stroke:none;stroke-width:1px;stroke-linecap:butt;stroke-linejoin:miter;stroke-opacity:1;font-family:Sans"
                 xml:space="preserve"><tspan
                   y="-23.517578"
                   x="-849.75476"
                   id="tspan14719"
                   sodipodi:role="line">Prohibit Commercial Works</tspan></text>
              <text
                 id="text14721"
                 y="0.20703137"
                 x="-849.75476"
                 style="font-size:8px;font-style:normal;font-weight:normal;fill:#ffffff;fill-opacity:1;stroke:none;stroke-width:1px;stroke-linecap:butt;stroke-linejoin:miter;stroke-opacity:1;font-family:Sans"
                 xml:space="preserve"><tspan
                   y="0.20703137"
                   x="-849.75476"
                   id="tspan14723"
                   sodipodi:role="line">Require Others to Share-Alike</tspan></text>
            </g>
          </g>
        </g>
      </g>
    </g>
  </g>
</svg>
