<?xml version="1.0" encoding="UTF-8" standalone="no"?>
<!-- Created with Inkscape (http://www.inkscape.org/) -->
<svg
   xmlns:dc="http://purl.org/dc/elements/1.1/"
   xmlns:cc="http://web.resource.org/cc/"
   xmlns:rdf="http://www.w3.org/1999/02/22-rdf-syntax-ns#"
   xmlns:svg="http://www.w3.org/2000/svg"
   xmlns="http://www.w3.org/2000/svg"
   xmlns:xlink="http://www.w3.org/1999/xlink"
   xmlns:sodipodi="http://sodipodi.sourceforge.net/DTD/sodipodi-0.dtd"
   xmlns:inkscape="http://www.inkscape.org/namespaces/inkscape"
   width="720px"
   height="486px"
   id="svg2160"
   sodipodi:version="0.32"
   inkscape:version="0.45.1"
   sodipodi:docbase="/Users/rebecca/Documents/creative_commons/videobumpers/simple/grad"
   sodipodi:docname="by-nd_grad.svg"
   inkscape:output_extension="org.inkscape.output.svg.inkscape"
   inkscape:export-filename="/Users/rebecca/Documents/creative_commons/videobumpers/simple/grad/png/by-nd_grad.png"
   inkscape:export-xdpi="90"
   inkscape:export-ydpi="90">
  <defs
     id="defs2162">
    <linearGradient
       inkscape:collect="always"
       xlink:href="#linearGradient8212"
       id="linearGradient8218"
       x1="398.66666"
       y1="619.02332"
       x2="398.66666"
       y2="-12.348995"
       gradientUnits="userSpaceOnUse"
       gradientTransform="translate(2.1148834e-6,-1.5606506e-6)" />
    <linearGradient
       id="linearGradient8212">
      <stop
         style="stop-color:#5e5322;stop-opacity:1;"
         offset="0"
         id="stop8214" />
      <stop
         id="stop8220"
         offset="0.5"
         style="stop-color:#b09a0f;stop-opacity:1;" />
      <stop
         style="stop-color:#edd612;stop-opacity:1;"
         offset="1"
         id="stop8216" />
    </linearGradient>
    <linearGradient
       id="linearGradient6151">
      <stop
         style="stop-color:#5e5322;stop-opacity:1;"
         offset="0"
         id="stop6153" />
      <stop
         id="stop6159"
         offset="0.5"
         style="stop-color:#5e5322;stop-opacity:0.49803922;" />
      <stop
         style="stop-color:#5e5322;stop-opacity:0;"
         offset="1"
         id="stop6155" />
    </linearGradient>
    <filter
       inkscape:collect="always"
       id="filter10160">
      <feGaussianBlur
         inkscape:collect="always"
         stdDeviation="4.0858905"
         id="feGaussianBlur10162" />
    </filter>
  </defs>
  <sodipodi:namedview
     id="base"
     pagecolor="#ffffff"
     bordercolor="#666666"
     borderopacity="1.0"
     inkscape:pageopacity="0.0"
     inkscape:pageshadow="2"
     inkscape:zoom="0.75"
     inkscape:cx="474.38547"
     inkscape:cy="238.60184"
     inkscape:document-units="px"
     inkscape:current-layer="layer1"
     inkscape:window-width="931"
     inkscape:window-height="622"
     inkscape:window-x="114"
     inkscape:window-y="24"
     showguides="true"
     inkscape:guide-bbox="true" />
  <metadata
     id="metadata2165">
    <rdf:RDF>
      <cc:Work
         rdf:about="">
        <dc:format>image/svg+xml</dc:format>
        <dc:type
           rdf:resource="http://purl.org/dc/dcmitype/StillImage" />
      </cc:Work>
    </rdf:RDF>
  </metadata>
  <g
     id="layer1"
     inkscape:label="Layer 1"
     inkscape:groupmode="layer">
    <rect
       style="opacity:1;fill:url(#linearGradient8218);fill-opacity:1;stroke-width:0.69999999;stroke-miterlimit:4;stroke-dasharray:none;stroke-opacity:1"
       id="rect10716"
       width="720"
       height="486"
       x="1.3333333"
       y="2"
       ry="0"
       inkscape:transform-center-y="-164"
       inkscape:transform-center-x="-44" />
    <g
       transform="translate(2,-0.2661106)"
       id="g9163"
       style="opacity:0.6;fill:#121513;filter:url(#filter10160)">
      <text
         xml:space="preserve"
         style="font-size:20px;fill:#121513"
         x="68.369469"
         y="320.32199"
         id="text9165"><tspan
           sodipodi:role="line"
           x="68.369469"
           y="320.32199"
           id="tspan9167">Except where otherwise noted, this work is licensed under </tspan></text>
      <text
         xml:space="preserve"
         style="font-size:21px;font-style:normal;font-variant:normal;font-weight:bold;font-stretch:normal;text-align:start;line-height:125%;writing-mode:lr-tb;text-anchor:start;fill:#121513;fill-opacity:1;stroke:none;stroke-width:1px;stroke-linecap:butt;stroke-linejoin:miter;stroke-opacity:1;font-family:Bitstream Vera Sans"
         x="84.05233"
         y="360.32196"
         id="text9169"
         sodipodi:linespacing="125%"><tspan
           sodipodi:role="line"
           id="tspan9171"
           x="84.05233"
           y="360.32196">http://creativecommons.org/licenses/by-nd/3.0</tspan><tspan
           sodipodi:role="line"
           x="84.05233"
           y="386.57196"
           id="tspan9173" /></text>
      <g
         id="g9175"
         transform="translate(82.999993,5.3903485e-6)"
         style="fill:#121513">
        <g
           transform="matrix(2.0312189,0,0,2.03125,130.6398,-244.69879)"
           id="g9177"
           style="fill:#121513">
          <path
             style="fill:#121513"
             id="path9179"
             d="M 40.61133,208.38574 C 40.61133,207.24414 39.68457,206.31933 38.54492,206.31933 L 25.45557,206.31933 C 24.31446,206.31933 23.38916,207.24413 23.38916,208.38574 L 23.38916,221.47558 L 27.04004,221.47558 L 27.04004,236.97558 L 36.95996,236.97558 L 36.95996,221.47558 L 40.61133,221.47558 L 40.61133,208.38574 L 40.61133,208.38574 z " />
          <circle
             style="fill:#121513"
             sodipodi:ry="4.47754"
             sodipodi:rx="4.47754"
             sodipodi:cy="200.11914"
             sodipodi:cx="32"
             id="circle9181"
             r="4.47754"
             cy="200.11914"
             cx="32" />
          <path
             style="fill:#121513;fill-rule:evenodd"
             id="path9183"
             d="M 31.95996,184.30859 C 23.09521,184.30859 15.5918,187.40136 9.45166,193.58789 C 3.14941,199.98828 0,207.56152 0,216.30859 C 0,225.05468 3.14941,232.57617 9.45166,238.86914 C 15.75195,245.16211 23.25537,248.30859 31.95996,248.30859 C 40.77051,248.30859 48.40723,245.13671 54.86914,238.78906 C 60.95605,232.76367 64.00098,225.26953 64.00098,216.30859 C 64.00098,207.34765 60.90332,199.77441 54.70899,193.58789 C 48.51367,187.40137 40.93066,184.30859 31.95996,184.30859 z M 32.04004,190.06738 C 39.30274,190.06738 45.46973,192.62695 50.54395,197.74804 C 55.66993,202.81445 58.23243,209.00097 58.23243,216.30859 C 58.23243,223.66797 55.72364,229.77539 50.70313,234.6289 C 45.41602,239.85546 39.19532,242.46874 32.04004,242.46874 C 24.8833,242.46874 18.71582,239.8828 13.53613,234.70897 C 8.35644,229.53514 5.7666,223.40234 5.7666,216.30859 C 5.7666,209.21484 8.3833,203.02832 13.6167,197.74804 C 18.63672,192.62695 24.77686,190.06738 32.04004,190.06738 z "
             clip-rule="evenodd" />
        </g>
        <g
           style="fill:#121513"
           transform="matrix(2.03125,0,0,2.0311519,296.02688,129.68431)"
           id="g9185">
          <path
             style="opacity:1;fill:#121513;fill-opacity:1;fill-rule:nonzero;stroke:none;stroke-width:259.50698853;stroke-linecap:butt;stroke-linejoin:round;stroke-miterlimit:4;stroke-dasharray:none;stroke-dashoffset:0;stroke-opacity:1"
             d="M 31.1875,0 C 13.904525,0.43835438 3.7379722e-13,14.612004 0,32 C 2.3684758e-15,49.663996 14.336004,64 32,64 C 49.663996,64 64,49.663996 64,32 C 64,14.336004 49.663996,1.3812956e-13 32,0 C 31.724,3.7007434e-17 31.461833,-0.0069580061 31.1875,0 z M 31.15625,5.5 C 31.439783,5.4910103 31.714297,5.5 32,5.5 C 46.628003,5.4999998 58.5,17.371998 58.5,32 C 58.499998,46.628001 46.628002,58.5 32,58.5 C 17.371999,58.499999 5.5,46.628002 5.5,32 C 5.4999999,17.657701 16.922915,5.9512829 31.15625,5.5 z "
             id="path9187" />
          <path
             id="path9189"
             style="opacity:1;fill:#121513;fill-opacity:1;fill-rule:nonzero;stroke:none;stroke-width:259.50698853;stroke-linecap:butt;stroke-linejoin:round;stroke-miterlimit:4;stroke-dashoffset:0;stroke-opacity:1"
             d="M 20.784527,24.431595 L 44.347734,24.431595 L 44.347734,30.211249 L 20.784527,30.211249 L 20.784527,24.431595 z M 20.784527,34.879433 L 44.347734,34.879433 L 44.347734,40.659087 L 20.784527,40.659087 L 20.784527,34.879433 z " />
        </g>
      </g>
    </g>
    <g
       id="g9148"
       transform="translate(0,-2.2661106)">
      <text
         id="text2220"
         y="320.32199"
         x="68.369469"
         style="font-size:20px;fill:#ededee"
         xml:space="preserve"><tspan
           id="tspan2226"
           y="320.32199"
           x="68.369469"
           sodipodi:role="line">Except where otherwise noted, this work is licensed under </tspan></text>
      <text
         sodipodi:linespacing="125%"
         id="text2234"
         y="360.32196"
         x="84.05233"
         style="font-size:21px;font-style:normal;font-variant:normal;font-weight:bold;font-stretch:normal;text-align:start;line-height:125%;writing-mode:lr-tb;text-anchor:start;fill:#ededee;fill-opacity:1;stroke:none;stroke-width:1px;stroke-linecap:butt;stroke-linejoin:miter;stroke-opacity:1;font-family:Bitstream Vera Sans"
         xml:space="preserve"><tspan
           y="360.32196"
           x="84.05233"
           id="tspan2236"
           sodipodi:role="line">http://creativecommons.org/licenses/by-nd/3.0</tspan><tspan
           id="tspan8346"
           y="386.57196"
           x="84.05233"
           sodipodi:role="line" /></text>
      <g
         style="fill:#ededee"
         transform="translate(82.999993,5.3903485e-6)"
         id="g8595">
        <g
           style="fill:#ededee"
           id="g35"
           transform="matrix(2.0312189,0,0,2.03125,130.6398,-244.69879)">
          <path
             d="M 40.61133,208.38574 C 40.61133,207.24414 39.68457,206.31933 38.54492,206.31933 L 25.45557,206.31933 C 24.31446,206.31933 23.38916,207.24413 23.38916,208.38574 L 23.38916,221.47558 L 27.04004,221.47558 L 27.04004,236.97558 L 36.95996,236.97558 L 36.95996,221.47558 L 40.61133,221.47558 L 40.61133,208.38574 L 40.61133,208.38574 z "
             id="path37"
             style="fill:#ededee" />
          <circle
             cx="32"
             cy="200.11914"
             r="4.47754"
             id="circle39"
             sodipodi:cx="32"
             sodipodi:cy="200.11914"
             sodipodi:rx="4.47754"
             sodipodi:ry="4.47754"
             style="fill:#ededee" />
          <path
             clip-rule="evenodd"
             d="M 31.95996,184.30859 C 23.09521,184.30859 15.5918,187.40136 9.45166,193.58789 C 3.14941,199.98828 0,207.56152 0,216.30859 C 0,225.05468 3.14941,232.57617 9.45166,238.86914 C 15.75195,245.16211 23.25537,248.30859 31.95996,248.30859 C 40.77051,248.30859 48.40723,245.13671 54.86914,238.78906 C 60.95605,232.76367 64.00098,225.26953 64.00098,216.30859 C 64.00098,207.34765 60.90332,199.77441 54.70899,193.58789 C 48.51367,187.40137 40.93066,184.30859 31.95996,184.30859 z M 32.04004,190.06738 C 39.30274,190.06738 45.46973,192.62695 50.54395,197.74804 C 55.66993,202.81445 58.23243,209.00097 58.23243,216.30859 C 58.23243,223.66797 55.72364,229.77539 50.70313,234.6289 C 45.41602,239.85546 39.19532,242.46874 32.04004,242.46874 C 24.8833,242.46874 18.71582,239.8828 13.53613,234.70897 C 8.35644,229.53514 5.7666,223.40234 5.7666,216.30859 C 5.7666,209.21484 8.3833,203.02832 13.6167,197.74804 C 18.63672,192.62695 24.77686,190.06738 32.04004,190.06738 z "
             id="path41"
             style="fill:#ededee;fill-rule:evenodd" />
        </g>
        <g
           id="g8442"
           transform="matrix(2.03125,0,0,2.0311519,296.02688,129.68431)"
           style="fill:#ededee">
          <path
             id="path1334"
             d="M 31.1875,0 C 13.904525,0.43835438 3.7379722e-13,14.612004 0,32 C 2.3684758e-15,49.663996 14.336004,64 32,64 C 49.663996,64 64,49.663996 64,32 C 64,14.336004 49.663996,1.3812956e-13 32,0 C 31.724,3.7007434e-17 31.461833,-0.0069580061 31.1875,0 z M 31.15625,5.5 C 31.439783,5.4910103 31.714297,5.5 32,5.5 C 46.628003,5.4999998 58.5,17.371998 58.5,32 C 58.499998,46.628001 46.628002,58.5 32,58.5 C 17.371999,58.499999 5.5,46.628002 5.5,32 C 5.4999999,17.657701 16.922915,5.9512829 31.15625,5.5 z "
             style="opacity:1;fill:#ededee;fill-opacity:1;fill-rule:nonzero;stroke:none;stroke-width:259.50698853;stroke-linecap:butt;stroke-linejoin:round;stroke-miterlimit:4;stroke-dasharray:none;stroke-dashoffset:0;stroke-opacity:1" />
          <path
             d="M 20.784527,24.431595 L 44.347734,24.431595 L 44.347734,30.211249 L 20.784527,30.211249 L 20.784527,24.431595 z M 20.784527,34.879433 L 44.347734,34.879433 L 44.347734,40.659087 L 20.784527,40.659087 L 20.784527,34.879433 z "
             style="opacity:1;fill:#ededee;fill-opacity:1;fill-rule:nonzero;stroke:none;stroke-width:259.50698853;stroke-linecap:butt;stroke-linejoin:round;stroke-miterlimit:4;stroke-dashoffset:0;stroke-opacity:1"
             id="rect1338" />
        </g>
      </g>
    </g>
  </g>
</svg>
