<?xml version="1.0" encoding="UTF-8" standalone="no"?>
<!-- Created with Inkscape (http://www.inkscape.org/) -->
<svg
   xmlns:dc="http://purl.org/dc/elements/1.1/"
   xmlns:cc="http://creativecommons.org/ns#"
   xmlns:rdf="http://www.w3.org/1999/02/22-rdf-syntax-ns#"
   xmlns:svg="http://www.w3.org/2000/svg"
   xmlns="http://www.w3.org/2000/svg"
   xmlns:sodipodi="http://sodipodi.sourceforge.net/DTD/sodipodi-0.dtd"
   xmlns:inkscape="http://www.inkscape.org/namespaces/inkscape"
   id="svg2403"
   sodipodi:version="0.32"
   inkscape:version="0.46"
   width="744.025"
   height="1052.5"
   xml:space="preserve"
   sodipodi:docname="shkableti.svg"
   inkscape:output_extension="org.inkscape.output.svg.inkscape"><metadata
     id="metadata2408"><rdf:RDF><cc:Work
         rdf:about=""><dc:format>image/svg+xml</dc:format><dc:type
           rdf:resource="http://purl.org/dc/dcmitype/StillImage" /></cc:Work></rdf:RDF></metadata><defs
     id="defs2406"><inkscape:perspective
       sodipodi:type="inkscape:persp3d"
       inkscape:vp_x="0 : 526.18109 : 1"
       inkscape:vp_y="0 : 1000 : 0"
       inkscape:vp_z="744.09448 : 526.18109 : 1"
       inkscape:persp3d-origin="372.04724 : 350.78739 : 1"
       id="perspective2410" /></defs><sodipodi:namedview
     inkscape:window-height="670"
     inkscape:window-width="640"
     inkscape:pageshadow="2"
     inkscape:pageopacity="0.0"
     guidetolerance="10.0"
     gridtolerance="10.0"
     objecttolerance="10.0"
     borderopacity="1.0"
     bordercolor="#666666"
     pagecolor="#ffffff"
     id="base"
     showgrid="false"
     inkscape:zoom="0.43800475"
     inkscape:cx="372.01251"
     inkscape:cy="526.25"
     inkscape:window-x="0"
     inkscape:window-y="25"
     inkscape:current-layer="g2412" /><g
     id="g2412"
     inkscape:groupmode="layer"
     inkscape:label="shkableti"
     transform="matrix(1.25,0,0,-1.25,0,1052.5)"><path
       d="M 305.57,223.342 C 301.265,227.877 297.619,232 293.451,236.754 C 293.834,238.881 288.81,245.643 288.146,246.836 C 287.249,249.438 286.392,251.984 285.535,254.529 C 288.994,256.931 304.734,257.358 308.023,254.763 C 306.974,248.951 305.915,243.091 304.857,237.231 C 305.796,227.839 305.796,227.839 305.57,223.342"
       style="fill:#231f20;fill-opacity:1;fill-rule:evenodd;stroke:none"
       id="path2414" /><path
       d="M 286.04,265.174 C 286.859,270.784 288.88,276.031 288.009,281.751 C 291.979,281.035 296.259,282.311 300.181,281.602 C 300.003,280.073 299.825,278.545 299.685,276.959 C 300.917,274.052 303.65,269.997 303.078,266.831 C 298.238,266.241 290.767,264.32 286.04,265.174"
       style="fill:#231f20;fill-opacity:1;fill-rule:evenodd;stroke:none"
       id="path2416" /><path
       d="M 288.773,289.762 C 288.406,290.707 288.406,290.707 287.027,291.444 C 286.742,293.106 286.742,293.106 287.838,308.913 C 292.654,308.288 297.517,307.653 302.371,306.972 C 301.095,300.713 303.01,297 303.615,290.889 C 299.517,290.896 292.585,290.88 288.773,289.762"
       style="fill:#231f20;fill-opacity:1;fill-rule:evenodd;stroke:none"
       id="path2418" /><path
       d="M 296.274,316.174 C 293.562,317.102 290.441,319.276 287.747,319.762 C 289.768,325.546 291.994,331.39 290.948,337.483 C 295.767,336.613 300.587,335.743 305.408,334.873 C 304.016,328.244 304.286,321.9 304.234,315.127 C 301.57,315.51 298.898,315.846 296.274,316.174"
       style="fill:#231f20;fill-opacity:1;fill-rule:evenodd;stroke:none"
       id="path2420" /><path
       d="M 300.238,382.154 C 303.07,381.72 306.527,380.134 309.263,380.131 C 308.298,374.082 307.142,367.935 309.249,362.123 C 304.352,362.127 299.454,362.131 294.556,362.135 C 294.753,368.904 293.365,375.1 292.217,381.776 C 294.906,381.871 297.596,382.012 300.238,382.154"
       style="fill:#231f20;fill-opacity:1;fill-rule:evenodd;stroke:none"
       id="path2422" /><path
       d="M 304.4,342.306 C 300.557,343.074 296.71,343.795 292.863,344.513 C 292.923,348.554 292.98,352.547 293.083,356.536 C 302.607,353.804 303.228,353.085 309.163,351.969 C 308.036,343.916 308.036,343.916 307.265,342.624 C 306.296,342.552 305.325,342.431 304.4,342.306"
       style="fill:#231f20;fill-opacity:1;fill-rule:evenodd;stroke:none"
       id="path2424" /><path
       d="M 292.545,401.853 C 296.488,401.834 300.425,401.867 304.364,401.901 C 305.011,397.353 305.652,392.861 306.245,388.362 C 296.331,389.344 295.59,390.016 289.513,389.97 C 289.224,399.255 289.224,399.255 289.763,400.872 C 290.708,401.166 291.652,401.513 292.545,401.853"
       style="fill:#231f20;fill-opacity:1;fill-rule:evenodd;stroke:none"
       id="path2426" /><path
       d="M 478.494,299.883 C 479.726,314.566 471.324,322.084 461.103,330.764 C 460.374,326.551 459.064,322.33 459.514,318.087 C 467.526,312.084 472.89,308.446 478.494,299.883"
       style="fill:#231f20;fill-opacity:1;fill-rule:evenodd;stroke:none"
       id="path2428" /><path
       d="M 440.576,290.246 C 448.149,295.499 446.724,305.969 446.288,313.969 C 443.163,315.143 437.824,310.912 435.244,309.423 C 435.147,308.216 438.203,301.728 439.441,296.043 C 439.371,294.191 439.284,292.274 439.195,290.357 C 439.648,290.334 440.1,290.31 440.576,290.246"
       style="fill:#231f20;fill-opacity:1;fill-rule:evenodd;stroke:none"
       id="path2430" /><path
       d="M 456.303,321.366 C 459.406,335.946 459.365,332.463 444.554,337.855 C 448.7,346.806 458.057,340.746 464.623,345.439 C 461.964,348.741 459.285,351.977 456.608,355.214 C 450.238,352.441 443.89,349.628 437.542,346.814 C 434.604,351.531 428.829,353.236 422.307,353.564 C 410.567,359.07 372.925,377.709 361.878,384.535 C 361.197,391.792 360.206,397.23 351.581,397.326 C 345.295,393.611 345.967,393.985 346.757,387.226 C 339.304,382.15 337.972,379.706 342.754,371.596 C 356.248,370.746 406.676,351.088 416.501,342.353 C 416.919,338.661 414.321,335.65 410.165,333.835 C 409.714,330.891 410.237,321.537 412.853,318.707 C 416.214,321.782 417.36,323.03 419.714,325.997 C 421.644,327.605 423.074,330.761 424.468,331.201 C 427.197,329.417 428.055,328.944 430.394,329.469 C 431.36,327.04 431.949,315.959 434.188,314.402 C 438.93,315.554 438.93,315.554 443.394,315.728 C 446.042,319.563 441.723,323.48 440.914,327.701 C 445.868,330.454 451.611,323.976 454.9,321.024 C 455.366,321.175 455.856,321.282 456.303,321.366"
       style="fill:#231f20;fill-opacity:1;fill-rule:evenodd;stroke:none"
       id="path2432" /><path
       d="M 491.021,343.816 C 482.987,355.502 478.051,358.748 463.518,358.305 C 462.953,357.937 462.412,357.527 461.871,357.116 C 463.276,353.008 463.276,353.008 466.747,346.366 C 475.507,349.586 482.723,343.324 491.021,343.816"
       style="fill:#231f20;fill-opacity:1;fill-rule:evenodd;stroke:none"
       id="path2434" /><path
       d="M 393.233,304.494 C 397.634,311.995 401.836,313.232 408.752,316.802 C 406.917,325.836 407.178,326.75 406.165,329.263 C 394.232,322.466 388.864,318.877 392.132,304.596 C 392.519,304.592 392.865,304.563 393.233,304.494"
       style="fill:#231f20;fill-opacity:1;fill-rule:evenodd;stroke:none"
       id="path2436" /><path
       d="M 111.516,298.632 C 110.285,313.316 118.687,320.833 128.908,329.513 C 129.637,325.3 130.947,321.08 130.496,316.837 C 122.485,310.833 117.121,307.195 111.516,298.632"
       style="fill:#231f20;fill-opacity:1;fill-rule:evenodd;stroke:none"
       id="path2438" /><path
       d="M 149.435,288.995 C 141.862,294.249 143.287,304.719 143.723,312.719 C 146.848,313.893 152.187,309.662 154.766,308.173 C 154.864,306.965 151.808,300.477 150.57,294.793 C 150.64,292.94 150.728,291.023 150.816,289.106 C 150.364,289.084 149.911,289.06 149.435,288.995"
       style="fill:#231f20;fill-opacity:1;fill-rule:evenodd;stroke:none"
       id="path2440" /><path
       d="M 133.707,320.115 C 130.605,334.696 130.646,331.212 145.456,336.604 C 141.312,345.556 131.954,339.495 125.388,344.189 C 128.047,347.49 130.725,350.726 133.403,353.963 C 139.774,351.191 146.121,348.377 152.468,345.563 C 155.408,350.281 161.182,351.985 167.703,352.313 C 179.445,357.819 217.085,376.458 228.132,383.284 C 228.814,390.541 229.805,395.979 238.429,396.075 C 244.715,392.361 244.044,392.734 243.254,385.976 C 250.706,380.9 252.039,378.455 247.257,370.345 C 233.763,369.496 183.334,349.836 173.51,341.102 C 173.091,337.41 175.69,334.399 179.846,332.584 C 180.297,329.64 179.775,320.286 177.158,317.455 C 173.797,320.531 172.651,321.779 170.297,324.746 C 168.367,326.354 166.937,329.51 165.542,329.95 C 162.815,328.166 161.955,327.693 159.618,328.219 C 158.651,325.789 158.063,314.708 155.824,313.15 C 151.08,314.303 151.08,314.303 146.617,314.477 C 143.969,318.311 148.288,322.228 149.097,326.45 C 144.144,329.203 138.4,322.725 135.112,319.774 C 134.645,319.923 134.156,320.03 133.707,320.115"
       style="fill:#231f20;fill-opacity:1;fill-rule:evenodd;stroke:none"
       id="path2442" /><path
       d="M 98.99,342.565 C 107.024,354.252 111.96,357.496 126.493,357.054 C 127.058,356.686 127.599,356.275 128.14,355.865 C 126.735,351.757 126.735,351.757 123.263,345.115 C 114.504,348.336 107.287,342.073 98.99,342.565"
       style="fill:#231f20;fill-opacity:1;fill-rule:evenodd;stroke:none"
       id="path2444" /><path
       d="M 196.778,303.243 C 192.377,310.744 188.175,311.981 181.259,315.551 C 183.094,324.585 182.833,325.499 183.846,328.013 C 195.779,321.215 201.147,317.627 197.879,303.345 C 197.492,303.341 197.146,303.313 196.778,303.243"
       style="fill:#231f20;fill-opacity:1;fill-rule:evenodd;stroke:none"
       id="path2446" /><path
       d="M 232.032,680.449 C 234.219,680.245 237.66,680.063 240.801,679.001 C 236.316,675.427 230.777,671.892 227.93,671.07 C 222.431,669.782 211.422,669.715 217.432,677.02 C 219.533,678.267 221.974,679.246 224.807,679.978 L 232.032,680.449 z M 219.212,687.892 C 221.327,688.281 222.136,688.946 225.301,689.512 C 229.401,689.394 231.349,689.454 233.391,689.031 C 234.825,688.676 236.247,687.663 236.51,687.831 C 245.284,695.933 257.317,698.69 263.205,697.796 C 268.544,696.528 276.782,691.416 276.193,682.2 C 275.155,682.415 273.867,683.651 273.511,683.505 C 267.152,686.103 262.758,686.044 256.113,683.385 C 247.799,677.962 242.382,674.316 245.507,664.223 C 256.337,665.903 265.536,667.642 274.226,675.191 C 276.594,678.028 279.568,683.187 283.055,684.302 C 282.675,682.694 282.295,681.086 281.889,679.415 C 281.489,679.252 281.089,679.088 280.644,678.906 C 280.807,678.506 280.972,678.106 281.153,677.662 C 280.036,676.841 280.036,676.841 277.804,672.659 C 269.657,662.894 259.2,659.032 247.67,653.227 C 247.93,652.97 248.191,652.714 248.47,652.413 C 260.294,651.283 266.605,658.806 275.238,665.606 C 276.874,661.606 269.194,651.461 265.915,648.823 C 265.548,647.946 262.436,646.674 262.113,645.815 C 258.892,644.809 255.628,643.785 252.363,642.761 C 241.397,642.427 229.576,644.063 218.703,640.965 C 219.836,637.058 229.9,631.49 230.076,628.391 C 226.722,623.906 218.52,620.859 213.234,620.719 C 212.996,625.169 204.686,629.339 204.384,635.461 C 199.458,635.833 190.919,644.043 188.956,648.843 C 185.637,650.235 177.261,651.987 174.768,654.359 C 181.268,656.065 195.423,664.66 200.902,675.841 C 202.666,677.229 205.728,682.747 208.931,684.213 L 219.212,687.892"
       style="fill:#231f20;fill-opacity:1;fill-rule:evenodd;stroke:none"
       id="path2448" /><path
       d="M 232.032,680.449 C 234.219,680.245 237.66,680.063 240.801,679.001 C 236.316,675.427 230.777,671.892 227.93,671.07 C 222.431,669.782 211.422,669.715 217.432,677.02 C 219.533,678.267 221.974,679.246 224.807,679.978 L 232.032,680.449 z M 219.212,687.892 C 221.327,688.281 222.136,688.946 225.301,689.512 C 229.401,689.394 231.349,689.454 233.391,689.031 C 234.825,688.676 236.247,687.663 236.51,687.831 C 245.284,695.933 257.317,698.69 263.205,697.796 C 268.544,696.528 276.782,691.416 276.193,682.2 C 275.155,682.415 273.867,683.651 273.511,683.505 C 267.152,686.103 262.758,686.044 256.113,683.385 C 247.799,677.962 242.382,674.316 245.507,664.223 C 256.337,665.903 265.536,667.642 274.226,675.191 C 276.594,678.028 279.568,683.187 283.055,684.302 C 282.675,682.694 282.295,681.086 281.889,679.415 C 281.489,679.252 281.089,679.088 280.644,678.906 C 280.807,678.506 280.972,678.106 281.153,677.662 C 280.036,676.841 280.036,676.841 277.804,672.659 C 269.657,662.894 259.2,659.032 247.67,653.227 C 247.93,652.97 248.191,652.714 248.47,652.413 C 260.294,651.283 266.605,658.806 275.238,665.606 C 276.874,661.606 269.194,651.461 265.915,648.823 C 265.548,647.946 262.436,646.674 262.113,645.815 C 258.892,644.809 255.628,643.785 252.363,642.761 C 241.397,642.427 229.576,644.063 218.703,640.965 C 219.836,637.058 229.9,631.49 230.076,628.391 C 226.722,623.906 218.52,620.859 213.234,620.719 C 212.996,625.169 204.686,629.339 204.384,635.461 C 199.458,635.833 190.919,644.043 188.956,648.843 C 185.637,650.235 177.261,651.987 174.768,654.359 C 181.268,656.065 195.423,664.66 200.902,675.841 C 202.666,677.229 205.728,682.747 208.931,684.213 L 219.212,687.892 z"
       style="fill:none;stroke:#231f20;stroke-opacity:1;stroke-width:0.216;stroke-linecap:butt;stroke-linejoin:miter;stroke-miterlimit:2.613;stroke-dasharray:none"
       id="path2450" /><path
       d="M 355.299,679.08 C 353.113,678.876 349.671,678.694 346.531,677.633 C 351.015,674.058 356.554,670.523 359.402,669.7 C 364.9,668.413 375.91,668.345 369.9,675.651 C 367.798,676.898 365.357,677.876 362.524,678.609 L 355.299,679.08 z M 368.118,686.523 C 366.004,686.912 365.197,687.576 362.031,688.143 C 357.93,688.025 355.984,688.086 353.941,687.661 C 352.506,687.307 351.084,686.294 350.822,686.462 C 342.046,694.563 330.015,697.321 324.125,696.427 C 318.787,695.159 310.549,690.047 311.138,680.831 C 312.176,681.046 313.464,682.282 313.82,682.136 C 320.18,684.734 324.574,684.675 331.219,682.016 C 339.533,676.593 344.949,672.946 341.824,662.854 C 330.994,664.534 321.795,666.273 313.106,673.822 C 310.738,676.658 307.763,681.818 304.277,682.933 C 304.656,681.325 305.036,679.717 305.443,678.046 C 305.842,677.882 306.242,677.719 306.687,677.537 C 306.523,677.136 306.359,676.737 306.177,676.293 C 307.295,675.472 307.295,675.472 309.529,671.29 C 317.674,661.525 328.132,657.663 339.661,651.858 C 339.402,651.601 339.14,651.345 338.862,651.044 C 327.036,649.913 320.726,657.437 312.093,664.237 C 310.456,660.237 318.136,650.092 321.415,647.453 C 321.785,646.576 324.895,645.304 325.218,644.446 C 328.439,643.44 331.703,642.416 334.968,641.392 C 345.935,641.057 357.756,642.694 368.629,639.595 C 367.495,635.689 357.431,630.122 357.255,627.022 C 360.609,622.537 368.811,619.49 374.097,619.351 C 374.335,623.8 382.645,627.969 382.948,634.092 C 387.873,634.464 396.411,642.674 398.375,647.474 C 401.695,648.866 410.07,650.618 412.564,652.99 C 406.063,654.696 391.909,663.292 386.429,674.472 C 384.665,675.86 381.603,681.378 378.4,682.844 L 368.118,686.523"
       style="fill:#231f20;fill-opacity:1;fill-rule:evenodd;stroke:none"
       id="path2452" /><path
       d="M 355.299,679.08 C 353.113,678.876 349.671,678.694 346.531,677.633 C 351.015,674.058 356.554,670.523 359.402,669.7 C 364.9,668.413 375.91,668.345 369.9,675.651 C 367.798,676.898 365.357,677.876 362.524,678.609 L 355.299,679.08 z M 368.118,686.523 C 366.004,686.912 365.197,687.576 362.031,688.143 C 357.93,688.025 355.984,688.086 353.941,687.661 C 352.506,687.307 351.084,686.294 350.822,686.462 C 342.046,694.563 330.015,697.321 324.125,696.427 C 318.787,695.159 310.549,690.047 311.138,680.831 C 312.176,681.046 313.464,682.282 313.82,682.136 C 320.18,684.734 324.574,684.675 331.219,682.016 C 339.533,676.593 344.949,672.946 341.824,662.854 C 330.994,664.534 321.795,666.273 313.106,673.822 C 310.738,676.658 307.763,681.818 304.277,682.933 C 304.656,681.325 305.036,679.717 305.443,678.046 C 305.842,677.882 306.242,677.719 306.687,677.537 C 306.523,677.136 306.359,676.737 306.177,676.293 C 307.295,675.472 307.295,675.472 309.529,671.29 C 317.674,661.525 328.132,657.663 339.661,651.858 C 339.402,651.601 339.14,651.345 338.862,651.044 C 327.036,649.913 320.726,657.437 312.093,664.237 C 310.456,660.237 318.136,650.092 321.415,647.453 C 321.785,646.576 324.895,645.304 325.218,644.446 C 328.439,643.44 331.703,642.416 334.968,641.392 C 345.935,641.057 357.756,642.694 368.629,639.595 C 367.495,635.689 357.431,630.122 357.255,627.022 C 360.609,622.537 368.811,619.49 374.097,619.351 C 374.335,623.8 382.645,627.969 382.948,634.092 C 387.873,634.464 396.411,642.674 398.375,647.474 C 401.695,648.866 410.07,650.618 412.564,652.99 C 406.063,654.696 391.909,663.292 386.429,674.472 C 384.665,675.86 381.603,681.378 378.4,682.844 L 368.118,686.523 z"
       style="fill:none;stroke:#231f20;stroke-opacity:1;stroke-width:0.216;stroke-linecap:butt;stroke-linejoin:miter;stroke-miterlimit:2.613;stroke-dasharray:none"
       id="path2454" /><path
       d="M 260.734,604.689 C 257.168,603.064 250.907,601.398 247.366,599.732 C 245.051,603.044 242.762,606.315 240.514,609.612 C 249.836,612.967 253.48,612.745 258.948,615.312 C 262.742,608.118 262.742,608.118 262.873,606.62 C 262.129,605.996 261.411,605.33 260.734,604.689"
       style="fill:#231f20;fill-opacity:1;fill-rule:evenodd;stroke:none"
       id="path2456" /><path
       d="M 245.578,616.562 C 241.468,615.299 238.471,613.633 234.567,612.148 C 229.895,613.829 222.711,616.375 219.737,618.946 C 229.059,622.301 228.352,623.892 233.82,626.459 C 239.972,622.167 251.394,620.173 251.524,618.675 C 250.781,618.05 246.255,617.202 245.578,616.562"
       style="fill:#231f20;fill-opacity:1;fill-rule:evenodd;stroke:none"
       id="path2458" /><path
       d="M 341.753,615.193 C 345.863,613.929 348.861,612.263 352.764,610.779 C 357.437,612.459 364.62,615.006 367.594,617.577 C 358.272,620.931 358.978,622.523 353.511,625.09 C 347.36,620.797 335.937,618.803 335.807,617.305 C 336.55,616.68 341.076,615.834 341.753,615.193"
       style="fill:#231f20;fill-opacity:1;fill-rule:evenodd;stroke:none"
       id="path2460" /><path
       d="M 276.709,593.028 C 267.14,589.866 266.241,590.176 253.896,586.572 C 251.88,588.848 254.354,595.285 254.451,598.27 C 259.005,600.326 263.601,602.403 268.198,604.48 C 270.19,604.008 271.762,600.34 272.881,598.589 C 275.128,597.813 277.956,597.159 278.421,594.448 C 277.836,594.004 277.273,593.515 276.709,593.028"
       style="fill:#231f20;fill-opacity:1;fill-rule:evenodd;stroke:none"
       id="path2462" /><path
       d="M 264.111,584.374 C 267.677,585.752 281.18,592.381 284.232,590.972 C 283.988,587.075 283.744,583.179 283.498,579.282 C 276.794,576.538 271.099,573.138 264.286,576.666 C 263.172,578.63 262.035,580.635 260.856,582.618 C 261.955,583.211 263.054,583.804 264.111,584.374"
       style="fill:#231f20;fill-opacity:1;fill-rule:evenodd;stroke:none"
       id="path2464" /><path
       d="M 331.337,602.696 C 335.095,601.587 338.835,600.431 342.576,599.278 C 344.404,602.881 346.212,606.441 347.978,610.019 C 338.278,612.037 337.393,611.688 331.62,613.465 C 328.869,605.812 328.869,605.812 328.951,604.31 C 329.773,603.795 330.578,603.236 331.337,602.696"
       style="fill:#231f20;fill-opacity:1;fill-rule:evenodd;stroke:none"
       id="path2466" /><path
       d="M 315.973,590.255 C 325.542,587.093 326.441,587.403 338.785,583.799 C 340.801,586.075 338.327,592.513 338.231,595.497 C 333.677,597.553 329.079,599.631 324.484,601.708 C 322.492,601.236 320.919,597.567 319.8,595.816 C 317.554,595.04 314.726,594.386 314.261,591.676 C 314.845,591.231 315.41,590.743 315.973,590.255"
       style="fill:#231f20;fill-opacity:1;fill-rule:evenodd;stroke:none"
       id="path2468" /><path
       d="M 329.267,583.072 C 325.6,584.155 311.601,589.658 308.675,588.004 C 309.238,584.141 309.798,580.277 310.36,576.413 C 317.267,574.226 323.22,571.303 329.722,575.375 C 330.672,577.423 331.641,579.515 332.654,581.588 C 331.51,582.089 330.367,582.59 329.267,583.072"
       style="fill:#231f20;fill-opacity:1;fill-rule:evenodd;stroke:none"
       id="path2470" /><path
       d="M 301.585,496.593 C 300.775,499.06 300.451,498.667 300.507,500.469 C 304.72,501.974 309.9,501.505 311.153,500.238 C 312.449,500.238 324.423,493.563 329.418,491.547 C 328.89,499.181 328.41,502.543 320.582,504.32 C 320.39,503.84 320.246,503.36 320.103,502.879 C 314.148,507.393 308.001,510.85 301.47,514.404 C 309.298,519.927 325,510.034 331.579,506.865 C 332.492,514.788 331.003,521.367 322.839,523 C 322.599,522.088 322.359,521.175 322.119,520.215 C 321.111,520.215 312.419,525.881 301.757,531.548 C 300.413,531.548 299.742,532.22 297.1,532.22 C 298.349,536.061 300.269,538.463 304.447,538.895 C 304.639,538.703 304.831,538.463 305.072,538.222 C 313.716,538.222 320.63,530.203 329.322,530.203 C 326.729,533.66 324.521,536.59 321.111,539.231 C 303.775,548.259 303.775,548.259 302.767,548.259 C 305.552,564.202 326.825,544.466 330.09,538.558 C 332.396,537.31 334.748,536.061 337.101,534.765 C 343.921,518.774 349.634,502.207 356.262,486.072 C 364.857,468.784 371.58,450.681 380.128,433.537 C 380.945,429.36 379.503,426.91 377.583,423.069 C 375.182,411.687 376.91,408.759 388.484,408.519 C 395.495,409.814 402.41,409.911 409.132,411.496 C 409.95,423.74 406.396,426.478 396.79,433.537 C 395.014,435.986 393.238,438.435 391.46,440.884 C 375.23,472.674 361.112,502.975 352.949,537.406 C 354.822,548.884 349.634,561.128 336.429,554.934 C 333.788,554.934 333.116,555.558 329.418,555.558 C 329.178,555.222 328.939,554.886 328.745,554.55 C 325.672,554.742 324.328,556.855 322.119,558.92 C 322.119,559.4 322.119,559.832 322.119,560.264 C 333.068,567.948 356.021,557.191 357.27,572.461 C 356.406,573.95 355.589,575.438 354.773,576.927 C 354.869,584.467 354.677,593.158 344.449,586.915 C 339.887,578.704 336.574,575.151 327.786,571.597 C 326.825,575.583 323.031,577.263 319.814,579.04 C 316.117,577.599 313.859,575.055 311.218,572.125 C 303.919,570.301 293.499,569.004 286.343,572.654 C 285.671,574.094 285.046,575.535 284.423,576.927 C 278.948,578.032 274.434,581.681 271.073,574.91 C 269.056,574.91 268.432,574.238 257.195,572.797 C 252.009,573.614 248.496,579.406 243.55,581.711 C 235.627,583.344 235.249,577.984 234.289,569.868 C 233.032,566.651 233.201,563.347 236.63,560.862 C 238.743,560.429 244.063,562.218 248.397,562.526 C 253.865,562.566 259.884,561.512 267.423,561.561 C 265.935,556.711 261.085,552.389 257.147,549.171 C 257.003,550.66 256.859,552.148 256.763,553.589 C 254.41,553.589 253.737,552.917 250.04,552.005 C 249.559,551.092 249.559,551.092 249.415,542.929 C 244.326,543.265 249.417,550.854 245.095,553.495 C 236.019,548.788 233.186,543.17 237.027,532.749 C 232.225,512.773 228.528,495.053 220.46,476.613 C 220.46,475.268 212.441,455.244 212.441,453.947 C 207.11,441.27 207.11,439.926 197.363,418.22 C 190.784,410.873 187.71,405.927 194.769,397.908 C 198.323,397.908 201.348,399.252 204.758,400.26 C 211.817,398.723 217.099,399.828 220.46,406.599 C 220.172,414.859 219.019,422.446 219.26,430.801 C 225.454,456.397 234.531,481.752 241.445,507.298 C 246.247,518.535 243.509,526.601 254.074,532.892 C 258.155,538.366 270.449,553.781 277.22,553.781 C 278.9,551.668 280.293,550.66 280.485,547.971 C 273.09,542.929 257.387,532.989 257.387,522.232 C 262.669,526.794 267.327,531.788 273.762,534.573 C 276.643,534.477 279.525,534.381 282.406,534.237 C 286.2,530.876 272.37,527.322 271.745,522.904 C 271.265,522.904 270.833,522.904 270.401,522.904 C 269.776,521.559 269.776,521.559 259.788,511.859 C 259.5,513.011 259.212,514.164 258.972,515.316 C 250.76,511.331 252.489,508.93 254.65,501.343 C 256.667,501.487 260.124,502.639 260.412,504.896 C 268.048,510.034 274.818,518.726 283.991,513.635 C 276.787,507.777 268.1,503.506 261.81,496.495 C 261.57,497.503 260.693,497.615 260.453,498.575 C 257.475,496.222 254.655,495.39 253.599,491.645 C 255.327,489.244 257.056,486.843 258.785,484.442 C 263.874,485.45 270.57,494.021 273.449,497.266 C 275.88,498.595 280.434,499.24 277.606,499.46 C 282.245,500.23 284.15,499.564 286.093,498.486 C 286.488,497.127 286.165,496.171 285.263,495.009 C 282.503,492.534 275.342,490.446 274.913,487.408 C 274.433,487.408 274.001,487.408 273.569,487.408 C 272.944,486.064 272.944,486.064 262.956,476.364 C 262.668,477.516 262.38,478.669 262.14,479.821 C 253.928,475.836 255.657,473.434 257.818,465.847 C 259.834,465.991 263.292,467.143 263.58,469.4 C 270.499,474.057 278.832,483.967 286.763,481.558 C 287.583,481.309 286.298,478.617 287.159,478.14 C 279.955,472.282 274.814,467.757 268.523,460.746 C 268.284,461.754 268.043,462.714 267.803,463.675 C 264.826,461.322 261.369,459.641 260.312,455.895 C 262.041,453.494 262.623,453.387 264.351,450.986 C 269.441,451.994 275.924,461.839 281.35,465.296 C 281.447,465.777 283.115,465.583 283.981,465.494 C 287.956,464.714 289.573,463.438 293.171,463.75 C 297.581,464.79 309.92,468.44 313.618,464.742 C 314.914,464.742 327.591,458.067 332.586,456.051 C 332.058,463.686 331.578,467.048 323.75,468.824 C 323.558,468.344 323.413,467.864 323.27,467.384 C 317.316,471.898 311.169,475.355 304.638,478.909 C 305.286,479.426 304.109,482.144 304.91,482.409 C 312.656,484.971 328.7,474.242 334.746,471.369 C 335.66,479.293 334.171,485.872 326.007,487.504 C 325.767,486.592 325.527,485.679 325.286,484.719 C 324.279,484.719 315.587,490.385 304.925,496.052 C 304.459,496.14 303.173,496.109 301.585,496.593"
       style="fill:#231f20;fill-opacity:1;fill-rule:evenodd;stroke:none"
       id="path2472" /><path
       d="M 262.494,384.841 C 260.477,386.953 259.181,388.394 256.492,389.499 C 256.251,389.306 256.012,389.066 255.819,388.826 C 251.017,389.115 249.144,390.459 245.063,393.099 C 245.255,401.696 246.935,403.041 254.139,407.507 C 264.991,418.359 264.415,419.176 254.139,430.172 C 250.969,435.983 250.729,443.906 257.644,447.364 C 262.59,447.988 267.536,448.612 272.482,449.189 C 275.412,446.259 278.581,447.268 282.471,447.508 C 280.502,452.214 280.502,452.214 280.214,455.287 C 284.679,458.12 289.867,462.923 295.148,463.547 C 300.863,459.945 306.625,456.295 312.388,452.646 C 312.533,451.637 312.676,450.581 312.82,449.525 C 316.853,448.756 320.455,450.677 324.105,452.406 C 329.003,451.878 336.687,448.948 338.656,444.386 C 338.271,441.889 337.886,439.392 337.502,436.847 C 332.989,431.181 332.989,431.181 328.187,426.859 C 327.611,419.416 344.033,408.178 350.517,408.178 C 351.669,406.498 352.821,404.769 353.974,403.041 C 353.638,401.984 353.302,400.927 353.013,399.823 C 348.355,397.374 345.089,397.038 339.856,396.51 C 335.342,391.084 334.093,385.994 326.842,391.179 C 323.288,401.792 320.215,414.181 309.507,419.511 C 309.507,413.701 310.035,411.636 306.625,407.027 C 297.982,407.027 290.01,407.123 281.511,408.515 C 279.302,419.704 279.302,419.704 278.149,422.201 C 273.443,411.492 270.273,404.625 273.635,393.34 C 272.434,387.242 267.969,385.657 262.494,384.841"
       style="fill:#231f20;fill-opacity:1;fill-rule:evenodd;stroke:none"
       id="path2474" /><path
       d="M 384.459,579.816 C 375.546,580.474 373.184,575.683 365.736,572.244 C 362.579,573.06 360.938,574.713 359.23,577.33 C 359.97,585.345 355.548,591.435 366.363,593.512 C 371.919,591.267 373.835,590.947 379.755,591.591 C 376.15,594.873 376.15,594.873 375.153,596.849 C 389.408,604.631 389.408,604.631 393.077,607.294 C 393.57,609.2 399.472,614.794 400.966,616.231 C 401.561,615.411 402.156,614.591 402.79,613.795 C 401.954,608.119 400.222,603.867 397.226,598.925 C 394.826,596.565 392.838,593.221 389.984,591.54 C 387.843,586.657 387.583,584.164 384.459,579.816"
       style="fill:#231f20;fill-opacity:1;fill-rule:evenodd;stroke:none"
       id="path2476" /><path
       d="M 205.788,574.887 C 214.703,575.545 217.064,570.754 224.513,567.315 C 227.669,568.131 229.311,569.783 231.018,572.4 C 230.278,580.416 234.7,586.505 223.886,588.583 C 218.328,586.338 216.412,586.018 210.494,586.661 C 214.099,589.944 214.099,589.944 215.096,591.92 C 200.842,599.701 200.842,599.701 197.171,602.365 C 196.678,604.271 190.776,609.865 189.282,611.302 C 188.688,610.482 188.093,609.661 187.457,608.865 C 188.295,603.189 190.026,598.937 193.023,593.996 C 195.423,591.635 197.41,588.292 200.265,586.611 C 202.405,581.728 202.664,579.234 205.788,574.887"
       style="fill:#231f20;fill-opacity:1;fill-rule:evenodd;stroke:none"
       id="path2478" /><path
       d="M 228.457,534.539 C 208.148,545.326 191.113,558.585 180.745,579.443 C 185.759,584.51 210.049,572.42 212.425,568.301 C 212.851,568.376 213.277,568.45 213.75,568.532 C 220.724,560.975 223.896,557.044 233.476,554.378 C 234.879,551.649 235.158,550.333 233.971,547.639 C 232.679,547.219 231.388,546.799 230.151,546.339 C 230.838,543.242 232.705,538.693 231.82,535.663 C 230.662,535.314 229.56,534.927 228.457,534.539"
       style="fill:#231f20;fill-opacity:1;fill-rule:evenodd;stroke:none"
       id="path2480" /><path
       d="M 357.232,538.142 C 378.683,546.429 397.179,557.562 409.96,577.033 C 405.586,582.663 380.029,573.556 377.177,569.75 C 376.763,569.875 376.349,569.999 375.89,570.138 C 368.064,563.467 364.446,559.942 354.615,558.438 C 352.898,555.895 352.464,554.621 353.322,551.806 C 354.554,551.235 355.785,550.663 356.958,550.06 C 355.908,547.066 353.511,542.772 354.028,539.658 C 355.136,539.174 356.185,538.657 357.232,538.142"
       style="fill:#231f20;fill-opacity:1;fill-rule:evenodd;stroke:none"
       id="path2482" /><path
       d="M 85.033,632.211 C 91.867,626.101 99.395,632.904 107.114,634.467 C 115.326,629.3 125.876,623.209 133.275,619.13 C 138.696,614.768 146.589,608.906 153.046,605.97 C 157.68,605.177 160.264,602.746 165.812,596.578 C 169.665,595.766 172.941,596.099 175.172,597.038 C 176.846,599.993 174.835,604.359 176.326,606.089 C 194.159,605.048 185.402,623.491 174.674,622.225 C 171.036,620.586 167.375,618.99 163.673,617.372 C 151.404,619.479 138.428,631.513 124.351,638.297 C 112.07,645.996 112.07,645.996 110.835,647.361 C 106.362,656.453 102.248,660.609 91.808,658.25 C 89.406,655.031 88.638,651.782 89.12,647.77 C 83.424,642.872 82.32,638.59 85.033,632.211"
       style="fill:#231f20;fill-opacity:1;fill-rule:evenodd;stroke:none"
       id="path2484" /><path
       d="M 507.849,635.379 C 501.015,629.268 493.488,636.072 485.768,637.635 C 477.556,632.468 467.005,626.377 459.607,622.298 C 454.186,617.936 446.293,612.074 439.835,609.138 C 435.202,608.345 432.618,605.914 427.07,599.746 C 423.217,598.934 419.941,599.267 417.709,600.206 C 416.036,603.161 418.046,607.527 416.557,609.257 C 398.724,608.216 407.48,626.659 418.208,625.394 C 421.847,623.754 425.506,622.158 429.208,620.539 C 441.478,622.647 454.454,634.681 468.531,641.465 C 480.812,649.164 480.812,649.164 482.046,650.529 C 486.521,659.621 490.634,663.777 501.074,661.418 C 503.476,658.199 504.244,654.95 503.762,650.938 C 509.457,646.04 510.562,641.757 507.849,635.379"
       style="fill:#231f20;fill-opacity:1;fill-rule:evenodd;stroke:none"
       id="path2486" /><path
       d="M 87.947,576.766 C 96.037,572.455 101.734,580.851 108.861,584.205 C 117.93,581.248 129.181,577.73 138.635,575.697 C 147.013,574.318 143.919,574.26 151.554,573.882 C 155.157,572.423 156.036,571.404 166.186,567.791 C 170.746,568.678 170.746,568.678 175.169,570.462 C 176.093,573.73 173.103,577.493 174.139,579.527 C 191.709,582.752 178.822,598.588 168.701,594.809 C 165.557,592.353 162.381,589.933 159.168,587.481 C 143.273,585.255 139.979,588.774 124.694,592.019 C 110.936,596.58 110.936,596.58 109.412,597.613 C 102.906,605.382 97.924,608.442 88.343,603.67 C 86.775,599.973 86.799,596.635 88.221,592.851 C 83.852,586.74 83.796,582.318 87.947,576.766"
       style="fill:#231f20;fill-opacity:1;fill-rule:evenodd;stroke:none"
       id="path2488" /><path
       d="M 504.935,579.934 C 496.844,575.623 491.148,584.02 484.022,587.372 C 474.952,584.416 463.701,580.898 454.246,578.865 C 445.869,577.486 448.963,577.428 441.327,577.05 C 437.725,575.59 436.847,574.572 426.696,570.959 C 422.135,571.846 422.135,571.846 417.713,573.63 C 416.789,576.897 419.779,580.661 418.743,582.695 C 401.173,585.92 414.06,601.755 424.181,597.977 C 427.326,595.521 430.501,593.101 433.713,590.649 C 449.61,588.423 452.903,591.942 468.188,595.186 C 481.946,599.748 481.946,599.748 483.47,600.781 C 489.976,608.55 494.958,611.609 504.539,606.838 C 506.107,603.14 506.082,599.802 504.661,596.02 C 509.03,589.908 509.085,585.486 504.935,579.934"
       style="fill:#231f20;fill-opacity:1;fill-rule:evenodd;stroke:none"
       id="path2490" /><path
       d="M 90.608,530.558 C 99.506,528.354 102.978,537.887 109.07,542.88 C 120.137,542.868 129.469,544.198 143.073,544.179 C 152.77,544.433 155.787,544.62 162.423,544.869 C 169.252,545.544 172.31,545.219 178.071,542.181 C 182.823,541.958 186.861,543.079 188.628,546.77 C 189.767,549.724 185.481,551.242 185.988,553.468 C 194.987,560.02 187.294,568.314 176.981,566.96 C 174.533,563.809 172.044,560.686 169.528,557.524 C 154.658,551.481 138.13,554.914 122.515,554.326 C 108.059,555.388 108.059,555.388 106.329,556.016 C 98.122,561.961 92.543,563.71 84.418,556.743 C 83.801,552.774 84.64,549.543 86.944,546.222 C 84.2,539.229 85.226,534.927 90.608,530.558"
       style="fill:#231f20;fill-opacity:1;fill-rule:evenodd;stroke:none"
       id="path2492" /><path
       d="M 502.274,533.726 C 493.375,531.522 489.904,541.055 483.812,546.048 C 472.744,546.036 463.413,547.366 449.81,547.347 C 440.112,547.601 437.096,547.788 430.459,548.037 C 423.629,548.712 420.572,548.387 414.811,545.349 C 410.06,545.127 406.021,546.247 404.253,549.938 C 403.115,552.891 407.401,554.41 406.894,556.636 C 397.895,563.188 405.588,571.482 415.9,570.127 C 418.349,566.976 420.838,563.854 423.354,560.692 C 438.224,554.65 454.752,558.082 470.368,557.494 C 484.824,558.555 484.824,558.555 486.552,559.185 C 494.76,565.129 500.339,566.878 508.463,559.911 C 509.081,555.942 508.242,552.711 505.939,549.39 C 508.682,542.397 507.656,538.095 502.274,533.726"
       style="fill:#231f20;fill-opacity:1;fill-rule:evenodd;stroke:none"
       id="path2494" /><path
       d="M 92.246,487.448 C 101.383,486.69 103.291,496.655 108.509,502.554 C 117.711,503.831 129.842,506.537 141.136,508.18 C 154.805,511.288 178.297,519.882 187.991,521.015 C 194.865,522.678 199.869,523.163 204.062,522.545 C 208.48,525.04 209.784,526.333 209.978,529.237 C 209.358,535.13 206.02,533.242 206.166,535.521 C 209.811,542.661 201.92,547.701 195.481,547.378 C 193.566,543.877 191.964,540.372 189.985,536.849 C 176.267,528.514 135.279,519.066 119.957,515.997 C 105.517,514.741 105.517,514.741 103.709,515.087 C 94.66,519.646 88.873,520.484 81.962,512.311 C 81.985,508.295 83.329,505.239 86.132,502.327 C 84.538,494.986 86.238,490.903 92.246,487.448"
       style="fill:#231f20;fill-opacity:1;fill-rule:evenodd;stroke:none"
       id="path2496" /><path
       d="M 500.635,490.615 C 491.499,489.858 489.591,499.823 484.373,505.722 C 475.17,506.999 463.039,509.706 451.746,511.347 C 438.077,514.456 414.584,523.05 404.891,524.183 C 398.017,525.846 393.013,526.331 388.82,525.713 C 384.402,528.207 383.097,529.501 382.904,532.405 C 383.525,538.298 386.863,536.41 386.716,538.689 C 383.072,545.829 390.962,550.869 397.401,550.546 C 399.316,547.045 400.917,543.539 402.898,540.017 C 416.615,531.682 457.603,522.235 472.925,519.165 C 487.365,517.909 487.365,517.909 489.173,518.254 C 498.222,522.815 504.009,523.652 510.92,515.479 C 510.897,511.463 509.553,508.406 506.749,505.495 C 508.343,498.154 506.645,494.071 500.635,490.615"
       style="fill:#231f20;fill-opacity:1;fill-rule:evenodd;stroke:none"
       id="path2498" /><path
       d="M 96.972,443.908 C 106.111,444.618 106.405,454.76 110.614,461.417 C 120.071,461.681 131.551,467.003 140.297,470.238 C 142.237,474.519 202.348,498.508 208.726,502.706 C 212.549,503.412 213.836,503.024 224.339,505.43 C 227.708,508.629 227.708,508.629 230.48,512.509 C 229.503,515.761 224.96,517.329 224.741,519.601 C 237.828,531.761 218.45,538.193 211.944,529.57 C 210.612,525.809 209.233,522.061 207.841,518.267 C 195.63,507.85 134.406,481.99 119.77,476.515 C 105.716,472.97 105.716,472.97 103.876,473.022 C 94.215,476.08 88.368,475.983 82.851,466.812 C 83.514,462.851 85.329,460.049 88.561,457.622 C 88.159,450.121 90.488,446.361 96.972,443.908"
       style="fill:#231f20;fill-opacity:1;fill-rule:evenodd;stroke:none"
       id="path2500" /><path
       d="M 495.91,447.076 C 486.771,447.786 486.477,457.928 482.268,464.585 C 472.811,464.848 461.33,470.17 452.584,473.406 C 450.645,477.686 390.535,501.676 384.156,505.874 C 380.333,506.579 379.046,506.192 368.543,508.598 C 365.173,511.797 365.173,511.797 362.402,515.677 C 363.378,518.929 367.921,520.497 368.14,522.77 C 355.054,534.929 374.432,541.361 380.938,532.738 C 382.271,528.976 383.649,525.229 385.04,521.435 C 397.251,511.018 458.476,485.158 473.112,479.682 C 487.166,476.138 487.166,476.138 489.006,476.19 C 498.667,479.248 504.513,479.151 510.031,469.979 C 509.368,466.019 507.553,463.217 504.322,460.79 C 504.722,453.288 502.394,449.529 495.91,447.076"
       style="fill:#231f20;fill-opacity:1;fill-rule:evenodd;stroke:none"
       id="path2502" /><path
       d="M 107.309,393.95 C 116.253,395.96 115.094,406.039 118.308,413.23 C 127.629,414.844 138.231,421.752 146.425,426.205 C 156.087,434.896 193.807,460.857 199.519,465.925 C 204.507,471.608 209.231,470.103 214.582,470.853 C 218.765,473.457 219.287,475.024 219.388,478.216 C 217.172,481.295 213.495,482.719 212.954,484.936 C 224.167,498.843 204.069,502.437 198.863,492.972 C 198.082,489.059 197.254,485.153 196.419,481.199 C 185.823,469.143 138.912,436.993 125.21,429.481 C 111.808,423.964 111.808,423.964 109.979,423.752 C 99.98,425.396 94.208,424.465 90.058,414.599 C 91.282,410.773 93.478,408.259 97.024,406.32 C 97.699,398.838 100.541,395.45 107.309,393.95"
       style="fill:#231f20;fill-opacity:1;fill-rule:evenodd;stroke:none"
       id="path2504" /><path
       d="M 485.573,397.118 C 476.628,399.127 477.788,409.207 474.574,416.397 C 465.252,418.01 454.652,424.92 446.457,429.373 C 436.794,438.064 399.076,464.025 393.363,469.093 C 388.374,474.776 383.651,473.271 378.3,474.022 C 374.117,476.625 373.595,478.191 373.494,481.383 C 375.71,484.463 379.386,485.886 379.927,488.104 C 368.715,502.01 388.813,505.606 394.019,496.14 C 394.8,492.227 395.628,488.321 396.463,484.367 C 407.059,472.311 453.969,440.161 467.671,432.649 C 481.075,427.132 481.075,427.132 482.904,426.92 C 492.903,428.564 498.674,427.633 502.824,417.765 C 501.6,413.941 499.404,411.427 495.858,409.487 C 495.183,402.006 492.34,398.617 485.573,397.118"
       style="fill:#231f20;fill-opacity:1;fill-rule:evenodd;stroke:none"
       id="path2506" /></g></svg>