<?xml version="1.0" encoding="UTF-8" standalone="no"?>
<!-- Created with Inkscape (http://www.inkscape.org/) -->
<svg
   xmlns:dc="http://purl.org/dc/elements/1.1/"
   xmlns:cc="http://web.resource.org/cc/"
   xmlns:rdf="http://www.w3.org/1999/02/22-rdf-syntax-ns#"
   xmlns:svg="http://www.w3.org/2000/svg"
   xmlns="http://www.w3.org/2000/svg"
   xmlns:xlink="http://www.w3.org/1999/xlink"
   xmlns:sodipodi="http://sodipodi.sourceforge.net/DTD/sodipodi-0.dtd"
   xmlns:inkscape="http://www.inkscape.org/namespaces/inkscape"
   width="744.09448819"
   height="1052.3622047"
   id="svg22364"
   sodipodi:version="0.32"
   inkscape:version="0.45.1"
   sodipodi:docbase="/Users/rebecca/Documents/creative_commons/gnome/licensor"
   sodipodi:docname="quickmenu.svg"
   inkscape:output_extension="org.inkscape.output.svg.inkscape">
  <defs
     id="defs22366">
    <linearGradient
       inkscape:collect="always"
       id="linearGradient60628">
      <stop
         style="stop-color:#92aa6d;stop-opacity:1;"
         offset="0"
         id="stop60630" />
      <stop
         style="stop-color:#92aa6d;stop-opacity:0;"
         offset="1"
         id="stop60632" />
    </linearGradient>
    <linearGradient
       inkscape:collect="always"
       xlink:href="#linearGradient60628"
       id="linearGradient106244"
       gradientUnits="userSpaceOnUse"
       gradientTransform="matrix(0.9978329,0,0,0.9565141,0.7792506,21.826826)"
       x1="188.86485"
       y1="488.65497"
       x2="188.86485"
       y2="475.77338" />
    <linearGradient
       inkscape:collect="always"
       xlink:href="#linearGradient103255"
       id="linearGradient106269"
       gradientUnits="userSpaceOnUse"
       gradientTransform="matrix(0.9006349,0,0,0.9006349,77.004704,107.00311)"
       x1="615.36249"
       y1="127.74776"
       x2="615.80579"
       y2="101.53377" />
    <linearGradient
       inkscape:collect="always"
       xlink:href="#linearGradient103255"
       id="linearGradient106267"
       gradientUnits="userSpaceOnUse"
       gradientTransform="matrix(0.9006349,0,0,0.9006349,59.245074,107.0031)"
       x1="615.36249"
       y1="127.74776"
       x2="615.80579"
       y2="101.53377" />
    <linearGradient
       id="linearGradient103255">
      <stop
         style="stop-color:#bbce9d;stop-opacity:1;"
         offset="0"
         id="stop103257" />
      <stop
         style="stop-color:#bbce9d;stop-opacity:0;"
         offset="1"
         id="stop103259" />
    </linearGradient>
    <linearGradient
       inkscape:collect="always"
       xlink:href="#linearGradient103255"
       id="linearGradient106265"
       gradientUnits="userSpaceOnUse"
       gradientTransform="matrix(0.9006349,0,0,0.9006349,41.485515,107.00311)"
       x1="615.36249"
       y1="127.74776"
       x2="615.80579"
       y2="101.53377" />
    <filter
       inkscape:collect="always"
       x="-0.043249459"
       width="1.0864989"
       y="-0.29600479"
       height="1.5920096"
       id="filter112335">
      <feGaussianBlur
         inkscape:collect="always"
         stdDeviation="1.196106"
         id="feGaussianBlur112337" />
    </filter>
    <filter
       inkscape:collect="always"
       id="filter110946">
      <feGaussianBlur
         inkscape:collect="always"
         stdDeviation="0.19018086"
         id="feGaussianBlur110948" />
    </filter>
    <linearGradient
       inkscape:collect="always"
       xlink:href="#linearGradient147879"
       id="linearGradient153813"
       gradientUnits="userSpaceOnUse"
       gradientTransform="matrix(0.9959806,0,0,0.9959806,-25.504363,7.292425)"
       x1="3.7684326"
       y1="174.1906"
       x2="-11.083617"
       y2="143.26482" />
    <linearGradient
       inkscape:collect="always"
       xlink:href="#linearGradient151831"
       id="linearGradient153811"
       gradientUnits="userSpaceOnUse"
       x1="-33.361691"
       y1="168.09213"
       x2="-33.361691"
       y2="150.02583" />
    <linearGradient
       id="linearGradient147879">
      <stop
         style="stop-color:#969781;stop-opacity:1;"
         offset="0"
         id="stop147881" />
      <stop
         id="stop148859"
         offset="1"
         style="stop-color:#e5e5e5;stop-opacity:1;" />
      <stop
         style="stop-color:#9e9f8c;stop-opacity:0;"
         offset="1"
         id="stop147883" />
    </linearGradient>
    <linearGradient
       inkscape:collect="always"
       xlink:href="#linearGradient147879"
       id="linearGradient2423"
       gradientUnits="userSpaceOnUse"
       gradientTransform="matrix(0.9959806,0,0,0.9959806,-25.504363,7.292425)"
       x1="3.7684326"
       y1="174.1906"
       x2="-11.083617"
       y2="143.26482" />
    <linearGradient
       inkscape:collect="always"
       id="linearGradient151831">
      <stop
         style="stop-color:#5d5f4e;stop-opacity:1;"
         offset="0"
         id="stop151833" />
      <stop
         style="stop-color:#5d5f4e;stop-opacity:0;"
         offset="1"
         id="stop151835" />
    </linearGradient>
    <linearGradient
       inkscape:collect="always"
       xlink:href="#linearGradient151831"
       id="linearGradient2421"
       gradientUnits="userSpaceOnUse"
       x1="-33.361691"
       y1="168.09213"
       x2="-33.361691"
       y2="150.02583" />
    <filter
       inkscape:collect="always"
       x="-0.082638429"
       width="1.1652769"
       y="-0.10017605"
       height="1.2003521"
       id="filter3500">
      <feGaussianBlur
         inkscape:collect="always"
         stdDeviation="1.4191029"
         id="feGaussianBlur3502" />
    </filter>
    <filter
       inkscape:collect="always"
       id="filter13453">
      <feGaussianBlur
         inkscape:collect="always"
         stdDeviation="2.0240342"
         id="feGaussianBlur13455" />
    </filter>
    <filter
       inkscape:collect="always"
       id="filter22329">
      <feGaussianBlur
         inkscape:collect="always"
         stdDeviation="1.5904121"
         id="feGaussianBlur22331" />
    </filter>
  </defs>
  <sodipodi:namedview
     id="base"
     pagecolor="#ffffff"
     bordercolor="#666666"
     borderopacity="1.0"
     gridtolerance="10000"
     guidetolerance="10"
     objecttolerance="10"
     inkscape:pageopacity="0.0"
     inkscape:pageshadow="2"
     inkscape:zoom="0.35"
     inkscape:cx="375"
     inkscape:cy="520"
     inkscape:document-units="px"
     inkscape:current-layer="layer1"
     inkscape:window-width="697"
     inkscape:window-height="581"
     inkscape:window-x="153"
     inkscape:window-y="44" />
  <metadata
     id="metadata22369">
    <rdf:RDF>
      <cc:Work
         rdf:about="">
        <dc:format>image/svg+xml</dc:format>
        <dc:type
           rdf:resource="http://purl.org/dc/dcmitype/StillImage" />
      </cc:Work>
    </rdf:RDF>
  </metadata>
  <g
     inkscape:label="Layer 1"
     inkscape:groupmode="layer"
     id="layer1">
    <path
       style="fill:none;fill-rule:evenodd;stroke:#000000;stroke-width:1px;stroke-linecap:butt;stroke-linejoin:miter;stroke-opacity:1"
       d="M 634.28655,455.21931 L 634.28655,455.21931"
       id="path60604"
       inkscape:connector-type="polyline"
       inkscape:connection-start="#rect59625"
       inkscape:connection-end="#rect59625" />
    <rect
       style="fill:#e5e1cb;fill-opacity:1;stroke:#000000;stroke-width:1;stroke-linejoin:miter;stroke-miterlimit:4;stroke-dasharray:none;stroke-dashoffset:0;stroke-opacity:1"
       id="rect59625"
       width="508.07306"
       height="328.0751"
       x="125.71349"
       y="291.18176"
       ry="5.3015528" />
    <g
       id="g102232"
       transform="matrix(1,0,0,1.2521487,173.59471,-312.45724)">
      <rect
         ry="0"
         y="493.57486"
         x="-47.370201"
         height="8.7315321"
         width="507.05096"
         id="rect61605"
         style="opacity:1;fill:#92aa6d;fill-opacity:1;stroke:#313b25;stroke-width:0.149;stroke-linejoin:miter;stroke-miterlimit:4;stroke-dasharray:none;stroke-dashoffset:0;stroke-opacity:1" />
      <rect
         ry="4.6790514"
         y="482.48837"
         x="-47.373066"
         height="18.934189"
         width="507.0567"
         id="rect60618"
         style="opacity:1;fill:url(#linearGradient106244);fill-opacity:1;stroke:none;stroke-width:0.24294752;stroke-linejoin:miter;stroke-miterlimit:4;stroke-dasharray:none;stroke-dashoffset:0;stroke-opacity:1" />
    </g>
    <rect
       style="fill:#ffffff;fill-opacity:1;stroke:#000000;stroke-width:0.99470139;stroke-linejoin:miter;stroke-miterlimit:4;stroke-dasharray:none;stroke-dashoffset:0;stroke-opacity:1"
       id="rect60598"
       width="496.55139"
       height="250.05173"
       x="131.47432"
       y="342.19348"
       ry="0" />
    <g
       id="g106250"
       transform="translate(-9.0633186,86.766249)">
      <g
         id="g106222">
        <rect
           style="fill:url(#linearGradient106265);fill-opacity:1;stroke:#5c7248;stroke-width:0.90063488;stroke-linejoin:miter;stroke-miterlimit:4;stroke-dasharray:none;stroke-dashoffset:0;stroke-opacity:1"
           id="rect102268"
           width="15.173085"
           height="15.173085"
           x="588.5152"
           y="207.28342"
           ry="3.5936255" />
        <rect
           style="opacity:1;fill:#201d15;fill-opacity:1;stroke:none;stroke-width:1;stroke-linejoin:miter;stroke-miterlimit:4;stroke-dasharray:none;stroke-dashoffset:0;stroke-opacity:1"
           id="rect103286"
           width="7.2103405"
           height="1.567456"
           x="592.49658"
           y="215.99603"
           ry="0" />
      </g>
      <g
         id="g106226">
        <rect
           style="fill:url(#linearGradient106267);fill-opacity:1;stroke:#5c7248;stroke-width:0.90063488;stroke-linejoin:miter;stroke-miterlimit:4;stroke-dasharray:none;stroke-dashoffset:0;stroke-opacity:1"
           id="rect103263"
           width="15.173085"
           height="15.173085"
           x="606.27478"
           y="207.28342"
           ry="3.5936255" />
        <g
           id="g106199"
           transform="translate(-0.7399199,0.2223427)">
          <rect
             y="211.50777"
             x="611.21021"
             height="6.2796998"
             width="6.7820754"
             id="rect104257"
             style="opacity:1;fill:none;fill-opacity:1;stroke:#211e15;stroke-width:1.20099998;stroke-linejoin:miter;stroke-miterlimit:4;stroke-dasharray:none;stroke-dashoffset:0;stroke-opacity:1" />
          <rect
             ry="0"
             y="211.7639"
             x="610.83929"
             height="1.567456"
             width="7.2103405"
             id="rect106197"
             style="opacity:1;fill:#201d15;fill-opacity:1;stroke:none;stroke-width:1;stroke-linejoin:miter;stroke-miterlimit:4;stroke-dasharray:none;stroke-dashoffset:0;stroke-opacity:1" />
        </g>
      </g>
      <g
         id="g106232">
        <rect
           style="fill:url(#linearGradient106269);fill-opacity:1;stroke:#5c7248;stroke-width:0.90063488;stroke-linejoin:miter;stroke-miterlimit:4;stroke-dasharray:none;stroke-dashoffset:0;stroke-opacity:1"
           id="rect103267"
           width="15.173085"
           height="15.173085"
           x="624.03436"
           y="207.28342"
           ry="3.5936255" />
        <g
           id="g106209"
           transform="translate(2.1642788,49.502918)">
          <rect
             transform="matrix(0.6824284,0.7309524,-0.7053155,0.7088935,0,0)"
             ry="0"
             y="-348.495"
             x="558.59637"
             height="2.0148571"
             width="9.2792702"
             id="rect106203"
             style="opacity:1;fill:#201d15;fill-opacity:1;stroke:none;stroke-width:1;stroke-linejoin:miter;stroke-miterlimit:4;stroke-dasharray:none;stroke-dashoffset:0;stroke-opacity:1" />
          <rect
             transform="matrix(-0.6824284,0.7309524,0.7053155,0.7088935,0,0)"
             ry="0"
             y="572.33582"
             x="-334.44531"
             height="2.0148571"
             width="9.2792702"
             id="rect106207"
             style="opacity:1;fill:#201d15;fill-opacity:1;stroke:none;stroke-width:1;stroke-linejoin:miter;stroke-miterlimit:4;stroke-dasharray:none;stroke-dashoffset:0;stroke-opacity:1" />
        </g>
      </g>
    </g>
    <g
       id="g114318"
       transform="translate(158.54858,87.622066)">
      <g
         id="g114313">
        <text
           xml:space="preserve"
           style="font-size:13px;font-style:normal;font-variant:normal;font-weight:normal;font-stretch:normal;text-align:start;line-height:125%;writing-mode:lr-tb;text-anchor:start;fill-opacity:1;stroke:none;stroke-width:1px;stroke-linecap:butt;stroke-linejoin:miter;stroke-opacity:1;filter:url(#filter110946);font-family:Stone Sans Sem ITC TT"
           x="187.46823"
           y="221.20634"
           id="text106271"
           sodipodi:linespacing="125%"><tspan
             sodipodi:role="line"
             id="tspan106273"
             x="187.46823"
             y="221.20634"
             style="font-size:13px;font-style:normal;font-variant:normal;font-weight:normal;font-stretch:normal;text-align:start;line-height:125%;writing-mode:lr-tb;text-anchor:start;fill-opacity:1;font-family:Stone Sans Sem ITC TT">documents</tspan></text>
        <use
           x="0"
           y="0"
           xlink:href="#text106271"
           id="use111174"
           transform="translate(7.1484375e-6,1.3730159)"
           width="599"
           height="474"
           style="filter:url(#filter112335)" />
      </g>
      <use
         transform="translate(0,-0.5079365)"
         style="fill:#ffffff"
         height="474"
         width="599"
         id="use111176"
         xlink:href="#text106271"
         y="0"
         x="0" />
    </g>
    <g
       id="g153795"
       transform="matrix(0.3871161,0,0,0.3871161,148.72239,235.84131)">
      <path
         sodipodi:nodetypes="ccccccc"
         id="path153797"
         d="M -1.861569,164.09771 L -20.41627,163.91568 L -23.397643,161.31591 L -41.697051,161.20507 C -41.697051,161.27625 -41.697051,193.8263 -41.697051,193.8263 L -1.8605951,193.6997 L -1.861569,164.09771 z "
         style="fill:url(#linearGradient153811);fill-opacity:1;stroke:#000000;stroke-width:1.37738371;stroke-linejoin:miter;stroke-miterlimit:4;stroke-dashoffset:0;stroke-opacity:1" />
      <path
         sodipodi:nodetypes="ccccccc"
         id="path153799"
         d="M -41.511011,171.50761 L -26.93944,171.61797 L -24.400454,167.64885 L -1.8807523,167.64885 C -1.8807523,167.86963 -1.8807523,193.9169 -1.8807523,193.9169 L -41.621402,193.69612 L -41.511011,171.50761 z "
         style="fill:url(#linearGradient153813);fill-opacity:1;stroke:#000000;stroke-width:1.1961726;stroke-linejoin:miter;stroke-miterlimit:4;stroke-dashoffset:0;stroke-opacity:1" />
      <g
         transform="matrix(1,0,0,1.0333728,0,-5.649497)"
         id="g153801">
        <path
           style="opacity:0.85;fill:none;fill-rule:evenodd;stroke:#ffffff;stroke-width:0.87471336px;stroke-linecap:butt;stroke-linejoin:miter;stroke-opacity:1"
           d="M -38.462678,173.57761 L -24.911809,173.57761 L -22.338548,169.72201 L -2.8134691,169.72201"
           id="path153803" />
        <path
           style="opacity:0.88999999;fill:#ffffff;fill-rule:evenodd;stroke:#ffffff;stroke-width:0.98720807px;stroke-linecap:butt;stroke-linejoin:miter;stroke-opacity:1"
           d="M -38.083095,173.52063 L -40.13545,175.07234"
           id="path153805" />
        <path
           style="opacity:0.85;fill:none;fill-rule:evenodd;stroke:#ffffff;stroke-width:1px;stroke-linecap:butt;stroke-linejoin:miter;stroke-opacity:1"
           d="M -40.011862,174.7423 L -40.011862,192.03275"
           id="path153807" />
      </g>
      <path
         sodipodi:nodetypes="ccccc"
         id="path153809"
         d="M -3.1034131,165.37665 L -20.892618,165.26581 L -23.164762,163.21534 L -40.455206,163.21534 L -40.455206,170.53053"
         style="opacity:0.85;fill:none;fill-rule:evenodd;stroke:#ffffff;stroke-width:1px;stroke-linecap:butt;stroke-linejoin:miter;stroke-opacity:1" />
    </g>
    <g
       id="g153835"
       transform="translate(-3.0633186,85.622066)">
      <text
         id="text153815"
         y="246.3972"
         x="145.41707"
         style="font-size:12px;font-style:normal;font-weight:normal;fill:#000000;fill-opacity:1;stroke:none;stroke-width:1px;stroke-linecap:butt;stroke-linejoin:miter;stroke-opacity:1;font-family:Sans"
         xml:space="preserve"><tspan
           y="246.3972"
           x="145.41707"
           id="tspan153817"
           sodipodi:role="line">File</tspan></text>
      <text
         id="text153819"
         y="246.3972"
         x="178.79851"
         style="font-size:12px;font-style:normal;font-weight:normal;fill:#000000;fill-opacity:1;stroke:none;stroke-width:1px;stroke-linecap:butt;stroke-linejoin:miter;stroke-opacity:1;font-family:Sans"
         xml:space="preserve"><tspan
           y="246.3972"
           x="178.79851"
           id="tspan153821"
           sodipodi:role="line">Edit</tspan></text>
      <text
         id="text153823"
         y="246.3972"
         x="216.7737"
         style="font-size:12px;font-style:normal;font-weight:normal;fill:#000000;fill-opacity:1;stroke:none;stroke-width:1px;stroke-linecap:butt;stroke-linejoin:miter;stroke-opacity:1;font-family:Sans"
         xml:space="preserve"><tspan
           y="246.3972"
           x="216.7737"
           id="tspan153825"
           sodipodi:role="line">View </tspan></text>
      <text
         id="text153827"
         y="246.3972"
         x="259.13757"
         style="font-size:12px;font-style:normal;font-weight:normal;fill:#000000;fill-opacity:1;stroke:none;stroke-width:1px;stroke-linecap:butt;stroke-linejoin:miter;stroke-opacity:1;font-family:Sans"
         xml:space="preserve"><tspan
           y="246.3972"
           x="259.13757"
           id="tspan153829"
           sodipodi:role="line">Places </tspan></text>
      <text
         id="text153831"
         y="246.3972"
         x="311.228"
         style="font-size:12px;font-style:normal;font-weight:normal;fill:#000000;fill-opacity:1;stroke:none;stroke-width:1px;stroke-linecap:butt;stroke-linejoin:miter;stroke-opacity:1;font-family:Sans"
         xml:space="preserve"><tspan
           y="246.3972"
           x="311.228"
           id="tspan153833"
           sodipodi:role="line">Help</tspan></text>
    </g>
    <g
       id="g4473"
       transform="translate(-11.418609,88.774966)">
      <use
         transform="translate(2,2)"
         style="opacity:0.79874214;fill:#000000;fill-opacity:1;stroke:#000000;stroke-opacity:1;filter:url(#filter3500)"
         height="474"
         width="599"
         id="use2429"
         xlink:href="#g2405"
         y="0"
         x="0" />
      <g
         transform="translate(212.38199,110.89701)"
         id="g2405">
        <path
           style="fill:url(#linearGradient2421);fill-opacity:1;stroke:#000000;stroke-width:1.37738371;stroke-linejoin:miter;stroke-miterlimit:4;stroke-dashoffset:0;stroke-opacity:1"
           d="M -1.861569,164.09771 L -20.41627,163.91568 L -23.397643,161.31591 L -41.697051,161.20507 C -41.697051,161.27625 -41.697051,193.8263 -41.697051,193.8263 L -1.8605951,193.6997 L -1.861569,164.09771 z "
           id="path2407"
           sodipodi:nodetypes="ccccccc" />
        <path
           style="fill:url(#linearGradient2423);fill-opacity:1;stroke:#000000;stroke-width:1.1961726;stroke-linejoin:miter;stroke-miterlimit:4;stroke-dashoffset:0;stroke-opacity:1"
           d="M -41.511011,171.50761 L -26.93944,171.61797 L -24.400454,167.64885 L -1.8807523,167.64885 C -1.8807523,167.86963 -1.8807523,193.9169 -1.8807523,193.9169 L -41.621402,193.69612 L -41.511011,171.50761 z "
           id="path2409"
           sodipodi:nodetypes="ccccccc" />
        <g
           id="g2411"
           transform="matrix(1,0,0,1.0333728,0,-5.649497)">
          <path
             id="path2413"
             d="M -38.462678,173.57761 L -24.911809,173.57761 L -22.338548,169.72201 L -2.8134691,169.72201"
             style="opacity:0.85;fill:none;fill-rule:evenodd;stroke:#ffffff;stroke-width:0.87471336px;stroke-linecap:butt;stroke-linejoin:miter;stroke-opacity:1" />
          <path
             id="path2415"
             d="M -38.083095,173.52063 L -40.13545,175.07234"
             style="opacity:0.88999999;fill:#ffffff;fill-rule:evenodd;stroke:#ffffff;stroke-width:0.98720807px;stroke-linecap:butt;stroke-linejoin:miter;stroke-opacity:1" />
          <path
             id="path2417"
             d="M -40.011862,174.7423 L -40.011862,192.03275"
             style="opacity:0.85;fill:none;fill-rule:evenodd;stroke:#ffffff;stroke-width:1px;stroke-linecap:butt;stroke-linejoin:miter;stroke-opacity:1" />
        </g>
        <path
           style="opacity:0.85;fill:none;fill-rule:evenodd;stroke:#ffffff;stroke-width:1px;stroke-linecap:butt;stroke-linejoin:miter;stroke-opacity:1"
           d="M -3.1034131,165.37665 L -20.892618,165.26581 L -23.164762,163.21534 L -40.455206,163.21534 L -40.455206,170.53053"
           id="path2419"
           sodipodi:nodetypes="ccccc" />
      </g>
    </g>
    <g
       id="g12059"
       transform="translate(-178.97602,93.622066)">
      <rect
         ry="3.7618995"
         y="305.78119"
         x="332.82724"
         height="16.301588"
         width="52.666668"
         id="rect11088"
         style="opacity:1;fill:#aba897;fill-opacity:1;stroke:none;stroke-width:1;stroke-linejoin:miter;stroke-miterlimit:4;stroke-dasharray:none;stroke-dashoffset:0;stroke-opacity:1" />
      <text
         id="text2425"
         y="316.89682"
         x="339.27094"
         style="font-size:12px;font-style:normal;font-weight:normal;fill:#ffffff;fill-opacity:1;stroke:none;stroke-width:1px;stroke-linecap:butt;stroke-linejoin:miter;stroke-opacity:1;font-family:Sans"
         xml:space="preserve"><tspan
           y="316.89682"
           x="339.27094"
           id="tspan2427"
           sodipodi:role="line">poetry</tspan></text>
    </g>
    <g
       id="g13457"
       transform="translate(-9.0633186,87.622066)">
      <use
         height="474"
         width="599"
         transform="translate(2,2)"
         style="opacity:0.6352201;stroke:#000000;stroke-opacity:0.98734179;filter:url(#filter13453)"
         id="use13279"
         xlink:href="#rect6143"
         y="0"
         x="0" />
      <rect
         y="295.2254"
         x="199.2968"
         height="116.78736"
         width="96.096863"
         id="rect6143"
         style="opacity:1;fill:#cccccc;fill-opacity:1;stroke:#000000;stroke-width:0.83170289;stroke-linejoin:miter;stroke-miterlimit:4;stroke-dasharray:none;stroke-dashoffset:0;stroke-opacity:1" />
      <path
         id="path9138"
         d="M 204.11779,332.30159 L 290.57268,332.30159"
         style="fill-rule:evenodd;stroke:#272727;stroke-width:1.03388369px;stroke-linecap:butt;stroke-linejoin:miter;stroke-opacity:1" />
      <path
         id="path10111"
         d="M 204.11779,369.92063 L 290.57268,369.92063"
         style="fill-rule:evenodd;stroke:#272727;stroke-width:1.03388369px;stroke-linecap:butt;stroke-linejoin:miter;stroke-opacity:1" />
    </g>
    <text
       xml:space="preserve"
       style="font-size:10px;font-style:normal;font-weight:normal;fill:#000000;fill-opacity:1;stroke:none;stroke-width:1px;stroke-linecap:butt;stroke-linejoin:miter;stroke-opacity:1;font-family:Sans"
       x="196.58748"
       y="394.8443"
       id="text9112"><tspan
         sodipodi:role="line"
         id="tspan9114"
         x="196.58748"
         y="394.8443">Cut/Copy</tspan></text>
    <text
       xml:space="preserve"
       style="font-size:10px;font-style:normal;font-weight:normal;fill:#000000;fill-opacity:1;stroke:none;stroke-width:1px;stroke-linecap:butt;stroke-linejoin:miter;stroke-opacity:1;font-family:Sans"
       x="196.16756"
       y="412.20853"
       id="text9116"><tspan
         sodipodi:role="line"
         id="tspan9118"
         x="196.16756"
         y="412.20853">Rename</tspan><tspan
         sodipodi:role="line"
         x="196.16756"
         y="424.70853"
         id="tspan9120" /></text>
    <text
       xml:space="preserve"
       style="font-size:10px;font-style:normal;font-weight:normal;fill:#000000;fill-opacity:1;stroke:none;stroke-width:1px;stroke-linecap:butt;stroke-linejoin:miter;stroke-opacity:1;font-family:Sans"
       x="196.48982"
       y="433.94189"
       id="text9122"><tspan
         sodipodi:role="line"
         id="tspan9124"
         x="196.48982"
         y="433.94189">Send to Trash</tspan></text>
    <text
       xml:space="preserve"
       style="font-size:10px;font-style:normal;font-weight:normal;fill:#000000;fill-opacity:1;stroke:none;stroke-width:1px;stroke-linecap:butt;stroke-linejoin:miter;stroke-opacity:1;font-family:Sans"
       x="197.07088"
       y="451.67523"
       id="text9126"><tspan
         sodipodi:role="line"
         id="tspan9128"
         x="197.07088"
         y="451.67523">Archive &quot;Poetry&quot;</tspan></text>
    <text
       xml:space="preserve"
       style="font-size:10px;font-style:normal;font-weight:normal;fill:#000000;fill-opacity:1;stroke:none;stroke-width:1px;stroke-linecap:butt;stroke-linejoin:miter;stroke-opacity:1;font-family:Sans"
       x="196.16756"
       y="473.34705"
       id="text9130"><tspan
         sodipodi:role="line"
         id="tspan9132"
         x="196.16756"
         y="473.34705">Properties</tspan></text>
    <rect
       style="opacity:0.6352201;fill:#000000;fill-opacity:1;stroke:#000000;stroke-width:1;stroke-linejoin:miter;stroke-miterlimit:4;stroke-dasharray:none;stroke-dashoffset:0;stroke-opacity:0.98734179"
       id="rect13799"
       width="95.10585"
       height="20.859663"
       x="191.0479"
       y="477.82993" />
    <text
       xml:space="preserve"
       style="font-size:10px;font-style:normal;font-weight:normal;fill:#f9f9f9;fill-opacity:1;stroke:none;stroke-width:1px;stroke-linecap:butt;stroke-linejoin:miter;stroke-opacity:1;font-family:Sans"
       x="196.48982"
       y="491.01889"
       id="text9134"><tspan
         sodipodi:role="line"
         id="tspan9136"
         x="196.48982"
         y="491.01889">Set License Info</tspan></text>
    <g
       id="g22339"
       transform="translate(-9.0633186,87.622066)">
      <use
         height="474"
         width="599"
         transform="translate(2,2)"
         style="opacity:0.70999995;filter:url(#filter22329)"
         id="use21214"
         xlink:href="#rect12066"
         y="0"
         x="0" />
      <rect
         y="394.2612"
         x="296.13818"
         height="83.124931"
         width="117.6229"
         id="rect12066"
         style="opacity:1;fill:#cccccc;fill-opacity:1;stroke:#000000;stroke-width:0.77629584;stroke-linejoin:miter;stroke-miterlimit:4;stroke-dasharray:none;stroke-dashoffset:0;stroke-opacity:1" />
    </g>
    <rect
       style="opacity:1;fill:#4a4a4a;fill-opacity:1;stroke-width:0.69999999;stroke-linejoin:miter;stroke-miterlimit:4;stroke-dasharray:none;stroke-dashoffset:0;stroke-opacity:1"
       id="rect20048"
       width="116.8494"
       height="16.440233"
       x="287.3912"
       y="548.18707"
       ry="0" />
    <path
       sodipodi:type="star"
       style="opacity:1;fill:#f9f9f9;fill-opacity:1;stroke:#ffffff;stroke-width:1;stroke-linejoin:miter;stroke-miterlimit:4;stroke-dasharray:none;stroke-dashoffset:0;stroke-opacity:0.98734179"
       id="path13801"
       sodipodi:sides="3"
       sodipodi:cx="372.99884"
       sodipodi:cy="442.8873"
       sodipodi:r1="3.8890872"
       sodipodi:r2="1.9445436"
       sodipodi:arg1="0"
       sodipodi:arg2="1.0471976"
       inkscape:flatsided="true"
       inkscape:rounded="0"
       inkscape:randomized="0"
       d="M 376.88793,442.8873 L 371.0543,446.25535 L 371.0543,439.51925 L 376.88793,442.8873 z "
       transform="matrix(0.7714911,0,0,0.7714911,-7.8269686,145.60725)" />
    <g
       style="display:inline"
       id="g13537"
       transform="matrix(0.15625,0,0,0.1562425,379.90111,488.31375)">
      <path
         id="path1334"
         d="M 31.1875,0 C 13.904525,0.43835438 3.7379722e-13,14.612004 0,32 C 2.3684758e-15,49.663996 14.336004,64 32,64 C 49.663996,64 64,49.663996 64,32 C 64,14.336004 49.663996,1.3812956e-13 32,0 C 31.724,3.7007434e-17 31.461833,-0.0069580061 31.1875,0 z M 31.15625,5.5 C 31.439783,5.4910103 31.714297,5.5 32,5.5 C 46.628003,5.4999998 58.5,17.371998 58.5,32 C 58.499998,46.628001 46.628002,58.5 32,58.5 C 17.371999,58.499999 5.5,46.628002 5.5,32 C 5.4999999,17.657701 16.922915,5.9512829 31.15625,5.5 z "
         style="opacity:1;fill:#000000;fill-opacity:1;fill-rule:nonzero;stroke:none;stroke-width:259.50698853;stroke-linecap:butt;stroke-linejoin:round;stroke-miterlimit:4;stroke-dasharray:none;stroke-dashoffset:0;stroke-opacity:1" />
      <g
         id="g6525">
        <path
           sodipodi:type="arc"
           style="opacity:1;fill:#000000;fill-opacity:1;fill-rule:evenodd;stroke:none;stroke-width:0.03;stroke-linecap:butt;stroke-linejoin:miter;stroke-miterlimit:4;stroke-dasharray:none;stroke-dashoffset:0;stroke-opacity:1"
           id="path2838"
           sodipodi:cx="32.0625"
           sodipodi:cy="15.75"
           sodipodi:rx="4.625"
           sodipodi:ry="4.625"
           d="M 36.6875 15.75 A 4.625 4.625 0 1 1  27.4375,15.75 A 4.625 4.625 0 1 1  36.6875 15.75 z"
           transform="translate(-6.25e-2,0.185547)" />
        <path
           id="path3572"
           style="opacity:1;fill:#000000;fill-opacity:1;fill-rule:evenodd;stroke:none;stroke-width:1px;stroke-linecap:butt;stroke-linejoin:miter;stroke-opacity:1"
           d="M 27.215125,52.689453 L 36.784875,52.689453 L 36.784875,37.310548 L 39.677883,37.310548 C 39.677883,37.310548 39.676818,26.320181 39.677883,24.590437 C 39.675042,24.134131 39.719076,23.22538 39.057144,22.563448 C 38.395212,21.901516 37.501745,21.941644 37.030154,21.942709 C 36.558564,21.943774 27.441437,21.943774 26.969846,21.942709 C 26.498255,21.941644 25.604789,21.901516 24.942857,22.563448 C 24.280924,23.22538 24.324959,24.134131 24.322118,24.590437 C 24.323183,26.320181 24.322118,37.310548 24.322118,37.310548 L 27.215125,37.310548 L 27.215125,52.689453 z "
           sodipodi:nodetypes="ccccssccssccc" />
      </g>
    </g>
    <text
       xml:space="preserve"
       style="font-size:6px;font-style:normal;font-weight:normal;fill:#000000;fill-opacity:1;stroke:none;stroke-width:1px;stroke-linecap:butt;stroke-linejoin:miter;stroke-opacity:1;font-family:Sans"
       x="303.23218"
       y="491.80008"
       id="text13720"><tspan
         sodipodi:role="line"
         id="tspan13722"
         x="303.23218"
         y="491.80008">Creative Commons</tspan><tspan
         sodipodi:role="line"
         x="303.23218"
         y="499.30008"
         id="tspan13744">Attribution</tspan></text>
    <path
       sodipodi:type="arc"
       style="fill:#ffffff;fill-opacity:1;stroke:#000000;stroke-width:0.69999999;stroke-linejoin:miter;stroke-miterlimit:4;stroke-dasharray:none;stroke-dashoffset:0;stroke-opacity:1"
       id="path17902"
       sodipodi:cx="302"
       sodipodi:cy="405"
       sodipodi:rx="3"
       sodipodi:ry="3"
       d="M 305 405 A 3 3 0 1 1  299,405 A 3 3 0 1 1  305 405 z"
       transform="translate(-8.7678186,88.31326)" />
    <g
       id="g13656"
       transform="matrix(5.1020408e-2,0,0,5.1020408e-2,379.90111,521.88632)">
      <path
         id="circle4"
         d="M 98,0 C 43.904,1.0880186e-14 9.2375326e-17,43.904 0,98 C 0,152.096 43.904,196 98,196 C 152.096,196 196,152.096 196,98 C 196,43.904 152.096,-2.1667996e-14 98,0 z M 98,20 C 141.056,20 176,54.944 176,98 C 176,141.056 141.056,176 98,176 C 54.944,176 20,141.056 20,98 C 20,54.944 54.944,20 98,20 z " />
      <path
         id="circle8"
         d="M 98,43 C 67.64,43 43,67.64 43,98 C 43,128.36 67.64,153 98,153 C 124.24246,153 146.21121,134.60053 151.6875,110 L 125.5,110 C 120.8687,120.59446 110.29565,128 98,128 C 81.44,128 68,114.56 68,98 C 68,81.44 81.44,68 98,68 C 109.9025,68 120.18424,74.945642 125.03125,85 L 151.4375,85 C 145.59313,60.905598 123.88327,43 98,43 z " />
    </g>
    <text
       xml:space="preserve"
       style="font-size:6px;font-style:normal;font-weight:normal;fill:#000000;fill-opacity:1;stroke:none;stroke-width:1px;stroke-linecap:butt;stroke-linejoin:miter;stroke-opacity:1;font-family:Sans"
       x="303.23218"
       y="528.54156"
       id="text13728"><tspan
         sodipodi:role="line"
         id="tspan13730"
         x="303.23218"
         y="528.54156">Full Copyright</tspan></text>
    <path
       sodipodi:type="arc"
       style="fill:#ffffff;fill-opacity:1;stroke:#000000;stroke-width:0.69999999;stroke-linejoin:miter;stroke-miterlimit:4;stroke-dasharray:none;stroke-dashoffset:0;stroke-opacity:1"
       id="path18875"
       sodipodi:cx="302"
       sodipodi:cy="405"
       sodipodi:rx="3"
       sodipodi:ry="3"
       d="M 305 405 A 3 3 0 1 1  299,405 A 3 3 0 1 1  305 405 z"
       transform="translate(-8.7678186,121.88631)" />
    <g
       transform="matrix(0.1562488,0,0,0.15625,379.90111,522.66607)"
       id="g16809"
       style="fill:#000000"
       inkscape:transform-center-y="-17.162036"
       inkscape:transform-center-x="19.762196">
      <path
         clip-rule="evenodd"
         d="M 31.95898,92.1543 C 23.09521,92.1543 15.59179,95.24707 9.45166,101.4336 C 3.14941,107.83398 0,115.40723 0,124.1543 C 0,132.90039 3.14941,140.4209 9.45166,146.71387 C 15.75195,153.00782 23.25537,156.1543 31.95898,156.1543 C 40.77002,156.1543 48.40673,152.98145 54.86865,146.63477 C 60.95556,140.6084 64.00049,133.11426 64.00049,124.1543 C 64.00049,115.19336 60.90283,107.62012 54.7085,101.4336 C 48.51318,95.24707 40.93018,92.1543 31.95898,92.1543 z M 32.03955,97.91309 C 39.30225,97.91309 45.46924,100.47266 50.54346,105.59375 C 55.66944,110.66016 58.23194,116.84668 58.23194,124.1543 C 58.23194,131.51368 55.72315,137.6211 50.70264,142.47461 C 45.41553,147.70117 39.19483,150.31445 32.03955,150.31445 C 24.8833,150.31445 18.71582,147.72754 13.53613,142.55371 C 8.35644,137.38086 5.7666,131.24707 5.7666,124.1543 C 5.7666,117.06055 8.3833,110.87403 13.6167,105.59375 C 18.63672,100.47266 24.77686,97.91309 32.03955,97.91309 z "
         id="path16811"
         style="fill:#000000;fill-rule:evenodd" />
      <g
         id="g16813"
         style="fill:#000000">
        <path
           clip-rule="evenodd"
           d="M 21.39941,118.41602 L 25.00146,118.41602 C 27.01367,118.41602 27.85791,119.38477 27.85791,121.14844 C 27.85791,122.51465 27.1377,123.83106 25.12549,123.83106 L 21.39942,123.83106 L 21.39942,118.41602 L 21.39941,118.41602 z M 16.97754,132.82422 L 21.44922,132.82422 L 21.44922,127.11035 L 24.90186,127.11035 C 30.96338,127.11035 32.27979,123.4834 32.27979,121.12402 C 32.27979,117.62109 30.51612,115.13672 25.74659,115.13672 L 16.97755,115.13672 L 16.97755,132.82422 L 16.97754,132.82422 z "
           id="path16815"
           style="fill:#000000;fill-rule:evenodd" />
        <path
           clip-rule="evenodd"
           d="M 33.48389,132.82422 L 40.34034,132.82422 C 45.73096,132.82422 49.35694,130.26563 49.35694,123.98047 C 49.35694,117.69531 45.73096,115.13672 40.34034,115.13672 L 33.48389,115.13672 L 33.48389,132.82422 z M 37.90479,118.86328 L 40.41456,118.86328 C 43.74366,118.86328 44.93604,121.12402 44.93604,123.98047 C 44.93604,126.83692 43.74366,129.09766 40.43995,129.09766 L 37.90479,129.09766 L 37.90479,118.86328 z "
           id="path16817"
           style="fill:#000000;fill-rule:evenodd" />
      </g>
    </g>
    <text
       xml:space="preserve"
       style="font-size:6px;font-style:normal;font-weight:normal;fill:#000000;fill-opacity:1;stroke:none;stroke-width:1px;stroke-linecap:butt;stroke-linejoin:miter;stroke-opacity:1;font-family:Sans"
       x="303.23218"
       y="544.302"
       id="text13732"><tspan
         sodipodi:role="line"
         id="tspan13734"
         x="303.23218"
         y="544.302">Public Domain</tspan></text>
    <path
       sodipodi:type="arc"
       style="fill:#ffffff;fill-opacity:1;stroke:#000000;stroke-width:0.69999999;stroke-linejoin:miter;stroke-miterlimit:4;stroke-dasharray:none;stroke-dashoffset:0;stroke-opacity:1"
       id="path18877"
       sodipodi:cx="302"
       sodipodi:cy="405"
       sodipodi:rx="3"
       sodipodi:ry="3"
       d="M 305 405 A 3 3 0 1 1  299,405 A 3 3 0 1 1  305 405 z"
       transform="translate(-8.7678186,137.06517)" />
    <g
       id="g18795"
       transform="matrix(0.8439126,0,0,0.8324725,1107.5612,335.93251)"
       inkscape:transform-center-x="3.7481518"
       inkscape:transform-center-y="3.6972631"
       style="fill:#ffffff;stroke:#fbfbfb;stroke-opacity:1">
      <rect
         y="260.84909"
         x="-855.73175"
         height="6.8826332"
         width="0.58084351"
         id="rect17822"
         style="opacity:1;fill:#ffffff;fill-opacity:1;stroke:#fbfbfb;stroke-width:2;stroke-linejoin:miter;stroke-miterlimit:4;stroke-dasharray:none;stroke-dashoffset:0;stroke-opacity:1" />
      <rect
         transform="matrix(0,1,-1,0,0,0)"
         y="852"
         x="264"
         height="6.8826332"
         width="0.58084351"
         id="rect17824"
         style="opacity:1;fill:#ffffff;fill-opacity:1;stroke:#fbfbfb;stroke-width:2;stroke-linejoin:miter;stroke-miterlimit:4;stroke-dasharray:none;stroke-dashoffset:0;stroke-opacity:1" />
    </g>
    <text
       xml:space="preserve"
       style="font-size:6px;font-style:normal;font-weight:normal;fill:#ffffff;fill-opacity:1;stroke:none;stroke-width:1px;stroke-linecap:butt;stroke-linejoin:miter;stroke-opacity:1;font-family:Sans"
       x="303.23218"
       y="557.60229"
       id="text13736"><tspan
         sodipodi:role="line"
         id="tspan13738"
         x="303.23218"
         y="557.60229">More Options</tspan></text>
    <g
       style="fill:#000000"
       id="g13710"
       transform="translate(78.541231,90.201596)">
      <g
         transform="matrix(0.15625,0,0,0.1562425,301.35988,415.43456)"
         id="g13558"
         style="fill:#000000;display:inline">
        <path
           style="opacity:1;fill:#000000;fill-opacity:1;fill-rule:nonzero;stroke:none;stroke-width:259.50698853;stroke-linecap:butt;stroke-linejoin:round;stroke-miterlimit:4;stroke-dasharray:none;stroke-dashoffset:0;stroke-opacity:1"
           d="M 31.1875,0 C 13.904525,0.43835438 3.7379722e-13,14.612004 0,32 C 2.3684758e-15,49.663996 14.336004,64 32,64 C 49.663996,64 64,49.663996 64,32 C 64,14.336004 49.663996,1.3812956e-13 32,0 C 31.724,3.7007434e-17 31.461833,-0.0069580061 31.1875,0 z M 31.15625,5.5 C 31.439783,5.4910103 31.714297,5.5 32,5.5 C 46.628003,5.4999998 58.5,17.371998 58.5,32 C 58.499998,46.628001 46.628002,58.5 32,58.5 C 17.371999,58.499999 5.5,46.628002 5.5,32 C 5.4999999,17.657701 16.922915,5.9512829 31.15625,5.5 z "
           id="path13560" />
        <g
           style="fill:#000000"
           id="g13562">
          <path
             transform="translate(-6.25e-2,0.185547)"
             d="M 36.6875 15.75 A 4.625 4.625 0 1 1  27.4375,15.75 A 4.625 4.625 0 1 1  36.6875 15.75 z"
             sodipodi:ry="4.625"
             sodipodi:rx="4.625"
             sodipodi:cy="15.75"
             sodipodi:cx="32.0625"
             id="path13564"
             style="opacity:1;fill:#000000;fill-opacity:1;fill-rule:evenodd;stroke:none;stroke-width:0.03;stroke-linecap:butt;stroke-linejoin:miter;stroke-miterlimit:4;stroke-dasharray:none;stroke-dashoffset:0;stroke-opacity:1"
             sodipodi:type="arc" />
          <path
             sodipodi:nodetypes="ccccssccssccc"
             d="M 27.215125,52.689453 L 36.784875,52.689453 L 36.784875,37.310548 L 39.677883,37.310548 C 39.677883,37.310548 39.676818,26.320181 39.677883,24.590437 C 39.675042,24.134131 39.719076,23.22538 39.057144,22.563448 C 38.395212,21.901516 37.501745,21.941644 37.030154,21.942709 C 36.558564,21.943774 27.441437,21.943774 26.969846,21.942709 C 26.498255,21.941644 25.604789,21.901516 24.942857,22.563448 C 24.280924,23.22538 24.324959,24.134131 24.322118,24.590437 C 24.323183,26.320181 24.322118,37.310548 24.322118,37.310548 L 27.215125,37.310548 L 27.215125,52.689453 z "
             style="opacity:1;fill:#000000;fill-opacity:1;fill-rule:evenodd;stroke:none;stroke-width:1px;stroke-linecap:butt;stroke-linejoin:miter;stroke-opacity:1"
             id="path13566" />
        </g>
      </g>
      <g
         style="fill:#000000"
         transform="matrix(0.15625,0,0,0.1562425,313.34921,415.43456)"
         id="g13609">
        <path
           style="opacity:1;fill:#000000;fill-opacity:1;fill-rule:nonzero;stroke:none;stroke-width:259.50698853;stroke-linecap:butt;stroke-linejoin:round;stroke-miterlimit:4;stroke-dasharray:none;stroke-dashoffset:0;stroke-opacity:1"
           d="M 31.1875,0 C 13.904525,0.43835438 3.7379722e-13,14.612004 0,32 C 2.3684758e-15,49.663996 14.336004,64 32,64 C 49.663996,64 64,49.663996 64,32 C 64,14.336004 49.663996,1.3812956e-13 32,0 C 31.724,3.7007434e-17 31.461833,-0.0069580061 31.1875,0 z M 31.15625,5.5 C 31.439783,5.4910103 31.714297,5.5 32,5.5 C 46.628003,5.4999998 58.5,17.371998 58.5,32 C 58.499998,46.628001 46.628002,58.5 32,58.5 C 17.371999,58.499999 5.5,46.628002 5.5,32 C 5.4999999,17.657701 16.922915,5.9512829 31.15625,5.5 z "
           id="path13614" />
        <path
           style="opacity:1;fill:#000000;fill-opacity:1;fill-rule:nonzero;stroke:none;stroke-width:259.50698853;stroke-linecap:butt;stroke-linejoin:round;stroke-miterlimit:4;stroke-dasharray:none;stroke-dashoffset:0;stroke-opacity:1"
           d="M 18.115779,26.784547 L 15.375001,26.784547 L 21.593751,33.753297 L 27.812501,26.784547 L 25.568649,26.784547 C 26.054748,23.384747 29.04552,21.198122 32.500001,21.472047 C 32.636557,21.482875 32.767855,21.472047 32.906251,21.472047 C 38.533681,21.472047 40.753071,25.727912 40.937501,32.003297 C 41.129971,38.552496 37.334011,42.623673 32.906251,42.534547 C 28.232865,42.442333 26.462202,40.207037 25.781251,36.815797 L 17.437501,36.815797 C 18.810678,44.627028 24.561356,49.207833 32.718751,49.222047 C 41.953331,49.238298 48.624999,41.5127 48.624999,32.003297 C 48.624999,21.848404 41.955631,14.784547 32.718751,14.784547 C 32.444507,14.784547 32.177099,14.769654 31.906251,14.784547 C 31.840655,14.788154 31.784281,14.783475 31.718751,14.784547 C 25.946542,14.880519 18.115822,18.924289 18.115779,26.784547 z "
           id="path2371"
           sodipodi:nodetypes="cccccssssccsssssc" />
      </g>
    </g>
    <text
       xml:space="preserve"
       style="font-size:6px;font-style:italic;font-weight:normal;fill:#000000;fill-opacity:1;stroke:none;stroke-width:1px;stroke-linecap:butt;stroke-linejoin:miter;stroke-opacity:1;font-family:Sans"
       x="303.23218"
       y="509.1225"
       id="text13724"><tspan
         sodipodi:role="line"
         id="tspan13726"
         x="303.23218"
         y="509.1225">Creative Commons</tspan><tspan
         sodipodi:role="line"
         x="303.23218"
         y="516.6225"
         id="tspan13746">Attribution-ShareAlike</tspan></text>
    <g
       id="g21209"
       transform="translate(-8.2678186,87.622066)">
      <path
         transform="translate(-0.4999998,16.773743)"
         d="M 305 405 A 3 3 0 1 1  299,405 A 3 3 0 1 1  305 405 z"
         sodipodi:ry="3"
         sodipodi:rx="3"
         sodipodi:cy="405"
         sodipodi:cx="302"
         id="path18873"
         style="opacity:1;fill:#ffffff;fill-opacity:1;stroke:#000000;stroke-width:0.69999999;stroke-linejoin:miter;stroke-miterlimit:4;stroke-dasharray:none;stroke-dashoffset:0;stroke-opacity:1"
         sodipodi:type="arc" />
      <path
         transform="matrix(0.6065067,0,0,0.6065067,173.67871,149.30061)"
         d="M 213.5 449.25 A 2.75 2.75 0 1 1  208,449.25 A 2.75 2.75 0 1 1  213.5 449.25 z"
         sodipodi:ry="2.75"
         sodipodi:rx="2.75"
         sodipodi:cy="449.25"
         sodipodi:cx="210.75"
         id="path19077"
         style="fill:#000000;fill-opacity:1;stroke-width:0.69999999;stroke-linejoin:miter;stroke-miterlimit:4;stroke-dasharray:none;stroke-dashoffset:0;stroke-opacity:1"
         sodipodi:type="arc" />
    </g>
    <text
       xml:space="preserve"
       style="font-size:12px;font-style:normal;font-weight:normal;fill:#000000;fill-opacity:1;stroke:none;stroke-width:1px;stroke-linecap:butt;stroke-linejoin:miter;stroke-opacity:1;font-family:Sans"
       x="140.01491"
       y="608.04846"
       id="text22343"><tspan
         sodipodi:role="line"
         id="tspan22345"
         x="140.01491"
         y="608.04846">documents</tspan></text>
    <text
       xml:space="preserve"
       style="font-size:12px;font-style:normal;font-weight:normal;fill:#000000;fill-opacity:1;stroke:none;stroke-width:1px;stroke-linecap:butt;stroke-linejoin:miter;stroke-opacity:1;font-family:Sans"
       x="236.60783"
       y="606.88538"
       id="text22347"><tspan
         sodipodi:role="line"
         id="tspan22349"
         x="236.60783"
         y="606.88538">1 item, Free space: 32.2 GB</tspan></text>
    <text
       xml:space="preserve"
       style="font-size:14px;font-style:normal;font-weight:bold;fill:#000000;fill-opacity:1;stroke:none;stroke-width:1px;stroke-linecap:butt;stroke-linejoin:miter;stroke-opacity:1;font-family:Sans"
       x="208.39284"
       y="-595.27258"
       id="text22360"
       transform="scale(1,-1)"><tspan
         sodipodi:role="line"
         id="tspan22362"
         x="208.39284"
         y="-595.27258">^</tspan></text>
  </g>
</svg>
