<?xml version="1.0" encoding="UTF-8" standalone="no"?>
<!-- Created with Inkscape (http://www.inkscape.org/) -->
<svg
   xmlns:dc="http://purl.org/dc/elements/1.1/"
   xmlns:cc="http://web.resource.org/cc/"
   xmlns:rdf="http://www.w3.org/1999/02/22-rdf-syntax-ns#"
   xmlns:svg="http://www.w3.org/2000/svg"
   xmlns="http://www.w3.org/2000/svg"
   xmlns:sodipodi="http://sodipodi.sourceforge.net/DTD/sodipodi-0.dtd"
   xmlns:inkscape="http://www.inkscape.org/namespaces/inkscape"
   width="720px"
   height="486px"
   id="svg2160"
   sodipodi:version="0.32"
   inkscape:version="0.45.1"
   sodipodi:docbase="/Users/rebecca/Documents/creative_commons/videobumpers/simple/color"
   sodipodi:docname="by_color.svg"
   inkscape:output_extension="org.inkscape.output.svg.inkscape">
  <defs
     id="defs2162">
    <linearGradient
       id="linearGradient8212">
      <stop
         style="stop-color:#3d5024;stop-opacity:1;"
         offset="0"
         id="stop8214" />
      <stop
         id="stop8220"
         offset="0.5"
         style="stop-color:#627d0f;stop-opacity:1;" />
      <stop
         style="stop-color:#98c807;stop-opacity:1;"
         offset="1"
         id="stop8216" />
    </linearGradient>
    <linearGradient
       id="linearGradient6151">
      <stop
         style="stop-color:#5e5322;stop-opacity:1;"
         offset="0"
         id="stop6153" />
      <stop
         id="stop6159"
         offset="0.5"
         style="stop-color:#5e5322;stop-opacity:0.49803922;" />
      <stop
         style="stop-color:#5e5322;stop-opacity:0;"
         offset="1"
         id="stop6155" />
    </linearGradient>
  </defs>
  <sodipodi:namedview
     id="base"
     pagecolor="#ffffff"
     bordercolor="#666666"
     borderopacity="1.0"
     inkscape:pageopacity="0.0"
     inkscape:pageshadow="2"
     inkscape:zoom="0.75"
     inkscape:cx="438.1169"
     inkscape:cy="230.65143"
     inkscape:document-units="px"
     inkscape:current-layer="layer1"
     inkscape:window-width="931"
     inkscape:window-height="622"
     inkscape:window-x="189"
     inkscape:window-y="50" />
  <metadata
     id="metadata2165">
    <rdf:RDF>
      <cc:Work
         rdf:about="">
        <dc:format>image/svg+xml</dc:format>
        <dc:type
           rdf:resource="http://purl.org/dc/dcmitype/StillImage" />
      </cc:Work>
    </rdf:RDF>
  </metadata>
  <g
     id="layer1"
     inkscape:label="Layer 1"
     inkscape:groupmode="layer">
    <rect
       style="opacity:1;fill:#98c807;fill-opacity:1.0;stroke-width:0.69999999;stroke-miterlimit:4;stroke-dasharray:none;stroke-opacity:1"
       id="rect2168"
       width="720"
       height="486"
       x="1.3333333"
       y="2"
       ry="0" />
    <g
       id="g2740"
       transform="translate(0,-3.6388796)">
      <text
         id="text2220"
         y="321.69476"
         x="68.369469"
         style="font-size:20px"
         xml:space="preserve"><tspan
           style="font-size:20px"
           id="tspan2226"
           y="321.69476"
           x="68.369469"
           sodipodi:role="line">Except <tspan
   id="tspan7494"
   style="font-size:20px">where</tspan> otherwise noted, this work is licensed under </tspan></text>
      <g
         transform="translate(3.2538605e-6,0)"
         id="g2735">
        <path
           style="fill:#000000;fill-opacity:1"
           id="path37"
           d="M 378.82383,179.95751 C 378.82383,177.63864 376.94138,175.76012 374.6265,175.76012 L 348.03916,175.76012 C 345.72132,175.76012 343.84183,177.63862 343.84183,179.95751 L 343.84183,206.54625 L 351.25757,206.54625 L 351.25757,238.03063 L 371.4071,238.03063 L 371.4071,206.54625 L 378.82383,206.54625 L 378.82383,179.95751 L 378.82383,179.95751 z " />
        <circle
           style="fill:#121513"
           sodipodi:ry="4.47754"
           sodipodi:rx="4.47754"
           sodipodi:cy="200.11914"
           sodipodi:cx="32"
           id="circle39"
           r="4.47754"
           cy="200.11914"
           cx="32"
           transform="matrix(2.0312189,0,0,2.03125,296.33333,-243.32602)" />
        <path
           style="fill:#121513;fill-opacity:1;fill-rule:evenodd"
           id="path41"
           d="M 361.251,131.0508 C 343.24476,131.0508 328.00369,137.33299 315.53172,149.89938 C 302.73047,162.90017 296.33333,178.28332 296.33333,196.0508 C 296.33333,213.8163 302.73047,229.09433 315.53172,241.87692 C 328.32899,254.65952 343.57008,261.0508 361.251,261.0508 C 379.14716,261.0508 394.65901,254.60792 407.78456,241.71426 C 420.14841,229.47518 426.33333,214.25271 426.33333,196.0508 C 426.33333,177.84889 420.0413,162.46575 407.45926,149.89938 C 394.87521,137.33301 379.47246,131.0508 361.251,131.0508 z M 361.41366,142.74835 C 376.1658,142.74835 388.6923,147.94747 398.99916,158.34969 C 409.41114,168.64083 414.61614,181.2072 414.61614,196.0508 C 414.61614,210.99954 409.52024,223.40524 399.32249,233.26393 C 388.58321,243.88038 375.9476,249.18861 361.41366,249.18861 C 346.87676,249.18861 334.34926,243.93592 323.82817,233.42658 C 313.30709,222.91723 308.04656,210.45998 308.04656,196.0508 C 308.04656,181.64162 313.36165,169.07526 323.99183,158.34969 C 334.18859,147.94747 346.66056,142.74835 361.41366,142.74835 z "
           clip-rule="evenodd" />
      </g>
      <text
         sodipodi:linespacing="125%"
         id="text2234"
         y="361.69473"
         x="103.43221"
         style="font-size:21px;font-style:normal;font-weight:normal;line-height:125%;fill:#121513;fill-opacity:1;stroke:none;stroke-width:1px;stroke-linecap:butt;stroke-linejoin:miter;stroke-opacity:1;font-family:Commons"
         xml:space="preserve"><tspan
           style="font-size:21px;font-style:normal;font-variant:normal;font-weight:bold;font-stretch:normal;text-align:start;line-height:125%;writing-mode:lr-tb;text-anchor:start;fill:#121513;font-family:Bitstream Vera Sans"
           y="361.69473"
           x="103.43221"
           id="tspan2236"
           sodipodi:role="line">http://creativecommons.org/licenses/by/3.0</tspan><tspan
           id="tspan8346"
           y="387.94473"
           x="103.43221"
           sodipodi:role="line" /></text>
    </g>
  </g>
</svg>
