<?xml version="1.0" encoding="UTF-8" standalone="no"?>
<!-- Created with Inkscape (http://www.inkscape.org/) -->
<svg
   xmlns:dc="http://purl.org/dc/elements/1.1/"
   xmlns:cc="http://web.resource.org/cc/"
   xmlns:rdf="http://www.w3.org/1999/02/22-rdf-syntax-ns#"
   xmlns:svg="http://www.w3.org/2000/svg"
   xmlns="http://www.w3.org/2000/svg"
   xmlns:sodipodi="http://sodipodi.sourceforge.net/DTD/sodipodi-0.dtd"
   xmlns:inkscape="http://www.inkscape.org/namespaces/inkscape"
   width="720px"
   height="486px"
   id="svg2160"
   sodipodi:version="0.32"
   inkscape:version="0.45.1"
   sodipodi:docbase="/Users/rebecca/Documents/creative_commons/videobumpers/simple/color"
   sodipodi:docname="by_color.svg"
   inkscape:output_extension="org.inkscape.output.svg.inkscape"
   inkscape:export-filename="/Users/rebecca/Documents/creative_commons/videobumpers/simple/color/png/by_color.png"
   inkscape:export-xdpi="90"
   inkscape:export-ydpi="90">
  <defs
     id="defs2162">
    <linearGradient
       id="linearGradient8212">
      <stop
         style="stop-color:#3d5024;stop-opacity:1;"
         offset="0"
         id="stop8214" />
      <stop
         id="stop8220"
         offset="0.5"
         style="stop-color:#627d0f;stop-opacity:1;" />
      <stop
         style="stop-color:#98c807;stop-opacity:1;"
         offset="1"
         id="stop8216" />
    </linearGradient>
    <linearGradient
       id="linearGradient6151">
      <stop
         style="stop-color:#5e5322;stop-opacity:1;"
         offset="0"
         id="stop6153" />
      <stop
         id="stop6159"
         offset="0.5"
         style="stop-color:#5e5322;stop-opacity:0.49803922;" />
      <stop
         style="stop-color:#5e5322;stop-opacity:0;"
         offset="1"
         id="stop6155" />
    </linearGradient>
  </defs>
  <sodipodi:namedview
     id="base"
     pagecolor="#ffffff"
     bordercolor="#666666"
     borderopacity="1.0"
     inkscape:pageopacity="0.0"
     inkscape:pageshadow="2"
     inkscape:zoom="0.75"
     inkscape:cx="438.1169"
     inkscape:cy="230.65143"
     inkscape:document-units="px"
     inkscape:current-layer="layer1"
     inkscape:window-width="931"
     inkscape:window-height="622"
     inkscape:window-x="38"
     inkscape:window-y="64" />
  <metadata
     id="metadata2165">
    <rdf:RDF>
      <cc:Work
         rdf:about="">
        <dc:format>image/svg+xml</dc:format>
        <dc:type
           rdf:resource="http://purl.org/dc/dcmitype/StillImage" />
      </cc:Work>
    </rdf:RDF>
  </metadata>
  <g
     id="layer1"
     inkscape:label="Layer 1"
     inkscape:groupmode="layer">
    <rect
       style="opacity:1;fill:#98c807;fill-opacity:1.0;stroke-width:0.69999999;stroke-miterlimit:4;stroke-dasharray:none;stroke-opacity:1"
       id="rect2168"
       width="720"
       height="486"
       x="1.3333333"
       y="2"
       ry="0" />
    <path
       style="fill:#121513;fill-opacity:1"
       id="path37"
       d="M 378.82383,176.31863 C 378.82383,173.99976 376.94138,172.12124 374.6265,172.12124 L 348.03916,172.12124 C 345.72132,172.12124 343.84183,173.99974 343.84183,176.31863 L 343.84183,202.90737 L 351.25757,202.90737 L 351.25757,234.39175 L 371.4071,234.39175 L 371.4071,202.90737 L 378.82383,202.90737 L 378.82383,176.31863 L 378.82383,176.31863 z " />
    <circle
       style="fill:#121513"
       sodipodi:ry="4.47754"
       sodipodi:rx="4.47754"
       sodipodi:cy="200.11914"
       sodipodi:cx="32"
       id="circle39"
       r="4.47754"
       cy="200.11914"
       cx="32"
       transform="matrix(2.0312189,0,0,2.03125,296.33333,-246.9649)" />
    <g
       id="g3218"
       transform="translate(0,3.1347656e-6)">
      <text
         id="text2220"
         y="318.05588"
         x="68.369469"
         style="font-size:20px;fill:#121513"
         xml:space="preserve"><tspan
           style="font-size:20px;fill:#121513"
           id="tspan2226"
           y="318.05588"
           x="68.369469"
           sodipodi:role="line">Except <tspan
   id="tspan7494"
   style="font-size:20px;fill:#121513">where</tspan> otherwise noted, this work is licensed under </tspan></text>
      <path
         clip-rule="evenodd"
         d="M 361.251,127.41192 C 343.24476,127.41192 328.00369,133.69411 315.53172,146.2605 C 302.73047,159.26129 296.33333,174.64444 296.33333,192.41192 C 296.33333,210.17742 302.73047,225.45545 315.53172,238.23804 C 328.32899,251.02064 343.57008,257.41192 361.251,257.41192 C 379.14716,257.41192 394.65901,250.96904 407.78456,238.07538 C 420.14841,225.8363 426.33333,210.61383 426.33333,192.41192 C 426.33333,174.21001 420.0413,158.82687 407.45926,146.2605 C 394.87521,133.69413 379.47246,127.41192 361.251,127.41192 z M 361.41366,139.10947 C 376.1658,139.10947 388.6923,144.30859 398.99916,154.71081 C 409.41114,165.00195 414.61614,177.56832 414.61614,192.41192 C 414.61614,207.36066 409.52024,219.76636 399.32249,229.62505 C 388.58321,240.2415 375.9476,245.54973 361.41366,245.54973 C 346.87676,245.54973 334.34926,240.29704 323.82817,229.7877 C 313.30709,219.27835 308.04656,206.8211 308.04656,192.41192 C 308.04656,178.00274 313.36165,165.43638 323.99183,154.71081 C 334.18859,144.30859 346.66056,139.10947 361.41366,139.10947 z "
         id="path41"
         style="fill:#121513;fill-opacity:1;fill-rule:evenodd" />
      <text
         sodipodi:linespacing="125%"
         id="text2234"
         y="358.05585"
         x="103.43221"
         style="font-size:21px;font-style:normal;font-weight:normal;line-height:125%;fill:#121513;fill-opacity:1;stroke:none;stroke-width:1px;stroke-linecap:butt;stroke-linejoin:miter;stroke-opacity:1;font-family:Commons"
         xml:space="preserve"><tspan
           style="font-size:21px;font-style:normal;font-variant:normal;font-weight:bold;font-stretch:normal;text-align:start;line-height:125%;writing-mode:lr-tb;text-anchor:start;fill:#121513;font-family:Bitstream Vera Sans"
           y="358.05585"
           x="103.43221"
           id="tspan2236"
           sodipodi:role="line">http://creativecommons.org/licenses/by/3.0</tspan><tspan
           id="tspan8346"
           y="384.30585"
           x="103.43221"
           sodipodi:role="line" /></text>
    </g>
  </g>
</svg>
