<?xml version="1.0" encoding="UTF-8" standalone="no"?>
<!-- Created with Inkscape (http://www.inkscape.org/) -->
<svg
   xmlns:dc="http://purl.org/dc/elements/1.1/"
   xmlns:cc="http://web.resource.org/cc/"
   xmlns:rdf="http://www.w3.org/1999/02/22-rdf-syntax-ns#"
   xmlns:svg="http://www.w3.org/2000/svg"
   xmlns="http://www.w3.org/2000/svg"
   xmlns:sodipodi="http://sodipodi.sourceforge.net/DTD/sodipodi-0.dtd"
   xmlns:inkscape="http://www.inkscape.org/namespaces/inkscape"
   width="468px"
   height="60px"
   id="svg28920"
   sodipodi:version="0.32"
   inkscape:version="0.45.1"
   inkscape:export-filename="/Users/rebecca/Documents/creative_commons/imagemarkers/plain/by-nc-nd_plain.png"
   inkscape:export-xdpi="216.66667"
   inkscape:export-ydpi="216.66667"
   sodipodi:docbase="/Users/rebecca/Documents/creative_commons/imagemarkers/plain"
   sodipodi:docname="by_plain.svg"
   inkscape:output_extension="org.inkscape.output.svg.inkscape">
  <defs
     id="defs28922" />
  <sodipodi:namedview
     id="base"
     pagecolor="#ffffff"
     bordercolor="#666666"
     borderopacity="1.0"
     inkscape:pageopacity="0.0"
     inkscape:pageshadow="2"
     inkscape:zoom="2.4"
     inkscape:cx="242.47963"
     inkscape:cy="30"
     inkscape:document-units="px"
     inkscape:current-layer="layer1"
     showborder="true"
     inkscape:window-width="832"
     inkscape:window-height="581"
     inkscape:window-x="1"
     inkscape:window-y="92" />
  <metadata
     id="metadata28925">
    <rdf:RDF>
      <cc:Work
         rdf:about="">
        <dc:format>image/svg+xml</dc:format>
        <dc:type
           rdf:resource="http://purl.org/dc/dcmitype/StillImage" />
      </cc:Work>
    </rdf:RDF>
  </metadata>
  <g
     id="layer1"
     inkscape:label="Layer 1"
     inkscape:groupmode="layer">
    <g
       style="fill:#000000;fill-opacity:1"
       id="g6307"
       transform="matrix(0.2716088,0,0,0.2716129,151.1807,-28.449422)">
      <path
         d="M 40.61133,208.38574 C 40.61133,207.24414 39.68457,206.31933 38.54492,206.31933 L 25.45557,206.31933 C 24.31446,206.31933 23.38916,207.24413 23.38916,208.38574 L 23.38916,221.47558 L 27.04004,221.47558 L 27.04004,236.97558 L 36.95996,236.97558 L 36.95996,221.47558 L 40.61133,221.47558 L 40.61133,208.38574 L 40.61133,208.38574 z "
         id="path6309"
         style="fill:#000000;fill-opacity:1" />
      <circle
         cx="32"
         cy="200.11914"
         r="4.47754"
         id="circle6311"
         sodipodi:cx="32"
         sodipodi:cy="200.11914"
         sodipodi:rx="4.47754"
         sodipodi:ry="4.47754"
         style="fill:#000000;fill-opacity:1" />
      <path
         clip-rule="evenodd"
         d="M 31.95996,184.30859 C 23.09521,184.30859 15.5918,187.40136 9.45166,193.58789 C 3.14941,199.98828 0,207.56152 0,216.30859 C 0,225.05468 3.14941,232.57617 9.45166,238.86914 C 15.75195,245.16211 23.25537,248.30859 31.95996,248.30859 C 40.77051,248.30859 48.40723,245.13671 54.86914,238.78906 C 60.95605,232.76367 64.00098,225.26953 64.00098,216.30859 C 64.00098,207.34765 60.90332,199.77441 54.70899,193.58789 C 48.51367,187.40137 40.93066,184.30859 31.95996,184.30859 z M 32.04004,190.06738 C 39.30274,190.06738 45.46973,192.62695 50.54395,197.74804 C 55.66993,202.81445 58.23243,209.00097 58.23243,216.30859 C 58.23243,223.66797 55.72364,229.77539 50.70313,234.6289 C 45.41602,239.85546 39.19532,242.46874 32.04004,242.46874 C 24.8833,242.46874 18.71582,239.8828 13.53613,234.70897 C 8.35644,229.53514 5.7666,223.40234 5.7666,216.30859 C 5.7666,209.21484 8.3833,203.02832 13.6167,197.74804 C 18.63672,192.62695 24.77686,190.06738 32.04004,190.06738 z "
         id="path6313"
         style="fill:#000000;fill-opacity:1;fill-rule:evenodd" />
    </g>
    <g
       id="g24834"
       transform="matrix(0.3864876,0,0,0.3864876,-114.37345,20.532194)"
       inkscape:export-filename="/Users/rebecca/Documents/creative_commons/imagemarkers/by-nc-nd_plain.png"
       inkscape:export-xdpi="200"
       inkscape:export-ydpi="200">
      <text
         id="text6295"
         y="18.445837"
         x="742.46631"
         style="font-size:20px;fill:#000000;fill-opacity:1"
         xml:space="preserve"><tspan
           id="tspan6297"
           y="18.445837"
           x="742.46631"
           sodipodi:role="line">Except where otherwise noted, this work is licensed under </tspan></text>
      <text
         id="text6299"
         y="45.812576"
         x="742.66553"
         style="font-size:21px;font-weight:bold;fill:#000000;fill-opacity:1"
         xml:space="preserve"><tspan
           y="45.812576"
           x="742.66553"
           id="tspan6301"
           sodipodi:role="line">http://creativecommons.org/licenses/by/3.0</tspan><tspan
           id="tspan6303"
           y="72.062576"
           x="742.66553"
           sodipodi:role="line" /></text>
    </g>
  </g>
</svg>
