<?xml version="1.0" encoding="UTF-8" standalone="no"?>
<!-- Created with Inkscape (http://www.inkscape.org/) -->
<svg
   xmlns:dc="http://purl.org/dc/elements/1.1/"
   xmlns:cc="http://web.resource.org/cc/"
   xmlns:rdf="http://www.w3.org/1999/02/22-rdf-syntax-ns#"
   xmlns:svg="http://www.w3.org/2000/svg"
   xmlns="http://www.w3.org/2000/svg"
   xmlns:sodipodi="http://sodipodi.sourceforge.net/DTD/sodipodi-0.dtd"
   xmlns:inkscape="http://www.inkscape.org/namespaces/inkscape"
   width="720px"
   height="486px"
   id="svg2160"
   sodipodi:version="0.32"
   inkscape:version="0.45.1"
   sodipodi:docbase="/Users/rebecca/Documents/creative_commons/videobumpers/simple/color"
   sodipodi:docname="by-sa_color.svg"
   inkscape:output_extension="org.inkscape.output.svg.inkscape"
   inkscape:export-filename="/Users/rebecca/Documents/creative_commons/videobumpers/simple/color/png/by-sa_color.png"
   inkscape:export-xdpi="90"
   inkscape:export-ydpi="90">
  <defs
     id="defs2162">
    <linearGradient
       id="linearGradient8212">
      <stop
         style="stop-color:#5e5322;stop-opacity:1;"
         offset="0"
         id="stop8214" />
      <stop
         id="stop8220"
         offset="0.5"
         style="stop-color:#b09a0f;stop-opacity:1;" />
      <stop
         style="stop-color:#edd612;stop-opacity:1;"
         offset="1"
         id="stop8216" />
    </linearGradient>
    <linearGradient
       id="linearGradient6151">
      <stop
         style="stop-color:#5e5322;stop-opacity:1;"
         offset="0"
         id="stop6153" />
      <stop
         id="stop6159"
         offset="0.5"
         style="stop-color:#5e5322;stop-opacity:0.49803922;" />
      <stop
         style="stop-color:#5e5322;stop-opacity:0;"
         offset="1"
         id="stop6155" />
    </linearGradient>
  </defs>
  <sodipodi:namedview
     id="base"
     pagecolor="#ffffff"
     bordercolor="#666666"
     borderopacity="1.0"
     inkscape:pageopacity="0.0"
     inkscape:pageshadow="2"
     inkscape:zoom="0.75"
     inkscape:cx="492.85007"
     inkscape:cy="215.38989"
     inkscape:document-units="px"
     inkscape:current-layer="layer1"
     inkscape:window-width="931"
     inkscape:window-height="622"
     inkscape:window-x="65"
     inkscape:window-y="49" />
  <metadata
     id="metadata2165">
    <rdf:RDF>
      <cc:Work
         rdf:about="">
        <dc:format>image/svg+xml</dc:format>
        <dc:type
           rdf:resource="http://purl.org/dc/dcmitype/StillImage" />
      </cc:Work>
    </rdf:RDF>
  </metadata>
  <g
     id="layer1"
     inkscape:label="Layer 1"
     inkscape:groupmode="layer">
    <rect
       style="opacity:1;fill:#98c807;fill-opacity:1.0;stroke-width:0.69999999;stroke-miterlimit:4;stroke-dasharray:none;stroke-opacity:1"
       id="rect2168"
       width="720"
       height="486"
       x="1.3333333"
       y="2"
       ry="0" />
    <g
       id="g2656"
       transform="translate(0,-2.266104)">
      <text
         sodipodi:linespacing="125%"
         id="text2220"
         y="321.69476"
         x="68.369469"
         style="font-size:20px;font-style:normal;font-variant:normal;font-weight:normal;font-stretch:normal;text-align:start;line-height:125%;writing-mode:lr-tb;text-anchor:start;fill:#121513;fill-opacity:1;stroke:none;stroke-width:1px;stroke-linecap:butt;stroke-linejoin:miter;stroke-opacity:1;font-family:Bitstream Vera Sans"
         xml:space="preserve"><tspan
           id="tspan2226"
           y="321.69476"
           x="68.369469"
           sodipodi:role="line">Except where otherwise noted, this work is licensed under </tspan></text>
      <g
         transform="translate(0.6666633,0)"
         id="g2647">
        <g
           style="fill:#121513"
           id="g35"
           transform="matrix(2.0312189,0,0,2.03125,212.61291,-243.32602)">
          <path
             d="M 40.61133,208.38574 C 40.61133,207.24414 39.68457,206.31933 38.54492,206.31933 L 25.45557,206.31933 C 24.31446,206.31933 23.38916,207.24413 23.38916,208.38574 L 23.38916,221.47558 L 27.04004,221.47558 L 27.04004,236.97558 L 36.95996,236.97558 L 36.95996,221.47558 L 40.61133,221.47558 L 40.61133,208.38574 L 40.61133,208.38574 z "
             id="path37"
             style="fill:#121513" />
          <circle
             cx="32"
             cy="200.11914"
             r="4.47754"
             id="circle39"
             sodipodi:cx="32"
             sodipodi:cy="200.11914"
             sodipodi:rx="4.47754"
             sodipodi:ry="4.47754"
             style="fill:#121513" />
          <path
             clip-rule="evenodd"
             d="M 31.95996,184.30859 C 23.09521,184.30859 15.5918,187.40136 9.45166,193.58789 C 3.14941,199.98828 0,207.56152 0,216.30859 C 0,225.05468 3.14941,232.57617 9.45166,238.86914 C 15.75195,245.16211 23.25537,248.30859 31.95996,248.30859 C 40.77051,248.30859 48.40723,245.13671 54.86914,238.78906 C 60.95605,232.76367 64.00098,225.26953 64.00098,216.30859 C 64.00098,207.34765 60.90332,199.77441 54.70899,193.58789 C 48.51367,187.40137 40.93066,184.30859 31.95996,184.30859 z M 32.04004,190.06738 C 39.30274,190.06738 45.46973,192.62695 50.54395,197.74804 C 55.66993,202.81445 58.23243,209.00097 58.23243,216.30859 C 58.23243,223.66797 55.72364,229.77539 50.70313,234.6289 C 45.41602,239.85546 39.19532,242.46874 32.04004,242.46874 C 24.8833,242.46874 18.71582,239.8828 13.53613,234.70897 C 8.35644,229.53514 5.7666,223.40234 5.7666,216.30859 C 5.7666,209.21484 8.3833,203.02832 13.6167,197.74804 C 18.63672,192.62695 24.77686,190.06738 32.04004,190.06738 z "
             id="path41"
             style="fill:#121513;fill-rule:evenodd" />
        </g>
        <g
           id="g13355"
           transform="matrix(2.03125,0,0,2.0311519,378.72043,128.31153)"
           style="fill:#121513;fill-opacity:1">
          <path
             id="path13360"
             d="M 31.1875,0 C 13.904525,0.43835438 3.7379722e-13,14.612004 0,32 C 2.3684758e-15,49.663996 14.336004,64 32,64 C 49.663996,64 64,49.663996 64,32 C 64,14.336004 49.663996,1.3812956e-13 32,0 C 31.724,3.7007434e-17 31.461833,-0.0069580061 31.1875,0 z M 31.15625,5.5 C 31.439783,5.4910103 31.714297,5.5 32,5.5 C 46.628003,5.4999998 58.5,17.371998 58.5,32 C 58.499998,46.628001 46.628002,58.5 32,58.5 C 17.371999,58.499999 5.5,46.628002 5.5,32 C 5.4999999,17.657701 16.922915,5.9512829 31.15625,5.5 z "
             style="opacity:1;fill:#121513;fill-opacity:1;fill-rule:nonzero;stroke:none;stroke-width:259.50698853;stroke-linecap:butt;stroke-linejoin:round;stroke-miterlimit:4;stroke-dasharray:none;stroke-dashoffset:0;stroke-opacity:1" />
          <path
             sodipodi:nodetypes="cccccssssccsssssc"
             id="path2371"
             d="M 18.115779,26.784547 L 15.375001,26.784547 L 21.593751,33.753297 L 27.812501,26.784547 L 25.568649,26.784547 C 26.054748,23.384747 29.04552,21.198122 32.500001,21.472047 C 32.636557,21.482875 32.767855,21.472047 32.906251,21.472047 C 38.533681,21.472047 40.753071,25.727912 40.937501,32.003297 C 41.129971,38.552496 37.334011,42.623673 32.906251,42.534547 C 28.232865,42.442333 26.462202,40.207037 25.781251,36.815797 L 17.437501,36.815797 C 18.810678,44.627028 24.561356,49.207833 32.718751,49.222047 C 41.953331,49.238298 48.624999,41.5127 48.624999,32.003297 C 48.624999,21.848404 41.955631,14.784547 32.718751,14.784547 C 32.444507,14.784547 32.177099,14.769654 31.906251,14.784547 C 31.840655,14.788154 31.784281,14.783475 31.718751,14.784547 C 25.946542,14.880519 18.115822,18.924289 18.115779,26.784547 z "
             style="opacity:1;fill:#121513;fill-opacity:1;fill-rule:nonzero;stroke:none;stroke-width:259.50698853;stroke-linecap:butt;stroke-linejoin:round;stroke-miterlimit:4;stroke-dasharray:none;stroke-dashoffset:0;stroke-opacity:1" />
        </g>
      </g>
      <text
         sodipodi:linespacing="125%"
         id="text2234"
         y="361.69473"
         x="85.754478"
         style="font-size:21px;font-style:normal;font-variant:normal;font-weight:bold;font-stretch:normal;text-align:start;line-height:125%;writing-mode:lr-tb;text-anchor:start;fill:#121513;fill-opacity:1;stroke:none;stroke-width:1px;stroke-linecap:butt;stroke-linejoin:miter;stroke-opacity:1;font-family:Bitstream Vera Sans"
         xml:space="preserve"><tspan
           y="361.69473"
           x="85.754478"
           id="tspan2236"
           sodipodi:role="line">http://creativecommons.org/licenses/by-sa/3.0</tspan><tspan
           id="tspan8346"
           y="387.94473"
           x="85.754478"
           sodipodi:role="line" /></text>
    </g>
  </g>
</svg>
