<?xml version="1.0" encoding="UTF-8" standalone="no"?>
<!-- Created with Inkscape (http://www.inkscape.org/) -->
<svg
   xmlns:dc="http://purl.org/dc/elements/1.1/"
   xmlns:cc="http://web.resource.org/cc/"
   xmlns:rdf="http://www.w3.org/1999/02/22-rdf-syntax-ns#"
   xmlns:svg="http://www.w3.org/2000/svg"
   xmlns="http://www.w3.org/2000/svg"
   xmlns:xlink="http://www.w3.org/1999/xlink"
   xmlns:sodipodi="http://sodipodi.sourceforge.net/DTD/sodipodi-0.dtd"
   xmlns:inkscape="http://www.inkscape.org/namespaces/inkscape"
   width="720px"
   height="486px"
   id="svg2160"
   sodipodi:version="0.32"
   inkscape:version="0.45.1"
   sodipodi:docbase="/Users/rebecca/Documents/creative_commons/videobumpers/simple/grad"
   sodipodi:docname="by-nc-sa_grad.svg"
   inkscape:output_extension="org.inkscape.output.svg.inkscape"
   inkscape:export-filename="/Users/rebecca/Documents/creative_commons/videobumpers/simple/grad/png/by-nc-sa_grad.png"
   inkscape:export-xdpi="90"
   inkscape:export-ydpi="90">
  <defs
     id="defs2162">
    <linearGradient
       inkscape:collect="always"
       xlink:href="#linearGradient8212"
       id="linearGradient8218"
       x1="398.66666"
       y1="619.02332"
       x2="398.66666"
       y2="-12.348995"
       gradientUnits="userSpaceOnUse"
       gradientTransform="translate(3.2538605e-6,9.3823243e-7)" />
    <linearGradient
       id="linearGradient8212">
      <stop
         style="stop-color:#5e5322;stop-opacity:1;"
         offset="0"
         id="stop8214" />
      <stop
         id="stop8220"
         offset="0.5"
         style="stop-color:#b09a0f;stop-opacity:1;" />
      <stop
         style="stop-color:#edd612;stop-opacity:1;"
         offset="1"
         id="stop8216" />
    </linearGradient>
    <linearGradient
       id="linearGradient6151">
      <stop
         style="stop-color:#5e5322;stop-opacity:1;"
         offset="0"
         id="stop6153" />
      <stop
         id="stop6159"
         offset="0.5"
         style="stop-color:#5e5322;stop-opacity:0.49803922;" />
      <stop
         style="stop-color:#5e5322;stop-opacity:0;"
         offset="1"
         id="stop6155" />
    </linearGradient>
    <filter
       inkscape:collect="always"
       id="filter6785">
      <feGaussianBlur
         inkscape:collect="always"
         stdDeviation="4.0830887"
         id="feGaussianBlur6787" />
    </filter>
  </defs>
  <sodipodi:namedview
     id="base"
     pagecolor="#ffffff"
     bordercolor="#666666"
     borderopacity="1.0"
     inkscape:pageopacity="0.0"
     inkscape:pageshadow="2"
     inkscape:zoom="0.75"
     inkscape:cx="492.85007"
     inkscape:cy="215.38989"
     inkscape:document-units="px"
     inkscape:current-layer="layer1"
     inkscape:window-width="931"
     inkscape:window-height="622"
     inkscape:window-x="54"
     inkscape:window-y="22" />
  <metadata
     id="metadata2165">
    <rdf:RDF>
      <cc:Work
         rdf:about="">
        <dc:format>image/svg+xml</dc:format>
        <dc:type
           rdf:resource="http://purl.org/dc/dcmitype/StillImage" />
      </cc:Work>
    </rdf:RDF>
  </metadata>
  <g
     id="layer1"
     inkscape:label="Layer 1"
     inkscape:groupmode="layer">
    <rect
       style="opacity:1;fill:#edd812;fill-opacity:1.0;stroke-width:0.69999999;stroke-miterlimit:4;stroke-dasharray:none;stroke-opacity:1"
       id="rect2168"
       width="720"
       height="486"
       x="1.3333333"
       y="2"
       ry="0" />
    <rect
       style="opacity:1;fill:url(#linearGradient8218);fill-opacity:1;stroke-width:0.69999999;stroke-miterlimit:4;stroke-dasharray:none;stroke-opacity:1"
       id="rect15347"
       width="720"
       height="486"
       x="1.3333333"
       y="2"
       ry="0" />
    <g
       id="g4669"
       transform="translate(2,2.0000057)"
       style="opacity:0.6;fill:#121513;filter:url(#filter6785)">
      <g
         transform="translate(-6.7461395e-6,-1.0838325)"
         id="g4671"
         style="fill:#121513">
        <g
           id="g4673"
           transform="matrix(2.03125,0,0,2.0311519,462.02688,129.68431)"
           style="fill:#121513;fill-opacity:1">
          <path
             id="path4675"
             d="M 31.1875,0 C 13.904525,0.43835438 3.7379722e-13,14.612004 0,32 C 2.3684758e-15,49.663996 14.336004,64 32,64 C 49.663996,64 64,49.663996 64,32 C 64,14.336004 49.663996,1.3812956e-13 32,0 C 31.724,3.7007434e-17 31.461833,-0.0069580061 31.1875,0 z M 31.15625,5.5 C 31.439783,5.4910103 31.714297,5.5 32,5.5 C 46.628003,5.4999998 58.5,17.371998 58.5,32 C 58.499998,46.628001 46.628002,58.5 32,58.5 C 17.371999,58.499999 5.5,46.628002 5.5,32 C 5.4999999,17.657701 16.922915,5.9512829 31.15625,5.5 z "
             style="opacity:1;fill:#121513;fill-opacity:1;fill-rule:nonzero;stroke:none;stroke-width:259.50698853;stroke-linecap:butt;stroke-linejoin:round;stroke-miterlimit:4;stroke-dasharray:none;stroke-dashoffset:0;stroke-opacity:1" />
          <path
             sodipodi:nodetypes="cccccssssccsssssc"
             id="path4677"
             d="M 18.115779,26.784547 L 15.375001,26.784547 L 21.593751,33.753297 L 27.812501,26.784547 L 25.568649,26.784547 C 26.054748,23.384747 29.04552,21.198122 32.500001,21.472047 C 32.636557,21.482875 32.767855,21.472047 32.906251,21.472047 C 38.533681,21.472047 40.753071,25.727912 40.937501,32.003297 C 41.129971,38.552496 37.334011,42.623673 32.906251,42.534547 C 28.232865,42.442333 26.462202,40.207037 25.781251,36.815797 L 17.437501,36.815797 C 18.810678,44.627028 24.561356,49.207833 32.718751,49.222047 C 41.953331,49.238298 48.624999,41.5127 48.624999,32.003297 C 48.624999,21.848404 41.955631,14.784547 32.718751,14.784547 C 32.444507,14.784547 32.177099,14.769654 31.906251,14.784547 C 31.840655,14.788154 31.784281,14.783475 31.718751,14.784547 C 25.946542,14.880519 18.115822,18.924289 18.115779,26.784547 z "
             style="opacity:1;fill:#121513;fill-opacity:1;fill-rule:nonzero;stroke:none;stroke-width:259.50698853;stroke-linecap:butt;stroke-linejoin:round;stroke-miterlimit:4;stroke-dasharray:none;stroke-dashoffset:0;stroke-opacity:1" />
        </g>
        <g
           style="fill:#121513;fill-opacity:1"
           id="g4679"
           transform="matrix(2.0312189,0,0,2.03125,130.6398,-244.69879)">
          <path
             d="M 40.61133,208.38574 C 40.61133,207.24414 39.68457,206.31933 38.54492,206.31933 L 25.45557,206.31933 C 24.31446,206.31933 23.38916,207.24413 23.38916,208.38574 L 23.38916,221.47558 L 27.04004,221.47558 L 27.04004,236.97558 L 36.95996,236.97558 L 36.95996,221.47558 L 40.61133,221.47558 L 40.61133,208.38574 L 40.61133,208.38574 z "
             id="path4681"
             style="fill:#121513;fill-opacity:1" />
          <circle
             cx="32"
             cy="200.11914"
             r="4.47754"
             id="circle4683"
             sodipodi:cx="32"
             sodipodi:cy="200.11914"
             sodipodi:rx="4.47754"
             sodipodi:ry="4.47754"
             style="fill:#121513;fill-opacity:1" />
          <path
             clip-rule="evenodd"
             d="M 31.95996,184.30859 C 23.09521,184.30859 15.5918,187.40136 9.45166,193.58789 C 3.14941,199.98828 0,207.56152 0,216.30859 C 0,225.05468 3.14941,232.57617 9.45166,238.86914 C 15.75195,245.16211 23.25537,248.30859 31.95996,248.30859 C 40.77051,248.30859 48.40723,245.13671 54.86914,238.78906 C 60.95605,232.76367 64.00098,225.26953 64.00098,216.30859 C 64.00098,207.34765 60.90332,199.77441 54.70899,193.58789 C 48.51367,187.40137 40.93066,184.30859 31.95996,184.30859 z M 32.04004,190.06738 C 39.30274,190.06738 45.46973,192.62695 50.54395,197.74804 C 55.66993,202.81445 58.23243,209.00097 58.23243,216.30859 C 58.23243,223.66797 55.72364,229.77539 50.70313,234.6289 C 45.41602,239.85546 39.19532,242.46874 32.04004,242.46874 C 24.8833,242.46874 18.71582,239.8828 13.53613,234.70897 C 8.35644,229.53514 5.7666,223.40234 5.7666,216.30859 C 5.7666,209.21484 8.3833,203.02832 13.6167,197.74804 C 18.63672,192.62695 24.77686,190.06738 32.04004,190.06738 z "
             id="path4685"
             style="fill:#121513;fill-opacity:1;fill-rule:evenodd" />
        </g>
        <path
           style="fill:#121513;fill-opacity:1"
           d="M 361.25002,129.67803 C 379.47175,129.67803 394.87673,135.96022 407.46095,148.5266 C 420.04122,161.09497 426.33334,176.47811 426.33334,194.67803 C 426.33334,212.87795 420.14835,228.10043 407.78628,240.34148 C 394.65851,253.23318 379.14642,259.67803 361.25002,259.67803 C 343.57181,259.67803 328.32949,253.28872 315.53102,240.50415 C 302.73058,227.72155 296.33334,212.44355 296.33334,194.67803 C 296.33334,176.91251 302.73058,161.5274 315.53102,148.5266 C 328.00416,135.96022 343.24646,129.67803 361.25002,129.67803 z M 310.95673,177.21801 C 309.01673,182.7028 308.04672,188.5228 308.04672,194.67803 C 308.04672,209.08721 313.30734,221.54448 323.82858,232.05184 C 334.3518,242.56118 346.87653,247.81584 361.41266,247.81584 C 375.94879,247.81584 388.58458,242.50961 399.32403,231.89117 C 402.91839,228.41581 405.87798,224.62707 408.20281,220.51895 L 383.70086,209.60692 C 382.03856,217.85094 374.69115,223.42101 365.8084,224.07562 L 365.8084,234.09501 L 358.34793,234.09501 L 358.34793,224.07562 C 351.05209,223.9923 344.00421,221.0109 338.61663,216.29181 L 347.57078,207.26424 C 351.88124,211.32278 356.1917,213.14575 362.07915,213.14575 C 365.89171,213.14575 370.12083,211.65404 370.12083,206.68503 C 370.12083,204.92355 369.43845,203.69965 368.36333,202.77925 L 362.16842,200.02 L 354.45008,196.58432 C 350.63355,194.88434 347.40022,193.44421 344.15497,192.0021 L 310.95673,177.21801 z M 361.41266,141.37557 C 346.66229,141.37557 334.18915,146.57669 323.99321,156.9789 C 321.21611,159.77782 318.804,162.7037 316.75292,165.75652 L 341.60003,176.8193 C 343.84552,169.92813 350.3955,165.74858 358.34793,165.28045 L 358.34793,155.26107 L 365.8084,155.26107 L 365.8084,165.28045 C 370.95001,165.52842 376.58751,166.9368 382.14173,171.2433 L 373.60414,180.02092 C 370.45412,177.78535 366.47492,176.21033 362.49178,176.21033 C 359.26043,176.21033 354.70003,177.20611 354.70003,181.26266 C 354.70003,181.88157 354.90632,182.42705 355.28322,182.91305 L 363.59469,186.61254 L 369.2203,189.11988 C 372.81861,190.72069 376.25429,192.25008 379.65822,193.76557 L 412.96358,208.59528 C 414.06648,204.23127 414.61792,199.59153 414.61792,194.67805 C 414.61792,179.83445 409.41285,167.26808 398.99873,156.97892 C 388.69172,146.57669 376.16701,141.37557 361.41266,141.37557 z "
           id="path4687" />
      </g>
      <text
         id="text4689"
         y="316.8736"
         x="68.369469"
         style="font-size:20px;fill:#121513"
         xml:space="preserve"><tspan
           id="tspan4691"
           y="316.8736"
           x="68.369469"
           sodipodi:role="line">Except where otherwise noted, this work is licensed under </tspan></text>
      <text
         sodipodi:linespacing="125%"
         id="text4693"
         y="356.87357"
         x="67.666588"
         style="font-size:21px;font-style:normal;font-variant:normal;font-weight:bold;font-stretch:normal;text-align:start;line-height:125%;writing-mode:lr-tb;text-anchor:start;fill:#121513;fill-opacity:1;stroke:none;stroke-width:1px;stroke-linecap:butt;stroke-linejoin:miter;stroke-opacity:1;font-family:Bitstream Vera Sans"
         xml:space="preserve"><tspan
           y="356.87357"
           x="67.666588"
           id="tspan4695"
           sodipodi:role="line">http://creativecommons.org/licenses/by-nc-sa/3.0</tspan><tspan
           id="tspan4697"
           y="383.12357"
           x="67.666588"
           sodipodi:role="line" /></text>
    </g>
    <g
       id="g3650"
       transform="translate(0,5.7467938e-6)">
      <g
         transform="translate(-6.7461395e-6,-1.0838325)"
         id="g3603">
        <g
           id="g2985"
           transform="matrix(2.03125,0,0,2.0311519,462.02688,129.68431)"
           style="fill:#ededee;fill-opacity:1">
          <path
             id="path2987"
             d="M 31.1875,0 C 13.904525,0.43835438 3.7379722e-13,14.612004 0,32 C 2.3684758e-15,49.663996 14.336004,64 32,64 C 49.663996,64 64,49.663996 64,32 C 64,14.336004 49.663996,1.3812956e-13 32,0 C 31.724,3.7007434e-17 31.461833,-0.0069580061 31.1875,0 z M 31.15625,5.5 C 31.439783,5.4910103 31.714297,5.5 32,5.5 C 46.628003,5.4999998 58.5,17.371998 58.5,32 C 58.499998,46.628001 46.628002,58.5 32,58.5 C 17.371999,58.499999 5.5,46.628002 5.5,32 C 5.4999999,17.657701 16.922915,5.9512829 31.15625,5.5 z "
             style="opacity:1;fill:#ededee;fill-opacity:1;fill-rule:nonzero;stroke:none;stroke-width:259.50698853;stroke-linecap:butt;stroke-linejoin:round;stroke-miterlimit:4;stroke-dasharray:none;stroke-dashoffset:0;stroke-opacity:1" />
          <path
             sodipodi:nodetypes="cccccssssccsssssc"
             id="path2989"
             d="M 18.115779,26.784547 L 15.375001,26.784547 L 21.593751,33.753297 L 27.812501,26.784547 L 25.568649,26.784547 C 26.054748,23.384747 29.04552,21.198122 32.500001,21.472047 C 32.636557,21.482875 32.767855,21.472047 32.906251,21.472047 C 38.533681,21.472047 40.753071,25.727912 40.937501,32.003297 C 41.129971,38.552496 37.334011,42.623673 32.906251,42.534547 C 28.232865,42.442333 26.462202,40.207037 25.781251,36.815797 L 17.437501,36.815797 C 18.810678,44.627028 24.561356,49.207833 32.718751,49.222047 C 41.953331,49.238298 48.624999,41.5127 48.624999,32.003297 C 48.624999,21.848404 41.955631,14.784547 32.718751,14.784547 C 32.444507,14.784547 32.177099,14.769654 31.906251,14.784547 C 31.840655,14.788154 31.784281,14.783475 31.718751,14.784547 C 25.946542,14.880519 18.115822,18.924289 18.115779,26.784547 z "
             style="opacity:1;fill:#ededee;fill-opacity:1;fill-rule:nonzero;stroke:none;stroke-width:259.50698853;stroke-linecap:butt;stroke-linejoin:round;stroke-miterlimit:4;stroke-dasharray:none;stroke-dashoffset:0;stroke-opacity:1" />
        </g>
        <g
           style="fill:#ededee;fill-opacity:1"
           id="g2991"
           transform="matrix(2.0312189,0,0,2.03125,130.6398,-244.69879)">
          <path
             d="M 40.61133,208.38574 C 40.61133,207.24414 39.68457,206.31933 38.54492,206.31933 L 25.45557,206.31933 C 24.31446,206.31933 23.38916,207.24413 23.38916,208.38574 L 23.38916,221.47558 L 27.04004,221.47558 L 27.04004,236.97558 L 36.95996,236.97558 L 36.95996,221.47558 L 40.61133,221.47558 L 40.61133,208.38574 L 40.61133,208.38574 z "
             id="path2993"
             style="fill:#ededee;fill-opacity:1" />
          <circle
             cx="32"
             cy="200.11914"
             r="4.47754"
             id="circle2995"
             sodipodi:cx="32"
             sodipodi:cy="200.11914"
             sodipodi:rx="4.47754"
             sodipodi:ry="4.47754"
             style="fill:#ededee;fill-opacity:1" />
          <path
             clip-rule="evenodd"
             d="M 31.95996,184.30859 C 23.09521,184.30859 15.5918,187.40136 9.45166,193.58789 C 3.14941,199.98828 0,207.56152 0,216.30859 C 0,225.05468 3.14941,232.57617 9.45166,238.86914 C 15.75195,245.16211 23.25537,248.30859 31.95996,248.30859 C 40.77051,248.30859 48.40723,245.13671 54.86914,238.78906 C 60.95605,232.76367 64.00098,225.26953 64.00098,216.30859 C 64.00098,207.34765 60.90332,199.77441 54.70899,193.58789 C 48.51367,187.40137 40.93066,184.30859 31.95996,184.30859 z M 32.04004,190.06738 C 39.30274,190.06738 45.46973,192.62695 50.54395,197.74804 C 55.66993,202.81445 58.23243,209.00097 58.23243,216.30859 C 58.23243,223.66797 55.72364,229.77539 50.70313,234.6289 C 45.41602,239.85546 39.19532,242.46874 32.04004,242.46874 C 24.8833,242.46874 18.71582,239.8828 13.53613,234.70897 C 8.35644,229.53514 5.7666,223.40234 5.7666,216.30859 C 5.7666,209.21484 8.3833,203.02832 13.6167,197.74804 C 18.63672,192.62695 24.77686,190.06738 32.04004,190.06738 z "
             id="path2997"
             style="fill:#ededee;fill-opacity:1;fill-rule:evenodd" />
        </g>
        <path
           style="fill:#ededee;fill-opacity:1"
           d="M 361.25002,129.67803 C 379.47175,129.67803 394.87673,135.96022 407.46095,148.5266 C 420.04122,161.09497 426.33334,176.47811 426.33334,194.67803 C 426.33334,212.87795 420.14835,228.10043 407.78628,240.34148 C 394.65851,253.23318 379.14642,259.67803 361.25002,259.67803 C 343.57181,259.67803 328.32949,253.28872 315.53102,240.50415 C 302.73058,227.72155 296.33334,212.44355 296.33334,194.67803 C 296.33334,176.91251 302.73058,161.5274 315.53102,148.5266 C 328.00416,135.96022 343.24646,129.67803 361.25002,129.67803 z M 310.95673,177.21801 C 309.01673,182.7028 308.04672,188.5228 308.04672,194.67803 C 308.04672,209.08721 313.30734,221.54448 323.82858,232.05184 C 334.3518,242.56118 346.87653,247.81584 361.41266,247.81584 C 375.94879,247.81584 388.58458,242.50961 399.32403,231.89117 C 402.91839,228.41581 405.87798,224.62707 408.20281,220.51895 L 383.70086,209.60692 C 382.03856,217.85094 374.69115,223.42101 365.8084,224.07562 L 365.8084,234.09501 L 358.34793,234.09501 L 358.34793,224.07562 C 351.05209,223.9923 344.00421,221.0109 338.61663,216.29181 L 347.57078,207.26424 C 351.88124,211.32278 356.1917,213.14575 362.07915,213.14575 C 365.89171,213.14575 370.12083,211.65404 370.12083,206.68503 C 370.12083,204.92355 369.43845,203.69965 368.36333,202.77925 L 362.16842,200.02 L 354.45008,196.58432 C 350.63355,194.88434 347.40022,193.44421 344.15497,192.0021 L 310.95673,177.21801 z M 361.41266,141.37557 C 346.66229,141.37557 334.18915,146.57669 323.99321,156.9789 C 321.21611,159.77782 318.804,162.7037 316.75292,165.75652 L 341.60003,176.8193 C 343.84552,169.92813 350.3955,165.74858 358.34793,165.28045 L 358.34793,155.26107 L 365.8084,155.26107 L 365.8084,165.28045 C 370.95001,165.52842 376.58751,166.9368 382.14173,171.2433 L 373.60414,180.02092 C 370.45412,177.78535 366.47492,176.21033 362.49178,176.21033 C 359.26043,176.21033 354.70003,177.20611 354.70003,181.26266 C 354.70003,181.88157 354.90632,182.42705 355.28322,182.91305 L 363.59469,186.61254 L 369.2203,189.11988 C 372.81861,190.72069 376.25429,192.25008 379.65822,193.76557 L 412.96358,208.59528 C 414.06648,204.23127 414.61792,199.59153 414.61792,194.67805 C 414.61792,179.83445 409.41285,167.26808 398.99873,156.97892 C 388.69172,146.57669 376.16701,141.37557 361.41266,141.37557 z "
           id="path2999" />
      </g>
      <text
         id="text2721"
         y="316.8736"
         x="68.369469"
         style="font-size:20px;fill:#ededee"
         xml:space="preserve"><tspan
           id="tspan2723"
           y="316.8736"
           x="68.369469"
           sodipodi:role="line">Except where otherwise noted, this work is licensed under </tspan></text>
      <text
         sodipodi:linespacing="125%"
         id="text2725"
         y="356.87357"
         x="67.666588"
         style="font-size:21px;font-style:normal;font-variant:normal;font-weight:bold;font-stretch:normal;text-align:start;line-height:125%;writing-mode:lr-tb;text-anchor:start;fill:#ededee;fill-opacity:1;stroke:none;stroke-width:1px;stroke-linecap:butt;stroke-linejoin:miter;stroke-opacity:1;font-family:Bitstream Vera Sans"
         xml:space="preserve"><tspan
           y="356.87357"
           x="67.666588"
           id="tspan2727"
           sodipodi:role="line">http://creativecommons.org/licenses/by-nc-sa/3.0</tspan><tspan
           id="tspan2729"
           y="383.12357"
           x="67.666588"
           sodipodi:role="line" /></text>
    </g>
  </g>
</svg>
