<?xml version="1.0" encoding="utf-8"?>
<!-- Generator: Adobe Illustrator 13.0.2, SVG Export Plug-In . SVG Version: 6.00 Build 14948)  -->
<!DOCTYPE svg PUBLIC "-//W3C//DTD SVG 1.1//EN" "http://www.w3.org/Graphics/SVG/1.1/DTD/svg11.dtd">
<svg version="1.1" id="Layer_1" xmlns="http://www.w3.org/2000/svg" xmlns:xlink="http://www.w3.org/1999/xlink" x="0px" y="0px"
	 width="160px" height="600px" viewBox="0 0 160 600" enable-background="new 0 0 160 600" xml:space="preserve">
<rect fill="#35AFE3" width="160" height="600"/>
<g>
	<path fill="#FFFFFF" d="M27.364,494.486c3.906,0,7.217,1.356,9.928,4.067c2.652,2.654,3.979,5.934,3.979,9.841
		s-1.327,7.158-3.979,9.753c-2.828,2.771-6.138,4.154-9.928,4.154c-3.762,0-7.027-1.384-9.797-4.154
		c-2.712-2.653-4.067-5.904-4.067-9.753c0-3.79,1.37-7.085,4.111-9.884C20.235,495.827,23.486,494.486,27.364,494.486z
		 M27.407,496.979c-3.178,0-5.846,1.107-8.003,3.324c-2.274,2.273-3.411,4.971-3.411,8.091c0,3.062,1.137,5.729,3.411,8.004
		c2.274,2.216,4.942,3.323,8.003,3.323c3.091,0,5.803-1.122,8.136-3.367c2.157-2.158,3.236-4.811,3.236-7.96
		c0-3.12-1.094-5.802-3.28-8.048C33.253,498.103,30.557,496.979,27.407,496.979z M27.232,506.076l-1.836,0.962
		c-0.351-0.757-0.875-1.137-1.575-1.137c-1.224,0-1.837,0.831-1.837,2.493c0,1.633,0.613,2.449,1.837,2.449
		c0.846,0,1.414-0.408,1.706-1.225l1.749,0.918c-0.846,1.429-2.07,2.144-3.674,2.144c-1.254,0-2.252-0.379-2.996-1.137
		c-0.743-0.759-1.115-1.809-1.115-3.149c0-1.312,0.387-2.362,1.159-3.149s1.742-1.181,2.909-1.181
		C25.279,504.064,26.504,504.735,27.232,506.076z M35.236,506.076l-1.837,0.962c-0.35-0.757-0.86-1.137-1.531-1.137
		c-1.253,0-1.88,0.831-1.88,2.493c0,0.729,0.16,1.319,0.48,1.771c0.321,0.453,0.788,0.679,1.399,0.679
		c0.816,0,1.385-0.408,1.707-1.225l1.705,0.918c-0.846,1.429-2.056,2.144-3.63,2.144c-1.255,0-2.26-0.379-3.019-1.137
		c-0.758-0.759-1.137-1.809-1.137-3.149c0-1.312,0.386-2.362,1.159-3.149c0.772-0.787,1.741-1.181,2.908-1.181
		C33.283,504.064,34.508,504.735,35.236,506.076z M54.874,497.767l-2.843,1.486c-0.525-1.137-1.312-1.705-2.362-1.705
		c-1.924,0-2.886,1.254-2.886,3.762c0,1.137,0.24,2.055,0.722,2.755c0.48,0.7,1.202,1.05,2.164,1.05c1.225,0,2.1-0.612,2.624-1.838
		l2.669,1.356c-0.584,1.021-1.371,1.831-2.362,2.428c-0.991,0.598-2.085,0.896-3.28,0.896c-1.925,0-3.47-0.583-4.636-1.749
		c-1.167-1.166-1.75-2.8-1.75-4.898c0-2.012,0.598-3.623,1.794-4.833c1.195-1.21,2.682-1.815,4.461-1.815
		C51.812,494.661,53.707,495.696,54.874,497.767z M54.874,512.287l-2.843,1.487c-0.525-1.138-1.312-1.707-2.362-1.707
		c-1.924,0-2.886,1.27-2.886,3.806c0,1.138,0.247,2.049,0.743,2.733c0.495,0.686,1.209,1.028,2.143,1.028
		c1.225,0,2.1-0.613,2.624-1.837l2.669,1.355c-0.584,1.021-1.371,1.837-2.362,2.449s-2.085,0.919-3.28,0.919
		c-1.925,0-3.47-0.591-4.636-1.772c-1.167-1.18-1.75-2.806-1.75-4.876c0-2.041,0.598-3.659,1.794-4.854
		c1.195-1.195,2.682-1.793,4.461-1.793C51.841,509.226,53.736,510.246,54.874,512.287z M56.798,510.975
		c1.226-1.166,2.843-1.749,4.854-1.749c2.013,0,3.638,0.583,4.877,1.749c1.239,1.167,1.859,2.8,1.859,4.898
		c0,2.07-0.62,3.696-1.859,4.876c-1.239,1.182-2.864,1.772-4.877,1.772c-2.012,0-3.629-0.591-4.854-1.772
		c-1.225-1.18-1.836-2.806-1.836-4.876C54.962,513.774,55.573,512.142,56.798,510.975z M55.792,507.651v-12.641h3.674v1.27
		c0.875-0.788,2.041-1.226,3.499-1.312v3.279l-0.394,0.044c-1.167,0.147-1.976,0.358-2.428,0.634
		c-0.452,0.278-0.678,0.752-0.678,1.422v7.305H55.792z M63.927,513.074c-0.495-0.67-1.254-1.007-2.274-1.007
		s-1.778,0.344-2.274,1.028c-0.496,0.686-0.743,1.611-0.743,2.777c0,1.138,0.255,2.049,0.766,2.733
		c0.51,0.686,1.261,1.028,2.252,1.028c2.013,0,3.019-1.312,3.019-3.937C64.671,514.619,64.422,513.745,63.927,513.074z
		 M75.561,502.097h-8.703c0.028,1.107,0.32,1.917,0.875,2.428c0.554,0.51,1.181,0.765,1.88,0.765c0.642,0,1.166-0.159,1.575-0.481
		c0.407-0.32,0.918-0.903,1.53-1.749l2.756,1.443c-1.225,2.304-3.267,3.455-6.123,3.455c-1.896,0-3.405-0.583-4.526-1.749
		c-1.124-1.166-1.685-2.668-1.685-4.506c0-2.215,0.554-3.943,1.662-5.182c1.108-1.239,2.624-1.859,4.549-1.859
		c2.128,0,3.688,0.699,4.68,2.1C75.021,498.159,75.531,499.938,75.561,502.097z M66.813,499.821h5.03
		c-0.06-0.844-0.336-1.465-0.832-1.857c-0.495-0.395-1.05-0.591-1.661-0.591c-0.612,0-1.167,0.212-1.662,0.634
		C67.192,498.431,66.9,499.035,66.813,499.821z M69.132,522.171v-12.64h3.718v1.137c0.815-0.962,2.025-1.442,3.63-1.442
		c1.399,0,2.521,0.554,3.367,1.662c1.108-1.108,2.464-1.662,4.067-1.662c0.554,0,1.086,0.065,1.596,0.197
		c0.51,0.131,1.021,0.459,1.531,0.983c0.51,0.524,0.766,1.24,0.766,2.144v9.621h-3.718v-7.392c0-0.903-0.139-1.56-0.415-1.967
		c-0.277-0.408-0.766-0.613-1.466-0.613c-1.253,0-1.88,0.744-1.88,2.23v7.741H76.61v-7.916c0-1.37-0.598-2.056-1.793-2.056
		c-1.312,0-1.968,0.7-1.968,2.1v7.872H69.132z M87.588,498.335v6.691c0,1.138,0.116,2.012,0.35,2.625h-3.411
		c-0.117-0.438-0.205-0.875-0.263-1.312H84.22c-0.291,0.467-0.816,0.854-1.574,1.158c-0.759,0.307-1.502,0.46-2.23,0.46
		c-1.254,0-2.268-0.328-3.039-0.984c-0.772-0.655-1.159-1.567-1.159-2.733c0-1.457,0.531-2.521,1.597-3.193
		c1.063-0.67,2.689-1.165,4.876-1.486l1.355-0.219v-1.006c0-0.903-0.583-1.355-1.749-1.355c-0.612,0-1.064,0.124-1.355,0.371
		c-0.292,0.249-0.496,0.679-0.612,1.291h-3.543c0.088-2.653,1.822-3.98,5.204-3.98c1.837,0,3.229,0.277,4.177,0.831
		C87.113,496.046,87.588,496.994,87.588,498.335z M84.045,502.358v-0.875l-2.493,0.744c-1.195,0.291-1.793,0.831-1.793,1.618
		c0,0.962,0.583,1.443,1.75,1.443c0.758,0,1.37-0.255,1.837-0.765C83.812,504.014,84.045,503.292,84.045,502.358z M96.291,495.229
		v2.318h-2.187v6.166c0,0.847,0.394,1.269,1.181,1.269c0.495,0,0.859-0.028,1.094-0.087v2.931c-0.963,0.087-1.75,0.131-2.362,0.131
		c-2.42,0-3.63-1.253-3.63-3.761v-6.648h-1.793v-2.318h1.793v-3.63h3.718v3.63H96.291z M88.987,522.171v-12.64h3.718v1.137
		c0.787-0.962,1.996-1.442,3.63-1.442c1.399,0,2.521,0.554,3.368,1.662c1.078-1.108,2.419-1.662,4.023-1.662
		c0.553,0,1.086,0.065,1.597,0.197c0.509,0.131,1.02,0.459,1.53,0.983c0.51,0.524,0.766,1.24,0.766,2.144v9.621h-3.674v-7.392
		c0-0.903-0.146-1.56-0.438-1.967c-0.292-0.408-0.788-0.613-1.487-0.613c-1.225,0-1.837,0.744-1.837,2.23v7.741h-3.718v-7.916
		c0-1.37-0.598-2.056-1.793-2.056c-1.312,0-1.968,0.7-1.968,2.1v7.872H88.987z M101.408,493.567H97.69v-2.842h3.718V493.567z
		 M97.69,495.011h3.718v12.641H97.69V495.011z M106.394,507.651l-4.285-12.641h3.979l2.187,8.922h0.044l2.188-8.922h3.936
		l-4.33,12.641H106.394z M115.098,509.226c2.041,0,3.674,0.583,4.898,1.749c1.225,1.167,1.837,2.8,1.837,4.898
		c0,2.07-0.612,3.696-1.837,4.876c-1.225,1.182-2.857,1.772-4.898,1.772c-2.012,0-3.63-0.591-4.854-1.772
		c-1.225-1.18-1.837-2.806-1.837-4.876c0-2.099,0.612-3.731,1.837-4.898C111.468,509.809,113.086,509.226,115.098,509.226z
		 M117.372,513.074c-0.496-0.67-1.254-1.007-2.274-1.007s-1.779,0.344-2.274,1.028c-0.496,0.686-0.743,1.611-0.743,2.777
		c0,1.138,0.255,2.049,0.766,2.733c0.51,0.686,1.26,1.028,2.252,1.028c2.012,0,3.018-1.312,3.018-3.937
		C118.115,514.619,117.867,513.745,117.372,513.074z M126.381,502.097h-8.659c0,1.078,0.284,1.88,0.853,2.405
		c0.568,0.524,1.203,0.787,1.902,0.787c0.642,0,1.166-0.167,1.575-0.503c0.407-0.335,0.903-0.911,1.486-1.728l2.8,1.443
		c-1.284,2.304-3.324,3.455-6.123,3.455c-1.925,0-3.441-0.583-4.549-1.749c-1.108-1.166-1.662-2.668-1.662-4.506
		c0-2.215,0.554-3.943,1.662-5.182c1.107-1.239,2.624-1.859,4.549-1.859c2.128,0,3.688,0.699,4.68,2.1
		C125.885,498.159,126.381,499.938,126.381,502.097z M117.678,499.821h5.03c-0.06-0.844-0.336-1.465-0.831-1.857
		c-0.496-0.395-1.065-0.591-1.706-0.591c-0.584,0-1.13,0.218-1.64,0.656C118.021,498.467,117.736,499.064,117.678,499.821z
		 M122.839,522.171v-12.64h3.674v1.137c0.816-0.962,2.04-1.442,3.674-1.442c2.536,0,3.805,1.21,3.805,3.63v9.315h-3.674v-7.916
		c0-1.37-0.598-2.056-1.793-2.056c-1.342,0-2.012,0.7-2.012,2.1v7.872H122.839z M146.369,511.019l-2.275,2.23
		c-0.758-0.874-1.924-1.312-3.499-1.312c-1.049,0-1.574,0.321-1.574,0.963c0,0.379,0.256,0.671,0.766,0.875
		c0.51,0.203,1.137,0.364,1.881,0.48c0.744,0.117,1.479,0.277,2.209,0.481c0.729,0.204,1.348,0.576,1.858,1.115
		c0.51,0.539,0.766,1.246,0.766,2.121c0,1.545-0.555,2.689-1.662,3.433c-1.108,0.743-2.45,1.116-4.023,1.116
		c-1.342,0-2.465-0.19-3.367-0.569c-0.905-0.379-1.853-1.02-2.844-1.924l2.318-2.012c1.254,1.195,2.58,1.793,3.979,1.793
		c1.341,0,2.012-0.438,2.012-1.312c0-0.408-0.387-0.729-1.159-0.962s-1.633-0.408-2.58-0.524c-0.948-0.117-1.809-0.452-2.58-1.006
		c-0.773-0.554-1.159-1.342-1.159-2.362c0-1.486,0.531-2.595,1.597-3.324c1.063-0.728,2.324-1.093,3.783-1.093
		C142.709,509.226,144.56,509.823,146.369,511.019z"/>
</g>
<text transform="matrix(1 0 0 1 15.2588 571.8271)" fill="#FFFFFF" font-family="'Arial'" font-size="10">creativecommons.org/catalyst</text>
<rect x="15.75" y="95.627" fill="none" width="128.5" height="338.061"/>
<text transform="matrix(1 0 0 1 15.7505 117.1064)"><tspan x="0" y="0" font-family="'Arial-BoldMT'" font-size="30">Catalyst </tspan><tspan x="0" y="27" font-family="'Arial-BoldMT'" font-size="30">Grants: </tspan><tspan x="0" y="54" fill="#FFFF00" font-family="'Arial'" font-size="29">Ignite </tspan><tspan x="0" y="81" fill="#FFFF00" font-family="'Arial'" font-size="29">openness </tspan><tspan x="0" y="108" fill="#FFFF00" font-family="'Arial'" font-size="29">and </tspan><tspan x="0" y="135" fill="#FFFF00" font-family="'Arial'" font-size="29">innovation </tspan><tspan x="0" y="162" fill="#FFFF00" font-family="'Arial'" font-size="29">around </tspan><tspan x="0" y="189" fill="#FFFF00" font-family="'Arial'" font-size="29">the world.</tspan></text>
</svg>
