<?xml version="1.0" encoding="UTF-8" standalone="no"?>
<!-- Created with Inkscape (http://www.inkscape.org/) -->
<svg
   xmlns:dc="http://purl.org/dc/elements/1.1/"
   xmlns:cc="http://web.resource.org/cc/"
   xmlns:rdf="http://www.w3.org/1999/02/22-rdf-syntax-ns#"
   xmlns:svg="http://www.w3.org/2000/svg"
   xmlns="http://www.w3.org/2000/svg"
   xmlns:sodipodi="http://sodipodi.sourceforge.net/DTD/sodipodi-0.dtd"
   xmlns:inkscape="http://www.inkscape.org/namespaces/inkscape"
   width="468px"
   height="60px"
   id="svg28920"
   sodipodi:version="0.32"
   inkscape:version="0.45.1"
   inkscape:export-filename="/Users/rebecca/Documents/creative_commons/imagemarkers/plain/png/by-nc_plain72.png"
   inkscape:export-xdpi="72"
   inkscape:export-ydpi="72"
   sodipodi:docbase="/Users/rebecca/Documents/creative_commons/imagemarkers/plain/svg"
   sodipodi:docname="by-nc_plain.svg"
   inkscape:output_extension="org.inkscape.output.svg.inkscape">
  <defs
     id="defs28922" />
  <sodipodi:namedview
     id="base"
     pagecolor="#ffffff"
     bordercolor="#666666"
     borderopacity="1.0"
     inkscape:pageopacity="0.0"
     inkscape:pageshadow="2"
     inkscape:zoom="2.4"
     inkscape:cx="242.47963"
     inkscape:cy="30"
     inkscape:document-units="px"
     inkscape:current-layer="layer1"
     showborder="true"
     inkscape:window-width="832"
     inkscape:window-height="581"
     inkscape:window-x="30"
     inkscape:window-y="62" />
  <metadata
     id="metadata28925">
    <rdf:RDF>
      <cc:Work
         rdf:about="">
        <dc:format>image/svg+xml</dc:format>
        <dc:type
           rdf:resource="http://purl.org/dc/dcmitype/StillImage" />
      </cc:Work>
    </rdf:RDF>
  </metadata>
  <g
     id="layer1"
     inkscape:label="Layer 1"
     inkscape:groupmode="layer">
    <g
       style="fill:#000000;fill-opacity:1"
       id="g6307"
       transform="matrix(0.2716088,0,0,0.2716129,127.35754,-28.449424)">
      <path
         d="M 40.61133,208.38574 C 40.61133,207.24414 39.68457,206.31933 38.54492,206.31933 L 25.45557,206.31933 C 24.31446,206.31933 23.38916,207.24413 23.38916,208.38574 L 23.38916,221.47558 L 27.04004,221.47558 L 27.04004,236.97558 L 36.95996,236.97558 L 36.95996,221.47558 L 40.61133,221.47558 L 40.61133,208.38574 L 40.61133,208.38574 z "
         id="path6309"
         style="fill:#000000;fill-opacity:1" />
      <circle
         cx="32"
         cy="200.11914"
         r="4.47754"
         id="circle6311"
         sodipodi:cx="32"
         sodipodi:cy="200.11914"
         sodipodi:rx="4.47754"
         sodipodi:ry="4.47754"
         style="fill:#000000;fill-opacity:1" />
      <path
         clip-rule="evenodd"
         d="M 31.95996,184.30859 C 23.09521,184.30859 15.5918,187.40136 9.45166,193.58789 C 3.14941,199.98828 0,207.56152 0,216.30859 C 0,225.05468 3.14941,232.57617 9.45166,238.86914 C 15.75195,245.16211 23.25537,248.30859 31.95996,248.30859 C 40.77051,248.30859 48.40723,245.13671 54.86914,238.78906 C 60.95605,232.76367 64.00098,225.26953 64.00098,216.30859 C 64.00098,207.34765 60.90332,199.77441 54.70899,193.58789 C 48.51367,187.40137 40.93066,184.30859 31.95996,184.30859 z M 32.04004,190.06738 C 39.30274,190.06738 45.46973,192.62695 50.54395,197.74804 C 55.66993,202.81445 58.23243,209.00097 58.23243,216.30859 C 58.23243,223.66797 55.72364,229.77539 50.70313,234.6289 C 45.41602,239.85546 39.19532,242.46874 32.04004,242.46874 C 24.8833,242.46874 18.71582,239.8828 13.53613,234.70897 C 8.35644,229.53514 5.7666,223.40234 5.7666,216.30859 C 5.7666,209.21484 8.3833,203.02832 13.6167,197.74804 C 18.63672,192.62695 24.77686,190.06738 32.04004,190.06738 z "
         id="path6313"
         style="fill:#000000;fill-opacity:1;fill-rule:evenodd" />
    </g>
    <path
       d="M 159.86117,21.608781 C 162.29839,21.608781 164.35887,22.449048 166.04206,24.129851 C 167.72471,25.810917 168.56631,27.868472 168.56631,30.302781 C 168.56631,32.73709 167.73904,34.773154 166.08557,36.410444 C 164.32968,38.134757 162.25488,38.996781 159.86117,38.996781 C 157.49664,38.996781 155.45792,38.142185 153.74607,36.4322 C 152.03397,34.722479 151.17831,32.678987 151.17831,30.302781 C 151.17831,27.926575 152.03397,25.868757 153.74607,24.129851 C 155.4144,22.449048 157.45312,21.608781 159.86117,21.608781 z M 153.13425,27.967437 C 152.87476,28.701047 152.74502,29.479495 152.74502,30.302781 C 152.74502,32.230064 153.44865,33.896272 154.8559,35.301671 C 156.26343,36.707336 157.93866,37.410167 159.88292,37.410167 C 161.82718,37.410167 163.51727,36.700437 164.95371,35.28018 C 165.43447,34.815339 165.83033,34.30858 166.14128,33.759102 L 162.86405,32.299578 C 162.64171,33.402246 161.65897,34.147265 160.47087,34.234822 L 160.47087,35.574953 L 159.473,35.574953 L 159.473,34.234822 C 158.49715,34.223677 157.55447,33.824902 156.83386,33.193707 L 158.03152,31.986236 C 158.60806,32.529081 159.1846,32.772909 159.97207,32.772909 C 160.48201,32.772909 161.04767,32.573388 161.04767,31.908764 C 161.04767,31.673159 160.9564,31.509457 160.8126,31.38635 L 159.98401,31.017289 L 158.95165,30.557754 C 158.44117,30.330376 158.0087,30.137753 157.57464,29.944865 L 153.13425,27.967437 z M 159.88292,23.173372 C 157.91,23.173372 156.24167,23.869042 154.87792,25.260378 C 154.50648,25.634744 154.18385,26.026091 153.90951,26.434418 L 157.2329,27.914107 C 157.53325,26.992386 158.40933,26.433356 159.473,26.370743 L 159.473,25.030612 L 160.47087,25.030612 L 160.47087,26.370743 C 161.15858,26.403908 161.91262,26.592285 162.65551,27.168295 L 161.51358,28.342336 C 161.09225,28.043319 160.56002,27.832655 160.02726,27.832655 C 159.59505,27.832655 158.98508,27.965845 158.98508,28.508424 C 158.98508,28.591204 159.01267,28.664166 159.06308,28.72917 L 160.17477,29.223991 L 160.92722,29.559357 C 161.40851,29.773471 161.86804,29.978033 162.32333,30.180736 L 166.77805,32.164267 C 166.92557,31.580563 166.99933,30.959979 166.99933,30.302784 C 166.99933,28.317395 166.30313,26.636595 164.9102,25.260381 C 163.5316,23.869042 161.85637,23.173372 159.88292,23.173372 z "
       id="path43" />
    <g
       id="g24834"
       transform="matrix(0.3864876,0,0,0.3864876,-114.37345,20.532194)"
       inkscape:export-filename="/Users/rebecca/Documents/creative_commons/imagemarkers/by-nc-nd_plain.png"
       inkscape:export-xdpi="200"
       inkscape:export-ydpi="200">
      <text
         id="text6295"
         y="18.445837"
         x="742.46631"
         style="font-size:20px;fill:#000000;fill-opacity:1"
         xml:space="preserve"><tspan
           id="tspan6297"
           y="18.445837"
           x="742.46631"
           sodipodi:role="line">Except where otherwise noted, this work is licensed under </tspan></text>
      <text
         id="text6299"
         y="45.812576"
         x="742.66553"
         style="font-size:21px;font-weight:bold;fill:#000000;fill-opacity:1"
         xml:space="preserve"><tspan
           y="45.812576"
           x="742.66553"
           id="tspan6301"
           sodipodi:role="line">http://creativecommons.org/licenses/by-nc/3.0</tspan><tspan
           id="tspan6303"
           y="72.062576"
           x="742.66553"
           sodipodi:role="line" /></text>
    </g>
  </g>
</svg>
