<?xml version="1.0" encoding="UTF-8" standalone="no"?>
<!-- Created with Inkscape (http://www.inkscape.org/) -->
<svg
   xmlns:i="http://ns.adobe.com/AdobeIllustrator/10.0/"
   xmlns:dc="http://purl.org/dc/elements/1.1/"
   xmlns:cc="http://web.resource.org/cc/"
   xmlns:rdf="http://www.w3.org/1999/02/22-rdf-syntax-ns#"
   xmlns:svg="http://www.w3.org/2000/svg"
   xmlns="http://www.w3.org/2000/svg"
   xmlns:xlink="http://www.w3.org/1999/xlink"
   xmlns:sodipodi="http://sodipodi.sourceforge.net/DTD/sodipodi-0.dtd"
   xmlns:inkscape="http://www.inkscape.org/namespaces/inkscape"
   width="1200"
   height="900"
   id="svg5698"
   sodipodi:version="0.32"
   inkscape:version="0.45+devel"
   version="1.0"
   sodipodi:docname="Sharing_creative_works_IMG-11.svg"
   inkscape:output_extension="org.inkscape.output.svg.inkscape">
  <defs
     id="defs5700">
    <filter
       inkscape:collect="always"
       x="-0.11308901"
       width="1.2261781"
       y="-0.11308901"
       height="1.2261781"
       id="filter5055">
      <feGaussianBlur
         inkscape:collect="always"
         stdDeviation="7.7123127"
         id="feGaussianBlur5057" />
    </filter>
    <linearGradient
       id="linearGradient5011">
      <stop
         style="stop-color:#f6f1cf;stop-opacity:1;"
         offset="0"
         id="stop5013" />
      <stop
         style="stop-color:#e6df80;stop-opacity:1;"
         offset="1"
         id="stop5015" />
    </linearGradient>
    <linearGradient
       inkscape:collect="always"
       xlink:href="#linearGradient5011"
       id="linearGradient5017"
       x1="807.16382"
       y1="440"
       x2="903.83618"
       y2="582"
       gradientUnits="userSpaceOnUse" />
    <linearGradient
       inkscape:collect="always"
       id="linearGradient3101">
      <stop
         style="stop-color:#000000;stop-opacity:1;"
         offset="0"
         id="stop3103" />
      <stop
         style="stop-color:#000000;stop-opacity:0;"
         offset="1"
         id="stop3105" />
    </linearGradient>
    <linearGradient
       id="linearGradient3580">
      <stop
         style="stop-color:#304e5d;stop-opacity:1;"
         offset="0"
         id="stop3582" />
      <stop
         style="stop-color:#010614;stop-opacity:1;"
         offset="1"
         id="stop3584" />
    </linearGradient>
    <radialGradient
       inkscape:collect="always"
       xlink:href="#linearGradient3580"
       id="radialGradient23038"
       cx="594.49603"
       cy="493.284"
       fx="594.49603"
       fy="493.284"
       r="346.2814"
       gradientTransform="matrix(2.2226693,0,0,1.8766485,-725.36808,-306.89429)"
       gradientUnits="userSpaceOnUse" />
    <radialGradient
       inkscape:collect="always"
       xlink:href="#linearGradient3101"
       id="radialGradient21581"
       gradientUnits="userSpaceOnUse"
       gradientTransform="matrix(1,0,0,0.351613,0,16.55413)"
       cx="17.3125"
       cy="25.53125"
       fx="17.3125"
       fy="25.53125"
       r="9.6875" />
  </defs>
  <sodipodi:namedview
     id="base"
     pagecolor="#ffffff"
     bordercolor="#666666"
     borderopacity="1.0"
     gridtolerance="10000"
     guidetolerance="10"
     objecttolerance="10"
     inkscape:pageopacity="0.0"
     inkscape:pageshadow="2"
     inkscape:zoom="0.25"
     inkscape:cx="554.25551"
     inkscape:cy="499.4422"
     inkscape:document-units="px"
     inkscape:current-layer="layer1"
     borderlayer="false"
     showborder="true"
     inkscape:window-width="1113"
     inkscape:window-height="734"
     inkscape:window-x="45"
     inkscape:window-y="22"
     showguides="false"
     inkscape:guide-bbox="true">
    <sodipodi:guide
       orientation="horizontal"
       position="436"
       id="guide23063" />
    <sodipodi:guide
       orientation="vertical"
       position="604"
       id="guide23065" />
  </sodipodi:namedview>
  <metadata
     id="metadata5703">
    <rdf:RDF>
      <cc:Work
         rdf:about="">
        <dc:format>image/svg+xml</dc:format>
        <dc:type
           rdf:resource="http://purl.org/dc/dcmitype/StillImage" />
        <cc:license
           rdf:resource="http://creativecommons.org/licenses/publicdomain/" />
        <dc:title>Sharing Creative Works 11</dc:title>
        <dc:creator>
          <cc:Agent>
            <dc:title>Alex Roberts &amp; Rebecca Rojer</dc:title>
          </cc:Agent>
        </dc:creator>
        <dc:rights>
          <cc:Agent>
            <dc:title>Public Domain. CC circle icon is a registered trademark of Creative Commons Corporation.</dc:title>
          </cc:Agent>
        </dc:rights>
        <dc:publisher>
          <cc:Agent>
            <dc:title>Creative Commons</dc:title>
          </cc:Agent>
        </dc:publisher>
        <dc:source></dc:source>
        <dc:subject>
          <rdf:Bag>
            <rdf:li>creative commons</rdf:li>
            <rdf:li>cc</rdf:li>
            <rdf:li>licensing</rdf:li>
            <rdf:li>copyright</rdf:li>
            <rdf:li>tutorial</rdf:li>
            <rdf:li>documentation</rdf:li>
            <rdf:li>education</rdf:li>
          </rdf:Bag>
        </dc:subject>
        <dc:description>http://creativecommons.org/projects/Sharing_Creative_Works</dc:description>
      </cc:Work>
      <cc:License
         rdf:about="http://creativecommons.org/licenses/publicdomain/">
        <cc:permits
           rdf:resource="http://web.resource.org/cc/Reproduction" />
        <cc:permits
           rdf:resource="http://web.resource.org/cc/Distribution" />
        <cc:permits
           rdf:resource="http://web.resource.org/cc/DerivativeWorks" />
      </cc:License>
    </rdf:RDF>
  </metadata>
  <g
     inkscape:label="Layer 1"
     inkscape:groupmode="layer"
     id="layer1">
    <rect
       style="opacity:1;fill:#000000;fill-opacity:1;stroke:none;stroke-width:0.5;stroke-linecap:round;stroke-linejoin:round;stroke-miterlimit:4;stroke-dasharray:none;stroke-dashoffset:0;stroke-opacity:0.85326089"
       id="rect14164"
       width="1200"
       height="900"
       x="0"
       y="0" />
    <path
       style="opacity:0.97905734000000000;fill:url(#radialGradient23038);fill-opacity:1;stroke:none;stroke-width:2;stroke-linejoin:round;stroke-miterlimit:4;stroke-dashoffset:0;stroke-opacity:0.21195649000000000"
       d="M 18.839201,75.35055 L 1181,51.7661 L 1167.2814,814.12792 L 11,825.88671 L 18.839201,75.35055 z"
       id="rect4391"
       sodipodi:nodetypes="ccccc" />
    <g
       id="g3900"
       transform="matrix(0.6767671,0,0,0.6648303,-46.52715,343.67714)"
       clip-path="none">
      <g
         transform="matrix(3.1218769,0,0,3.1218769,-3892.4926,-810.57403)"
         id="g3922" />
    </g>
    <g
       id="g8062"
       transform="translate(205.33252,13.472393)"
       clip-path="none" />
    <path
       sodipodi:type="star"
       style="opacity:0.24607329;fill:url(#linearGradient5017);fill-opacity:1;stroke:none;stroke-width:4;stroke-linecap:round;stroke-linejoin:round;stroke-miterlimit:4;stroke-dasharray:4, 8;stroke-dashoffset:0;stroke-opacity:0.85326089;filter:url(#filter5055)"
       id="path4432"
       sodipodi:sides="8"
       sodipodi:cx="870"
       sodipodi:cy="537"
       sodipodi:r1="84.723076"
       sodipodi:r2="51.621319"
       sodipodi:arg1="0.52359878"
       sodipodi:arg2="0.91629786"
       inkscape:flatsided="false"
       inkscape:rounded="0"
       inkscape:randomized="0"
       d="M 943.37234,579.36154 L 901.42507,577.95395 L 891.92795,618.83621 L 863.26207,588.17969 L 827.63846,610.37234 L 829.04605,568.42507 L 788.16379,558.92795 L 818.82031,530.26207 L 796.62766,494.63846 L 838.57493,496.04605 L 848.07205,455.16379 L 876.73793,485.82031 L 912.36154,463.62766 L 910.95395,505.57493 L 951.83621,515.07205 L 921.17969,543.73793 L 943.37234,579.36154 z"
       transform="matrix(0.8391728,0,0,0.8391728,452.91584,716.01897)" />
    <g
       id="g17355"
       transform="matrix(0.3504163,0.3675937,0.3675937,-0.3504163,1170.2689,595.29625)"
       inkscape:transform-center-x="-103.4093"
       inkscape:transform-center-y="-150.95599"
       style="opacity:0.3">
      <path
         style="fill:none;fill-rule:evenodd;stroke:#ffffff;stroke-width:13.83360004;stroke-linecap:butt;stroke-linejoin:miter;stroke-miterlimit:4;stroke-dasharray:13.83359913, 13.83359913;stroke-dashoffset:0;stroke-opacity:1"
         d="M 611.61774,489.63503 C 609.63925,745.82522 270.13036,1179.8531 -232.44174,652.64494"
         id="path17357"
         sodipodi:nodetypes="cc" />
      <path
         inkscape:transform-center-y="-1.1901133"
         inkscape:transform-center-x="6.9717528"
         sodipodi:nodetypes="cccc"
         id="path17359"
         d="M 639.98425,492.81614 C 637.74125,492.33937 582.86965,492.57872 582.86965,492.57872 L 611.77048,464.14277 L 639.98425,492.81614 z"
         style="fill:#ffffff;fill-opacity:1;fill-rule:evenodd;stroke:none;stroke-width:1px;stroke-linecap:butt;stroke-linejoin:miter;stroke-opacity:1" />
    </g>
    <g
       inkscape:export-ydpi="61.943115"
       inkscape:export-xdpi="61.943115"
       inkscape:export-filename="/mnt/hgfs/Bov/Documents/Work/2007/cc/campaign/ideas/art/heart.png"
       id="g21563"
       transform="matrix(9.0243991,0,0,9.0243991,-146.002,238.27421)">
      <path
         transform="matrix(1.4562797,0,0,1.4562797,57.009919,0.5448224)"
         d="M 27,25.53125 A 9.6875,3.40625 0 1 1 7.625,25.53125 A 9.6875,3.40625 0 1 1 27,25.53125 z"
         sodipodi:ry="3.40625"
         sodipodi:rx="9.6875"
         sodipodi:cy="25.53125"
         sodipodi:cx="17.3125"
         id="path21565"
         style="opacity:0.40909089;color:#000000;fill:url(#radialGradient21581);fill-opacity:1;fill-rule:nonzero;stroke:none;stroke-width:1.10533953;stroke-linecap:butt;stroke-linejoin:miter;marker:none;marker-start:none;marker-mid:none;marker-end:none;stroke-miterlimit:4;stroke-dasharray:none;stroke-dashoffset:0;stroke-opacity:1;visibility:visible;display:inline;overflow:visible"
         sodipodi:type="arc" />
      <g
         transform="translate(57.933818,-4.6994147)"
         id="g21567">
        <path
           sodipodi:type="arc"
           style="fill:#fafafa;fill-opacity:1;stroke:none;stroke-width:1;stroke-miterlimit:4;stroke-dasharray:none;stroke-opacity:1"
           id="path21569"
           sodipodi:cx="110.84833"
           sodipodi:cy="20.602827"
           sodipodi:rx="28.971722"
           sodipodi:ry="28.971722"
           d="M 139.82005,20.602827 A 28.971722,28.971722 0 1 1 81.876606,20.602827 A 28.971722,28.971722 0 1 1 139.82005,20.602827 z"
           transform="matrix(0.6644531,0,0,0.6644531,-49.365571,8.71413)" />
        <path
           style="fill:#171a1b;fill-opacity:1;fill-rule:evenodd"
           id="path21571"
           d="M 24.042362,18.870784 C 22.839669,16.680759 20.787698,15.809177 18.405827,15.809177 C 14.93884,15.809177 12.179362,18.258194 12.179362,22.404078 C 12.179362,26.619742 14.773554,28.998978 18.524079,28.998978 C 20.930144,28.998978 22.981443,27.679864 24.113585,25.67838 L 21.471693,24.335782 C 20.881765,25.748831 19.986129,26.17288 18.85398,26.17288 C 16.896075,26.17288 16.000437,24.547806 16.000437,22.404748 C 16.000437,20.261691 16.754977,18.635947 18.85398,18.635947 C 19.419716,18.635947 20.551864,18.942577 21.212337,20.354955 L 24.042362,18.870784 z"
           clip-rule="evenodd"
           i:knockout="Off" />
        <path
           style="fill:#171a1b;fill-opacity:1;fill-rule:evenodd"
           id="path21573"
           d="M 36.325974,18.870784 C 35.122609,16.680759 33.07131,15.809177 30.689438,15.809177 C 27.222448,15.809177 24.462303,18.258194 24.462303,22.404078 C 24.462303,26.619742 27.057165,28.998978 30.80702,28.998978 C 33.213077,28.998978 35.264377,27.679864 36.396525,25.67838 L 33.754627,24.335782 C 33.165376,25.748831 32.269062,26.17288 31.136921,26.17288 C 29.179688,26.17288 28.282703,24.547806 28.282703,22.404748 C 28.282703,20.261691 29.037913,18.635947 31.136921,18.635947 C 31.702656,18.635947 32.834804,18.942577 33.495948,20.354955 L 36.325974,18.870784 z"
           clip-rule="evenodd"
           i:knockout="Off" />
        <path
           style="fill:#16191a;fill-opacity:1;fill-rule:evenodd;stroke:none;stroke-width:1.015625;stroke-opacity:1"
           id="path21575"
           d="M 24.258715,1.1412433 C 18.425308,1.1412433 13.292023,3.297049 9.325146,7.3161206 C 5.2420312,11.452611 3.0254449,16.811597 3.0254449,22.404078 C 3.0254449,28.054262 5.1835759,33.297171 9.2673625,37.375287 C 13.350477,41.452733 18.659129,43.666242 24.258715,43.666242 C 29.8583,43.666242 35.283865,41.452733 39.483887,37.316913 C 43.450765,33.413918 45.550443,28.229384 45.550443,22.404078 C 45.550443,16.637146 43.450765,11.394237 39.425435,7.3744944 C 35.342317,3.297049 30.092121,1.1412433 24.258715,1.1412433 z M 24.317173,4.9865352 C 29.100399,4.9865352 33.358878,6.792098 36.684094,10.112697 C 39.950187,13.374921 41.700476,17.685862 41.700476,22.404078 C 41.700476,27.180667 40.008639,31.374861 36.741882,34.579382 C 33.299755,37.957684 28.866584,39.763917 24.316502,39.763917 C 19.707962,39.763917 15.391027,37.958355 12.066483,34.637756 C 8.7412678,31.316486 6.8747393,26.947843 6.8747393,22.404078 C 6.8747393,17.801939 8.7412678,13.433295 12.066483,10.054323 C 15.333244,6.7343952 19.533942,4.9865352 24.317173,4.9865352 z"
           clip-rule="evenodd"
           i:knockout="Off" />
      </g>
    </g>
  </g>
</svg>
