<?xml version="1.0" encoding="UTF-8" standalone="no"?>
<!-- Created with Inkscape (http://www.inkscape.org/) -->
<svg
   xmlns:i="http://ns.adobe.com/AdobeIllustrator/10.0/"
   xmlns:dc="http://purl.org/dc/elements/1.1/"
   xmlns:cc="http://web.resource.org/cc/"
   xmlns:rdf="http://www.w3.org/1999/02/22-rdf-syntax-ns#"
   xmlns:svg="http://www.w3.org/2000/svg"
   xmlns="http://www.w3.org/2000/svg"
   xmlns:sodipodi="http://sodipodi.sourceforge.net/DTD/sodipodi-0.dtd"
   xmlns:inkscape="http://www.inkscape.org/namespaces/inkscape"
   width="744.09448819"
   height="1052.3622047"
   id="svg30791"
   sodipodi:version="0.32"
   inkscape:version="0.45.1"
   sodipodi:docbase="/Users/rebecca/Documents/creative_commons/sugar"
   sodipodi:docname="journal_with_cc-03.svg"
   inkscape:output_extension="org.inkscape.output.svg.inkscape"
   inkscape:export-filename="/Users/rebecca/Documents/creative_commons/sugar/journal_with_cc-03.png"
   inkscape:export-xdpi="300"
   inkscape:export-ydpi="300">
  <defs
     id="defs30793" />
  <sodipodi:namedview
     id="base"
     pagecolor="#ffffff"
     bordercolor="#666666"
     borderopacity="1.0"
     gridtolerance="10000"
     guidetolerance="10"
     objecttolerance="10"
     inkscape:pageopacity="0.0"
     inkscape:pageshadow="2"
     inkscape:zoom="1.979899"
     inkscape:cx="481.82264"
     inkscape:cy="725.50025"
     inkscape:document-units="px"
     inkscape:current-layer="layer1"
     inkscape:window-width="1209"
     inkscape:window-height="738"
     inkscape:window-x="112"
     inkscape:window-y="29" />
  <metadata
     id="metadata30796">
    <rdf:RDF>
      <cc:Work
         rdf:about="">
        <dc:format>image/svg+xml</dc:format>
        <dc:type
           rdf:resource="http://purl.org/dc/dcmitype/StillImage" />
      </cc:Work>
    </rdf:RDF>
  </metadata>
  <g
     inkscape:label="Layer 1"
     inkscape:groupmode="layer"
     id="layer1">
    <g
       id="g25940"
       transform="translate(1061.2857,11.104858)">
      <rect
         y="190.78516"
         x="-896.59467"
         height="326.44333"
         width="439.06238"
         id="rect2517"
         style="opacity:1;fill:#c0c0c0;fill-opacity:1;fill-rule:evenodd;stroke:#c0c0c0;stroke-width:1.06462216px;stroke-linecap:butt;stroke-linejoin:miter;stroke-opacity:1" />
      <rect
         y="188.89514"
         x="-896.88275"
         height="27.550787"
         width="439.69135"
         id="rect5434"
         style="opacity:1;fill:#404040;fill-opacity:1" />
    </g>
    <g
       id="g15140"
       transform="translate(653.96399,351.04844)">
      <g
         id="g15144"
         transform="translate(415.99207,-113.92857)">
        <rect
           style="opacity:1;fill:#050202;fill-opacity:1;stroke:#000000;stroke-width:1.00800276;stroke-miterlimit:4;stroke-dasharray:none;stroke-opacity:1"
           id="rect7380"
           width="219.01105"
           height="16.734337"
           x="-849.16638"
           y="-31.253353"
           ry="8.3671684" />
        <rect
           style="opacity:1;fill:#ffffff;fill-opacity:1;stroke:#f8eeee;stroke-width:0.90250134;stroke-miterlimit:4;stroke-dasharray:none;stroke-opacity:1"
           id="rect13200"
           width="45.900833"
           height="12.289721"
           x="-704.99408"
           y="-29.279779"
           ry="6.1448603" />
      </g>
    </g>
    <g
       id="g19061"
       transform="translate(1065.5556,259.28695)">
      <path
         transform="matrix(1.0622226,0,0,1.0622226,56.196647,-21.489477)"
         d="M -858.99443 -21.715475 A 4.4755368 4.4755368 0 1 1  -867.94551,-21.715475 A 4.4755368 4.4755368 0 1 1  -858.99443 -21.715475 z"
         sodipodi:ry="4.4755368"
         sodipodi:rx="4.4755368"
         sodipodi:cy="-21.715475"
         sodipodi:cx="-863.46997"
         id="path17092"
         style="opacity:1;fill:#ffffff;fill-opacity:1;stroke:#000000;stroke-width:0.97000003;stroke-miterlimit:4;stroke-dasharray:none;stroke-opacity:1"
         sodipodi:type="arc" />
      <g
         transform="translate(2.7281746,-21.71627)"
         id="g19048">
        <path
           style="fill:none;fill-rule:evenodd;stroke:#000000;stroke-width:1px;stroke-linecap:butt;stroke-linejoin:miter;stroke-opacity:1"
           d="M -862.64881,-25.208334 L -865.59524,-22.589286"
           id="path19042" />
        <path
           style="fill:none;fill-rule:evenodd;stroke:#000000;stroke-width:1px;stroke-linecap:butt;stroke-linejoin:miter;stroke-opacity:1"
           d="M -865.59524,-23.244048 L -862.86706,-20.734128"
           id="path19046" />
      </g>
    </g>
    <g
       id="g19067"
       transform="matrix(-1,0,0,1,-405.9842,259.9302)">
      <path
         transform="matrix(1.0622226,0,0,1.0622226,56.196647,-21.489477)"
         d="M -858.99443 -21.715475 A 4.4755368 4.4755368 0 1 1  -867.94551,-21.715475 A 4.4755368 4.4755368 0 1 1  -858.99443 -21.715475 z"
         sodipodi:ry="4.4755368"
         sodipodi:rx="4.4755368"
         sodipodi:cy="-21.715475"
         sodipodi:cx="-863.46997"
         id="path19069"
         style="opacity:1;fill:#ffffff;fill-opacity:1;stroke:#000000;stroke-width:0.97000003;stroke-miterlimit:4;stroke-dasharray:none;stroke-opacity:1"
         sodipodi:type="arc" />
      <g
         transform="translate(2.7281746,-21.71627)"
         id="g19071">
        <path
           style="fill:none;fill-rule:evenodd;stroke:#000000;stroke-width:1px;stroke-linecap:butt;stroke-linejoin:miter;stroke-opacity:1"
           d="M -862.64881,-25.208334 L -865.59524,-22.589286"
           id="path19073" />
        <path
           style="fill:none;fill-rule:evenodd;stroke:#000000;stroke-width:1px;stroke-linecap:butt;stroke-linejoin:miter;stroke-opacity:1"
           d="M -865.59524,-23.244048 L -862.86706,-20.734128"
           id="path19075" />
      </g>
    </g>
    <g
       id="g30924"
       transform="matrix(0.9866806,0,0,0.9828396,1091.7813,101.61387)">
      <rect
         y="100.5743"
         x="-579.45496"
         height="27.094622"
         width="26.985493"
         id="rect19077"
         style="opacity:1;fill:#a6a6a6;fill-opacity:1;stroke:#a6a6a6;stroke-width:0.93887192;stroke-miterlimit:4;stroke-dasharray:none;stroke-opacity:1" />
      <g
         id="g30916">
        <rect
           style="opacity:1;fill:#000000;fill-opacity:1;stroke:#000000;stroke-width:0.51678085;stroke-miterlimit:4;stroke-dasharray:none;stroke-opacity:1"
           id="rect21017"
           width="15.512743"
           height="0.45321926"
           x="-573.66595"
           y="106.42674" />
        <rect
           style="opacity:1;fill:#000000;fill-opacity:1;stroke:#000000;stroke-width:0.51678085;stroke-miterlimit:4;stroke-dasharray:none;stroke-opacity:1"
           id="rect22959"
           width="15.512743"
           height="0.45321926"
           x="-573.66595"
           y="109.42674" />
        <rect
           style="opacity:1;fill:#000000;fill-opacity:1;stroke:#000000;stroke-width:0.51678085;stroke-miterlimit:4;stroke-dasharray:none;stroke-opacity:1"
           id="rect22961"
           width="15.512743"
           height="0.45321926"
           x="-573.66595"
           y="112.42674" />
        <rect
           style="opacity:1;fill:#000000;fill-opacity:1;stroke:#000000;stroke-width:0.51678085;stroke-miterlimit:4;stroke-dasharray:none;stroke-opacity:1"
           id="rect22963"
           width="15.512743"
           height="0.45321926"
           x="-573.66595"
           y="115.42674" />
        <rect
           style="opacity:1;fill:#000000;fill-opacity:1;stroke:#000000;stroke-width:0.51678085;stroke-miterlimit:4;stroke-dasharray:none;stroke-opacity:1"
           id="rect22965"
           width="15.512743"
           height="0.45321926"
           x="-573.66595"
           y="118.42674" />
        <rect
           style="opacity:1;fill:#000000;fill-opacity:1;stroke:#000000;stroke-width:0.51678085;stroke-miterlimit:4;stroke-dasharray:none;stroke-opacity:1"
           id="rect22967"
           width="15.512743"
           height="0.45321926"
           x="-573.66595"
           y="121.42674" />
      </g>
    </g>
    <g
       id="g25912"
       transform="translate(1086.5055,11.105765)">
      <rect
         y="204.31992"
         x="-532.68005"
         height="5.360157"
         width="5.360157"
         id="rect25898"
         style="opacity:1;fill:#ffffff;fill-opacity:1;stroke:#ffffff;stroke-width:0.63984209;stroke-miterlimit:4;stroke-dasharray:none;stroke-opacity:1" />
      <rect
         y="204.31992"
         x="-524.68005"
         height="5.360157"
         width="5.360157"
         id="rect25906"
         style="opacity:1;fill:#ffffff;fill-opacity:1;stroke:#ffffff;stroke-width:0.63984209;stroke-miterlimit:4;stroke-dasharray:none;stroke-opacity:1" />
      <rect
         y="196.31992"
         x="-524.68005"
         height="5.360157"
         width="5.360157"
         id="rect25908"
         style="opacity:1;fill:#ffffff;fill-opacity:1;stroke:#ffffff;stroke-width:0.63984209;stroke-miterlimit:4;stroke-dasharray:none;stroke-opacity:1" />
      <rect
         y="196.31992"
         x="-532.68005"
         height="5.360157"
         width="5.360157"
         id="rect25910"
         style="opacity:1;fill:#ffffff;fill-opacity:1;stroke:#ffffff;stroke-width:0.63984209;stroke-miterlimit:4;stroke-dasharray:none;stroke-opacity:1" />
    </g>
    <rect
       style="fill:#ffffff;fill-opacity:1;stroke:#ffffff;stroke-width:0.83595127;stroke-miterlimit:4;stroke-dasharray:none;stroke-opacity:1"
       id="rect25918"
       width="12.94418"
       height="12.94418"
       x="580.92352"
       y="207.53391" />
    <g
       id="g31913"
       transform="translate(1074.2857,100)">
      <rect
         ry="7.7142301"
         y="151.52995"
         x="-879.4649"
         height="26.001469"
         width="380.17276"
         id="rect26981"
         style="opacity:1;fill:#ffffff;fill-opacity:1;stroke:#ffffff;stroke-width:1.07017922;stroke-miterlimit:4;stroke-dasharray:none;stroke-opacity:1" />
      <rect
         ry="7.7142301"
         y="184.51332"
         x="-879.4649"
         height="26.001469"
         width="380.17276"
         id="rect28921"
         style="opacity:1;fill:#ffffff;fill-opacity:1;stroke:#ffffff;stroke-width:1.07017922;stroke-miterlimit:4;stroke-dasharray:none;stroke-opacity:1" />
      <rect
         ry="7.7142301"
         y="217.4967"
         x="-879.4649"
         height="26.001469"
         width="380.17276"
         id="rect28923"
         style="opacity:1;fill:#ffffff;fill-opacity:1;stroke:#ffffff;stroke-width:1.07017922;stroke-miterlimit:4;stroke-dasharray:none;stroke-opacity:1" />
      <rect
         ry="7.7142301"
         y="250.48007"
         x="-879.4649"
         height="26.001469"
         width="380.17276"
         id="rect28925"
         style="opacity:1;fill:#ffffff;fill-opacity:1;stroke:#ffffff;stroke-width:1.07017922;stroke-miterlimit:4;stroke-dasharray:none;stroke-opacity:1" />
      <rect
         ry="7.7142301"
         y="283.46344"
         x="-879.4649"
         height="26.001469"
         width="380.17276"
         id="rect28927"
         style="opacity:1;fill:#ffffff;fill-opacity:1;stroke:#ffffff;stroke-width:1.07017922;stroke-miterlimit:4;stroke-dasharray:none;stroke-opacity:1" />
    </g>
    <g
       id="g14134"
       transform="translate(969.2857,100)">
      <rect
         ry="0"
         y="100.4715"
         x="-497.12872"
         height="26.657221"
         width="26.657221"
         id="rect3410"
         style="opacity:1;fill:#000000;fill-opacity:1;stroke:#000000;stroke-width:0.94299537;stroke-miterlimit:4;stroke-dasharray:none;stroke-opacity:1" />
      <g
         transform="matrix(0.913759,0,0,0.9208351,68.614849,45.27)"
         id="g14118">
        <rect
           style="fill:#ffffff;fill-opacity:1;stroke:#ffffff;stroke-width:0.36319953;stroke-miterlimit:4;stroke-dasharray:none;stroke-opacity:1"
           id="rect2413"
           width="3.6762469"
           height="4.9697404"
           x="-606.39026"
           y="71.936821"
           ry="0.2515623" />
        <g
           id="g2415"
           transform="matrix(0.3507848,0,0,0.3507848,-615.77655,63.196579)"
           style="fill:#ffffff;fill-opacity:1;stroke:#ffffff;stroke-opacity:1">
          <g
             style="fill:#ffffff;fill-opacity:1;stroke:#ffffff;stroke-opacity:1"
             transform="translate(-4.1225e-2,0)"
             id="g2417">
            <path
               style="fill:#ffffff;fill-opacity:1;stroke:#ffffff;stroke-opacity:1"
               id="path2419"
               d="M 48.443278,22.069424 L 48.760002,16.893103 C 48.792894,16.3518 48.381028,15.886284 47.839847,15.853089 L 42.641837,15.535246 C 42.100837,15.502476 41.635211,15.914438 41.602042,16.455207 C 41.569272,16.996208 41.981041,17.461613 42.521905,17.494892 L 45.354707,17.66811 L 40.522776,21.943175 C 40.073692,22.340503 39.998753,22.996727 40.356447,23.401013 C 40.71414,23.805298 41.374701,23.810982 41.823786,23.413653 L 46.655498,19.138782 L 46.483632,21.949494 C 46.450435,22.490676 46.8623,22.95619 47.403592,22.989289 C 47.944469,23.022361 48.410204,22.610303 48.443278,22.069424 z "
               i:knockout="Off" />
            <path
               style="fill:#ffffff;fill-opacity:1;stroke:#ffffff;stroke-opacity:1"
               id="path2421"
               d="M 15.639172,22.069424 L 15.322448,16.893103 C 15.289556,16.3518 15.701422,15.886284 16.242603,15.853089 L 21.440613,15.535246 C 21.981613,15.502476 22.447239,15.914438 22.480408,16.455207 C 22.513178,16.996208 22.101409,17.461613 21.560545,17.494892 L 18.727743,17.66811 L 23.559674,21.943175 C 24.008758,22.340503 24.083697,22.996727 23.726003,23.401013 C 23.36831,23.805298 22.707749,23.810982 22.258664,23.413653 L 17.426952,19.138782 L 17.598818,21.949494 C 17.632015,22.490676 17.22015,22.95619 16.678858,22.989289 C 16.137981,23.022361 15.672246,22.610303 15.639172,22.069424 z "
               i:knockout="Off" />
          </g>
          <g
             style="fill:#ffffff;fill-opacity:1;stroke:#ffffff;stroke-opacity:1"
             id="g2423">
            <path
               style="fill:#ffffff;fill-opacity:1;stroke:#ffffff;stroke-opacity:1"
               id="path2425"
               d="M 50.859805,36.381429 L 54.595769,32.784599 C 54.986282,32.408313 54.998049,31.786865 54.622058,31.39621 L 51.010017,27.644745 C 50.633872,27.254528 50.012276,27.242758 49.621921,27.618462 C 49.231703,27.994608 49.219939,28.615911 49.59564,29.006412 L 51.564123,31.050878 L 45.113633,30.928741 C 44.514119,30.917388 44.014883,31.349835 44.004664,31.889545 C 43.994445,32.429255 44.476948,32.880435 45.076464,32.891787 L 51.526661,33.013919 L 49.498137,34.967053 C 49.107483,35.343043 49.095716,35.964491 49.471854,36.355148 C 49.847704,36.745506 50.469445,36.757279 50.859805,36.381429 z "
               i:knockout="Off" />
            <path
               style="fill:#ffffff;fill-opacity:1;stroke:#ffffff;stroke-opacity:1"
               id="path2427"
               d="M 13.136167,36.381429 L 9.4002026,32.784599 C 9.0096896,32.408313 8.9979226,31.786865 9.3739136,31.39621 L 12.985955,27.644745 C 13.3621,27.254528 13.983696,27.242758 14.374051,27.618462 C 14.764269,27.994608 14.776033,28.615911 14.400332,29.006412 L 12.431849,31.050878 L 18.882339,30.928741 C 19.481853,30.917388 19.981089,31.349835 19.991308,31.889545 C 20.001527,32.429255 19.519024,32.880435 18.919508,32.891787 L 12.469311,33.013919 L 14.497835,34.967053 C 14.888489,35.343043 14.900256,35.964491 14.524118,36.355148 C 14.148268,36.745506 13.526527,36.757279 13.136167,36.381429 z "
               i:knockout="Off" />
          </g>
          <g
             style="fill:#ffffff;fill-opacity:1;stroke:#ffffff;stroke-opacity:1"
             id="g2429">
            <path
               style="fill:#ffffff;fill-opacity:1;stroke:#ffffff;stroke-opacity:1"
               id="path2431"
               d="M 42.964098,48.132504 L 48.120056,47.575091 C 48.659192,47.516576 49.048896,47.032357 48.9907,46.49329 L 48.430747,41.315763 C 48.372162,40.776947 47.887829,40.387151 47.349174,40.445303 C 46.810357,40.503888 46.420745,40.987994 46.478805,41.526762 L 46.783967,44.348401 L 41.757889,40.303369 C 41.290762,39.927419 40.631275,39.963794 40.292829,40.384324 C 39.954383,40.804854 40.059756,41.456981 40.526885,41.832931 L 45.552734,45.877779 L 42.753098,46.180562 C 42.214031,46.238757 41.824328,46.722976 41.882638,47.262135 C 41.940904,47.800881 42.42535,48.190769 42.964098,48.132504 z "
               i:knockout="Off" />
            <path
               style="fill:#ffffff;fill-opacity:1;stroke:#ffffff;stroke-opacity:1"
               id="path2433"
               d="M 21.035902,48.132504 L 15.879944,47.57509 C 15.340808,47.516575 14.951104,47.032356 15.0093,46.49329 L 15.569253,41.315763 C 15.627838,40.776947 16.112171,40.387151 16.650826,40.445302 C 17.189643,40.503888 17.579255,40.987993 17.521195,41.526762 L 17.216033,44.348401 L 22.242111,40.303369 C 22.709238,39.927419 23.368725,39.963793 23.707171,40.384324 C 24.045617,40.804854 23.940244,41.456981 23.473115,41.832931 L 18.447266,45.877779 L 21.246902,46.180562 C 21.785969,46.238756 22.175672,46.722976 22.117362,47.262134 C 22.059096,47.800881 21.57465,48.190769 21.035902,48.132504 z "
               i:knockout="Off" />
          </g>
          <g
             style="fill:#ffffff;fill-opacity:1;stroke:#ffffff;stroke-opacity:1"
             transform="translate(0,0.1818182)"
             id="g2435">
            <path
               style="fill:#ffffff;fill-opacity:1;stroke:#ffffff;stroke-opacity:1"
               id="path2437"
               d="M 27.618571,50.500197 L 31.215401,54.236161 C 31.591687,54.626674 32.213135,54.638441 32.60379,54.26245 L 36.355255,50.650409 C 36.745472,50.274264 36.757242,49.652668 36.381538,49.262313 C 36.005392,48.872095 35.384089,48.860331 34.993588,49.236032 L 32.949122,51.204515 L 33.071259,44.754025 C 33.082612,44.154511 32.650165,43.655275 32.110455,43.645056 C 31.570745,43.634837 31.119565,44.11734 31.108213,44.716856 L 30.986081,51.167053 L 29.032947,49.138529 C 28.656957,48.747875 28.035509,48.736108 27.644852,49.112246 C 27.254494,49.488096 27.242721,50.109837 27.618571,50.500197 z "
               i:knockout="Off" />
            <path
               style="fill:#ffffff;fill-opacity:1;stroke:#ffffff;stroke-opacity:1"
               id="path2439"
               d="M 36.381429,13.136166 L 32.784599,9.4002025 C 32.408313,9.0096895 31.786865,8.9979225 31.39621,9.3739135 L 27.644745,12.985954 C 27.254528,13.362099 27.242758,13.983695 27.618462,14.37405 C 27.994608,14.764268 28.615911,14.776032 29.006412,14.400331 L 31.050878,12.431848 L 30.928741,18.882338 C 30.917388,19.481852 31.349835,19.981088 31.889545,19.991307 C 32.429255,20.001526 32.880435,19.519023 32.891787,18.919507 L 33.013919,12.46931 L 34.967053,14.497834 C 35.343043,14.888488 35.964491,14.900255 36.355148,14.524117 C 36.745506,14.148267 36.757279,13.526526 36.381429,13.136166 z "
               i:knockout="Off" />
          </g>
        </g>
      </g>
    </g>
    <rect
       style="fill:#000000;fill-opacity:1;stroke:#000000;stroke-width:0.67687017;stroke-miterlimit:4;stroke-dasharray:none;stroke-opacity:1"
       id="rect15121"
       width="56.977905"
       height="11.779848"
       x="471.96936"
       y="227.88171" />
    <text
       xml:space="preserve"
       style="font-size:6px;font-style:normal;font-weight:normal;fill:#ffffff;fill-opacity:1;stroke:none;stroke-width:1px;stroke-linecap:butt;stroke-linejoin:miter;stroke-opacity:1;font-family:Bitstream Vera Sans"
       x="478.47687"
       y="235.42691"
       id="text16100"><tspan
         sodipodi:role="line"
         id="tspan16102"
         x="478.47687"
         y="235.42691">Share Settings</tspan></text>
    <text
       xml:space="preserve"
       style="font-size:8px;font-style:normal;font-weight:bold;fill:#000000;fill-opacity:1;stroke:none;stroke-width:1px;stroke-linecap:butt;stroke-linejoin:miter;stroke-opacity:1;font-family:Bitstream Vera Sans Mono"
       x="187.55554"
       y="240.92062"
       id="text18042"><tspan
         sodipodi:role="line"
         id="tspan18044"
         x="187.55554"
         y="240.92062"
         style="font-family:Bitstream Vera Sans">Thursday, November 30, 2006</tspan></text>
    <text
       xml:space="preserve"
       style="font-size:12px;font-style:normal;font-weight:normal;fill:#000000;fill-opacity:1;stroke:none;stroke-width:1px;stroke-linecap:butt;stroke-linejoin:miter;stroke-opacity:1;font-family:Sans"
       x="224.22321"
       y="266.50256"
       id="text18046"><tspan
         sodipodi:role="line"
         id="tspan18048"
         x="224.22321"
         y="266.50256"
         style="font-size:8px">At 6:45 PM, I took: &quot;<tspan
   style="font-size:8px;font-weight:bold"
   id="tspan18050">My Cousins</tspan>&quot;</tspan></text>
    <text
       xml:space="preserve"
       style="font-size:8px;font-style:normal;font-weight:normal;fill:#000000;fill-opacity:1;stroke:none;stroke-width:1px;stroke-linecap:butt;stroke-linejoin:miter;stroke-opacity:1;font-family:Sans"
       x="224.22321"
       y="299.84372"
       id="text18052"><tspan
         sodipodi:role="line"
         id="tspan18054"
         x="224.22321"
         y="299.84372">At 2:15 PM, I wrote: &quot;<tspan
   style="font-size:8px;font-weight:bold"
   id="tspan18056">About Cats</tspan>&quot; with:</tspan></text>
    <text
       xml:space="preserve"
       style="font-size:8px;font-style:normal;font-weight:normal;fill:#000000;fill-opacity:1;stroke:none;stroke-width:1px;stroke-linecap:butt;stroke-linejoin:miter;stroke-opacity:1;font-family:Sans"
       x="224.22321"
       y="332.78644"
       id="text18058"><tspan
         sodipodi:role="line"
         id="tspan18060"
         x="224.22321"
         y="332.78644">At 1:13, I drew: &quot;<tspan
   style="font-size:8px;font-weight:bold"
   id="tspan18066">Fun at the beach</tspan>&quot; with:</tspan></text>
    <text
       xml:space="preserve"
       style="font-size:8px;font-style:normal;font-weight:normal;fill:#000000;fill-opacity:1;stroke:none;stroke-width:1px;stroke-linecap:butt;stroke-linejoin:miter;stroke-opacity:1;font-family:Sans"
       x="224.22321"
       y="365.36197"
       id="text18070"><tspan
         sodipodi:role="line"
         id="tspan18072"
         x="224.22321"
         y="365.36197">At 12:40 PM, I clipped: &quot;<tspan
   style="font-size:8px;font-weight:bold"
   id="tspan18074">Photo of a Cat</tspan>&quot;</tspan></text>
    <text
       xml:space="preserve"
       style="font-size:8px;font-style:normal;font-weight:normal;fill:#000000;fill-opacity:1;stroke:none;stroke-width:1px;stroke-linecap:butt;stroke-linejoin:miter;stroke-opacity:1;font-family:Sans"
       x="224.22321"
       y="398.27344"
       id="text18078"><tspan
         sodipodi:role="line"
         id="tspan18080"
         x="224.22321"
         y="398.27344">At 12:35 PM, I took: &quot;<tspan
   style="font-size:8px;font-weight:bold"
   id="tspan18082">My Cat</tspan>&quot;</tspan></text>
    <g
       transform="matrix(0.2216062,0,0,0.2216062,287.77971,238.79595)"
       id="g18254"
       i:knockout="Off"
       style="stroke:#02aff5;stroke-width:2.10000014;stroke-miterlimit:4;stroke-dasharray:none;stroke-opacity:1">
      <path
         style="fill:#e20177;stroke:#02aff5;stroke-width:2.10000014;stroke-miterlimit:4;stroke-dasharray:none;stroke-opacity:1"
         id="path18256"
         d="M 632.589,235.567 C 632.589,242.35 627.093,247.843 620.313,247.843 C 613.531,247.843 608.034,242.35 608.034,235.567 C 608.034,228.79 613.531,223.291 620.313,223.291 C 627.093,223.291 632.589,228.786 632.589,235.567 z "
         i:knockout="Off" />
    </g>
    <path
       style="fill:#e20177;stroke:#02aff5;stroke-width:0.46537307;stroke-miterlimit:4;stroke-dasharray:none;stroke-opacity:1"
       id="path18258"
       d="M 430.44463,302.13743 L 427.34856,299.04092 L 430.44463,295.94487 C 431.0926,295.296 431.15022,294.29235 430.57182,293.71396 C 429.99321,293.13578 428.98933,293.19251 428.34114,293.84093 L 425.24441,296.93766 L 422.14813,293.84093 C 421.49971,293.19251 420.49606,293.13578 419.91744,293.71396 C 419.33905,294.29279 419.39622,295.29622 420.04464,295.94442 L 423.14115,299.04092 L 420.04509,302.13743 C 419.39622,302.78629 419.33927,303.78972 419.91744,304.36789 C 420.49606,304.94673 421.50038,304.88934 422.14857,304.24091 L 425.24441,301.14485 L 428.34069,304.24091 C 428.98956,304.88934 429.99321,304.94695 430.57182,304.36789 C 431.14999,303.78972 431.09305,302.78563 430.44463,302.13743 z "
       i:knockout="Off" />
    <g
       id="g22211"
       transform="translate(1074.2857,101)"
       style="fill:#ff7600;fill-opacity:1;stroke:#32ff3c;stroke-opacity:1">
      <g
         style="fill:#ff7600;fill-opacity:1;stroke:#32ff3c;stroke-width:2.10000014;stroke-miterlimit:4;stroke-dasharray:none;stroke-opacity:1"
         i:knockout="Off"
         id="g22183"
         transform="matrix(0.2216062,0,0,0.2216062,-786.50599,172.79595)">
        <path
           i:knockout="Off"
           d="M 632.589,235.567 C 632.589,242.35 627.093,247.843 620.313,247.843 C 613.531,247.843 608.034,242.35 608.034,235.567 C 608.034,228.79 613.531,223.291 620.313,223.291 C 627.093,223.291 632.589,228.786 632.589,235.567 z "
           id="path22185"
           style="fill:#ff7600;fill-opacity:1;stroke:#32ff3c;stroke-width:2.10000014;stroke-miterlimit:4;stroke-dasharray:none;stroke-opacity:1" />
      </g>
      <path
         i:knockout="Off"
         d="M -643.84107,236.13743 L -646.93714,233.04092 L -643.84107,229.94487 C -643.1931,229.296 -643.13548,228.29235 -643.71388,227.71396 C -644.29249,227.13578 -645.29637,227.19251 -645.94456,227.84093 L -649.04129,230.93766 L -652.13757,227.84093 C -652.78599,227.19251 -653.78964,227.13578 -654.36826,227.71396 C -654.94665,228.29279 -654.88948,229.29622 -654.24106,229.94442 L -651.14455,233.04092 L -654.24061,236.13743 C -654.88948,236.78629 -654.94643,237.78972 -654.36826,238.36789 C -653.78964,238.94673 -652.78532,238.88934 -652.13713,238.24091 L -649.04129,235.14485 L -645.94501,238.24091 C -645.29614,238.88934 -644.29249,238.94695 -643.71388,238.36789 C -643.13571,237.78972 -643.19265,236.78563 -643.84107,236.13743 z "
         id="path22187"
         style="fill:#ff7600;fill-opacity:1;stroke:#32ff3c;stroke-width:0.46537307;stroke-miterlimit:4;stroke-dasharray:none;stroke-opacity:1" />
    </g>
    <g
       id="g22206"
       transform="translate(1072.1591,101.52807)">
      <g
         style="stroke:#02aff5;stroke-width:2.10000014;stroke-miterlimit:4;stroke-dasharray:none;stroke-opacity:1"
         i:knockout="Off"
         id="g22189"
         transform="matrix(0.2216062,0,0,0.2216062,-761.87945,172.26788)">
        <path
           i:knockout="Off"
           d="M 632.589,235.567 C 632.589,242.35 627.093,247.843 620.313,247.843 C 613.531,247.843 608.034,242.35 608.034,235.567 C 608.034,228.79 613.531,223.291 620.313,223.291 C 627.093,223.291 632.589,228.786 632.589,235.567 z "
           id="path22191"
           style="fill:#e20177;stroke:#02aff5;stroke-width:2.10000014;stroke-miterlimit:4;stroke-dasharray:none;stroke-opacity:1" />
      </g>
      <path
         i:knockout="Off"
         d="M -619.21453,235.60936 L -622.3106,232.51285 L -619.21453,229.4168 C -618.56656,228.76793 -618.50894,227.76428 -619.08734,227.18589 C -619.66595,226.60771 -620.66983,226.66444 -621.31802,227.31286 L -624.41475,230.40959 L -627.51103,227.31286 C -628.15945,226.66444 -629.1631,226.60771 -629.74172,227.18589 C -630.32011,227.76472 -630.26294,228.76815 -629.61452,229.41635 L -626.51801,232.51285 L -629.61407,235.60936 C -630.26294,236.25822 -630.31989,237.26165 -629.74172,237.83982 C -629.1631,238.41866 -628.15878,238.36127 -627.51059,237.71284 L -624.41475,234.61678 L -621.31847,237.71284 C -620.6696,238.36127 -619.66595,238.41888 -619.08734,237.83982 C -618.50917,237.26165 -618.56611,236.25756 -619.21453,235.60936 z "
         id="path22193"
         style="fill:#e20177;stroke:#02aff5;stroke-width:0.46537307;stroke-miterlimit:4;stroke-dasharray:none;stroke-opacity:1" />
    </g>
    <g
       id="g22201"
       style="fill:#1f0cfb;fill-opacity:1;stroke:#b3573b;stroke-opacity:1"
       transform="translate(1074.2857,100)">
      <g
         style="fill:#1f0cfb;fill-opacity:1;stroke:#b3573b;stroke-width:2.10000014;stroke-miterlimit:4;stroke-dasharray:none;stroke-opacity:1"
         i:knockout="Off"
         id="g22195"
         transform="matrix(0.2216062,0,0,0.2216062,-741.50599,173.79595)">
        <path
           i:knockout="Off"
           d="M 632.589,235.567 C 632.589,242.35 627.093,247.843 620.313,247.843 C 613.531,247.843 608.034,242.35 608.034,235.567 C 608.034,228.79 613.531,223.291 620.313,223.291 C 627.093,223.291 632.589,228.786 632.589,235.567 z "
           id="path22197"
           style="fill:#1f0cfb;fill-opacity:1;stroke:#b3573b;stroke-width:2.10000014;stroke-miterlimit:4;stroke-dasharray:none;stroke-opacity:1" />
      </g>
      <path
         i:knockout="Off"
         d="M -598.84107,237.13743 L -601.93714,234.04092 L -598.84107,230.94487 C -598.1931,230.296 -598.13548,229.29235 -598.71388,228.71396 C -599.29249,228.13578 -600.29637,228.19251 -600.94456,228.84093 L -604.04129,231.93766 L -607.13757,228.84093 C -607.78599,228.19251 -608.78964,228.13578 -609.36826,228.71396 C -609.94665,229.29279 -609.88948,230.29622 -609.24106,230.94442 L -606.14455,234.04092 L -609.24061,237.13743 C -609.88948,237.78629 -609.94643,238.78972 -609.36826,239.36789 C -608.78964,239.94673 -607.78532,239.88934 -607.13713,239.24091 L -604.04129,236.14485 L -600.94501,239.24091 C -600.29614,239.88934 -599.29249,239.94695 -598.71388,239.36789 C -598.13571,238.78972 -598.19265,237.78563 -598.84107,237.13743 z "
         id="path22199"
         style="fill:#1f0cfb;fill-opacity:1;stroke:#b3573b;stroke-width:0.46537307;stroke-miterlimit:4;stroke-dasharray:none;stroke-opacity:1" />
    </g>
    <path
       style="fill:#666666;fill-opacity:1;fill-rule:nonzero;stroke:none;stroke-width:259.50698853;stroke-linecap:butt;stroke-linejoin:round;stroke-miterlimit:4;stroke-dasharray:none;stroke-dashoffset:0;stroke-opacity:1"
       d="M 543.55815,360.31875 L 542.4274,360.31875 L 544.99301,363.23413 L 547.55864,360.31875 L 546.6329,360.31875 C 546.83347,358.89643 548.06732,357.98164 549.4925,358.09625 C 549.54884,358.10078 549.60303,358.09625 549.66011,358.09625 C 551.98178,358.09625 552.8974,359.8767 552.9735,362.50201 C 553.05291,365.24189 551.48683,366.94509 549.66011,366.90779 C 547.73205,366.86922 547.00154,365.93407 546.72061,364.51535 L 543.2783,364.51535 C 543.84483,367.78319 546.21734,369.69959 549.58276,369.70554 C 553.39258,369.71231 556.14507,366.48031 556.14507,362.50201 C 556.14507,358.2537 553.39354,355.2985 549.58276,355.2985 C 549.46961,355.2985 549.35929,355.29227 549.24755,355.2985 C 549.22049,355.30002 549.19724,355.29805 549.17018,355.2985 C 546.78882,355.33866 543.55815,357.03037 543.55815,360.31875 z "
       id="path2371"
       sodipodi:nodetypes="cccccssssccsssssc" />
    <g
       style="fill:#808080;display:inline"
       id="g28578"
       transform="matrix(0.3535031,0,0,0.3535031,523.987,253.68853)"
       inkscape:transform-center-y="11.188461"
       inkscape:transform-center-x="-26.56914">
      <path
         transform="translate(-6.25e-2,0.185547)"
         d="M 36.6875 15.75 A 4.625 4.625 0 1 1  27.4375,15.75 A 4.625 4.625 0 1 1  36.6875 15.75 z"
         sodipodi:ry="4.625"
         sodipodi:rx="4.625"
         sodipodi:cy="15.75"
         sodipodi:cx="32.0625"
         id="path28580"
         style="opacity:1;fill:#808080;fill-opacity:1;fill-rule:evenodd;stroke:none;stroke-width:0.03;stroke-linecap:butt;stroke-linejoin:miter;stroke-miterlimit:4;stroke-dasharray:none;stroke-dashoffset:0;stroke-opacity:1"
         sodipodi:type="arc" />
      <path
         sodipodi:nodetypes="ccccssccssccc"
         d="M 27.215125,52.689453 L 36.784875,52.689453 L 36.784875,37.310548 L 39.677883,37.310548 C 39.677883,37.310548 39.676818,26.320181 39.677883,24.590437 C 39.675042,24.134131 39.719076,23.22538 39.057144,22.563448 C 38.395212,21.901516 37.501745,21.941644 37.030154,21.942709 C 36.558564,21.943774 27.441437,21.943774 26.969846,21.942709 C 26.498255,21.941644 25.604789,21.901516 24.942857,22.563448 C 24.280924,23.22538 24.324959,24.134131 24.322118,24.590437 C 24.323183,26.320181 24.322118,37.310548 24.322118,37.310548 L 27.215125,37.310548 L 27.215125,52.689453 z "
         style="opacity:1;fill:#808080;fill-opacity:1;fill-rule:evenodd;stroke:none;stroke-width:1px;stroke-linecap:butt;stroke-linejoin:miter;stroke-opacity:1"
         id="path28582" />
    </g>
    <path
       style="fill:#ffffff;fill-opacity:1;stroke:#000000;stroke-width:0.50252604;stroke-miterlimit:4;stroke-dasharray:none;stroke-opacity:1"
       id="path18250"
       d="M 531.82186,234.97572 L 525.56834,235.84209 C 524.91445,235.93297 524.45792,236.53639 524.54839,237.19021 L 525.41865,243.46988 C 525.5096,244.12339 526.11316,244.58002 526.76649,244.48961 C 527.41999,244.39867 527.87641,243.79539 527.78611,243.14192 L 527.31184,239.71964 L 533.57523,244.45833 C 534.15735,244.89875 534.9585,244.83043 535.35499,244.30637 C 535.75147,243.78232 535.59945,242.99264 535.01733,242.55222 L 528.75422,237.81375 L 532.14982,237.34317 C 532.80364,237.25269 533.26018,236.64927 533.16955,235.99534 C 533.079,235.34191 532.47529,234.88516 531.82186,234.97572 z "
       i:knockout="Off" />
    <g
       style="fill:#666666;display:inline"
       id="g34260"
       transform="matrix(0.3535031,0,0,0.3535031,523.987,285.20344)"
       inkscape:transform-center-y="11.188461"
       inkscape:transform-center-x="-26.56914">
      <path
         transform="translate(-6.25e-2,0.185547)"
         d="M 36.6875 15.75 A 4.625 4.625 0 1 1  27.4375,15.75 A 4.625 4.625 0 1 1  36.6875 15.75 z"
         sodipodi:ry="4.625"
         sodipodi:rx="4.625"
         sodipodi:cy="15.75"
         sodipodi:cx="32.0625"
         id="path34262"
         style="opacity:1;fill:#666666;fill-opacity:1;fill-rule:evenodd;stroke:none;stroke-width:0.03;stroke-linecap:butt;stroke-linejoin:miter;stroke-miterlimit:4;stroke-dasharray:none;stroke-dashoffset:0;stroke-opacity:1"
         sodipodi:type="arc" />
      <path
         sodipodi:nodetypes="ccccssccssccc"
         d="M 27.215125,52.689453 L 36.784875,52.689453 L 36.784875,37.310548 L 39.677883,37.310548 C 39.677883,37.310548 39.676818,26.320181 39.677883,24.590437 C 39.675042,24.134131 39.719076,23.22538 39.057144,22.563448 C 38.395212,21.901516 37.501745,21.941644 37.030154,21.942709 C 36.558564,21.943774 27.441437,21.943774 26.969846,21.942709 C 26.498255,21.941644 25.604789,21.901516 24.942857,22.563448 C 24.280924,23.22538 24.324959,24.134131 24.322118,24.590437 C 24.323183,26.320181 24.322118,37.310548 24.322118,37.310548 L 27.215125,37.310548 L 27.215125,52.689453 z "
         style="opacity:1;fill:#666666;fill-opacity:1;fill-rule:evenodd;stroke:none;stroke-width:1px;stroke-linecap:butt;stroke-linejoin:miter;stroke-opacity:1"
         id="path34264" />
    </g>
    <g
       style="fill:#666666;display:inline"
       id="g34270"
       transform="matrix(0.3535031,0,0,0.3535031,523.987,321.31639)"
       inkscape:transform-center-y="11.188461"
       inkscape:transform-center-x="-26.56914">
      <path
         transform="translate(-6.25e-2,0.185547)"
         d="M 36.6875 15.75 A 4.625 4.625 0 1 1  27.4375,15.75 A 4.625 4.625 0 1 1  36.6875 15.75 z"
         sodipodi:ry="4.625"
         sodipodi:rx="4.625"
         sodipodi:cy="15.75"
         sodipodi:cx="32.0625"
         id="path34272"
         style="opacity:1;fill:#666666;fill-opacity:1;fill-rule:evenodd;stroke:none;stroke-width:0.03;stroke-linecap:butt;stroke-linejoin:miter;stroke-miterlimit:4;stroke-dasharray:none;stroke-dashoffset:0;stroke-opacity:1"
         sodipodi:type="arc" />
      <path
         sodipodi:nodetypes="ccccssccssccc"
         d="M 27.215125,52.689453 L 36.784875,52.689453 L 36.784875,37.310548 L 39.677883,37.310548 C 39.677883,37.310548 39.676818,26.320181 39.677883,24.590437 C 39.675042,24.134131 39.719076,23.22538 39.057144,22.563448 C 38.395212,21.901516 37.501745,21.941644 37.030154,21.942709 C 36.558564,21.943774 27.441437,21.943774 26.969846,21.942709 C 26.498255,21.941644 25.604789,21.901516 24.942857,22.563448 C 24.280924,23.22538 24.324959,24.134131 24.322118,24.590437 C 24.323183,26.320181 24.322118,37.310548 24.322118,37.310548 L 27.215125,37.310548 L 27.215125,52.689453 z "
         style="opacity:1;fill:#666666;fill-opacity:1;fill-rule:evenodd;stroke:none;stroke-width:1px;stroke-linecap:butt;stroke-linejoin:miter;stroke-opacity:1"
         id="path34274" />
    </g>
    <g
       style="fill:#666666;display:inline"
       id="g34280"
       transform="matrix(0.3535031,0,0,0.3535031,523.987,351.87351)"
       inkscape:transform-center-y="11.188461"
       inkscape:transform-center-x="-26.56914">
      <path
         transform="translate(-6.25e-2,0.185547)"
         d="M 36.6875 15.75 A 4.625 4.625 0 1 1  27.4375,15.75 A 4.625 4.625 0 1 1  36.6875 15.75 z"
         sodipodi:ry="4.625"
         sodipodi:rx="4.625"
         sodipodi:cy="15.75"
         sodipodi:cx="32.0625"
         id="path34282"
         style="opacity:1;fill:#666666;fill-opacity:1;fill-rule:evenodd;stroke:none;stroke-width:0.03;stroke-linecap:butt;stroke-linejoin:miter;stroke-miterlimit:4;stroke-dasharray:none;stroke-dashoffset:0;stroke-opacity:1"
         sodipodi:type="arc" />
      <path
         sodipodi:nodetypes="ccccssccssccc"
         d="M 27.215125,52.689453 L 36.784875,52.689453 L 36.784875,37.310548 L 39.677883,37.310548 C 39.677883,37.310548 39.676818,26.320181 39.677883,24.590437 C 39.675042,24.134131 39.719076,23.22538 39.057144,22.563448 C 38.395212,21.901516 37.501745,21.941644 37.030154,21.942709 C 36.558564,21.943774 27.441437,21.943774 26.969846,21.942709 C 26.498255,21.941644 25.604789,21.901516 24.942857,22.563448 C 24.280924,23.22538 24.324959,24.134131 24.322118,24.590437 C 24.323183,26.320181 24.322118,37.310548 24.322118,37.310548 L 27.215125,37.310548 L 27.215125,52.689453 z "
         style="opacity:1;fill:#666666;fill-opacity:1;fill-rule:evenodd;stroke:none;stroke-width:1px;stroke-linecap:butt;stroke-linejoin:miter;stroke-opacity:1"
         id="path34284" />
    </g>
    <g
       style="fill:#666666;display:inline"
       id="g34290"
       transform="matrix(0.3535031,0,0,0.3535031,523.987,385.46108)"
       inkscape:transform-center-y="11.188461"
       inkscape:transform-center-x="-26.56914">
      <path
         transform="translate(-6.25e-2,0.185547)"
         d="M 36.6875 15.75 A 4.625 4.625 0 1 1  27.4375,15.75 A 4.625 4.625 0 1 1  36.6875 15.75 z"
         sodipodi:ry="4.625"
         sodipodi:rx="4.625"
         sodipodi:cy="15.75"
         sodipodi:cx="32.0625"
         id="path34292"
         style="opacity:1;fill:#666666;fill-opacity:1;fill-rule:evenodd;stroke:none;stroke-width:0.03;stroke-linecap:butt;stroke-linejoin:miter;stroke-miterlimit:4;stroke-dasharray:none;stroke-dashoffset:0;stroke-opacity:1"
         sodipodi:type="arc" />
      <path
         sodipodi:nodetypes="ccccssccssccc"
         d="M 27.215125,52.689453 L 36.784875,52.689453 L 36.784875,37.310548 L 39.677883,37.310548 C 39.677883,37.310548 39.676818,26.320181 39.677883,24.590437 C 39.675042,24.134131 39.719076,23.22538 39.057144,22.563448 C 38.395212,21.901516 37.501745,21.941644 37.030154,21.942709 C 36.558564,21.943774 27.441437,21.943774 26.969846,21.942709 C 26.498255,21.941644 25.604789,21.901516 24.942857,22.563448 C 24.280924,23.22538 24.324959,24.134131 24.322118,24.590437 C 24.323183,26.320181 24.322118,37.310548 24.322118,37.310548 L 27.215125,37.310548 L 27.215125,52.689453 z "
         style="opacity:1;fill:#666666;fill-opacity:1;fill-rule:evenodd;stroke:none;stroke-width:1px;stroke-linecap:butt;stroke-linejoin:miter;stroke-opacity:1"
         id="path34294" />
    </g>
  </g>
</svg>
