<?xml version="1.0" encoding="utf-8"?>
<!-- Generator: Adobe Illustrator 12.0.1, SVG Export Plug-In . SVG Version: 6.00 Build 51448)  -->
<!DOCTYPE svg PUBLIC "-//W3C//DTD SVG 1.1//EN" "http://www.w3.org/Graphics/SVG/1.1/DTD/svg11.dtd" [
	<!ENTITY ns_svg "http://www.w3.org/2000/svg">
	<!ENTITY ns_xlink "http://www.w3.org/1999/xlink">
]>
<svg  version="1.1" id="g3427" xmlns="&ns_svg;" xmlns:xlink="&ns_xlink;" width="595.275" height="841.89"
	 viewBox="0 0 595.275 841.89" overflow="visible" enable-background="new 0 0 595.275 841.89" xml:space="preserve">
<g id="Background" sodipodi:docname="By_plain.svg" sodipodi:docbase="/Users/rebecca/Documents/creative_commons/imagemarkers/plain" inkscape:export-xdpi="72" inkscape:export-ydpi="72" xmlns:rdf="http://www.w3.org/1999/02/22-rdf-syntax-ns#" inkscape:output_extension="org.inkscape.output.svg.inkscape" xmlns:sodipodi="http://sodipodi.sourceforge.net/DTD/sodipodi-0.dtd" inkscape:export-filename="/Users/rebecca/Documents/creativecommons/marking/markers/png/72/By_plain72.png" inkscape:version="0.45+devel" sodipodi:version="0.32" xmlns:inkscape="http://www.inkscape.org/namespaces/inkscape" xmlns:svg="http://www.w3.org/2000/svg" xmlns:cc="http://web.resource.org/cc/" xmlns:dc="http://purl.org/dc/elements/1.1/">
	
		<sodipodi:namedview  inkscape:current-layer="layer1" inkscape:zoom="1.2" showborder="true" bordercolor="#666666" inkscape:pageshadow="2" inkscape:window-y="43" pagecolor="#ffffff" inkscape:document-units="px" inkscape:cy="30" id="base" inkscape:window-width="832" inkscape:window-height="619" inkscape:window-x="291" inkscape:cx="242.47963" inkscape:pageopacity="0.0" borderopacity="1.0">
		</sodipodi:namedview>
	<path fill="#577CB9" d="M71.74,137.05c0,3.313-2.687,6-6,6h-88.495c-3.313,0-6-2.687-6-6V-27.941c0-3.313,2.687-6,6-6H65.74
		c3.313,0,6,2.687,6,6V137.05z"/>
	<g id="g6307" transform="matrix(0.2716088,0,0,0.2716129,151.1807,-28.449422)">
		<path id="path6309" fill="#FFFFFF" d="M-388.2,487.948c0-2.882-2.333-5.215-5.21-5.215h-33.017c-2.88,0-5.212,2.333-5.212,5.215
			v33.019h9.206v39.098h25.024v-39.098h9.208V487.948L-388.2,487.948z"/>
		
			<circle id="circle6311" sodipodi:cx="32" sodipodi:ry="4.47754" sodipodi:cy="200.11914" sodipodi:rx="4.47754" fill="#FFFFFF" cx="-409.922" cy="467.094" r="11.295">
		</circle>
		<path id="path6313" fill="#FFFFFF" d="M-410.021,427.214c-22.36,0-41.29,7.8-56.774,23.408
			c-15.897,16.143-23.843,35.246-23.843,57.311c0,22.062,7.946,41.036,23.843,56.905c15.89,15.877,34.819,23.814,56.774,23.814
			c22.225,0,41.488-8,57.785-24.012c15.354-15.201,23.038-34.106,23.038-56.707c0-22.603-7.815-41.709-23.441-57.311
			C-368.265,435.014-387.392,427.214-410.021,427.214z M-409.816,441.741c18.319,0,33.875,6.452,46.676,19.372
			c12.929,12.778,19.39,28.389,19.39,46.82c0,18.561-6.328,33.969-18.991,46.208c-13.339,13.188-29.028,19.78-47.076,19.78
			c-18.055,0-33.612-6.526-46.676-19.575c-13.064-13.051-19.599-28.521-19.599-46.413c0-17.895,6.599-33.5,19.804-46.82
			C-443.627,448.193-428.142,441.741-409.816,441.741z"/>
	</g>
</g>
<g id="Guides">
</g>
<g id="g2750">
	<g id="g2755_1_">
		<path id="path2757_1_" fill="#FFFFFF" d="M38.827,26.762c-6.016,0-11.308,2.223-15.398,6.368
			c-4.21,4.266-6.496,9.791-6.496,15.558c0,5.825,2.226,11.232,6.437,15.436c4.209,4.205,9.683,6.487,15.457,6.487
			c5.774,0,11.368-2.283,15.699-6.547c4.09-4.024,6.255-9.371,6.255-15.376c0-5.947-2.165-11.354-6.316-15.499
			C50.254,28.985,44.842,26.762,38.827,26.762z M38.887,30.728c4.932,0,9.322,1.862,12.751,5.284
			c3.367,3.364,5.171,7.811,5.171,12.676c0,4.924-1.744,9.249-5.111,12.553c-3.55,3.484-8.12,5.346-12.812,5.346
			c-4.752,0-9.203-1.862-12.63-5.286c-3.429-3.424-5.354-7.929-5.354-12.613c0-4.746,1.925-9.25,5.354-12.735
			C29.623,32.529,33.954,30.728,38.887,30.728z"/>
		<path id="path2759_1_" fill="#FFFFFF" d="M38.604,45.044c-1.241-2.257-3.357-3.156-5.812-3.156c-3.574,0-6.42,2.525-6.42,6.8
			c0,4.346,2.675,6.799,6.542,6.799c2.48,0,4.597-1.359,5.763-3.423l-2.723-1.385c-0.609,1.457-1.533,1.894-2.699,1.894
			c-2.019,0-2.943-1.675-2.943-3.884c0-2.211,0.777-3.887,2.943-3.887c0.582,0,1.75,0.316,2.431,1.772L38.604,45.044z"/>
		<path id="path2761_1_" fill="#FFFFFF" d="M51.269,45.044c-1.24-2.257-3.356-3.156-5.812-3.156c-3.574,0-6.419,2.525-6.419,6.8
			c0,4.346,2.673,6.799,6.542,6.799c2.48,0,4.596-1.359,5.763-3.423l-2.723-1.385c-0.609,1.457-1.532,1.894-2.7,1.894
			c-2.018,0-2.942-1.675-2.942-3.884c0-2.211,0.779-3.887,2.942-3.887c0.584,0,1.75,0.316,2.432,1.772L51.269,45.044z"/>
	</g>
</g>
</svg>
