<?xml version="1.0" encoding="utf-8"?>
<!-- Generator: Adobe Illustrator 13.0.2, SVG Export Plug-In . SVG Version: 6.00 Build 14948)  -->
<!DOCTYPE svg PUBLIC "-//W3C//DTD SVG 1.1//EN" "http://www.w3.org/Graphics/SVG/1.1/DTD/svg11.dtd">
<svg version="1.1" id="g7718" xmlns="http://www.w3.org/2000/svg" xmlns:xlink="http://www.w3.org/1999/xlink" x="0px" y="0px"
	 width="720px" height="486px" viewBox="1.5 1.5 720 486" enable-background="new 1.5 1.5 720 486" xml:space="preserve">
<g id="g5097" xmlns:dc="http://purl.org/dc/elements/1.1/" xmlns:svg="http://www.w3.org/2000/svg" xmlns:cc="http://web.resource.org/cc/" xmlns:rdf="http://www.w3.org/1999/02/22-rdf-syntax-ns#" inkscape:export-filename="/Users/rebecca/Documents/creativecommons/marking/bumpers/bw/png/By_bw.png" inkscape:output_extension="org.inkscape.output.svg.inkscape" inkscape:export-ydpi="90" xmlns:inkscape="http://www.inkscape.org/namespaces/inkscape" sodipodi:docbase="/Users/rebecca/Documents/creative_commons/videobumpers/simple/color" sodipodi:docname="By_bw.svg" sodipodi:version="0.32" inkscape:export-xdpi="90" xmlns:sodipodi="http://sodipodi.sourceforge.net/DTD/sodipodi-0.dtd" inkscape:version="0.45+devel">
</g>
<g id="g5099">
</g>
<g id="g2547">
	<g>
		<rect id="rect2168" x="1.5" y="1.5" width="720" height="486"/>
		<text transform="matrix(1 0 0 1 68.5366 318.9287)" fill="#FFFFFF" font-family="'BitstreamVeraSans-Roman'" font-size="20">Except where otherwise noted, this work is licensed under </text>
		<text transform="matrix(1 0 0 1 81.7329 358.9287)" fill="#FFFFFF" font-family="'BitstreamVeraSans-Bold'" font-size="21">http://creativecommons.org/licenses/by/3.0/</text>
		<g>
			<g id="g7677" transform="translate(82.473109,1.8769e-6)">
				<path id="path37" fill="#FFFFFF" d="M296.517,177.191c0-2.319-1.882-4.197-4.197-4.197h-26.587
					c-2.318,0-4.197,1.878-4.197,4.197v26.589h7.416v31.484h20.149V203.78h7.416V177.191L296.517,177.191z"/>
				
					<circle id="circle39" sodipodi:ry="4.47754" sodipodi:rx="4.47754" sodipodi:cy="200.11914" sodipodi:cx="32" fill="#FFFFFF" cx="279.026" cy="160.4" r="9.095">
				</circle>
				<path id="path41" fill="#FFFFFF" d="M278.945,128.285c-18.007,0-33.247,6.282-45.72,18.849
					c-12.801,13-19.198,28.384-19.198,46.151c0,17.766,6.397,33.043,19.198,45.826c12.798,12.783,28.039,19.174,45.72,19.174
					c17.896,0,33.408-6.443,46.533-19.337c12.364-12.239,18.549-27.462,18.549-45.664s-6.292-33.585-18.874-46.151
					C312.569,134.567,297.167,128.285,278.945,128.285z M279.107,139.982c14.753,0,27.279,5.199,37.586,15.601
					c10.412,10.292,15.617,22.857,15.617,37.701c0,14.949-5.097,27.354-15.294,37.213c-10.739,10.616-23.375,15.924-37.909,15.924
					c-14.536,0-27.064-5.252-37.585-15.761c-10.521-10.509-15.782-22.967-15.782-37.376s5.315-26.976,15.945-37.701
					C251.883,145.182,264.354,139.982,279.107,139.982z"/>
			</g>
		</g>
		<g id="g2552">
			<path id="path2554" fill="#FFFFFF" d="M278.648,128.196c-17.835,0-33.527,6.6-45.653,18.903
				c-12.482,12.663-19.259,29.068-19.259,46.188c0,17.296,6.598,33.346,19.082,45.829c12.483,12.484,28.71,19.258,45.83,19.258
				c17.118,0,33.704-6.775,46.543-19.437c12.127-11.948,18.546-27.819,18.546-45.652c0-17.654-6.419-33.704-18.725-46.009
				C312.528,134.796,296.48,128.196,278.648,128.196z M278.825,139.966c14.624,0,27.643,5.527,37.806,15.692
				c9.986,9.986,15.335,23.183,15.335,37.626c0,14.623-5.172,27.461-15.156,37.271c-10.523,10.344-24.075,15.872-37.984,15.872
				c-14.086,0-27.283-5.528-37.448-15.693s-15.871-23.539-15.871-37.448c0-14.088,5.706-27.461,15.871-37.805
				C251.363,145.316,264.203,139.966,278.825,139.966z"/>
			<path id="path2556" fill="#FFFFFF" d="M277.987,182.471c-3.677-6.704-9.95-9.373-17.231-9.373
				c-10.599,0-19.034,7.497-19.034,20.188c0,12.905,7.931,20.188,19.394,20.188c7.355,0,13.629-4.038,17.087-10.165l-8.073-4.11
				c-1.804,4.326-4.544,5.624-8.003,5.624c-5.985,0-8.725-4.975-8.725-11.535c0-6.561,2.309-11.538,8.725-11.538
				c1.729,0,5.19,0.939,7.21,5.263L277.987,182.471z"/>
			<path id="path2558" fill="#FFFFFF" d="M315.536,182.471c-3.677-6.704-9.95-9.373-17.231-9.373
				c-10.599,0-19.034,7.497-19.034,20.188c0,12.905,7.931,20.188,19.396,20.188c7.354,0,13.627-4.038,17.088-10.165l-8.074-4.11
				c-1.804,4.326-4.542,5.624-8.003,5.624c-5.985,0-8.726-4.975-8.726-11.535c0-6.561,2.31-11.538,8.726-11.538
				c1.729,0,5.19,0.939,7.21,5.263L315.536,182.471z"/>
		</g>
	</g>
</g>
</svg>
