<?xml version="1.0" encoding="UTF-8" standalone="no"?>
<!-- Created with Inkscape (http://www.inkscape.org/) -->
<svg xmlns:svg="http://www.w3.org/2000/svg" xmlns="http://www.w3.org/2000/svg" xmlns:xlink="http://www.w3.org/1999/xlink" xmlns:inkscape="http://www.inkscape.org/namespaces/inkscape" version="1.0" width="128" height="128" id="svg14662">
  <defs id="defs14664">
    <linearGradient id="linearGradient3261">
      <stop style="stop-color: rgb(255, 255, 255); stop-opacity: 0;" offset="0" id="stop3263"/>
      <stop style="stop-color: rgb(255, 255, 255); stop-opacity: 0;" offset="0.5" id="stop3269"/>
      <stop style="stop-color: rgb(255, 255, 255); stop-opacity: 1;" offset="1" id="stop3265"/>
    </linearGradient>
    <linearGradient id="linearGradient3219">
      <stop style="stop-color: rgb(14, 115, 9); stop-opacity: 1;" offset="0" id="stop3221"/>
      <stop style="stop-color: rgb(112, 209, 62); stop-opacity: 1;" offset="1" id="stop3223"/>
    </linearGradient>
    <linearGradient id="linearGradient3205">
      <stop style="stop-color: rgb(44, 131, 0); stop-opacity: 1;" offset="0" id="stop3207"/>
      <stop style="stop-color: rgb(61, 184, 0); stop-opacity: 1;" offset="0.25" id="stop3215"/>
      <stop style="stop-color: rgb(255, 255, 255); stop-opacity: 1;" offset="0.5" id="stop3213"/>
      <stop style="stop-color: rgb(105, 207, 53); stop-opacity: 1;" offset="1" id="stop3209"/>
    </linearGradient>
    <linearGradient id="linearGradient3197">
      <stop style="stop-color: rgb(0, 47, 50); stop-opacity: 1;" offset="0" id="stop3199"/>
      <stop style="stop-color: rgb(4, 91, 4); stop-opacity: 1;" offset="1" id="stop3201"/>
    </linearGradient>
    <linearGradient id="linearGradient3339">
      <stop style="stop-color: rgb(232, 232, 232); stop-opacity: 1;" offset="0" id="stop3341"/>
      <stop style="stop-color: rgb(255, 255, 255); stop-opacity: 1;" offset="0.5" id="stop3347"/>
      <stop style="stop-color: rgb(232, 232, 232); stop-opacity: 1;" offset="1" id="stop3343"/>
    </linearGradient>
    <linearGradient id="linearGradient3327">
      <stop style="stop-color: rgb(255, 255, 255); stop-opacity: 1;" offset="0" id="stop3329"/>
      <stop style="stop-color: rgb(253, 217, 154); stop-opacity: 1;" offset="0.5" id="stop3335"/>
      <stop style="stop-color: rgb(195, 149, 57); stop-opacity: 1;" offset="1" id="stop3331"/>
    </linearGradient>
    <linearGradient id="linearGradient3319">
      <stop style="stop-color: rgb(125, 73, 31); stop-opacity: 1;" offset="0" id="stop3321"/>
      <stop style="stop-color: rgb(146, 102, 0); stop-opacity: 1;" offset="1" id="stop3323"/>
    </linearGradient>
    <linearGradient id="linearGradient3282">
      <stop style="stop-color: rgb(255, 255, 255); stop-opacity: 0;" offset="0" id="stop3284"/>
      <stop style="stop-color: rgb(255, 255, 255); stop-opacity: 1;" offset="1" id="stop3286"/>
    </linearGradient>
    <linearGradient id="linearGradient14709">
      <stop style="stop-color: rgb(255, 255, 255); stop-opacity: 1;" offset="0" id="stop14711"/>
      <stop style="stop-color: rgb(94, 178, 255); stop-opacity: 1;" offset="1" id="stop14713"/>
    </linearGradient>
    <linearGradient id="linearGradient14685">
      <stop style="stop-color: rgb(9, 23, 160); stop-opacity: 1;" offset="0" id="stop14687"/>
      <stop style="stop-color: rgb(3, 69, 244); stop-opacity: 1;" offset="1" id="stop14689"/>
    </linearGradient>
    <linearGradient x1="96.125" y1="11.1875" x2="96.125" y2="52.101334" id="linearGradient14691" xlink:href="#linearGradient14685" gradientUnits="userSpaceOnUse"/>
    <linearGradient x1="96.125" y1="11.1875" x2="96.125" y2="52.101334" id="linearGradient14699" xlink:href="#linearGradient14685" gradientUnits="userSpaceOnUse" gradientTransform="translate(447.429, 636.934)"/>
    <radialGradient cx="546.31165" cy="705.48486" r="25.28125" fx="546.31165" fy="705.48486" id="radialGradient14715" xlink:href="#linearGradient14709" gradientUnits="userSpaceOnUse" gradientTransform="matrix(2.03282, 0, -3.28906e-08, 1.71734, -565.718, -518.499)"/>
    <linearGradient x1="96.125" y1="11.1875" x2="96.125" y2="52.101334" id="linearGradient14723" xlink:href="#linearGradient14685" gradientUnits="userSpaceOnUse" gradientTransform="translate(447.429, 636.934)"/>
    <filter id="filter14824">
      <feGaussianBlur id="feGaussianBlur14826" stdDeviation="0.37332047" inkscape:collect="always"/>
    </filter>
    <linearGradient x1="96.125" y1="11.1875" x2="96.125" y2="52.101334" id="linearGradient14833" xlink:href="#linearGradient14685" gradientUnits="userSpaceOnUse" gradientTransform="translate(458.162, 644.623)"/>
    <linearGradient x1="96.125" y1="11.1875" x2="96.125" y2="52.101334" id="linearGradient14842" xlink:href="#linearGradient14685" gradientUnits="userSpaceOnUse" gradientTransform="translate(458.162, 644.623)"/>
    <radialGradient cx="546.31165" cy="705.48486" r="25.28125" fx="546.31165" fy="705.48486" id="radialGradient3288" xlink:href="#linearGradient3282" gradientUnits="userSpaceOnUse" gradientTransform="matrix(2.03282, 0, -3.28906e-08, 1.71734, -565.718, -518.499)"/>
    <linearGradient x1="96.125" y1="11.1875" x2="96.125" y2="52.101334" id="linearGradient3296" xlink:href="#linearGradient14685" gradientUnits="userSpaceOnUse" gradientTransform="translate(447.429, 636.934)"/>
    <linearGradient x1="96.381813" y1="30.666691" x2="96.381813" y2="13.187494" id="linearGradient3302" xlink:href="#linearGradient3282" gradientUnits="userSpaceOnUse" gradientTransform="matrix(0.934851, 0, 0, 0.934851, 453.691, 638.993)"/>
    <linearGradient x1="41.945538" y1="46.665127" x2="41.945538" y2="82.333244" id="linearGradient3325" xlink:href="#linearGradient3319" gradientUnits="userSpaceOnUse"/>
    <radialGradient cx="53.60223" cy="59.728882" r="17.834057" fx="53.60223" fy="59.728882" id="radialGradient3333" xlink:href="#linearGradient3327" gradientUnits="userSpaceOnUse" gradientTransform="matrix(0, 1.65585, -1.63919, 0, 152.15, -32.9237)"/>
    <linearGradient x1="28.429483" y1="61.798298" x2="58.95916" y2="61.798298" id="linearGradient3345" xlink:href="#linearGradient3339" gradientUnits="userSpaceOnUse"/>
    <filter id="filter3385">
      <feGaussianBlur id="feGaussianBlur3387" stdDeviation="0.14607691" inkscape:collect="always"/>
    </filter>
    <linearGradient x1="83.28125" y1="123.09795" x2="83.28125" y2="66.310989" id="linearGradient3203" xlink:href="#linearGradient3197" gradientUnits="userSpaceOnUse"/>
    <radialGradient cx="491.52231" cy="670.92523" r="36.426601" fx="491.52231" fy="670.92523" id="radialGradient3211" xlink:href="#linearGradient3205" gradientUnits="userSpaceOnUse" gradientTransform="matrix(0, 2.02378, -1.95805, 0, 1805.23, -312.495)"/>
    <linearGradient x1="517.02167" y1="705.48438" x2="517.02167" y2="745.30084" id="linearGradient3240" xlink:href="#linearGradient3219" gradientUnits="userSpaceOnUse" gradientTransform="matrix(-1, 0, 0, 1, 983.326, 0)"/>
    <linearGradient x1="517.02167" y1="705.48438" x2="517.02167" y2="745.30084" id="linearGradient3243" xlink:href="#linearGradient3219" gradientUnits="userSpaceOnUse" gradientTransform="translate(-0.120047)"/>
    <radialGradient cx="479.68311" cy="709.6579" r="5.0058851" fx="479.68311" fy="709.6579" id="radialGradient3267" xlink:href="#linearGradient3261" gradientUnits="userSpaceOnUse" gradientTransform="matrix(1.23398, -0.151603, 0.190797, 1.55299, -247.635, -320.152)"/>
    <filter id="filter3331">
      <feGaussianBlur id="feGaussianBlur3333" stdDeviation="0.355" inkscape:collect="always"/>
    </filter>
    <filter id="filter3335">
      <feGaussianBlur id="feGaussianBlur3337" stdDeviation="0.26694977" inkscape:collect="always"/>
    </filter>
    <filter id="filter3339">
      <feGaussianBlur id="feGaussianBlur3341" stdDeviation="0.23870038" inkscape:collect="always"/>
    </filter>
  </defs>
  <g transform="translate(-447.429, -636.934)" id="layer1">
    <path d="M 492.35552,660.38391 C 477.63883,660.38391 465.66054,672.3622 465.66054,687.07889 C 465.66054,701.79558 477.63883,713.77387 492.35552,713.77387 C 507.0722,713.77387 519.05049,701.79558 519.05049,687.07889 C 519.05049,672.3622 507.0722,660.38391 492.35552,660.38391 z " style="opacity: 0.5; fill: rgb(0, 0, 0); fill-opacity: 1; stroke: none; stroke-width: 1.33686; stroke-linecap: square; stroke-linejoin: miter; stroke-miterlimit: 4; stroke-dasharray: none; stroke-dashoffset: 0pt; stroke-opacity: 1; filter: url(&quot;#filter3335&quot;);" id="path3281"/>
    <path d="M 492.27231,697.65234 C 470.63786,697.65234 453.08481,714.99981 453.08481,736.40234 L 453.08481,742.52734 C 453.08481,748.58021 459.36017,761.27734 481.99106,761.27734 L 502.52231,761.27734 C 525.15269,761.27734 531.45981,749.1977 531.45981,742.52734 L 531.45981,736.40234 C 531.45981,714.9998 513.90676,697.65234 492.27231,697.65234 z " style="opacity: 0.5; fill: rgb(0, 0, 0); fill-opacity: 1; stroke: none; stroke-width: 1.5; stroke-linecap: square; stroke-linejoin: miter; stroke-miterlimit: 4; stroke-dashoffset: 0pt; stroke-opacity: 1; filter: url(&quot;#filter3331&quot;);" id="path3283"/>
    <path d="M 44.09375,59.46875 C 22.459298,59.46875 4.9062499,76.816217 4.90625,98.21875 L 4.90625,104.34375 C 4.90625,110.39662 11.181609,123.09375 33.8125,123.09375 L 54.34375,123.09375 C 76.97413,123.09375 83.281253,111.01411 83.28125,104.34375 L 83.28125,98.21875 C 83.28125,76.816214 65.728203,59.468751 44.09375,59.46875 z " transform="translate(447.429, 636.934)" style="fill: url(&quot;#linearGradient3203&quot;) rgb(0, 0, 0); fill-opacity: 1; stroke: none; stroke-width: 1.5; stroke-linecap: square; stroke-linejoin: miter; stroke-miterlimit: 4; stroke-dashoffset: 0pt; stroke-opacity: 1;" id="path2214"/>
    <path d="M 491.52231,698.56305 C 471.41209,698.56305 455.09571,714.47045 455.09571,734.09627 L 455.09571,739.71282 C 455.09571,745.26321 460.92895,756.90632 481.96541,756.90632 L 501.05016,756.90632 C 522.08615,756.90632 527.94891,745.82945 527.94891,739.71282 L 527.94891,734.09627 C 527.94891,714.47045 511.63253,698.56305 491.52231,698.56305 z " style="fill: url(&quot;#radialGradient3211&quot;) rgb(0, 0, 0); fill-opacity: 1; stroke: none; stroke-width: 1.5; stroke-linecap: square; stroke-linejoin: miter; stroke-miterlimit: 4; stroke-dashoffset: 0pt; stroke-opacity: 1;" id="path3193"/>
    <path d="M 509.00874,705.87423 C 517.47238,714.93633 523.92402,729.97174 525.81425,744.5269" style="fill: rgb(0, 0, 0); fill-opacity: 0; fill-rule: evenodd; stroke: url(&quot;#linearGradient3243&quot;) rgb(0, 0, 0); stroke-width: 1.5; stroke-linecap: butt; stroke-linejoin: miter; stroke-miterlimit: 4; stroke-dasharray: none; stroke-opacity: 1;" id="path3217"/>
    <path d="M 474.19733,705.87423 C 465.73369,714.93633 459.28205,729.97174 457.39182,744.5269" style="fill: rgb(0, 0, 0); fill-opacity: 0; fill-rule: evenodd; stroke: url(&quot;#linearGradient3240&quot;) rgb(0, 0, 0); stroke-width: 1.5; stroke-linecap: butt; stroke-linejoin: miter; stroke-miterlimit: 4; stroke-dasharray: none; stroke-opacity: 1;" id="path3227"/>
    <path d="M 484.83052,710.07561 C 482.52782,712.04979 479.86829,713.60631 481.1093,718.35832 C 475.44857,717.2117 471.15959,709.46821 474.74722,703.9536 L 484.83052,710.07561 z " style="fill: rgb(197, 255, 189); fill-opacity: 1; fill-rule: evenodd; stroke: rgb(82, 170, 93); stroke-width: 1px; stroke-linecap: butt; stroke-linejoin: miter; stroke-opacity: 1;" id="path3249"/>
    <path d="M -36.972118,84.910487 L -42.381886,75.540496 L -31.562351,75.540495 L -36.972118,84.910487 z " transform="matrix(1.16887, 0, 0, 1.16887, 534.819, 623.446)" style="opacity: 1; fill: rgb(255, 38, 0); fill-opacity: 1; stroke: rgb(128, 0, 0); stroke-width: 0.855527; stroke-linecap: square; stroke-linejoin: miter; stroke-miterlimit: 4; stroke-dasharray: none; stroke-dashoffset: 0pt; stroke-opacity: 1;" id="path3245"/>
    <path d="M 497.96513,710.07561 C 500.74799,711.56963 504.00771,713.48627 502.7667,718.23828 C 507.7072,716.13135 511.63606,709.46821 508.04843,703.9536 L 497.96513,710.07561 z " style="fill: rgb(160, 255, 116); fill-opacity: 1; fill-rule: evenodd; stroke: rgb(94, 170, 94); stroke-width: 1px; stroke-linecap: butt; stroke-linejoin: miter; stroke-opacity: 1;" id="path3247"/>
    <path d="M 474.96875,704.65625 L 483.96875,710.125 C 482.98059,710.93983 481.95513,711.77074 481.21875,712.90625 C 480.46947,714.06165 480.23534,715.64781 480.5625,717.625 C 478.19333,716.89647 476.06898,714.98032 474.90625,712.5625 C 473.70299,710.0604 473.55794,707.15938 474.96875,704.65625 z " style="fill: url(&quot;#radialGradient3267&quot;) rgb(0, 0, 0); fill-opacity: 1; fill-rule: evenodd; stroke: none; stroke-width: 1px; stroke-linecap: butt; stroke-linejoin: miter; stroke-opacity: 1;" id="path3251"/>
    <path d="M 76.945221 64.499184 A 17.165627 17.165627 0 1 1  42.613968,64.499184 A 17.165627 17.165627 0 1 1  76.945221 64.499184 z" transform="matrix(1.49604, 0, 0, 1.49604, 402.17, 589.334)" style="opacity: 1; fill: url(&quot;#radialGradient3333&quot;) rgb(0, 0, 0); fill-opacity: 1; stroke: url(&quot;#linearGradient3325&quot;) rgb(0, 0, 0); stroke-width: 1.33686; stroke-linecap: square; stroke-linejoin: miter; stroke-miterlimit: 4; stroke-dasharray: none; stroke-dashoffset: 0pt; stroke-opacity: 1;" id="path2309"/>
    <path d="M 544.89014,649.56469 C 537.44951,649.56467 530.68709,651.65982 525.73389,655.12719 C 520.78069,658.59456 517.60888,663.50011 517.60889,668.97094 C 517.60888,674.8213 521.29667,679.96019 526.85889,683.47094 C 525.71979,685.41538 523.88536,687.31414 522.45264,688.56469 L 520.73389,690.06469 L 523.01514,690.31469 C 528.51364,690.91816 533.68836,689.85317 538.17139,687.75219 C 540.32352,688.14148 542.56428,688.40844 544.89014,688.40844 C 552.33147,688.40842 559.09342,686.29004 564.04639,682.81469 C 568.99936,679.33934 572.17139,674.44177 572.17139,668.97094 C 572.17139,663.50009 568.99958,658.59456 564.04639,655.12719 C 559.0932,651.65982 552.33076,649.56469 544.89014,649.56469 z " style="opacity: 0.5; fill: rgb(0, 0, 0); fill-opacity: 1; stroke: none; stroke-width: 2; stroke-linecap: square; stroke-linejoin: miter; stroke-miterlimit: 4; stroke-dashoffset: 0pt; stroke-opacity: 1; filter: url(&quot;#filter3339&quot;);" id="path14846"/>
    <path d="M 544.83516,649.64049 C 551.89715,649.64049 558.27338,651.66587 562.83516,654.85924 C 567.39694,658.05261 570.11641,662.34806 570.11641,667.04674 C 570.11641,671.74542 567.39716,676.06447 562.83516,679.26549 C 558.27316,682.46651 552.49663,685.56459 545.43536,685.56459 C 543.11183,685.56459 539.53796,685.22808 537.39617,684.81955 L 537.08367,684.75705 L 536.77117,684.88205 C 533.17124,686.60922 529.7783,686.58104 525.42891,686.48424 C 526.79035,685.15072 526.50674,684.17863 527.40306,682.29494 C 527.53848,682.01369 527.71163,681.70414 527.80931,681.45119 L 526.99681,680.98244 C 521.34256,677.72925 518.03201,672.35078 518.03201,667.04674 C 518.03201,662.34806 522.27338,657.09141 526.83516,653.89804 C 531.39694,650.70467 537.77317,649.64049 544.83516,649.64049 z " style="fill: url(&quot;#radialGradient14715&quot;) rgb(0, 0, 0); fill-opacity: 1; stroke: none; stroke-width: 2; stroke-linecap: square; stroke-linejoin: miter; stroke-miterlimit: 4; stroke-dasharray: none; stroke-dashoffset: 0pt; stroke-opacity: 1;" id="path14693"/>
    <path d="M 532.05356,651.52734 C 532.0173,651.54183 531.31631,651.04785 531.28014,651.06246 C 528.80499,651.93677 527.20845,652.89857 525.27231,654.25392 C 520.61444,657.51455 517.77231,662.63574 517.77231,667.52734 C 517.77231,673.0495 520.58377,678.18454 526.34631,681.50004 L 526.75256,681.75004 L 526.56506,682.15629 C 525.71022,683.9528 525.15045,685.30182 523.80356,686.62109 L 522.95981,687.43359 L 524.14731,687.46484 C 527.96404,687.54978 531.58341,686.84804 534.86606,685.52734 C 534.87521,685.52366 534.88816,685.53103 534.89731,685.52734 L 534.70981,685.05859 L 534.55356,684.58984 C 534.54412,684.59307 534.53175,684.58662 534.52231,684.58984 C 534.46224,684.61409 534.39513,684.62853 534.33481,684.65234 C 531.93455,685.45151 528.88612,686.33713 526.20676,686.40297 C 527.29159,685.26069 527.82331,683.83579 528.56111,682.28524 L 528.96736,681.44149 L 529.18611,681.03524 L 528.77986,680.78524 L 527.96736,680.31649 C 522.4214,677.12561 519.17246,672.94551 519.17246,667.05859 C 519.17246,662.55283 522.37002,658.3634 526.83571,655.23729 C 528.38352,654.15378 530.35473,652.78277 532.29718,652.00426 C 532.30615,652.00067 532.41959,652.46843 532.42856,652.46484 L 532.24106,651.27519 L 532.08481,651.52734 C 532.07551,651.53058 532.06286,651.52409 532.05356,651.52734 z M 556.11606,682.49034 C 556.03957,682.52141 555.94307,682.52231 555.86606,682.55284 C 552.54359,683.69662 548.97073,684.55679 544.99501,684.55679 C 542.70253,684.55679 540.32013,684.33432 538.20981,683.93179 L 537.89731,683.86929 L 537.74106,683.83804 L 537.61606,683.90054 L 537.30356,684.02554 L 537.27231,684.05679 C 537.01023,684.18253 536.74771,683.71432 536.45981,683.83984 L 534.89731,684.52734 L 536.55356,684.80859 L 536.74106,684.83984 C 538.91432,685.25437 541.19898,685.46484 543.55356,685.46484 C 548.26838,685.46484 552.66337,684.56517 556.45981,683.02734 C 556.46876,683.02371 556.48212,683.03097 556.49106,683.02734 L 556.30356,682.55859 L 556.14731,682.49034 C 556.13814,682.49359 556.12524,682.4871 556.11606,682.49034 z " style="fill: rgb(255, 255, 255); fill-opacity: 1; stroke: none; stroke-width: 1; stroke-linecap: square; stroke-linejoin: miter; stroke-miterlimit: 4; stroke-dashoffset: 0pt; stroke-opacity: 1; filter: url(&quot;#filter14824&quot;);" id="path14819"/>
    <path d="M 96.125,12.1875 C 81.622392,12.1875 69.843747,20.424238 69.84375,30.59375 C 69.84375,36.333472 73.594809,41.46416 79.46875,44.84375 C 78.306409,47.286508 75.981821,49.507721 74.34375,50.9375 C 79.745153,51.530338 84.836637,50.477445 89.21875,48.375 C 91.419482,48.794773 93.735491,49.03125 96.125,49.03125 C 110.62761,49.03125 122.40625,40.763262 122.40625,30.59375 C 122.40625,20.424238 110.62761,12.1875 96.125,12.1875 z " transform="translate(447.429, 636.934)" style="fill: none; fill-opacity: 1; stroke: url(&quot;#linearGradient14691&quot;) rgb(0, 0, 0); stroke-width: 2; stroke-linecap: square; stroke-linejoin: miter; stroke-miterlimit: 4; stroke-dasharray: none; stroke-dashoffset: 0pt; stroke-opacity: 1;" id="path14680"/>
    <path d="M 543.55356,651.32148 C 550.15547,651.32148 559.47739,654.29527 560.86103,658.60103 C 554.07988,662.8222 532.34996,663.83331 525.28578,659.4413 C 527.62973,654.4153 536.95165,651.32148 543.55356,651.32148 z " style="fill: url(&quot;#linearGradient3302&quot;) rgb(0, 0, 0); fill-opacity: 1; stroke: none; stroke-width: 2; stroke-linecap: square; stroke-linejoin: miter; stroke-miterlimit: 4; stroke-dasharray: none; stroke-dashoffset: 0pt; stroke-opacity: 1;" id="path3290"/>
    <path d="M 28.929483,55.976391 L 58.45916,55.976391 C 58.45916,64.742264 51.07674,67.620208 43.694321,67.620208 C 36.311902,67.620208 28.929483,64.632683 28.929483,55.976391 z " transform="translate(447.429, 636.934)" style="fill: url(&quot;#linearGradient3345&quot;) rgb(0, 0, 0); fill-opacity: 1; fill-rule: evenodd; stroke: rgb(94, 41, 44); stroke-width: 1px; stroke-linecap: butt; stroke-linejoin: miter; stroke-opacity: 1;" id="path3337"/>
    <path d="M 29.5,56.46875 C 29.64342,60.35073 31.27783,62.9505 33.8125,64.625 C 36.46259,66.37576 40.06374,67.125 43.6875,67.125 C 47.31374,67.125 50.91386,66.39294 53.5625,64.65625 C 56.09701,62.99439 57.76427,60.40325 57.90625,56.46875 L 29.5,56.46875 z M 30.15625,56.9375 L 57.25,56.9375 C 57.1145,60.51744 55.54397,62.89415 53.125,64.40625 C 50.597121,65.986423 47.14843,66.65625 43.6875,66.65625 C 40.22895,66.656254 36.77926,65.968 34.25,64.375 C 31.83088,62.851423 30.29313,60.46964 30.15625,56.9375 z " transform="matrix(1.02113, 0, 0, 1.03379, 446.805, 634.665)" style="fill: rgb(255, 255, 255); fill-opacity: 1; fill-rule: evenodd; stroke: none; stroke-width: 1px; stroke-linecap: butt; stroke-linejoin: miter; stroke-opacity: 1; filter: url(&quot;#filter3385&quot;);" id="path3360"/>
    <path d="M 475.86606,692.40234 L 475.86606,692.90234 C 475.86606,697.37263 477.82309,700.49526 480.70981,702.40234 C 483.59653,704.30942 487.3574,705.05859 491.11606,705.05859 C 494.87224,705.05859 498.66539,704.32734 501.55356,702.43359 C 504.44173,700.53984 506.39731,697.42564 506.39731,692.90234 L 506.39731,692.40234 L 505.89731,692.40234 L 476.36606,692.40234 L 475.86606,692.40234 z M 476.92856,693.40234 L 505.33481,693.40234 C 505.19283,697.33684 503.52557,699.92798 500.99106,701.58984 C 498.34242,703.32653 494.7423,704.05859 491.11606,704.05859 C 487.4923,704.05859 483.89115,703.30935 481.24106,701.55859 C 478.70639,699.88409 477.07198,697.28432 476.92856,693.40234 z " style="fill: rgb(94, 41, 44); fill-opacity: 1; fill-rule: evenodd; stroke: none; stroke-width: 1px; stroke-linecap: butt; stroke-linejoin: miter; stroke-opacity: 1;" id="path3375"/>
  </g>
</svg>