<?xml version="1.0" encoding="UTF-8" standalone="no"?>
<!-- Created with Inkscape (http://www.inkscape.org/) -->
<svg
   xmlns:dc="http://purl.org/dc/elements/1.1/"
   xmlns:cc="http://web.resource.org/cc/"
   xmlns:rdf="http://www.w3.org/1999/02/22-rdf-syntax-ns#"
   xmlns:svg="http://www.w3.org/2000/svg"
   xmlns="http://www.w3.org/2000/svg"
   xmlns:xlink="http://www.w3.org/1999/xlink"
   xmlns:sodipodi="http://sodipodi.sourceforge.net/DTD/sodipodi-0.dtd"
   xmlns:inkscape="http://www.inkscape.org/namespaces/inkscape"
   width="744.09448819"
   height="1052.3622047"
   id="svg52358"
   sodipodi:version="0.32"
   inkscape:version="0.45.1"
   sodipodi:docbase="/Users/rebecca/Documents/creative_commons/gnome/licensor"
   sodipodi:docname="properties.svg"
   inkscape:output_extension="org.inkscape.output.svg.inkscape">
  <defs
     id="defs52360">
    <linearGradient
       id="linearGradient1837">
  <stop
   style="stop-color:#000000;stop-opacity:0.20338982;"
   offset="0.0000000"
   id="stop1838" />


  <stop
   style="stop-color:#000000;stop-opacity:0;"
   offset="1"
   id="stop1839" />


</linearGradient>
    <linearGradient
       inkscape:collect="always"
       id="linearGradient60628">
      <stop
         style="stop-color:#92aa6d;stop-opacity:1;"
         offset="0"
         id="stop60630" />
      <stop
         style="stop-color:#92aa6d;stop-opacity:0;"
         offset="1"
         id="stop60632" />
    </linearGradient>
    <linearGradient
       inkscape:collect="always"
       xlink:href="#linearGradient60628"
       id="linearGradient22661"
       gradientUnits="userSpaceOnUse"
       gradientTransform="matrix(0.9978329,0,0,0.9565141,0.7792506,21.826826)"
       x1="188.86485"
       y1="488.65497"
       x2="188.86485"
       y2="475.77338" />
    <linearGradient
       inkscape:collect="always"
       xlink:href="#linearGradient103255"
       id="linearGradient22695"
       gradientUnits="userSpaceOnUse"
       gradientTransform="matrix(0.9006349,0,0,0.9006349,77.004704,107.00311)"
       x1="615.36249"
       y1="127.74776"
       x2="615.80579"
       y2="101.53377" />
    <linearGradient
       inkscape:collect="always"
       xlink:href="#linearGradient103255"
       id="linearGradient22693"
       gradientUnits="userSpaceOnUse"
       gradientTransform="matrix(0.9006349,0,0,0.9006349,59.245074,107.0031)"
       x1="615.36249"
       y1="127.74776"
       x2="615.80579"
       y2="101.53377" />
    <linearGradient
       id="linearGradient103255">
      <stop
         style="stop-color:#bbce9d;stop-opacity:1;"
         offset="0"
         id="stop103257" />
      <stop
         style="stop-color:#bbce9d;stop-opacity:0;"
         offset="1"
         id="stop103259" />
    </linearGradient>
    <linearGradient
       inkscape:collect="always"
       xlink:href="#linearGradient103255"
       id="linearGradient22691"
       gradientUnits="userSpaceOnUse"
       gradientTransform="matrix(0.9006349,0,0,0.9006349,41.485515,107.00311)"
       x1="615.36249"
       y1="127.74776"
       x2="615.80579"
       y2="101.53377" />
    <filter
       inkscape:collect="always"
       x="-0.012443725"
       width="1.0248875"
       y="-0.1254462"
       height="1.2508924"
       id="filter25866">
      <feGaussianBlur
         inkscape:collect="always"
         stdDeviation="0.61191775"
         id="feGaussianBlur25868" />
    </filter>
    <linearGradient
       id="linearGradient147879">
      <stop
         style="stop-color:#969781;stop-opacity:1;"
         offset="0"
         id="stop147881" />
      <stop
         id="stop148859"
         offset="1"
         style="stop-color:#e5e5e5;stop-opacity:1;" />
      <stop
         style="stop-color:#9e9f8c;stop-opacity:0;"
         offset="1"
         id="stop147883" />
    </linearGradient>
    <linearGradient
       inkscape:collect="always"
       xlink:href="#linearGradient147879"
       id="linearGradient43062"
       gradientUnits="userSpaceOnUse"
       gradientTransform="matrix(0.9959806,0,0,0.9959806,-25.504363,7.292425)"
       x1="3.7684326"
       y1="174.1906"
       x2="-11.083617"
       y2="143.26482" />
    <linearGradient
       inkscape:collect="always"
       id="linearGradient151831">
      <stop
         style="stop-color:#5d5f4e;stop-opacity:1;"
         offset="0"
         id="stop151833" />
      <stop
         style="stop-color:#5d5f4e;stop-opacity:0;"
         offset="1"
         id="stop151835" />
    </linearGradient>
    <linearGradient
       inkscape:collect="always"
       xlink:href="#linearGradient151831"
       id="linearGradient43060"
       gradientUnits="userSpaceOnUse"
       x1="-33.361691"
       y1="168.09213"
       x2="-33.361691"
       y2="150.02583" />
    <linearGradient
       inkscape:collect="always"
       xlink:href="#linearGradient1837"
       id="linearGradient54580"
       gradientUnits="userSpaceOnUse"
       gradientTransform="matrix(6.1482533e-2,0,0,6.1484014e-2,430.27691,577.89751)"
       x1="162.06055"
       y1="274.47455"
       x2="157.60197"
       y2="66.408051" />
  </defs>
  <sodipodi:namedview
     id="base"
     pagecolor="#ffffff"
     bordercolor="#666666"
     borderopacity="1.0"
     gridtolerance="10000"
     guidetolerance="10"
     objecttolerance="10"
     inkscape:pageopacity="0.0"
     inkscape:pageshadow="2"
     inkscape:zoom="2.8"
     inkscape:cx="424.41353"
     inkscape:cy="490.25999"
     inkscape:document-units="px"
     inkscape:current-layer="layer1"
     inkscape:window-width="697"
     inkscape:window-height="581"
     inkscape:window-x="385"
     inkscape:window-y="100" />
  <metadata
     id="metadata52363">
    <rdf:RDF>
      <cc:Work
         rdf:about="">
        <dc:format>image/svg+xml</dc:format>
        <dc:type
           rdf:resource="http://purl.org/dc/dcmitype/StillImage" />
      </cc:Work>
    </rdf:RDF>
  </metadata>
  <g
     inkscape:label="Layer 1"
     inkscape:groupmode="layer"
     id="layer1">
    <g
       id="g22655"
       transform="matrix(0.6360798,0,0,0.9355369,417.64841,1006.7076)">
      <rect
         ry="5.3015528"
         y="-753.52612"
         x="-304.24112"
         height="328.0751"
         width="508.07306"
         id="rect22643"
         style="fill:#e5e1cb;fill-opacity:1;stroke:#000000;stroke-width:1;stroke-linejoin:miter;stroke-miterlimit:4;stroke-dasharray:none;stroke-dashoffset:0;stroke-opacity:1" />
      <g
         transform="matrix(1,0,0,1.2521487,-256.35988,-1357.1652)"
         id="g22645">
        <rect
           style="opacity:1;fill:#92aa6d;fill-opacity:1;stroke:#313b25;stroke-width:0.149;stroke-linejoin:miter;stroke-miterlimit:4;stroke-dasharray:none;stroke-dashoffset:0;stroke-opacity:1"
           id="rect22647"
           width="507.05096"
           height="8.7315321"
           x="-47.370201"
           y="493.57486"
           ry="0" />
        <rect
           style="opacity:1;fill:url(#linearGradient22661);fill-opacity:1;stroke:none;stroke-width:0.24294752;stroke-linejoin:miter;stroke-miterlimit:4;stroke-dasharray:none;stroke-dashoffset:0;stroke-opacity:1"
           id="rect22649"
           width="507.0567"
           height="18.934189"
           x="-47.373066"
           y="482.48837"
           ry="4.6790514" />
      </g>
    </g>
    <rect
       style="opacity:1;fill:#92aa6d;fill-opacity:1;stroke-width:0.75;stroke-linejoin:miter;stroke-miterlimit:4;stroke-dasharray:none;stroke-dashoffset:0;stroke-opacity:1"
       id="rect49363"
       width="59.220196"
       height="4.596209"
       x="419.49765"
       y="351.20874"
       ry="1.767767" />
    <g
       id="g22663"
       transform="translate(-99.5663,98.924363)">
      <g
         id="g22665">
        <rect
           style="fill:url(#linearGradient22691);fill-opacity:1;stroke:#5c7248;stroke-width:0.90063488;stroke-linejoin:miter;stroke-miterlimit:4;stroke-dasharray:none;stroke-dashoffset:0;stroke-opacity:1"
           id="rect22667"
           width="15.173085"
           height="15.173085"
           x="588.5152"
           y="207.28342"
           ry="3.5936255" />
        <rect
           style="opacity:1;fill:#201d15;fill-opacity:1;stroke:none;stroke-width:1;stroke-linejoin:miter;stroke-miterlimit:4;stroke-dasharray:none;stroke-dashoffset:0;stroke-opacity:1"
           id="rect22669"
           width="7.2103405"
           height="1.567456"
           x="592.49658"
           y="215.99603"
           ry="0" />
      </g>
      <g
         id="g22671">
        <rect
           style="fill:url(#linearGradient22693);fill-opacity:1;stroke:#5c7248;stroke-width:0.90063488;stroke-linejoin:miter;stroke-miterlimit:4;stroke-dasharray:none;stroke-dashoffset:0;stroke-opacity:1"
           id="rect22673"
           width="15.173085"
           height="15.173085"
           x="606.27478"
           y="207.28342"
           ry="3.5936255" />
        <g
           id="g22675"
           transform="translate(-0.7399199,0.2223427)">
          <rect
             y="211.50777"
             x="611.21021"
             height="6.2796998"
             width="6.7820754"
             id="rect22677"
             style="opacity:1;fill:none;fill-opacity:1;stroke:#211e15;stroke-width:1.20099998;stroke-linejoin:miter;stroke-miterlimit:4;stroke-dasharray:none;stroke-dashoffset:0;stroke-opacity:1" />
          <rect
             ry="0"
             y="211.7639"
             x="610.83929"
             height="1.567456"
             width="7.2103405"
             id="rect22679"
             style="opacity:1;fill:#201d15;fill-opacity:1;stroke:none;stroke-width:1;stroke-linejoin:miter;stroke-miterlimit:4;stroke-dasharray:none;stroke-dashoffset:0;stroke-opacity:1" />
        </g>
      </g>
      <g
         id="g22681">
        <rect
           style="fill:url(#linearGradient22695);fill-opacity:1;stroke:#5c7248;stroke-width:0.90063488;stroke-linejoin:miter;stroke-miterlimit:4;stroke-dasharray:none;stroke-dashoffset:0;stroke-opacity:1"
           id="rect22683"
           width="15.173085"
           height="15.173085"
           x="624.03436"
           y="207.28342"
           ry="3.5936255" />
        <g
           id="g22685"
           transform="translate(2.1642788,49.502918)">
          <rect
             transform="matrix(0.6824284,0.7309524,-0.7053155,0.7088935,0,0)"
             ry="0"
             y="-348.495"
             x="558.59637"
             height="2.0148571"
             width="9.2792702"
             id="rect22687"
             style="opacity:1;fill:#201d15;fill-opacity:1;stroke:none;stroke-width:1;stroke-linejoin:miter;stroke-miterlimit:4;stroke-dasharray:none;stroke-dashoffset:0;stroke-opacity:1" />
          <rect
             transform="matrix(-0.6824284,0.7309524,0.7053155,0.7088935,0,0)"
             ry="0"
             y="572.33582"
             x="-334.44531"
             height="2.0148571"
             width="9.2792702"
             id="rect22689"
             style="opacity:1;fill:#201d15;fill-opacity:1;stroke:none;stroke-width:1;stroke-linejoin:miter;stroke-miterlimit:4;stroke-dasharray:none;stroke-dashoffset:0;stroke-opacity:1" />
        </g>
      </g>
    </g>
    <rect
       style="opacity:1;fill:#b4b1a0;fill-opacity:1;stroke:#7c7c4e;stroke-width:0.93583632;stroke-linejoin:miter;stroke-miterlimit:4;stroke-dasharray:none;stroke-dashoffset:0;stroke-opacity:1"
       id="rect25897"
       width="44.764164"
       height="19.764164"
       x="242.72641"
       y="354.02863" />
    <rect
       style="opacity:1;fill:#b4b1a0;fill-opacity:1;stroke:#7c7c4e;stroke-width:1.023;stroke-linejoin:miter;stroke-miterlimit:4;stroke-dasharray:none;stroke-dashoffset:0;stroke-opacity:1"
       id="rect25899"
       width="53.677471"
       height="19.677471"
       x="288.46976"
       y="354.19324" />
    <rect
       style="opacity:1;fill:#c2bfac;fill-opacity:1;stroke:#7c7c4e;stroke-width:1.20694876;stroke-linejoin:miter;stroke-miterlimit:4;stroke-dasharray:none;stroke-dashoffset:0;stroke-opacity:1"
       id="rect25901"
       width="75.49305"
       height="19.493052"
       x="343.26199"
       y="354.16418" />
    <path
       style="fill:#e5e1cb;fill-opacity:1;stroke:#000000;stroke-width:0.69999999;stroke-linejoin:miter;stroke-miterlimit:4;stroke-dashoffset:0;stroke-opacity:1"
       d="M 242.25851,374.26069 L 419.57453,373.90714 L 419.7603,354.10815 L 478.36627,354.10815 L 478.63593,374.26069 L 527.25851,374.26069 L 527.75851,562.26069 L 242.75851,562.26069 L 242.25851,374.26069 z "
       id="rect25890"
       sodipodi:nodetypes="ccccccccc" />
    <text
       xml:space="preserve"
       style="font-size:10px;font-style:normal;font-weight:normal;fill:#000000;fill-opacity:1;stroke:none;stroke-width:1px;stroke-linecap:butt;stroke-linejoin:miter;stroke-opacity:1;font-family:Sans"
       x="251.69052"
       y="367.63873"
       id="text26874"><tspan
         sodipodi:role="line"
         id="tspan26876"
         x="251.69052"
         y="367.63873">Basic</tspan></text>
    <text
       xml:space="preserve"
       style="font-size:10px;font-style:normal;font-weight:normal;fill:#000000;fill-opacity:1;stroke:none;stroke-width:1px;stroke-linecap:butt;stroke-linejoin:miter;stroke-opacity:1;font-family:Sans"
       x="291.91983"
       y="367.76001"
       id="text26878"><tspan
         sodipodi:role="line"
         id="tspan26880"
         x="291.91983"
         y="367.76001">Emblems</tspan></text>
    <text
       xml:space="preserve"
       style="font-size:10px;font-style:normal;font-weight:normal;fill:#000000;fill-opacity:1;stroke:none;stroke-width:1px;stroke-linecap:butt;stroke-linejoin:miter;stroke-opacity:1;font-family:Sans"
       x="351.21359"
       y="367.63873"
       id="text26882"><tspan
         sodipodi:role="line"
         id="tspan26884"
         x="351.21359"
         y="367.63873">Permissions</tspan></text>
    <text
       xml:space="preserve"
       style="font-size:10px;font-style:normal;font-weight:normal;fill:#000000;fill-opacity:1;stroke:none;stroke-width:1px;stroke-linecap:butt;stroke-linejoin:miter;stroke-opacity:1;font-family:Sans"
       x="429.55795"
       y="367.63873"
       id="text26886"><tspan
         sodipodi:role="line"
         id="tspan26888"
         x="429.55795"
         y="367.63873">License</tspan></text>
    <g
       id="g43044"
       transform="matrix(0.3871161,0,0,0.3871161,245.2823,244.46149)">
      <path
         sodipodi:nodetypes="ccccccc"
         id="path43046"
         d="M -1.861569,164.09771 L -20.41627,163.91568 L -23.397643,161.31591 L -41.697051,161.20507 C -41.697051,161.27625 -41.697051,193.8263 -41.697051,193.8263 L -1.8605951,193.6997 L -1.861569,164.09771 z "
         style="fill:url(#linearGradient43060);fill-opacity:1;stroke:#000000;stroke-width:1.37738371;stroke-linejoin:miter;stroke-miterlimit:4;stroke-dashoffset:0;stroke-opacity:1" />
      <path
         sodipodi:nodetypes="ccccccc"
         id="path43048"
         d="M -41.511011,171.50761 L -26.93944,171.61797 L -24.400454,167.64885 L -1.8807523,167.64885 C -1.8807523,167.86963 -1.8807523,193.9169 -1.8807523,193.9169 L -41.621402,193.69612 L -41.511011,171.50761 z "
         style="fill:url(#linearGradient43062);fill-opacity:1;stroke:#000000;stroke-width:1.1961726;stroke-linejoin:miter;stroke-miterlimit:4;stroke-dashoffset:0;stroke-opacity:1" />
      <g
         transform="matrix(1,0,0,1.0333728,0,-5.649497)"
         id="g43050">
        <path
           style="opacity:0.85;fill:none;fill-rule:evenodd;stroke:#ffffff;stroke-width:0.87471336px;stroke-linecap:butt;stroke-linejoin:miter;stroke-opacity:1"
           d="M -38.462678,173.57761 L -24.911809,173.57761 L -22.338548,169.72201 L -2.8134691,169.72201"
           id="path43052" />
        <path
           style="opacity:0.88999999;fill:#ffffff;fill-rule:evenodd;stroke:#ffffff;stroke-width:0.98720807px;stroke-linecap:butt;stroke-linejoin:miter;stroke-opacity:1"
           d="M -38.083095,173.52063 L -40.13545,175.07234"
           id="path43054" />
        <path
           style="opacity:0.85;fill:none;fill-rule:evenodd;stroke:#ffffff;stroke-width:1px;stroke-linecap:butt;stroke-linejoin:miter;stroke-opacity:1"
           d="M -40.011862,174.7423 L -40.011862,192.03275"
           id="path43056" />
      </g>
      <path
         sodipodi:nodetypes="ccccc"
         id="path43058"
         d="M -3.1034131,165.37665 L -20.892618,165.26581 L -23.164762,163.21534 L -40.455206,163.21534 L -40.455206,170.53053"
         style="opacity:0.85;fill:none;fill-rule:evenodd;stroke:#ffffff;stroke-width:1px;stroke-linecap:butt;stroke-linejoin:miter;stroke-opacity:1" />
    </g>
    <rect
       style="fill:#ffffff;fill-opacity:1;stroke:#000000;stroke-width:1.2129066;stroke-linejoin:miter;stroke-miterlimit:4;stroke-dasharray:none;stroke-dashoffset:0;stroke-opacity:1"
       id="rect14729"
       width="248.61339"
       height="19.850719"
       x="273.39542"
       y="527.69867"
       ry="0" />
    <text
       xml:space="preserve"
       style="font-size:6px;font-style:normal;font-weight:normal;fill:#000000;fill-opacity:1;stroke:none;stroke-width:1px;stroke-linecap:butt;stroke-linejoin:miter;stroke-opacity:1;font-family:Sans"
       x="302.54489"
       y="535.71094"
       id="text14731"><tspan
         sodipodi:role="line"
         id="tspan14733"
         x="302.54489"
         y="535.71094">Creative Commons Attribution Share-Alike </tspan><tspan
         sodipodi:role="line"
         x="302.54489"
         y="543.21094"
         id="tspan52356">http://creativecommons.org/licenses/LGPL/2.1/</tspan></text>
    <g
       transform="matrix(0.1562476,0,0,0.15625,278.45211,503.67587)"
       id="g35">
      <path
         d="M 40.61133,208.38574 C 40.61133,207.24414 39.68457,206.31933 38.54492,206.31933 L 25.45557,206.31933 C 24.31446,206.31933 23.38916,207.24413 23.38916,208.38574 L 23.38916,221.47558 L 27.04004,221.47558 L 27.04004,236.97558 L 36.95996,236.97558 L 36.95996,221.47558 L 40.61133,221.47558 L 40.61133,208.38574 L 40.61133,208.38574 z "
         id="path37"
         style="fill:#010101" />
      <circle
         cx="32"
         cy="200.11914"
         r="4.47754"
         id="circle39"
         sodipodi:cx="32"
         sodipodi:cy="200.11914"
         sodipodi:rx="4.47754"
         sodipodi:ry="4.47754"
         style="fill:#010101" />
      <path
         clip-rule="evenodd"
         d="M 31.95996,184.30859 C 23.09521,184.30859 15.5918,187.40136 9.45166,193.58789 C 3.14941,199.98828 0,207.56152 0,216.30859 C 0,225.05468 3.14941,232.57617 9.45166,238.86914 C 15.75195,245.16211 23.25537,248.30859 31.95996,248.30859 C 40.77051,248.30859 48.40723,245.13671 54.86914,238.78906 C 60.95605,232.76367 64.00098,225.26953 64.00098,216.30859 C 64.00098,207.34765 60.90332,199.77441 54.70899,193.58789 C 48.51367,187.40137 40.93066,184.30859 31.95996,184.30859 z M 32.04004,190.06738 C 39.30274,190.06738 45.46973,192.62695 50.54395,197.74804 C 55.66993,202.81445 58.23243,209.00097 58.23243,216.30859 C 58.23243,223.66797 55.72364,229.77539 50.70313,234.6289 C 45.41602,239.85546 39.19532,242.46874 32.04004,242.46874 C 24.8833,242.46874 18.71582,239.8828 13.53613,234.70897 C 8.35644,229.53514 5.7666,223.40234 5.7666,216.30859 C 5.7666,209.21484 8.3833,203.02832 13.6167,197.74804 C 18.63672,192.62695 24.77686,190.06738 32.04004,190.06738 z "
         id="path41"
         style="fill:#010101;fill-rule:evenodd" />
    </g>
    <g
       transform="matrix(0.1562488,0,0,0.15625,289.95585,489.27676)"
       id="g14739">
      <path
         clip-rule="evenodd"
         d="M 31.95898,276.46289 C 23.09521,276.46289 15.59179,279.55664 9.45166,285.74219 C 3.14941,292.14258 0,299.7168 0,308.46289 C 0,317.20898 3.14941,324.73047 9.45166,331.02344 C 15.75195,337.31739 23.25537,340.46289 31.95898,340.46289 C 40.77002,340.46289 48.40673,337.29004 54.86865,330.94336 C 60.95556,324.91699 64.00049,317.42285 64.00049,308.46289 C 64.00049,299.50293 60.90283,291.92969 54.7085,285.74219 C 48.51318,279.55664 40.93018,276.46289 31.95898,276.46289 z M 32.03955,282.22168 C 39.30225,282.22168 45.46924,284.78223 50.54346,289.90234 C 55.66944,294.96875 58.23194,301.15527 58.23194,308.46289 C 58.23194,315.82227 55.72315,321.92969 50.70264,326.78418 C 45.41553,332.01074 39.19483,334.62305 32.03955,334.62305 C 24.8833,334.62305 18.71631,332.03614 13.53613,326.86328 C 8.35644,321.68945 5.7666,315.55664 5.7666,308.46289 C 5.7666,301.36914 8.3833,295.18262 13.6167,289.90234 C 18.63672,284.78223 24.77686,282.22168 32.03955,282.22168 z "
         id="path14741"
         style="fill-rule:evenodd" />
      <path
         d="M 17.77539,303.94629 C 19.05225,295.89551 24.71924,291.59082 31.82227,291.59082 C 42.03858,291.59082 48.26416,299.00488 48.26416,308.88867 C 48.26416,318.53418 41.63916,326.02734 31.6626,326.02734 C 24.79883,326.02734 18.65332,321.80273 17.53565,313.51269 L 25.59717,313.51269 C 25.83643,317.81738 28.62988,319.33203 32.62061,319.33203 C 37.16944,319.33203 40.12354,315.10644 40.12354,308.64941 C 40.12354,301.87402 37.56885,298.28711 32.77979,298.28711 C 29.26856,298.28711 26.23584,299.5625 25.59717,303.94629 L 27.94043,303.93359 L 21.59522,310.27832 L 15.25,303.93359 L 17.77539,303.94629 z "
         id="path14743" />
    </g>
    <rect
       style="fill:#ffffff;fill-opacity:1;stroke:#000000;stroke-width:0.75082171;stroke-miterlimit:4;stroke-dasharray:none;stroke-opacity:1"
       id="rect14688"
       width="6.6067443"
       height="6.6067443"
       x="250.36069"
       y="410.45197" />
    <g
       id="g50363"
       transform="translate(521.85137,1051.357)">
      <g
         style="fill:#000000"
         id="g52"
         transform="matrix(0.3124905,0,0,0.3124952,-294.99406,-705.14399)">
        <path
           style="fill:#000000"
           d="M 150.46436,184.30762 C 141.60108,184.30762 134.09717,187.39942 127.95655,193.58692 C 121.65577,199.98731 118.50538,207.55958 118.50538,216.30762 C 118.50538,225.05469 121.65577,232.57422 127.95655,238.86719 C 134.25733,245.16211 141.76124,248.3086 150.46436,248.3086 C 159.27588,248.3086 166.91358,245.13477 173.37647,238.78907 C 179.46241,232.76173 182.50733,225.26759 182.50733,216.30762 C 182.50733,207.34668 179.40967,199.77246 173.21631,193.58692 C 167.021,187.39941 159.43604,184.30762 150.46436,184.30762 z M 150.54443,190.06543 C 157.80908,190.06543 163.97607,192.62598 169.05029,197.74707 C 174.17724,202.81348 176.73974,208.99902 176.73974,216.30762 C 176.73974,223.66797 174.22997,229.77539 169.21044,234.62891 C 163.92333,239.85547 157.70165,242.46875 150.54442,242.46875 C 143.38817,242.46875 137.22215,239.88086 132.04247,234.70703 C 126.86278,229.53515 124.27294,223.40039 124.27294,216.30762 C 124.27294,209.21387 126.88817,203.02637 132.12255,197.74707 C 137.14209,192.62598 143.28271,190.06543 150.54443,190.06543 z "
           export-filename="/Users/bse/Documents/Work/cc/2006/cc/identity/rect50.png"
           export-xdpi="125.5578"
           export-ydpi="125.5578"
           id="path3477" />
        <path
           style="fill:#000000"
           id="path55"
           d="M 163.61279,207.13965 L 156.61181,207.13965 L 156.61181,200.1709 C 156.61181,199.20508 155.82861,198.4209 154.86181,198.4209 L 137.39404,198.4209 C 137.34131,198.41895 137.28857,198.41895 137.23779,198.4209 C 136.33154,198.50293 135.64013,199.2627 135.64404,200.1709 L 135.64404,223.73438 C 135.64404,224.70118 136.42724,225.48438 137.39404,225.48438 L 144.39404,225.48438 L 144.39404,232.45313 C 144.39404,233.41993 145.17724,234.20313 146.14404,234.20313 L 163.61279,234.20313 C 164.57959,234.20313 165.36279,233.41993 165.36279,232.45313 L 165.36279,208.88965 C 165.36279,207.92383 164.57959,207.13965 163.61279,207.13965 z M 139.14404,221.9834 L 139.14404,201.9209 L 153.11279,201.9209 L 153.11279,207.13965 L 146.14404,207.13965 C 146.08154,207.13672 146.01904,207.13672 145.95654,207.13965 C 145.06396,207.23633 144.38818,207.99219 144.39404,208.88965 L 144.39404,221.9834 L 139.14404,221.9834 z M 161.86279,210.63965 L 161.86279,230.70313 L 147.89404,230.70313 L 147.89404,210.63965 L 161.86279,210.63965 z " />
      </g>
      <path
         id="path14690"
         d="M -265.87234,-639.70934 L -268.65024,-635.38814 L -270.50224,-637.54874"
         style="fill:none;fill-rule:evenodd;stroke:#000000;stroke-width:1px;stroke-linecap:butt;stroke-linejoin:miter;stroke-opacity:1" />
      <text
         id="text14709"
         y="-635.34174"
         x="-230.65402"
         style="font-size:8px;font-style:normal;font-weight:normal;fill:#000000;fill-opacity:1;stroke:none;stroke-width:1px;stroke-linecap:butt;stroke-linejoin:miter;stroke-opacity:1;font-family:Sans"
         xml:space="preserve"><tspan
           y="-635.34174"
           x="-230.65402"
           id="tspan14711"
           sodipodi:role="line">Allow Sharing</tspan></text>
    </g>
    <rect
       style="fill:#ffffff;fill-opacity:1;stroke:#000000;stroke-width:0.75082171;stroke-miterlimit:4;stroke-dasharray:none;stroke-opacity:1"
       id="rect14695"
       width="6.6067443"
       height="6.6067443"
       x="250.36069"
       y="434.95197" />
    <g
       id="g50353"
       transform="translate(521.85137,1051.304)">
      <g
         style="fill:#666666"
         id="g13"
         transform="matrix(0.3124976,0,0,0.3125,-257.96225,-700.84696)">
        <path
           style="fill:#666666;fill-rule:evenodd"
           id="path15"
           d="M 31.95898,92.1543 C 23.09521,92.1543 15.59179,95.24707 9.45166,101.4336 C 3.14941,107.83398 0,115.40723 0,124.1543 C 0,132.90039 3.14941,140.4209 9.45166,146.71387 C 15.75195,153.00782 23.25537,156.1543 31.95898,156.1543 C 40.77002,156.1543 48.40673,152.98145 54.86865,146.63477 C 60.95556,140.6084 64.00049,133.11426 64.00049,124.1543 C 64.00049,115.19336 60.90283,107.62012 54.7085,101.4336 C 48.51318,95.24707 40.93018,92.1543 31.95898,92.1543 z M 32.03955,97.91309 C 39.30225,97.91309 45.46924,100.47266 50.54346,105.59375 C 55.66944,110.66016 58.23194,116.84668 58.23194,124.1543 C 58.23194,131.51368 55.72315,137.6211 50.70264,142.47461 C 45.41553,147.70117 39.19483,150.31445 32.03955,150.31445 C 24.8833,150.31445 18.71582,147.72754 13.53613,142.55371 C 8.35644,137.38086 5.7666,131.24707 5.7666,124.1543 C 5.7666,117.06055 8.3833,110.87403 13.6167,105.59375 C 18.63672,100.47266 24.77686,97.91309 32.03955,97.91309 z "
           clip-rule="evenodd" />
        <g
           style="fill:#666666"
           id="g17">
          <path
             style="fill:#666666;fill-rule:evenodd"
             id="path19"
             d="M 21.39941,118.41602 L 25.00146,118.41602 C 27.01367,118.41602 27.85791,119.38477 27.85791,121.14844 C 27.85791,122.51465 27.1377,123.83106 25.12549,123.83106 L 21.39942,123.83106 L 21.39942,118.41602 L 21.39941,118.41602 z M 16.97754,132.82422 L 21.44922,132.82422 L 21.44922,127.11035 L 24.90186,127.11035 C 30.96338,127.11035 32.27979,123.4834 32.27979,121.12402 C 32.27979,117.62109 30.51612,115.13672 25.74659,115.13672 L 16.97755,115.13672 L 16.97755,132.82422 L 16.97754,132.82422 z "
             clip-rule="evenodd" />
          <path
             style="fill:#666666;fill-rule:evenodd"
             id="path21"
             d="M 33.48389,132.82422 L 40.34034,132.82422 C 45.73096,132.82422 49.35694,130.26563 49.35694,123.98047 C 49.35694,117.69531 45.73096,115.13672 40.34034,115.13672 L 33.48389,115.13672 L 33.48389,132.82422 z M 37.90479,118.86328 L 40.41456,118.86328 C 43.74366,118.86328 44.93604,121.12402 44.93604,123.98047 C 44.93604,126.83692 43.74366,129.09766 40.43995,129.09766 L 37.90479,129.09766 L 37.90479,118.86328 z "
             clip-rule="evenodd" />
        </g>
      </g>
      <rect
         y="-665.35211"
         x="-271.49069"
         height="6.6067443"
         width="6.6067443"
         id="rect14699"
         style="fill:#72716f;fill-opacity:1;stroke:#000000;stroke-width:0.75;stroke-miterlimit:4;stroke-dasharray:none;stroke-opacity:1" />
      <text
         id="text14705"
         y="-659.06635"
         x="-230.65402"
         style="font-size:8px;font-style:normal;font-weight:normal;fill:#666666;fill-opacity:1;stroke:none;stroke-width:1px;stroke-linecap:butt;stroke-linejoin:miter;stroke-opacity:1;font-family:Sans"
         xml:space="preserve"><tspan
           y="-659.06635"
           x="-230.65402"
           id="tspan14707"
           sodipodi:role="line">Public Domain</tspan></text>
    </g>
    <g
       id="g50371"
       transform="translate(521.85137,1051.4099)">
      <g
         style="fill:#000000"
         id="g47"
         transform="matrix(0.3124905,0,0,0.3125,-294.99406,-709.44339)">
        <path
           style="fill:#000000"
           d="M 150.46436,276.46289 C 141.60108,276.46289 134.09717,279.55469 127.95655,285.74219 C 121.65577,292.14258 118.50538,299.71485 118.50538,308.46289 C 118.50538,317.20898 121.65577,324.72851 127.95655,331.02148 C 134.25733,337.3164 141.76124,340.46289 150.46436,340.46289 C 159.27588,340.46289 166.91358,337.28906 173.37647,330.94336 C 179.46241,324.91602 182.50733,317.42188 182.50733,308.46289 C 182.50733,299.50195 179.40967,291.92773 173.21631,285.74219 C 167.021,279.55469 159.43604,276.46289 150.46436,276.46289 z M 150.54443,282.2207 C 157.80908,282.2207 163.97607,284.78125 169.05029,289.90234 C 174.17724,294.96875 176.73974,301.15429 176.73974,308.46289 C 176.73974,315.82227 174.22997,321.92969 169.21044,326.7832 C 163.92333,332.00976 157.70165,334.62304 150.54442,334.62304 C 143.38817,334.62304 137.22215,332.03515 132.04247,326.86132 C 126.86278,321.68944 124.27294,315.55468 124.27294,308.46288 C 124.27294,301.36913 126.88817,295.18163 132.12255,289.90233 C 137.14209,284.78125 143.28271,282.2207 150.54443,282.2207 z "
           export-filename="/Users/bse/Documents/Work/cc/2006/cc/identity/rect50.png"
           export-xdpi="125.5578"
           export-ydpi="125.5578"
           id="path3864" />
        <path
           style="fill:#000000"
           id="path50"
           d="M 171.43506,309.0293 L 165.06397,306.38086 L 165.06397,298.44531 L 145.4917,290.29687 L 136.76709,294.1289 L 136.76709,303.20507 L 136.85889,303.24413 L 129.16358,306.44725 L 129.16358,314.67186 L 137.38819,318.19725 L 145.65674,314.77537 L 146.21533,314.99803 L 162.96631,321.90428 L 163.34131,322.06053 L 163.71631,321.90428 L 171.46631,318.59178 L 172.06006,318.34178 L 172.06006,309.27928 L 171.43506,309.0293 z M 162.34131,319.50391 L 162.26319,319.47266 L 162.26319,319.52149 L 147.59131,313.44141 L 147.59131,307.65625 L 162.26319,313.65234 L 162.26319,313.83984 L 162.34131,313.87304 L 162.34131,319.50391 z M 163.32959,312.11328 L 158.67822,310.12109 L 163.68701,307.97461 L 168.46435,309.96094 L 163.32959,312.11328 z M 170.06006,316.99805 L 164.34131,319.46094 L 164.34131,313.85938 L 170.06006,311.45313 L 170.06006,316.99805 z " />
      </g>
      <path
         id="path14697"
         d="M -265.87234,-615.20934 L -268.65024,-610.88814 L -270.50224,-613.04874"
         style="fill:none;fill-rule:evenodd;stroke:#000000;stroke-width:1px;stroke-linecap:butt;stroke-linejoin:miter;stroke-opacity:1" />
      <text
         id="text14713"
         y="-610.84174"
         x="-230.65402"
         style="font-size:8px;font-style:normal;font-weight:normal;fill:#000000;fill-opacity:1;stroke:none;stroke-width:1px;stroke-linecap:butt;stroke-linejoin:miter;stroke-opacity:1;font-family:Sans"
         xml:space="preserve"><tspan
           y="-610.84174"
           x="-230.65402"
           id="tspan14715"
           sodipodi:role="line">Allow Remixing</tspan></text>
    </g>
    <g
       id="g50379"
       transform="translate(521.85137,1055.9024)">
      <path
         id="path43"
         d="M -247.97507,-602.98819 C -245.17172,-602.98819 -242.80173,-602.0217 -240.8657,-600.08841 C -238.93027,-598.15481 -237.96225,-595.78818 -237.96225,-592.98819 C -237.96225,-590.1882 -238.91379,-587.84628 -240.81564,-585.96304 C -242.83531,-583.97971 -245.22178,-582.98819 -247.97507,-582.98819 C -250.69479,-582.98819 -253.03976,-583.97116 -255.00875,-585.93802 C -256.97806,-587.90457 -257.96225,-590.25503 -257.96225,-592.98819 C -257.96225,-595.72135 -256.97806,-598.08829 -255.00875,-600.08841 C -253.08982,-602.0217 -250.74485,-602.98819 -247.97507,-602.98819 z M -255.7125,-595.67435 C -256.01095,-594.83053 -256.16019,-593.93515 -256.16019,-592.98819 C -256.16019,-590.77139 -255.35087,-588.85489 -253.73221,-587.23837 C -252.11326,-585.62155 -250.18638,-584.81314 -247.95005,-584.81314 C -245.71371,-584.81314 -243.76975,-585.62949 -242.11753,-587.26309 C -241.56455,-587.79776 -241.10923,-588.38065 -240.75156,-589.01266 L -244.5211,-590.69144 C -244.77683,-589.42313 -245.9072,-588.56619 -247.27378,-588.46548 L -247.27378,-586.92404 L -248.42155,-586.92404 L -248.42155,-588.46548 C -249.54399,-588.4783 -250.62827,-588.93698 -251.45713,-589.66299 L -250.07956,-591.05185 C -249.41642,-590.42746 -248.75327,-590.147 -247.84751,-590.147 C -247.26096,-590.147 -246.61033,-590.3765 -246.61033,-591.14096 C -246.61033,-591.41196 -246.71531,-591.60025 -246.88071,-591.74185 L -247.83378,-592.16635 L -249.02121,-592.69492 C -249.60837,-592.95645 -250.1058,-593.17801 -250.60507,-593.39987 L -255.7125,-595.67435 z M -247.95005,-601.18857 C -250.21934,-601.18857 -252.13827,-600.3884 -253.70688,-598.78806 C -254.13413,-598.35745 -254.50523,-597.90732 -254.82078,-597.43765 L -250.99815,-595.73569 C -250.65268,-596.79587 -249.64499,-597.43887 -248.42155,-597.51089 L -248.42155,-599.05234 L -247.27378,-599.05234 L -247.27378,-597.51089 C -246.48276,-597.47275 -245.61545,-597.25607 -244.76095,-596.59353 L -246.07443,-595.24313 C -246.55905,-595.58706 -247.17123,-595.82937 -247.78403,-595.82937 C -248.28115,-595.82937 -248.98275,-595.67618 -248.98275,-595.05209 C -248.98275,-594.95688 -248.95103,-594.87296 -248.89303,-594.79819 L -247.61435,-594.22903 L -246.74887,-593.84329 C -246.19528,-593.59701 -245.66671,-593.36172 -245.14303,-593.12857 L -240.01914,-590.84707 C -239.84946,-591.51846 -239.76463,-592.23227 -239.76463,-592.98819 C -239.76463,-595.27182 -240.5654,-597.2051 -242.16758,-598.78805 C -243.75327,-600.3884 -245.68015,-601.18857 -247.95005,-601.18857 z " />
      <rect
         y="-596.29156"
         x="-271.49069"
         height="6.6067443"
         width="6.6067443"
         id="rect14701"
         style="fill:#ffffff;fill-opacity:1;stroke:#000000;stroke-width:0.75;stroke-miterlimit:4;stroke-dasharray:none;stroke-opacity:1" />
      <text
         id="text14717"
         y="-590.0058"
         x="-230.65402"
         style="font-size:8px;font-style:normal;font-weight:normal;fill:#000000;fill-opacity:1;stroke:none;stroke-width:1px;stroke-linecap:butt;stroke-linejoin:miter;stroke-opacity:1;font-family:Sans"
         xml:space="preserve"><tspan
           y="-590.0058"
           x="-230.65402"
           id="tspan14719"
           sodipodi:role="line">Prohibit Commercial Works</tspan></text>
    </g>
    <g
       id="g50385"
       transform="translate(521.85137,1056.0782)">
      <g
         id="g23"
         transform="matrix(0.3124976,0,0,0.3125,-257.96225,-665.00565)">
        <path
           style="fill-rule:evenodd"
           id="path25"
           d="M 31.95898,276.46289 C 23.09521,276.46289 15.59179,279.55664 9.45166,285.74219 C 3.14941,292.14258 0,299.7168 0,308.46289 C 0,317.20898 3.14941,324.73047 9.45166,331.02344 C 15.75195,337.31739 23.25537,340.46289 31.95898,340.46289 C 40.77002,340.46289 48.40673,337.29004 54.86865,330.94336 C 60.95556,324.91699 64.00049,317.42285 64.00049,308.46289 C 64.00049,299.50293 60.90283,291.92969 54.7085,285.74219 C 48.51318,279.55664 40.93018,276.46289 31.95898,276.46289 z M 32.03955,282.22168 C 39.30225,282.22168 45.46924,284.78223 50.54346,289.90234 C 55.66944,294.96875 58.23194,301.15527 58.23194,308.46289 C 58.23194,315.82227 55.72315,321.92969 50.70264,326.78418 C 45.41553,332.01074 39.19483,334.62305 32.03955,334.62305 C 24.8833,334.62305 18.71631,332.03614 13.53613,326.86328 C 8.35644,321.68945 5.7666,315.55664 5.7666,308.46289 C 5.7666,301.36914 8.3833,295.18262 13.6167,289.90234 C 18.63672,284.78223 24.77686,282.22168 32.03955,282.22168 z "
           clip-rule="evenodd" />
        <path
           id="path27"
           d="M 17.77539,303.94629 C 19.05225,295.89551 24.71924,291.59082 31.82227,291.59082 C 42.03858,291.59082 48.26416,299.00488 48.26416,308.88867 C 48.26416,318.53418 41.63916,326.02734 31.6626,326.02734 C 24.79883,326.02734 18.65332,321.80273 17.53565,313.51269 L 25.59717,313.51269 C 25.83643,317.81738 28.62988,319.33203 32.62061,319.33203 C 37.16944,319.33203 40.12354,315.10644 40.12354,308.64941 C 40.12354,301.87402 37.56885,298.28711 32.77979,298.28711 C 29.26856,298.28711 26.23584,299.5625 25.59717,303.94629 L 27.94043,303.93359 L 21.59522,310.27832 L 15.25,303.93359 L 17.77539,303.94629 z " />
      </g>
      <rect
         y="-571.91437"
         x="-271.49069"
         height="6.6067443"
         width="6.6067443"
         id="rect14703"
         style="fill:#ffffff;fill-opacity:1;stroke:#000000;stroke-width:0.75;stroke-miterlimit:4;stroke-dasharray:none;stroke-opacity:1" />
      <text
         id="text14721"
         y="-566.40399"
         x="-230.65402"
         style="font-size:8px;font-style:normal;font-weight:normal;fill:#000000;fill-opacity:1;stroke:none;stroke-width:1px;stroke-linecap:butt;stroke-linejoin:miter;stroke-opacity:1;font-family:Sans"
         xml:space="preserve"><tspan
           y="-566.40399"
           x="-230.65402"
           id="tspan14723"
           sodipodi:role="line">Require Others to Share-Alike</tspan></text>
    </g>
    <g
       id="g50393"
       transform="translate(521.85137,1051.3041)">
      <rect
         y="-542.5874"
         x="-271.49069"
         height="6.6067443"
         width="6.6067443"
         id="rect47411"
         style="fill:#ffffff;fill-opacity:1;stroke:#000000;stroke-width:0.75;stroke-miterlimit:4;stroke-dasharray:none;stroke-opacity:1" />
      <g
         transform="translate(1.9999998,0)"
         id="g50348">
        <path
           style="fill-rule:evenodd"
           id="path47415"
           d="M -249.97515,-549.28402 C -252.74505,-549.28402 -255.08985,-548.31722 -257.00863,-546.38424 C -258.97807,-544.38411 -259.96225,-542.01717 -259.96225,-539.28402 C -259.96225,-536.55086 -258.97807,-534.2004 -257.00863,-532.23384 C -255.0398,-530.26699 -252.695,-529.28402 -249.97515,-529.28402 C -247.22172,-529.28402 -244.83526,-530.27553 -242.81593,-532.25887 C -240.91378,-534.14211 -239.96225,-536.48403 -239.96225,-539.28402 C -239.96225,-542.084 -240.93026,-544.45064 -242.86598,-546.38424 C -244.802,-548.31722 -247.17167,-549.28402 -249.97515,-549.28402 z M -249.94997,-547.48439 C -247.68039,-547.48439 -245.75322,-546.68422 -244.16754,-545.08419 C -242.56568,-543.50094 -241.76491,-541.56765 -241.76491,-539.28402 C -241.76491,-536.98421 -242.5489,-535.07564 -244.1178,-533.55861 C -245.77001,-531.92531 -247.71396,-531.10897 -249.94997,-531.10897 C -252.18628,-531.10897 -254.11345,-531.91738 -255.73224,-533.5339 C -257.35088,-535.15072 -258.1602,-537.06722 -258.1602,-539.28402 C -258.1602,-541.50081 -257.34249,-543.4341 -255.70706,-545.08419 C -254.13832,-546.68422 -252.21954,-547.48439 -249.94997,-547.48439 z "
           clip-rule="evenodd" />
        <text
           xml:space="preserve"
           style="font-size:14px;font-style:normal;font-weight:bold;fill:#000000;fill-opacity:1;stroke:none;stroke-width:1px;stroke-linecap:butt;stroke-linejoin:miter;stroke-opacity:1;font-family:Sans"
           x="-254.05014"
           y="-534.08868"
           id="text47421"><tspan
             sodipodi:role="line"
             id="tspan47423"
             x="-254.05014"
             y="-534.08868">?</tspan></text>
      </g>
      <text
         id="text50334"
         y="-536.30157"
         x="-230.65402"
         style="font-size:8px;font-style:normal;font-weight:normal;fill:#000000;fill-opacity:1;stroke:none;stroke-width:1px;stroke-linecap:butt;stroke-linejoin:miter;stroke-opacity:1;font-family:Sans"
         xml:space="preserve"><tspan
           y="-536.30157"
           x="-230.65402"
           id="tspan50336"
           sodipodi:role="line">Other</tspan></text>
    </g>
    <text
       xml:space="preserve"
       style="font-size:10px;font-style:normal;font-weight:normal;fill:#000000;fill-opacity:1;stroke:none;stroke-width:1px;stroke-linecap:butt;stroke-linejoin:miter;stroke-opacity:1;font-family:Sans"
       x="249.85135"
       y="540.00452"
       id="text52352"><tspan
         sodipodi:role="line"
         id="tspan52354"
         x="249.85135"
         y="540.00452">URI:</tspan></text>
    <g
       id="g52488"
       transform="translate(315.11976,-770.67839)">
      <use
         style="opacity:0.71698112;filter:url(#filter25866)"
         height="474"
         width="599"
         transform="translate(-778.98268,-917.71781)"
         id="use52490"
         xlink:href="#use22725"
         y="0"
         x="0" />
      <use
         style="fill:#ffffff"
         height="474"
         width="599"
         id="use52492"
         xlink:href="#use22725"
         y="0"
         x="0"
         transform="translate(-778.98268,-919.71781)" />
    </g>
    <text
       id="use22725"
       y="252.39363"
       x="289.46942"
       style="font-size:12px;font-style:normal;font-weight:bold;fill-opacity:1;stroke:none;stroke-width:1px;stroke-linecap:butt;stroke-linejoin:miter;stroke-opacity:1;font-family:Sans"
       xml:space="preserve"><tspan
         y="252.39363"
         x="289.46942"
         id="tspan23814"
         sodipodi:role="line">poetry Properties</tspan></text>
    <g
       id="g52496"
       transform="translate(474.25684,1049.1823)">
      <use
         style="opacity:0.71698112;filter:url(#filter25866)"
         height="474"
         width="599"
         transform="translate(-449.98268,-982.71781)"
         id="use52498"
         xlink:href="#use22725"
         y="0"
         x="0" />
      <use
         style="fill:#ffffff"
         height="474"
         width="599"
         id="use52500"
         xlink:href="#use22725"
         y="0"
         x="0"
         transform="translate(-449.98268,-984.71781)" />
    </g>
    <g
       id="g54571"
       transform="translate(50,0)">
      <rect
         y="575.92267"
         x="427.64703"
         height="20.508184"
         width="49.297527"
         id="rect52724"
         style="opacity:1;fill:#e5e1cb;fill-opacity:1;stroke:#000000;stroke-width:0.69486517;stroke-miterlimit:4;stroke-dasharray:none;stroke-opacity:1"
         ry="2.8571429" />
      <g
         id="g54564">
        <path
           style="fill:#000000;fill-opacity:1;stroke:#000000;stroke-width:0.9148711;stroke-miterlimit:4;stroke-dasharray:none;stroke-opacity:1;overflow:visible"
           d="M 442.70911,579.94576 L 442.70911,579.94576 L 442.70911,579.94576 M 442.07467,580.20903 L 439.18059,583.10262 C 439.10939,583.17418 439.01237,583.21427 438.91141,583.21427 L 438.91141,583.21427 C 438.81021,583.21427 438.71344,583.17418 438.64187,583.10262 L 435.74816,580.20884 C 435.39851,579.85919 434.82911,579.859 434.47915,580.20854 L 432.94502,581.74267 C 432.77544,581.91199 432.6823,582.13733 432.6823,582.37717 C 432.6823,582.61702 432.77551,582.84242 432.94502,583.0115 C 432.94502,583.0118 435.83854,585.90576 435.83854,585.90576 C 435.98745,586.05455 435.98745,586.29587 435.83854,586.44478 L 432.94502,589.33843 C 432.77569,589.50807 432.6823,589.7334 432.6823,589.97288 C 432.6823,590.21279 432.77551,590.43837 432.94502,590.60733 L 434.47872,592.14158 C 434.64804,592.31109 434.87338,592.40424 435.11341,592.40424 C 435.35301,592.40424 435.57865,592.31103 435.74816,592.14158 L 438.64181,589.24775 C 438.79072,589.09908 439.0318,589.09908 439.18053,589.24775 L 442.0743,592.14158 C 442.24375,592.31109 442.46945,592.40424 442.70923,592.40424 C 442.94896,592.40424 443.17411,592.31103 443.34356,592.14158 L 444.8772,590.60788 C 445.04683,590.43788 445.14028,590.21279 445.14028,589.97288 C 445.14028,589.73291 445.04677,589.508 444.87732,589.33843 C 444.8772,589.33843 441.98379,586.44478 441.98379,586.44478 C 441.9094,586.37039 441.87226,586.27269 441.87226,586.17506 C 441.87226,586.07779 441.9094,585.98009 441.98379,585.90576 L 444.8772,583.0118 C 445.04468,582.84506 445.14028,582.61382 445.14028,582.37717 C 445.14028,582.13714 445.04677,581.91181 444.8772,581.74248 L 443.34356,580.20891 C 443.17405,580.03921 442.94914,579.94594 442.70905,579.94582 C 442.46951,579.94576 442.24417,580.03915 442.07467,580.20903 z "
           id="path561" />
        <g
           id="g54545"
           transform="translate(-1.3112652,-7.1165237e-3)">
          <text
             id="text53695"
             y="589.91193"
             x="447.49759"
             style="font-size:10px;font-style:normal;font-weight:normal;fill:#000000;fill-opacity:1;stroke:none;stroke-width:1px;stroke-linecap:butt;stroke-linejoin:miter;stroke-opacity:1;font-family:Sans"
             xml:space="preserve"><tspan
               y="589.91193"
               x="447.49759"
               id="tspan53697"
               sodipodi:role="line">Close</tspan></text>
          <path
             id="path1211"
             d="M 441.13467,586.18371 C 441.73063,585.58677 444.56673,582.75091 444.56673,582.75091 C 444.66381,582.6542 444.71816,582.52256 444.71816,582.38583 C 444.71816,582.24903 444.66381,582.1177 444.56673,582.02068 L 443.03291,580.4871 C 442.83173,580.28531 442.50439,580.28531 442.30304,580.4871 C 442.30304,580.4871 439.46681,583.32283 438.87024,583.92002 C 438.27342,583.32283 435.43751,580.4871 435.43751,580.4871 C 435.23572,580.28531 434.909,580.28574 434.70702,580.4871 L 433.17332,582.02061 C 433.07237,582.12157 433.0222,582.25376 433.0222,582.38576 C 433.0222,582.51814 433.07231,582.65002 433.17332,582.75085 C 433.17332,582.75085 436.00924,585.58677 436.60606,586.18365 C 436.00924,586.78047 433.17332,589.61638 433.17332,589.61638 C 433.07237,589.71752 433.0222,589.84934 433.0222,589.98147 C 433.0222,590.11366 433.07231,590.24597 433.17332,590.34668 L 434.70702,591.8805 C 434.80398,591.97722 434.93537,592.032 435.0723,592.032 C 435.20947,592.032 435.34043,591.97722 435.43751,591.8805 C 435.43751,591.8805 438.27342,589.04446 438.87024,588.44777 C 439.46681,589.04446 442.30304,591.8805 442.30304,591.8805 C 442.50439,592.08229 442.83173,592.08229 443.03291,591.8805 L 444.56673,590.34668 C 444.66793,590.24591 444.71816,590.11366 444.71816,589.98147 C 444.71816,589.84934 444.66793,589.71746 444.56673,589.61638 C 444.56673,589.61644 441.73063,586.78053 441.13467,586.18371 z "
             style="fill:url(#linearGradient54580);fill-opacity:1;overflow:visible" />
        </g>
      </g>
    </g>
  </g>
</svg>
